<svg xmlns="http://www.w3.org/2000/svg" xmlns:svg="http://www.w3.org/2000/svg" xmlns:xlink="http://www.w3.org/1999/xlink" id="Capa_1" width="468.013" height="429.541" x="0" y="0" version="1.1" viewBox="0 0 468.013 429.541" xml:space="preserve"><metadata id="metadata300"/><defs id="defs298"><linearGradient id="linearGradient8694" x1="-506.288" x2="490.369" y1="135.105" y2="244.6" gradientUnits="userSpaceOnUse" xlink:href="#linearGradient8692"/><linearGradient id="linearGradient8692"><stop style="stop-color:#0684ff;stop-opacity:1" id="stop943" offset="0"/><stop style="stop-color:#0684ff;stop-opacity:0" id="stop945" offset="1"/></linearGradient><linearGradient id="linearGradient3643" x1="-506.288" x2="490.369" y1="135.105" y2="244.6" gradientUnits="userSpaceOnUse" xlink:href="#linearGradient8692"/><linearGradient id="linearGradient3645" x1="-506.288" x2="490.369" y1="135.105" y2="244.6" gradientUnits="userSpaceOnUse" xlink:href="#linearGradient8692"/><linearGradient id="linearGradient3647" x1="-506.288" x2="490.369" y1="135.105" y2="244.6" gradientUnits="userSpaceOnUse" xlink:href="#linearGradient8692"/><linearGradient id="linearGradient3649" x1="-506.288" x2="490.369" y1="135.105" y2="244.6" gradientUnits="userSpaceOnUse" xlink:href="#linearGradient8692"/><linearGradient id="linearGradient3651" x1="-506.288" x2="490.369" y1="135.105" y2="244.6" gradientUnits="userSpaceOnUse" xlink:href="#linearGradient8692"/><linearGradient id="linearGradient3653" x1="-506.288" x2="490.369" y1="135.105" y2="244.6" gradientUnits="userSpaceOnUse" xlink:href="#linearGradient8692"/><linearGradient id="linearGradient3655" x1="-506.288" x2="490.369" y1="135.105" y2="244.6" gradientUnits="userSpaceOnUse" xlink:href="#linearGradient8692"/></defs><g style="fill:url(#linearGradient8694);fill-opacity:1;stroke:#06f;stroke-width:2.0264;stroke-miterlimit:4;stroke-dasharray:none;stroke-opacity:1" id="g263" transform="matrix(0.73452604,0,0,0.71590575,58.790691,66.841621)"><g style="fill:url(#linearGradient3655);fill-opacity:1;stroke:#06f;stroke-width:2.0264;stroke-miterlimit:4;stroke-dasharray:none;stroke-opacity:1" id="g261"><g style="fill:url(#linearGradient3653);fill-opacity:1;stroke:#06f;stroke-width:2.0264;stroke-miterlimit:4;stroke-dasharray:none;stroke-opacity:1" id="g259"><polygon style="fill:url(#linearGradient3643);fill-opacity:1;stroke:#06f;stroke-width:2.0264;stroke-miterlimit:4;stroke-dasharray:none;stroke-opacity:1" id="polygon249" points="45.4 367.7 136.7 367.7 182.1 288.9 136.7 210 45.4 210 0 288.9"/><polygon style="fill:url(#linearGradient3645);fill-opacity:1;stroke:#06f;stroke-width:2.0264;stroke-miterlimit:4;stroke-dasharray:none;stroke-opacity:1" id="polygon251" points="290 279.2 335.8 200.3 290 121.5 199.2 121.5 153.7 200.3 199.2 279.2"/><polygon style="fill:url(#linearGradient3647);fill-opacity:1;stroke:#06f;stroke-width:2.0264;stroke-miterlimit:4;stroke-dasharray:none;stroke-opacity:1" id="polygon253" points="335.8 377.4 290 298.6 199.2 298.6 153.7 377.4 199.2 456.6 290 456.6"/><polygon style="fill:url(#linearGradient3649);fill-opacity:1;stroke:#06f;stroke-width:2.0264;stroke-miterlimit:4;stroke-dasharray:none;stroke-opacity:1" id="polygon255" points="0 111.8 45.4 190.6 136.7 190.6 182.1 111.8 136.7 32.6 45.4 32.6"/><polygon style="fill:url(#linearGradient3651);fill-opacity:1;stroke:#06f;stroke-width:2.0264;stroke-miterlimit:4;stroke-dasharray:none;stroke-opacity:1" id="polygon257" points="489.2 111.8 443.8 32.6 352.5 32.6 307.1 111.4 352.5 190.6 443.8 190.6"/></g></g></g><g id="g359" transform="matrix(0.21875,0,0,0.21875,307.999,216.99925)" style="fill:#fff"><path style="fill:#fff" id="path355" d="M 379.586,44.138 H 194.207 c -9.751,0 -17.655,-7.904 -17.655,-17.655 v 0 c 0,-9.751 7.904,-17.655 17.655,-17.655 h 185.379 c 9.751,0 17.655,7.904 17.655,17.655 v 0 c 0,9.751 -7.904,17.655 -17.655,17.655 z"/><path style="fill:#fff" id="path357" d="M 70.621,0 C 31.618,0 0,31.618 0,70.621 c 0,39.003 31.618,70.621 70.621,70.621 39.003,0 70.621,-31.618 70.621,-70.621 C 141.242,31.618 109.623,0 70.621,0 Z m 41.551,53.323 -47.082,47.078 c -1.725,1.725 -3.982,2.586 -6.241,2.586 -2.259,0 -4.518,-0.862 -6.241,-2.586 L 29.069,76.862 c -3.448,-3.448 -3.448,-9.035 0,-12.483 3.448,-3.448 9.035,-3.448 12.483,0 L 58.849,81.678 99.69,40.841 c 3.448,-3.448 9.035,-3.448 12.483,0 3.449,3.448 3.447,9.034 -0.001,12.482 z"/></g><g id="g365" transform="matrix(0.21875,0,0,0.21875,307.999,216.99925)"><path style="fill:#afb9d2" id="path361" d="M 467.862,88.276 H 291.31 c -4.875,0 -8.828,-3.953 -8.828,-8.828 0,-4.875 3.953,-8.828 8.828,-8.828 h 176.552 c 4.875,0 8.828,3.953 8.828,8.828 0,4.875 -3.953,8.828 -8.828,8.828 z"/><path style="fill:#afb9d2" id="path363" d="m 256.004,88.276 h -70.625 c -4.875,0 -8.828,-3.953 -8.828,-8.828 0,-4.875 3.953,-8.828 8.828,-8.828 h 70.625 c 4.875,0 8.828,3.953 8.828,8.828 0,4.875 -3.953,8.828 -8.828,8.828 z"/></g><g id="g371" transform="matrix(0.21875,0,0,0.21875,307.999,216.99925)"><path style="fill:#c7cfe2" id="path367" d="m 503.172,123.586 h -52.966 c -4.875,0 -8.828,-3.953 -8.828,-8.828 0,-4.875 3.953,-8.828 8.828,-8.828 h 52.966 c 4.875,0 8.828,3.953 8.828,8.828 0,4.876 -3.953,8.828 -8.828,8.828 z"/><path style="fill:#c7cfe2" id="path369" d="M 414.892,123.586 H 185.379 c -4.875,0 -8.828,-3.953 -8.828,-8.828 0,-4.875 3.953,-8.828 8.828,-8.828 h 229.513 c 4.875,0 8.828,3.953 8.828,8.828 0,4.876 -3.953,8.828 -8.828,8.828 z"/></g><g id="g377" transform="matrix(0.21875,0,0,0.21875,307.999,216.99925)" style="fill:#fff"><path style="fill:#fff" id="path373" d="M 379.586,229.517 H 194.207 c -9.751,0 -17.655,-7.904 -17.655,-17.655 v 0 c 0,-9.751 7.904,-17.655 17.655,-17.655 h 185.379 c 9.751,0 17.655,7.904 17.655,17.655 v 0 c 0,9.751 -7.904,17.655 -17.655,17.655 z"/><path style="fill:#fff" id="path375" d="M 70.621,185.379 C 31.618,185.379 0,216.998 0,256 c 0,39.002 31.618,70.621 70.621,70.621 39.003,0 70.621,-31.618 70.621,-70.621 0,-39.003 -31.619,-70.621 -70.621,-70.621 z m 41.551,53.323 -47.082,47.078 c -1.725,1.725 -3.982,2.586 -6.241,2.586 -2.259,0 -4.518,-0.862 -6.241,-2.586 L 29.069,262.241 c -3.448,-3.448 -3.448,-9.035 0,-12.483 3.448,-3.448 9.035,-3.448 12.483,0 L 58.85,267.056 99.691,226.22 c 3.448,-3.448 9.035,-3.448 12.483,0 3.449,3.447 3.446,9.034 -0.002,12.482 z"/></g><g id="g383" transform="matrix(0.21875,0,0,0.21875,307.999,216.99925)"><path style="fill:#afb9d2" id="path379" d="M 467.862,273.655 H 291.31 c -4.875,0 -8.828,-3.953 -8.828,-8.828 0,-4.875 3.953,-8.827 8.828,-8.827 h 176.552 c 4.875,0 8.828,3.953 8.828,8.828 0,4.875 -3.953,8.827 -8.828,8.827 z"/><path style="fill:#afb9d2" id="path381" d="m 256.004,273.655 h -70.625 c -4.875,0 -8.828,-3.953 -8.828,-8.828 0,-4.875 3.953,-8.828 8.828,-8.828 h 70.625 c 4.875,0 8.828,3.953 8.828,8.828 0,4.875 -3.953,8.828 -8.828,8.828 z"/></g><g id="g389" transform="matrix(0.21875,0,0,0.21875,307.999,216.99925)"><path style="fill:#c7cfe2" id="path385" d="m 503.172,308.966 h -52.966 c -4.875,0 -8.828,-3.953 -8.828,-8.828 0,-4.875 3.953,-8.828 8.828,-8.828 h 52.966 c 4.875,0 8.828,3.953 8.828,8.828 0,4.875 -3.953,8.828 -8.828,8.828 z"/><path style="fill:#c7cfe2" id="path387" d="M 414.892,308.966 H 185.379 c -4.875,0 -8.828,-3.953 -8.828,-8.828 0,-4.875 3.953,-8.828 8.828,-8.828 h 229.513 c 4.875,0 8.828,3.953 8.828,8.828 0,4.875 -3.953,8.828 -8.828,8.828 z"/></g><g id="g395" transform="matrix(0.21875,0,0,0.21875,307.999,216.99925)"><path style="fill:#eff2fa" id="path391" d="M 353.103,414.897 H 194.207 c -9.751,0 -17.655,-7.904 -17.655,-17.655 v 0 c 0,-9.751 7.904,-17.655 17.655,-17.655 h 158.897 c 9.751,0 17.655,7.904 17.655,17.655 v 0 c 0,9.751 -7.904,17.655 -17.656,17.655 z"/><path style="fill:#eff2fa" id="path393" d="M 70.621,370.759 C 31.618,370.759 0,402.377 0,441.379 0,480.381 31.618,512 70.621,512 c 39.003,0 70.621,-31.618 70.621,-70.621 0,-39.003 -31.619,-70.62 -70.621,-70.62 z"/></g><g id="g401" transform="matrix(0.21875,0,0,0.21875,307.999,216.99925)"><path style="fill:#afb9d2" id="path397" d="M 467.862,459.034 H 291.31 c -4.875,0 -8.828,-3.953 -8.828,-8.828 0,-4.875 3.953,-8.828 8.828,-8.828 h 176.552 c 4.875,0 8.828,3.953 8.828,8.828 0,4.876 -3.953,8.828 -8.828,8.828 z"/><path style="fill:#afb9d2" id="path399" d="m 256.004,459.034 h -70.625 c -4.875,0 -8.828,-3.953 -8.828,-8.828 0,-4.875 3.953,-8.828 8.828,-8.828 h 70.625 c 4.875,0 8.828,3.953 8.828,8.828 0,4.876 -3.953,8.828 -8.828,8.828 z"/></g><g id="g407" transform="matrix(0.21875,0,0,0.21875,307.999,216.99925)"><path style="fill:#c7cfe2" id="path403" d="m 503.172,494.345 h -52.966 c -4.875,0 -8.828,-3.953 -8.828,-8.828 0,-4.875 3.953,-8.828 8.828,-8.828 h 52.966 c 4.875,0 8.828,3.953 8.828,8.828 0,4.875 -3.953,8.828 -8.828,8.828 z"/><path style="fill:#c7cfe2" id="path405" d="M 414.892,494.345 H 185.379 c -4.875,0 -8.828,-3.953 -8.828,-8.828 0,-4.875 3.953,-8.828 8.828,-8.828 h 229.513 c 4.875,0 8.828,3.953 8.828,8.828 0,4.875 -3.953,8.828 -8.828,8.828 z"/></g></svg>