<svg xmlns="http://www.w3.org/2000/svg" xmlns:svg="http://www.w3.org/2000/svg" id="svg926" width="780.497" height="658.909" version="1.1" viewBox="0 0 206.507 174.336"><defs id="defs923"><clipPath id="clipPath544" clipPathUnits="userSpaceOnUse"><path id="path542" d="m 322.248,203.106 v -61.279 h 18.928 v 6 h -12.928 v 49.278 h 71.504 v -49.278 h -12.485 v -6 h 18.484 v 61.279 z"/></clipPath><linearGradient id="linearGradient554" x1="0" x2="1" y1="0" y2="0" gradientTransform="matrix(86.670372,0,0,-86.670372,321.00684,172.4668)" gradientUnits="userSpaceOnUse" spreadMethod="pad"><stop style="stop-opacity:1;stop-color:#a85cff" id="stop550" offset="0"/><stop style="stop-opacity:1;stop-color:#4c23ca" id="stop552" offset="1"/></linearGradient><clipPath id="clipPath564" clipPathUnits="userSpaceOnUse"><path id="path562" d="m 349.229,140.892 h 6.373 v 6.371 h -6.373 z"/></clipPath><linearGradient id="linearGradient574" x1="0" x2="1" y1="0" y2="0" gradientTransform="matrix(86.682991,0,0,-86.682991,321.00293,144.07812)" gradientUnits="userSpaceOnUse" spreadMethod="pad"><stop style="stop-opacity:1;stop-color:#a85cff" id="stop570" offset="0"/><stop style="stop-opacity:1;stop-color:#4c23ca" id="stop572" offset="1"/></linearGradient><clipPath id="clipPath584" clipPathUnits="userSpaceOnUse"><path id="path582" d="m 360.814,140.892 h 6.371 v 6.371 h -6.371 z"/></clipPath><linearGradient id="linearGradient594" x1="0" x2="1" y1="0" y2="0" gradientTransform="matrix(86.669807,0,0,-86.669807,321.00684,144.07812)" gradientUnits="userSpaceOnUse" spreadMethod="pad"><stop style="stop-opacity:1;stop-color:#a85cff" id="stop590" offset="0"/><stop style="stop-opacity:1;stop-color:#4c23ca" id="stop592" offset="1"/></linearGradient><clipPath id="clipPath604" clipPathUnits="userSpaceOnUse"><path id="path602" d="m 372.4,140.892 h 6.371 v 6.371 H 372.4 Z"/></clipPath><linearGradient id="linearGradient614" x1="0" x2="1" y1="0" y2="0" gradientTransform="matrix(86.656425,0,0,-86.656425,321.01562,144.07812)" gradientUnits="userSpaceOnUse" spreadMethod="pad"><stop style="stop-opacity:1;stop-color:#a85cff" id="stop610" offset="0"/><stop style="stop-opacity:1;stop-color:#4c23ca" id="stop612" offset="1"/></linearGradient><clipPath id="clipPath624" clipPathUnits="userSpaceOnUse"><path id="path622" d="m 333.668,172.375 12.879,-12.889 4.244,4.243 -8.637,8.642 8.639,8.631 -4.24,4.244 z"/></clipPath><linearGradient id="linearGradient634" x1="0" x2="1" y1="0" y2="0" gradientTransform="matrix(58.662716,0,0,-58.662716,334.3418,172.36621)" gradientUnits="userSpaceOnUse" spreadMethod="pad"><stop style="stop-opacity:1;stop-color:#a85cff" id="stop630" offset="0"/><stop style="stop-opacity:1;stop-color:#4c23ca" id="stop632" offset="1"/></linearGradient><clipPath id="clipPath644" clipPathUnits="userSpaceOnUse"><path id="path642" d="m 375.375,181.002 8.639,-8.631 -8.639,-8.642 4.244,-4.243 12.881,12.889 -12.884,12.871 z"/></clipPath><linearGradient id="linearGradient654" x1="0" x2="1" y1="0" y2="0" gradientTransform="matrix(58.66597,0,0,-58.66597,334.34082,172.36621)" gradientUnits="userSpaceOnUse" spreadMethod="pad"><stop style="stop-opacity:1;stop-color:#a85cff" id="stop650" offset="0"/><stop style="stop-opacity:1;stop-color:#4c23ca" id="stop652" offset="1"/></linearGradient><clipPath id="clipPath664" clipPathUnits="userSpaceOnUse"><path id="path662" d="m 357.465,160.431 5.838,-1.384 5.99,25.25 -5.838,1.385 z"/></clipPath><linearGradient id="linearGradient674" x1="0" x2="1" y1="0" y2="0" gradientTransform="matrix(58.665962,0,0,-58.665962,334.3418,172.36426)" gradientUnits="userSpaceOnUse" spreadMethod="pad"><stop style="stop-opacity:1;stop-color:#a85cff" id="stop670" offset="0"/><stop style="stop-opacity:1;stop-color:#4c23ca" id="stop672" offset="1"/></linearGradient><clipPath id="clipPath604-4" clipPathUnits="userSpaceOnUse"><path id="path602-4" d="m 372.4,140.892 h 6.371 v 6.371 H 372.4 Z"/></clipPath><clipPath id="clipPath604-2" clipPathUnits="userSpaceOnUse"><path id="path602-6" d="m 372.4,140.892 h 6.371 v 6.371 H 372.4 Z"/></clipPath><clipPath id="clipPath604-3" clipPathUnits="userSpaceOnUse"><path id="path602-5" d="m 372.4,140.892 h 6.371 v 6.371 H 372.4 Z"/></clipPath><clipPath id="clipPath604-5" clipPathUnits="userSpaceOnUse"><path id="path602-0" d="m 372.4,140.892 h 6.371 v 6.371 H 372.4 Z"/></clipPath><clipPath id="clipPath604-26" clipPathUnits="userSpaceOnUse"><path id="path602-9" d="m 372.4,140.892 h 6.371 v 6.371 H 372.4 Z"/></clipPath><clipPath id="clipPath604-9" clipPathUnits="userSpaceOnUse"><path id="path602-64" d="m 372.4,140.892 h 6.371 v 6.371 H 372.4 Z"/></clipPath><clipPath id="clipPath604-30" clipPathUnits="userSpaceOnUse"><path id="path602-01" d="m 372.4,140.892 h 6.371 v 6.371 H 372.4 Z"/></clipPath><clipPath id="clipPath604-54" clipPathUnits="userSpaceOnUse"><path id="path602-54" d="m 372.4,140.892 h 6.371 v 6.371 H 372.4 Z"/></clipPath></defs><g id="layer1" transform="translate(-3.7487618,-27.301956)"><g id="g538" transform="matrix(2.1166666,0,0,-2.1166666,-663.61453,486.42624)" style="fill:#ff0800;fill-opacity:1"><g id="g540" clip-path="url(#clipPath544)" style="fill:#ff0800;fill-opacity:1"><g id="g546" style="fill:#ff0800;fill-opacity:1"><g id="g548" style="fill:#ff0800;fill-opacity:1"><path d="m 322.248,203.106 v -61.279 h 18.928 v 6 h -12.928 v 49.278 h 71.504 v -49.278 h -12.485 v -6 h 18.484 v 61.279 z" style="fill:#ff0800;fill-opacity:1;stroke:none" id="path556"/></g></g></g></g><g id="g558" transform="matrix(2.1166666,0,0,-2.1166666,-663.61453,486.42624)" style="fill:#ff0800;fill-opacity:1"><g id="g560" clip-path="url(#clipPath564)" style="fill:#ff0800;fill-opacity:1"><g id="g566" style="fill:#ff0800;fill-opacity:1"><g id="g568" style="fill:#ff0800;fill-opacity:1"><path d="m 349.229,140.892 h 6.373 v 6.371 h -6.373 z" style="fill:#ff0800;fill-opacity:1;stroke:none" id="path576"/></g></g></g></g><g id="g578" transform="matrix(2.1166666,0,0,-2.1166666,-663.61453,486.42624)" style="fill:#ff0800;fill-opacity:1"><g id="g580" clip-path="url(#clipPath584)" style="fill:#ff0800;fill-opacity:1"><g id="g586" style="fill:#ff0800;fill-opacity:1"><g id="g588" style="fill:#ff0800;fill-opacity:1"><path d="m 360.814,140.892 h 6.371 v 6.371 h -6.371 z" style="fill:#ff0800;fill-opacity:1;stroke:none" id="path596"/></g></g></g></g><g id="g598" transform="matrix(2.1166666,0,0,-2.1166666,-663.61453,486.42624)" style="fill:#ff0800;fill-opacity:1"><g id="g600" clip-path="url(#clipPath604)" style="fill:#ff0800;fill-opacity:1"><g id="g606" style="fill:#ff0800;fill-opacity:1"><g id="g608" style="fill:#ff0800;fill-opacity:1"><path d="m 372.4,140.892 h 6.371 v 6.371 H 372.4 Z" style="fill:#ff0800;fill-opacity:1;stroke:none" id="path616"/></g></g></g></g><g id="g618" transform="matrix(2.1166666,0,0,-2.1166666,-663.61453,486.42624)" style="fill:#ff0800;fill-opacity:1"><g id="g620" clip-path="url(#clipPath624)" style="fill:#ff0800;fill-opacity:1"><g id="g626" style="fill:#ff0800;fill-opacity:1"><g id="g628" style="fill:#ff0800;fill-opacity:1"><path d="m 333.668,172.375 12.879,-12.889 4.244,4.243 -8.637,8.642 8.639,8.631 -4.24,4.244 z" style="fill:#ff0800;fill-opacity:1;stroke:none" id="path636"/></g></g></g></g><g id="g638" transform="matrix(2.1166666,0,0,-2.1166666,-663.61453,486.42624)" style="fill:#ff0800;fill-opacity:1"><g id="g640" clip-path="url(#clipPath644)" style="fill:#ff0800;fill-opacity:1"><g id="g646" style="fill:#ff0800;fill-opacity:1"><g id="g648" style="fill:#ff0800;fill-opacity:1"><path d="m 375.375,181.002 8.639,-8.631 -8.639,-8.642 4.244,-4.243 12.881,12.889 -12.884,12.871 z" style="fill:#ff0800;fill-opacity:1;stroke:none" id="path656"/></g></g></g></g><g id="g658" transform="matrix(2.1166666,0,0,-2.1166666,-663.61453,486.42624)" style="fill:#ff0800;fill-opacity:1"><g id="g660" clip-path="url(#clipPath664)" style="fill:#ff0800;fill-opacity:1"><g id="g666" style="fill:#ff0800;fill-opacity:1"><g id="g668" style="fill:#ff0800;fill-opacity:1"><path d="m 357.465,160.431 5.838,-1.384 5.99,25.25 -5.838,1.385 z" style="fill:#ff0800;fill-opacity:1;stroke:none" id="path676"/></g></g></g></g><path id="path3441" fill="#06f" d="M 195.10244,53.994657 H 17.752704 V 48.68444 A 10.211572,10.477316 0 0 1 27.955985,38.222194 H 184.89917 a 10.211572,10.477316 0 0 1 10.20327,10.462246 z" style="fill:red;stroke-width:.348108"/><g id="g3449" fill="#fff" transform="matrix(0.34545238,0,0,0.35078732,17.806261,7.9902954)"><ellipse id="ellipse3443" cx="24.473" cy="108.715" rx="4.201" ry="5.284"/><ellipse id="ellipse3445" cx="40.42" cy="108.715" rx="4.201" ry="5.284"/><ellipse id="ellipse3447" cx="56.368" cy="108.715" rx="4.201" ry="5.284"/></g></g></svg>