<svg xmlns="http://www.w3.org/2000/svg" height="512" viewBox="0 0 64 64" width="512"  xmlns:v="https://vecta.io/nano"><path d="M34 8v6h-4V8" fill="#f9d18b"/><path d="M38 4h-6a4 4 0 0 0-4 4h10zm4 0h11v4H42" fill="#f5b953"/><path d="M38 2h4v8h-4zm15 2h4v8h-4V8M41 18H23a2 2 0 1 1 0-4h18a2 2 0 1 1 0 4z" fill="#4d5d7a"/><path d="M46 15h6v2h-6zm-.322 4.93l.632-1.898 6.002 1.999-.632 1.898zM12 15h6v2h-6zm-.319 5.063l6.002-1.999.632 1.898-6.002 1.999z" fill="#a1cdfb"/><path d="M62 32h-6l-2 4h8zM2 32h6l2 4H2z" fill="#8892a0"/><path d="M55 36l-6.272-10.977C47.659 23.154 45.671 22 43.518 22H20.482a6 6 0 0 0-5.209 3.023L9 36" fill="#f55"/><path d="M51 36l-4.835-8.058A4 4 0 0 0 42.735 26h-21.47a4 4 0 0 0-3.43 1.942L13 36" fill="#c7e2fc"/><path d="M19.5 34c8.238 0 15.268-3.317 18.124-8h-16.36a4 4 0 0 0-3.43 1.942l-3.37 5.617A29.56 29.56 0 0 0 19.5 34z" fill="#ebf7fe"/><path d="M16 56v4a2 2 0 0 1-2 2H6a2 2 0 0 1-2-2v-6m44 2v4a2 2 0 0 0 2 2h8a2 2 0 0 0 2-2v-6" fill="#333"/><path d="M55 36l7 6v8a6 6 0 0 1-6 6H8a6 6 0 0 1-6-6v-8l7-6z" fill="#ff2a2a"/><path d="M2 42h9l7 4-3 2H2m60-6h-9l-7 4 3 2h13" fill="#f9d18b"/><path d="M22 44h20v4H22zm24 12l-4-4H22l-4 4" fill="#8892a0"/><path d="M7 51h2v2H7zm48 0h2v2h-2z" fill="#fff"/></svg>