<?xml version="1.0" encoding="UTF-8" standalone="no"?>
<svg
   xmlns:dc="http://purl.org/dc/elements/1.1/"
   xmlns:cc="http://creativecommons.org/ns#"
   xmlns:rdf="http://www.w3.org/1999/02/22-rdf-syntax-ns#"
   xmlns:svg="http://www.w3.org/2000/svg"
   xmlns="http://www.w3.org/2000/svg"
   xmlns:sodipodi="http://sodipodi.sourceforge.net/DTD/sodipodi-0.dtd"
   xmlns:inkscape="http://www.inkscape.org/namespaces/inkscape"
   id="Layer_3"
   enable-background="new 0 0 64 64"
   height="512"
   viewBox="0 0 64 64"
   width="512"
   version="1.1"
   sodipodi:docname="car-service.svg"
   inkscape:version="1.0.2-2 (e86c870879, 2021-01-15)">
  <metadata
     id="metadata216">
    <rdf:RDF>
      <cc:Work
         rdf:about="">
        <dc:format>image/svg+xml</dc:format>
        <dc:type
           rdf:resource="http://purl.org/dc/dcmitype/StillImage" />
      </cc:Work>
    </rdf:RDF>
  </metadata>
  <defs
     id="defs214" />
  <sodipodi:namedview
     pagecolor="#ffffff"
     bordercolor="#666666"
     borderopacity="1"
     objecttolerance="10"
     gridtolerance="10"
     guidetolerance="10"
     inkscape:pageopacity="0"
     inkscape:pageshadow="2"
     inkscape:window-width="1431"
     inkscape:window-height="1030"
     id="namedview212"
     showgrid="false"
     inkscape:zoom="1.5644531"
     inkscape:cx="256"
     inkscape:cy="256"
     inkscape:window-x="128"
     inkscape:window-y="0"
     inkscape:window-maximized="0"
     inkscape:current-layer="Layer_3" />
  <path
     d="m34 8v6h-4v-6"
     fill="#f9d18b"
     id="path161" />
  <path
     d="m38 4h-6c-2.209 0-4 1.791-4 4h10z"
     fill="#f5b953"
     id="path163" />
  <path
     d="m42 4h11v4h-11"
     fill="#f5b953"
     id="path165" />
  <path
     d="m38 2h4v8h-4z"
     fill="#4d5d7a"
     id="path167" />
  <path
     d="m53 4h4v8h-4v-4"
     fill="#4d5d7a"
     id="path169" />
  <path
     d="m41 18h-18c-1.105 0-2-.895-2-2 0-1.105.895-2 2-2h18c1.105 0 2 .895 2 2 0 1.105-.895 2-2 2z"
     fill="#4d5d7a"
     id="path171" />
  <g
     fill="#a1cdfb"
     id="g181">
    <path
       d="m46 15h6v2h-6z"
       id="path173" />
    <path
       d="m48 16.838h2v6.325h-2z"
       transform="matrix(.316 -.949 .949 .316 14.531 60.161)"
       id="path175" />
    <path
       d="m12 15h6v2h-6z"
       id="path177" />
    <path
       d="m11.838 19h6.325v2h-6.325z"
       transform="matrix(.949 -.316 .316 .949 -5.557 5.773)"
       id="path179" />
  </g>
  <path
     d="m62 32h-6l-2 4h8z"
     fill="#8892a0"
     id="path183" />
  <path
     d="m2 32h6l2 4h-8z"
     fill="#8892a0"
     id="path185" />
  <path
     d="m55 36-6.272-10.977c-1.069-1.869-3.057-3.023-5.21-3.023h-23.036c-2.153 0-4.141 1.154-5.209 3.023l-6.273 10.977"
     fill="#3d98f7"
     id="path187"
     style="fill:#ff5555" />
  <path
     d="m51 36-4.835-8.058c-.723-1.205-2.025-1.942-3.43-1.942h-21.47c-1.405 0-2.707.737-3.43 1.942l-4.835 8.058"
     fill="#c7e2fc"
     id="path189" />
  <path
     d="m19.5 34c8.238 0 15.268-3.317 18.124-8h-16.36c-1.405 0-2.707.737-3.43 1.942l-3.37 5.617c1.61.278 3.292.441 5.036.441z"
     fill="#ebf7fe"
     id="path191" />
  <path
     d="m16 56v4c0 1.105-.895 2-2 2h-8c-1.105 0-2-.895-2-2v-6"
     fill="#8892a0"
     id="path193"
     style="fill:#333333" />
  <path
     d="m48 56v4c0 1.105.895 2 2 2h8c1.105 0 2-.895 2-2v-6"
     fill="#8892a0"
     id="path195"
     style="fill:#333333" />
  <path
     d="m55 36 7 6v8c0 3.314-2.686 6-6 6h-48c-3.314 0-6-2.686-6-6v-8l7-6z"
     fill="#2b74ca"
     id="path197"
     style="fill:#ff2a2a" />
  <path
     d="m2 42h9l7 4-3 2h-13"
     fill="#f9d18b"
     id="path199" />
  <path
     d="m62 42h-9l-7 4 3 2h13"
     fill="#f9d18b"
     id="path201" />
  <path
     d="m22 44h20v4h-20z"
     fill="#8892a0"
     id="path203" />
  <path
     d="m46 56-4-4h-20l-4 4"
     fill="#8892a0"
     id="path205" />
  <path
     d="m7 51h2v2h-2z"
     fill="#fff"
     id="path207" />
  <path
     d="m55 51h2v2h-2z"
     fill="#fff"
     id="path209" />
</svg>
