<svg xmlns="http://www.w3.org/2000/svg" xmlns:v="https://vecta.io/nano" width="512" height="512" viewBox="0 0 64 64"><path fill="#f9d18b" d="M33.326 12.423v4.75h-3.167v-4.75"/><path fill="#f5b953" d="M36.493 9.256h-4.75a3.167 3.167 0 0 0-3.167 3.167h7.917zm3.167 0h8.708v3.167h-8.708"/><path fill="#4d5d7a" d="M36.493 7.673h3.167v6.333h-3.167zm11.875 1.583h3.167v6.333h-3.167v-3.167m-9.5 7.917h-14.25a1.583 1.583 0 1 1 0-3.167h14.25a1.583 1.583 0 1 1 0 3.167z"/><path fill="#a1cdfb" d="M42.826 17.965h4.75v1.583h-4.75zm-.255 3.903l.5-1.503 4.752 1.583-.5 1.503zm-26.662-3.903h4.75v1.583h-4.75zm-.253 4.008l4.752-1.583.5 1.503-4.752 1.583z"/><path fill="#8892a0" d="M55.493 31.423h-4.75l-1.583 3.167h6.333zm-47.5 0h4.75l1.583 3.167H7.993z"/><path fill="#f55" d="M49.951 34.59l-4.965-8.69a4.75 4.75 0 0 0-4.125-2.393H22.624a4.75 4.75 0 0 0-4.124 2.393l-4.966 8.69"/><path fill="#c7e2fc" d="M46.784 34.59l-3.828-6.379a3.167 3.167 0 0 0-2.715-1.537H23.244a3.167 3.167 0 0 0-2.715 1.537l-3.828 6.379"/><path fill="#ebf7fe" d="M21.847 33.006c6.522 0 12.087-2.626 14.348-6.333H23.243a3.167 3.167 0 0 0-2.715 1.537l-2.668 4.447a23.402 23.402 0 0 0 3.987.349z"/><path fill="#333" d="M19.076 50.423v3.167a1.583 1.583 0 0 1-1.583 1.583h-6.333a1.583 1.583 0 0 1-1.583-1.583v-4.75m34.833 1.583v3.167a1.583 1.583 0 0 0 1.583 1.583h6.333a1.583 1.583 0 0 0 1.583-1.583v-4.75"/><path fill="#ff2a2a" d="M49.951 34.59l5.542 4.75v6.333a4.75 4.75 0 0 1-4.75 4.75h-38a4.75 4.75 0 0 1-4.75-4.75V39.34l5.542-4.75z"/><path fill="#f9d18b" d="M7.993 39.34h7.125l5.542 3.167-2.375 1.583H7.993m47.5-4.75h-7.125l-5.542 3.167 2.375 1.583h10.292"/><path fill="#8892a0" d="M23.826 40.923h15.833v3.167H23.826zm19 9.5l-3.167-3.167H23.826l-3.167 3.167"/><path fill="#fff" d="M11.951 46.465h1.583v1.583h-1.583zm38 0h1.583v1.583h-1.583z"/></svg>