<svg xmlns="http://www.w3.org/2000/svg" xmlns:svg="http://www.w3.org/2000/svg" id="Layer_1" width="503.448" height="378.888" x="0" y="0" version="1.1" viewBox="0 0 503.448 378.888" xml:space="preserve"><path style="fill:#06f;stroke-width:2.108;stroke:#0148ff;stroke-opacity:1;stroke-miterlimit:4" id="circle1320" d="M74.29078000000001,187.44905A179.52756,179.52756 0,1,1 433.34590000000003,187.44905A179.52756,179.52756 0,1,1 74.29078000000001,187.44905" class="YrGlsWYv_0"/><path style="fill:#fff;stroke-width:.707509;stroke:#094cf9;stroke-opacity:1;stroke-miterlimit:4" id="path1322" d="m 288.94634,222.29435 c 21.55744,-12.22766 36.04687,-35.41075 36.04687,-61.9158 0,-39.36883 -31.87674,-71.245559 -71.24558,-71.245559 -39.36883,0 -71.17489,31.876729 -71.17489,71.174879 0,26.57573 14.5601,49.68814 36.04686,61.9158 -44.66984,11.37952 -80.92875,43.68033 -97.67993,85.94705 32.86624,36.11756 80.22194,58.80589 132.87864,58.80589 52.65669,0 100.01239,-22.68833 132.87866,-58.80589 -16.75119,-42.26672 -53.0101,-74.56753 -97.75063,-85.87637 z" class="YrGlsWYv_1"/><path style="fill:#324a5e;stroke-width:.908;stroke:#016df7;stroke-opacity:1;stroke-miterlimit:4" id="path1324" d="M 358.14218,136.77139 H 346.97474 C 336.44339,95.140791 298.7002,64.182887 253.81831,64.182887 c -44.88189,0 -82.62508,30.887224 -93.15642,72.588503 h -11.16745 c -3.81673,0 -6.92665,3.10992 -6.92665,6.92665 v 33.85579 c 0,3.81672 3.10992,6.92665 6.92665,6.92665 h 14.13602 c 4.31148,0 7.63345,-3.8874 6.85597,-8.05754 -1.4136,-7.35073 -1.90836,-15.05486 -1.27224,-22.97105 3.39264,-41.91331 37.88456,-75.557058 79.93924,-77.818818 48.91065,-2.685853 89.62241,36.400268 89.62241,84.745478 0,5.51305 -0.56545,10.81406 -1.55497,16.04439 -0.84815,4.24082 2.54449,8.12822 6.7853,8.12822 h 1.27224 c -2.96857,9.18843 -10.53134,26.29302 -27.07049,35.48143 -13.85333,7.70413 -31.3113,8.41094 -51.87922,1.97904 -1.06021,-4.73556 -6.29053,-10.3193 -11.66223,-12.93446 -6.92664,-3.46333 -11.23813,-0.56544 -13.71193,4.38217 -2.47382,4.94761 -2.1204,10.10726 4.73556,13.57059 6.07849,3.03924 15.26691,3.67536 19.08363,0.35339 9.82454,3.03925 19.01296,4.59423 27.56525,4.59423 10.60201,0 20.14384,-2.33246 28.55478,-7.06803 19.43704,-10.81406 27.42389,-30.88721 30.2511,-40.42904 h 6.99732 c 3.81673,0 6.92666,-3.10993 6.92666,-6.92665 v -33.85579 c 0,-3.81673 -3.10993,-6.92665 -6.92666,-6.92665 z" class="YrGlsWYv_2"/><g id="g18021" transform="matrix(0.12780798,0,0,0.12976943,291.82162,273.62442)" style="stroke:#073efc;stroke-opacity:1;stroke-width:7.21357464;stroke-miterlimit:4;stroke-dasharray:none;fill:#06f"><g transform="matrix(0.53103161,0,0,0.50471994,62.401925,69.409144)" style="fill:#06f;fill-opacity:1;stroke:#073efc;stroke-width:13.93365689;stroke-miterlimit:4;stroke-dasharray:none;stroke-opacity:1" id="g263"><g style="fill:#06f;fill-opacity:1;stroke:#073efc;stroke-width:13.93365689;stroke-miterlimit:4;stroke-dasharray:none;stroke-opacity:1" id="g261"><g style="fill:#06f;fill-opacity:1;stroke:#073efc;stroke-width:13.93365689;stroke-miterlimit:4;stroke-dasharray:none;stroke-opacity:1" id="g259"><path style="fill:#06f;fill-opacity:1;stroke:#073efc;stroke-width:13.9337;stroke-miterlimit:4;stroke-opacity:1" id="polygon249" d="M45.4,210L0,288.9L45.4,367.7L136.7,367.7L182.1,288.9L136.7,210Z" class="YrGlsWYv_3"/><path style="fill:#06f;fill-opacity:1;stroke:#073efc;stroke-width:13.9337;stroke-miterlimit:4;stroke-opacity:1" id="polygon251" d="M153.7,200.3L199.2,279.2L290,279.2L335.8,200.3L290,121.5L199.2,121.5Z" class="YrGlsWYv_4"/><path style="fill:#06f;fill-opacity:1;stroke:#073efc;stroke-width:13.9337;stroke-miterlimit:4;stroke-opacity:1" id="polygon253" d="M199.2,456.6L290,456.6L335.8,377.4L290,298.6L199.2,298.6L153.7,377.4Z" class="YrGlsWYv_5"/><path style="fill:#06f;fill-opacity:1;stroke:#073efc;stroke-width:13.9337;stroke-miterlimit:4;stroke-opacity:1" id="polygon255" d="M136.7,32.6L45.4,32.6L0,111.8L45.4,190.6L136.7,190.6L182.1,111.8Z" class="YrGlsWYv_6"/><path style="fill:#06f;fill-opacity:1;stroke:#073efc;stroke-width:13.9337;stroke-miterlimit:4;stroke-opacity:1" id="polygon257" d="M352.5,190.6L443.8,190.6L489.2,111.8L443.8,32.6L352.5,32.6L307.1,111.4Z" class="YrGlsWYv_7"/></g></g></g></g><style data-made-with="vivus-instant">@keyframes YrGlsWYv_fade{0%,94.44444444444444%{stroke-opacity:1}}@keyframes YrGlsWYv_draw_0{11.11111111111111%{stroke-dashoffset:1130}38.88888888888889%{stroke-dashoffset:0}}@keyframes YrGlsWYv_draw_1{13.095238095238097%{stroke-dashoffset:945}40.87301587301588%{stroke-dashoffset:0}}@keyframes YrGlsWYv_draw_2{15.07936507936508%{stroke-dashoffset:1014}42.85714285714286%{stroke-dashoffset:0}}@keyframes YrGlsWYv_draw_3{17.06349206349206%{stroke-dashoffset:548}44.841269841269835%{stroke-dashoffset:0}}@keyframes YrGlsWYv_draw_4{19.04761904761905%{stroke-dashoffset:548}46.82539682539682%{stroke-dashoffset:0}}@keyframes YrGlsWYv_draw_5{21.03174603174603%{stroke-dashoffset:548}48.80952380952381%{stroke-dashoffset:0}}@keyframes YrGlsWYv_draw_6{23.015873015873016%{stroke-dashoffset:549}50.79365079365079%{stroke-dashoffset:0}}@keyframes YrGlsWYv_draw_7{25%{stroke-dashoffset:549}52.77777777777778%{stroke-dashoffset:0}}.YrGlsWYv_0{stroke-dasharray:1129 1131;stroke-dashoffset:1130;animation:YrGlsWYv_draw_0 7200ms linear 0ms infinite,YrGlsWYv_fade 7200ms linear 0ms infinite}.YrGlsWYv_1{stroke-dasharray:944 946;stroke-dashoffset:945;animation:YrGlsWYv_draw_1 7200ms linear 0ms infinite,YrGlsWYv_fade 7200ms linear 0ms infinite}.YrGlsWYv_2{stroke-dasharray:1013 1015;stroke-dashoffset:1014;animation:YrGlsWYv_draw_2 7200ms linear 0ms infinite,YrGlsWYv_fade 7200ms linear 0ms infinite}.YrGlsWYv_3{animation:YrGlsWYv_draw_3 7200ms linear 0ms infinite,YrGlsWYv_fade 7200ms linear 0ms infinite}.YrGlsWYv_3,.YrGlsWYv_4,.YrGlsWYv_5{stroke-dasharray:547 549;stroke-dashoffset:548}.YrGlsWYv_4{animation:YrGlsWYv_draw_4 7200ms linear 0ms infinite,YrGlsWYv_fade 7200ms linear 0ms infinite}.YrGlsWYv_5{animation:YrGlsWYv_draw_5 7200ms linear 0ms infinite,YrGlsWYv_fade 7200ms linear 0ms infinite}.YrGlsWYv_6,.YrGlsWYv_7{stroke-dasharray:548 550;stroke-dashoffset:549;animation:YrGlsWYv_draw_6 7200ms linear 0ms infinite,YrGlsWYv_fade 7200ms linear 0ms infinite}.YrGlsWYv_7{animation:YrGlsWYv_draw_7 7200ms linear 0ms infinite,YrGlsWYv_fade 7200ms linear 0ms infinite}</style></svg>