<svg xmlns="http://www.w3.org/2000/svg" xmlns:svg="http://www.w3.org/2000/svg" id="Layer_1" width="507.763" height="451.696" x="0" y="0" version="1.1" viewBox="0 0 507.763 451.696" xml:space="preserve"><ellipse style="fill:#06f;stroke-width:.632402" id="circle1320" cx="255.64" cy="236.99" rx="160.63" ry="160.63"/><path style="fill:#fff;stroke-width:.632402" id="path1322" d="m 287.07027,268.16758 c 19.28823,-10.94054 32.25246,-31.6833 32.25246,-55.39835 0,-35.22474 -28.52129,-63.74603 -63.74605,-63.74603 -35.22474,0 -63.6828,28.52129 -63.6828,63.68279 0,23.77829 13.02746,44.45781 32.25246,55.39835 -39.96775,10.18167 -72.40994,39.0824 -87.39784,76.89999 29.40664,32.31571 71.77753,52.61579 118.89142,52.61579 47.11389,0 89.48478,-20.30008 118.89144,-52.61579 -14.98791,-37.81759 -47.43009,-66.71832 -87.46109,-76.83675 z"/><path style="fill:#324a5e;stroke-width:.632402" id="path1324" d="m 348.98234,191.64704 h -9.99192 c -9.42279,-37.24843 -43.19301,-64.94761 -83.3505,-64.94761 -40.15748,0 -73.9277,27.63594 -83.35048,64.94761 h -9.99193 c -3.41497,0 -6.19753,2.78256 -6.19753,6.19753 v 30.29202 c 0,3.41496 2.78256,6.19753 6.19753,6.19753 h 12.64802 c 3.85764,0 6.82993,-3.4782 6.13429,-7.20938 -1.2648,-6.57697 -1.70748,-13.47014 -1.13832,-20.55304 3.03552,-37.50139 33.89671,-67.60369 71.52458,-69.62737 43.76217,-2.40313 80.18848,32.56866 80.18848,75.8249 0,4.93273 -0.50593,9.67574 -1.39129,14.35551 -0.75887,3.79442 2.27665,7.27262 6.07106,7.27262 h 1.13832 c -2.65609,8.22122 -9.42278,23.52533 -24.22097,31.74654 -12.39508,6.89317 -28.01537,7.52558 -46.41825,1.77072 -0.94861,-4.23708 -5.62837,-9.23306 -10.43463,-11.57294 -6.19752,-3.09877 -10.05517,-0.50592 -12.26857,3.92089 -2.21341,4.42681 -1.8972,9.04334 4.23708,12.14211 5.43865,2.71932 13.65987,3.28848 17.07483,0.31619 8.79038,2.71933 17.0116,4.11062 24.66365,4.11062 9.48601,0 18.02343,-2.08693 25.54901,-6.32402 17.39104,-9.67574 24.53717,-27.63593 27.06678,-36.17335 h 6.26076 c 3.41497,0 6.19754,-2.78257 6.19754,-6.19753 v -30.29202 c 0,-3.41497 -2.78257,-6.19753 -6.19754,-6.19753 z"/><g style="fill:#0684ff;fill-opacity:1;stroke:#06f;stroke-width:2.0264;stroke-miterlimit:4;stroke-dasharray:none;stroke-opacity:1" id="g263" transform="matrix(0.07104909,0,0,0.07061278,299.75698,319.19648)"><g style="fill:#0684ff;fill-opacity:1;stroke:#06f;stroke-width:2.0264;stroke-miterlimit:4;stroke-dasharray:none;stroke-opacity:1" id="g261"><g style="fill:#0684ff;fill-opacity:1;stroke:#06f;stroke-width:2.0264;stroke-miterlimit:4;stroke-dasharray:none;stroke-opacity:1" id="g259"><polygon style="fill:#0684ff;fill-opacity:1;stroke:#06f;stroke-width:2.0264;stroke-miterlimit:4;stroke-dasharray:none;stroke-opacity:1" id="polygon249" points="45.4 367.7 136.7 367.7 182.1 288.9 136.7 210 45.4 210 0 288.9"/><polygon style="fill:#0684ff;fill-opacity:1;stroke:#06f;stroke-width:2.0264;stroke-miterlimit:4;stroke-dasharray:none;stroke-opacity:1" id="polygon251" points="290 279.2 335.8 200.3 290 121.5 199.2 121.5 153.7 200.3 199.2 279.2"/><polygon style="fill:#0684ff;fill-opacity:1;stroke:#06f;stroke-width:2.0264;stroke-miterlimit:4;stroke-dasharray:none;stroke-opacity:1" id="polygon253" points="335.8 377.4 290 298.6 199.2 298.6 153.7 377.4 199.2 456.6 290 456.6"/><polygon style="fill:#0684ff;fill-opacity:1;stroke:#06f;stroke-width:2.0264;stroke-miterlimit:4;stroke-dasharray:none;stroke-opacity:1" id="polygon255" points="0 111.8 45.4 190.6 136.7 190.6 182.1 111.8 136.7 32.6 45.4 32.6"/><polygon style="fill:#0684ff;fill-opacity:1;stroke:#06f;stroke-width:2.0264;stroke-miterlimit:4;stroke-dasharray:none;stroke-opacity:1" id="polygon257" points="489.2 111.8 443.8 32.6 352.5 32.6 307.1 111.4 352.5 190.6 443.8 190.6"/></g></g></g></svg>