<svg xmlns="http://www.w3.org/2000/svg" height="512" viewBox="0 0 64 64" width="512"  xmlns:v="https://vecta.io/nano"><path d="M43 42h-2s-1 6.179-3 9.179l-6-4-6 4c-2-3-3-9.179-3-9.179h-2a6 6 0 0 0-6 6v3.752L12 44H4.743l.012.033L4.733 44 7 61h25 17v-9.248V48a6 6 0 0 0-6-6z" fill="#ffd5d5"/><path d="m11 17h2v10h-2z" fill="#606060"/><circle cx="12" cy="13" fill="#a8a8a8" r="5"/><path d="M42 3a8 8 0 0 1 8 8v7.704A39.74 39.74 0 0 0 55 38l-3.518-2.559A39.73 39.73 0 0 1 43.723 28L36 5.709C37.465 4.048 39.61 3 42 3z" fill="#ab5a32"/><g fill="#914c2a"><path d="M36 5.709c.53-.6 1.151-1.117 1.837-1.537C43.089 5.09 47 9.866 47 15.365V20v6c0 1.639-.368 3.19-1.012 4.587-.788-.834-1.553-1.689-2.266-2.587z"/><path d="M32 5c7.18 0 13 5.82 13 13v5h-2v-1c-3.76-1.585-6.625-4.871-7.612-8.901C33.634 18.83 28.305 23 22 23h-1-2v-5c0-7.18 5.82-13 13-13z"/></g><path d="M32 11c6.072 0 10.994 4.92 11 10.99-3.76-1.575-6.625-4.861-7.612-8.891C33.634 18.83 28.305 23 22 23h-1c0-2.992.946-5.758 2.545-8.034C25.563 12.544 28.601 11 32 11z" fill="#ab5a32"/><path d="M32.206 37.998A10.94 10.94 0 0 1 27 36.793v2.386 2l5 6 5-6v-2-2.435c-1.437.767-3.06 1.222-4.794 1.254z" fill="#fce0b9"/><path d="M32.206 37.998A10.94 10.94 0 0 1 27 36.793v2.997c1.501.768 3.198 1.21 5 1.21s3.499-.442 5-1.21v-3.046c-1.437.767-3.06 1.222-4.794 1.254zM43.5 23a2.5 2.5 0 1 1 0 5H42v-5zm-23 0H22v5h-1.5a2.5 2.5 0 1 1 0-5z" fill="#fad3ac"/><path d="m32 5c7.18 0 13 5.82 13 13v2c0-7.18-5.82-13-13-13s-13 5.82-13 13v-2c0-7.18 5.82-13 13-13z" fill="#ab5a32"/><g fill="#a8a8a8"><path d="M12 33a2 2 0 0 1 2-2v-4h-2-2v4a2 2 0 0 1 2 2z"/><path d="M12 33a2 2 0 0 1-2 2v7a2 2 0 1 0 4 0v-7a2 2 0 0 1-2-2z"/></g><path d="M12 33a2 2 0 0 0 2 2h1a2 2 0 1 0 0-4h-1a2 2 0 0 0-2 2z" fill="#f55"/><path d="M60.198 44.198a2.74 2.74 0 0 0-2.804-.662l-3.527 1.176c-.562.187-1.17.187-1.733 0l-3.527-1.176c-.652-.217-1.341-.156-1.95.108-.31.135-.606.306-.854.553A2.74 2.74 0 0 0 45 46.135v.62a2.63 2.63 0 0 0 .045.493c.18.966.894 4.488 1.955 5.752 1.679 2 2 8 2 8l3.106-6.211a1 1 0 0 1 1.789 0L57 61s.357-6.107 2-8c1.085-1.25 1.785-4.802 1.958-5.76.029-.159.042-.316.042-.477v-.628a2.74 2.74 0 0 0-.802-1.937z" fill="#fff"/><circle cx="12" cy="13" fill="#71caf0" r="4"/><path d="M10 31H6.427a3 3 0 0 0-2.974 3.396L4.733 44H10v-9a2 2 0 1 0 0-4z" fill="#f55"/><path d="M13.143 11l-2.75 2.688v.839l2.75-2.75zM14 12l-2.75 2.688v.839l2.75-2.75z" fill="#fff"/><path d="M10 37H8a2 2 0 0 1-2-2h4z" fill="#ff8080"/><g fill="#faa"><path d="M27 39.179L23 42s1 6.179 3 9.179l6-4-5-6z"/><path d="m41 42-4-2.821v2l-5 6 6 4c2-3 3-9.179 3-9.179z"/></g><path d="M47.606 43.535L53 46c.442.147.912.174 1.366.09-.123-.023-.246-.05-.366-.09l-5.394-2.465c-.439-.146-.892-.157-1.328-.074.11.021.22.038.328.074zm12.592.663c-.634-.634-1.528-.885-2.394-.738.518.105 1.006.349 1.394.737.513.514.802 1.211.802 1.938v.628c0 .162-.013.318-.042.478-.173.957-.873 4.509-1.958 5.759-.904 1.041-1.413 3.347-1.693 5.219l-2.412-4.825a1 1 0 0 0-1.789 0L49 59.605V61l3.106-6.211a1 1 0 0 1 1.789 0l2.264 4.527L57 61s.357-6.107 2-8c1.085-1.25 1.785-4.802 1.958-5.76.029-.159.042-.316.042-.477v-.628a2.74 2.74 0 0 0-.802-1.937z" fill="#c4c4c4"/><path d="M35.387 13.099c.988 4.03 3.852 7.317 7.612 8.891V22v4.635c0 6.057-4.738 11.252-10.794 11.363C26.037 38.111 21 33.144 21 27v-4h1c6.305 0 11.634-4.17 13.387-9.901z" fill="#fce0b9"/><g fill="#5e4c2d"><ellipse cx="27" cy="26.5" rx="1" ry="1.5"/><ellipse cx="37" cy="26.5" rx="1" ry="1.5"/></g><g fill="#fff"><circle cx="27.5" cy="26.5" r=".5"/><circle cx="37.5" cy="26.5" r=".5"/></g><path d="M32 34a3 3 0 0 0 3-3h-6a3 3 0 0 0 3 3z" fill="#ff9575"/><g fill="#fff"><path d="m34.816 32c.112-.314.184-.647.184-1h-6c0 .353.072.686.184 1z"/><path d="m32.206 37.998c4.892-.09 8.921-3.499 10.29-7.998h-21.07c1.325 4.678 5.657 8.092 10.78 7.998z"/></g><path d="m32.206 35.998c-4.358.08-8.136-2.383-9.985-5.998h-.795c1.325 4.678 5.657 8.092 10.78 7.998 4.892-.09 8.921-3.499 10.29-7.998h-.828c-1.817 3.472-5.328 5.922-9.462 5.998z" fill="#f7f7f7"/><path d="M32 47.179l-6 4c-2-3-3-9.179-3-9.179h-2c.546 2.82 1.971 8.84 4.225 12.223L31 50.374V61h2V50.576l5.819 3.879C41.047 51.112 43 42 43 42h-2s-1 6.179-3 9.179z" fill="#f55"/><path d="M15 56h-2v2h3a1 1 0 0 0 1-1v-5h-2zm28-1h2v6h-2z" fill="#ff8080"/></svg>