<?xml version="1.0" encoding="UTF-8" standalone="no"?>
<svg
   xmlns:dc="http://purl.org/dc/elements/1.1/"
   xmlns:cc="http://creativecommons.org/ns#"
   xmlns:rdf="http://www.w3.org/1999/02/22-rdf-syntax-ns#"
   xmlns:svg="http://www.w3.org/2000/svg"
   xmlns="http://www.w3.org/2000/svg"
   xmlns:sodipodi="http://sodipodi.sourceforge.net/DTD/sodipodi-0.dtd"
   xmlns:inkscape="http://www.inkscape.org/namespaces/inkscape"
   height="472pt"
   viewBox="0 -6 472 472"
   width="472pt"
   version="1.1"
   id="svg135"
   sodipodi:docname="ecommerce-Template-.svg"
   inkscape:version="1.0.2-2 (e86c870879, 2021-01-15)">
  <metadata
     id="metadata141">
    <rdf:RDF>
      <cc:Work
         rdf:about="">
        <dc:format>image/svg+xml</dc:format>
        <dc:type
           rdf:resource="http://purl.org/dc/dcmitype/StillImage" />
      </cc:Work>
    </rdf:RDF>
  </metadata>
  <defs
     id="defs139" />
  <sodipodi:namedview
     pagecolor="#ffffff"
     bordercolor="#666666"
     borderopacity="1"
     objecttolerance="10"
     gridtolerance="10"
     guidetolerance="10"
     inkscape:pageopacity="0"
     inkscape:pageshadow="2"
     inkscape:window-width="1920"
     inkscape:window-height="1001"
     id="namedview137"
     showgrid="false"
     inkscape:zoom="1.2727754"
     inkscape:cx="266.79407"
     inkscape:cy="314.66667"
     inkscape:window-x="-9"
     inkscape:window-y="-9"
     inkscape:window-maximized="1"
     inkscape:current-layer="svg135"
     inkscape:document-rotation="0" />
  <path
     d="m424.960938 124.480469h-336.960938l32 192h320l32-192zm0 0"
     fill="#006df0"
     id="path109"
     style="fill:#d400aa" />
  <path
     d="m442.640625 300.480469-2.640625 16h-320l-32-192h26.640625l27.128906 162.632812c1.285157 7.714844 7.960938 13.367188 15.78125 13.367188zm0 0"
     fill="#005ece"
     id="path111"
     style="fill:#aa0088" />
  <g
     fill="#f1f2f2"
     id="g119">
    <path
       d="m144 164.480469h272v16h-272zm0 0"
       id="path113"
       style="fill:#ffffff" />
    <path
       d="m160 212.480469h240v16h-240zm0 0"
       id="path115"
       style="fill:#ffffff" />
    <path
       d="m176 260.480469h208v16h-208zm0 0"
       id="path117"
       style="fill:#ffffff" />
  </g>
  <path
     d="m240 404.480469h80v16h-80zm0 0"
     fill="#ed1c24"
     id="path121"
     style="fill:#ff2ad4" />
  <path
     d="m91.089844 400.6875c-1.488282-2.347656-1.625-5.308594-.355469-7.785156l37.378906-76.421875-32.226562-193.320313-13.765625-82.625c-1.902344-11.585937-11.929688-20.085937-23.671875-20.054687h-58.449219v16h58.449219c3.910156 0 7.246093 2.828125 7.886719 6.6875l13.777343 82.632812 31.566407 189.429688-35.253907 70.511719c-3.722656 7.441406-3.328125 16.277343 1.046875 23.355468 4.371094 7.074219 12.097656 11.382813 20.414063 11.382813h62.113281v-16h-62.113281c-2.777344.023437-5.359375-1.417969-6.796875-3.792969zm0 0"
     fill="#ed1c24"
     id="path123"
     style="fill:#ff55dd" />
  <path
     d="m300.480469 0-124.480469 124.480469h248.960938zm0 0"
     fill="#ffcd00"
     id="path125"
     style="fill:#ffaaee" />
  <path
     d="m248 412.480469c0 26.507812-21.492188 48-48 48s-48-21.492188-48-48c0-26.511719 21.492188-48 48-48s48 21.488281 48 48zm0 0"
     fill="#00479b"
     id="path127"
     style="fill:#800066" />
  <path
     d="m408 412.480469c0 26.507812-21.492188 48-48 48s-48-21.492188-48-48c0-26.511719 21.492188-48 48-48s48 21.488281 48 48zm0 0"
     fill="#00479b"
     id="path129"
     style="fill:#800066" />
  <path
     d="m216 412.480469c0 8.835937-7.164062 16-16 16s-16-7.164063-16-16c0-8.835938 7.164062-16 16-16s16 7.164062 16 16zm0 0"
     fill="#ed1c24"
     id="path131"
     style="fill:#ff80e5" />
  <path
     d="m376 412.480469c0 8.835937-7.164062 16-16 16s-16-7.164063-16-16c0-8.835938 7.164062-16 16-16s16 7.164062 16 16zm0 0"
     fill="#ed1c24"
     id="path133"
     style="fill:#ff80e5" />
</svg>
