<svg xmlns="http://www.w3.org/2000/svg" xmlns:v="https://vecta.io/nano" width="629.333" height="629.333" viewBox="0 -6 472 472"><path fill="#d400aa" d="M368.282 158.178H138.406l21.831 129.457h218.305l21.831-129.457zm0 0"/><path fill="#a08" d="M380.343 276.847l-1.802 10.788H160.236l-21.83-129.457h18.175l18.507 109.656a10.915 10.788 0 0 0 10.766 9.013zm0 0"/><path fill="#fff" d="M176.609 185.148h185.559v10.788H176.609zm10.915 32.364h163.729V228.3H187.525zm10.915 32.364h141.898v10.788H198.44zm0 0"/><path fill="#ff2ad4" d="M242.101 346.969h54.576v10.788h-54.576zm0 0"/><path fill="#f5d" d="M140.514 344.412a5.355 5.293 0 0 1-.242-5.249l25.5-51.528-21.985-130.347-9.391-55.71c-1.298-7.812-8.139-13.543-16.149-13.522H78.372v10.788h39.874c2.667 0 4.943 1.907 5.381 4.509l9.399 55.716 21.534 127.724-24.05 47.543c-2.54 5.017-2.27 10.975.714 15.747a16.373 16.182 0 0 0 13.927 7.675h42.374V346.97h-42.374c-1.894.015-3.656-.956-4.637-2.557zm0 0"/><path fill="#fae" d="M283.36 74.247l-84.921 83.931h169.842zm0 0"/><path fill="#800066" d="M247.558 352.363c0 17.873-14.662 32.364-32.746 32.364s-32.746-14.491-32.746-32.364 14.662-32.364 32.746-32.364 32.746 14.488 32.746 32.364zm109.153 0c0 17.873-14.662 32.364-32.746 32.364s-32.746-14.491-32.746-32.364 14.662-32.364 32.746-32.364 32.746 14.488 32.746 32.364zm0 0"/><path fill="#ff80e5" d="M225.728 352.363c0 5.958-4.887 10.788-10.915 10.788s-10.915-4.83-10.915-10.788 4.887-10.788 10.915-10.788 10.915 4.83 10.915 10.788zm109.153 0c0 5.958-4.887 10.788-10.915 10.788s-10.915-4.83-10.915-10.788 4.887-10.788 10.915-10.788 10.915 4.83 10.915 10.788zm0 0"/></svg>