<svg xmlns="http://www.w3.org/2000/svg" height="629.333" viewBox="0 -6 472 472" width="629.333"  xmlns:v="https://vecta.io/nano"><path d="M424.961 124.48H88l32 192h320l32-192zm0 0" fill="#d400aa"/><path d="M442.641 300.48l-2.641 16H120l-32-192h26.641l27.129 162.633a16 16 0 0 0 15.781 13.367zm0 0" fill="#a08"/><path d="M144 164.48h272v16H144zm16 48h240v16H160zm16 48h208v16H176zm0 0" fill="#fff"/><path d="M240 404.48h80v16h-80zm0 0" fill="#ff2ad4"/><path d="M91.09 400.688a7.85 7.85 0 0 1-.355-7.785l37.379-76.422-32.227-193.32-13.766-82.625c-1.902-11.586-11.93-20.086-23.672-20.055H0v16h58.449c3.91 0 7.246 2.828 7.887 6.688l13.777 82.633 31.566 189.43-35.254 70.512c-3.723 7.441-3.328 16.277 1.047 23.355a24 24 0 0 0 20.414 11.383H160v-16H97.887c-2.777.023-5.359-1.418-6.797-3.793zm0 0" fill="#f5d"/><path d="M300.48 0L176 124.48h248.961zm0 0" fill="#fae"/><path d="M248 412.48c0 26.508-21.492 48-48 48s-48-21.492-48-48 21.492-48 48-48 48 21.488 48 48zm160 0c0 26.508-21.492 48-48 48s-48-21.492-48-48 21.492-48 48-48 48 21.488 48 48zm0 0" fill="#800066"/><path d="M216 412.48c0 8.836-7.164 16-16 16s-16-7.164-16-16 7.164-16 16-16 16 7.164 16 16zm160 0c0 8.836-7.164 16-16 16s-16-7.164-16-16 7.164-16 16-16 16 7.164 16 16zm0 0" fill="#ff80e5"/></svg>