<svg xmlns="http://www.w3.org/2000/svg" xmlns:xlink="http://www.w3.org/1999/xlink" height="476.222" viewBox="0 0 58 53.947" width="512" xmlns:v="https://vecta.io/nano"><path d="M50 46.447c-1-12 6-15.5 6-15.5a16.91 16.91 0 0 0-10.62 4.16H12.62A16.91 16.91 0 0 0 2 30.947s7 3.5 6 15.5z" fill="#33907c"/><path d="M56 49.947h-2v-2a2 2 0 0 0-2-2H6a2 2 0 0 0-2 2v2H2a2 2 0 0 0-2 2v2h58v-2a2 2 0 0 0-2-2z" fill="#a56a43"/><path d="M2 49.947h54a2 2 0 0 1 2 2v2H0v-2a2 2 0 0 1 2-2z" fill="#805333"/><path d="M23.09 15.777C24.515 9.017 25.933 6.438 28.441 0c2.511 6.441 5.05 9.023 6.479 15.787L29 45.947z" fill="#33907c"/><path d="M19 45.947c4-24-7-40-7-40 5 1.4 8.59 5.15 11.09 9.83 5.26 9.83 5.91 23.75 5.91 28.51v.13 1 .53z" fill="#14a085"/><path d="M22 45.947s1-21-15-27c0 0 7 9 6 27z" fill="#26b99a"/><path d="M39 45.947c-4-24 7-40 7-40-5 1.4-8.6 5.16-11.09 9.84-5.3 9.92-5.88 24-5.92 28.63v1 .53z" fill="#14a085"/><path d="M36 45.947s-1-21 15-27c0 0-7 9-6 27z" fill="#26b99a"/><path d="M35.004 28.692H24.484l.278-4.066c.059-.866.772-1.537 1.631-1.537h6.703c.859 0 1.572.672 1.631 1.537z" fill="#ef4246"/><path d="M56.277 12.107l-2.236-1.999a.85.85 0 0 0-1.206.074.87.87 0 0 0 .073 1.218l2.236 1.999c1.139 1.018 1.411 2.721.649 4.044l-8.159 13.944h-7.347a.86.86 0 0 0 0 1.725h6.338l-6.603 11.284c-.24.41-.105.939.301 1.181.136.081.286.12.434.12a.85.85 0 0 0 .736-.424l15.774-26.958a5.01 5.01 0 0 0-.991-6.208z" fill="#c6c5ca"/><path d="M16.098 36.504h20.875v7.767H16.098z" fill="#ef4246"/><path d="M16.098 41.077h4.678c.574 0 1.04-.47 1.04-1.05v-.716c0-.58.465-1.05 1.04-1.05h14.119v-1.758H16.098z" fill="#d8323a"/><path d="M39.904 27.118H19.73c-3.634 0-6.58 2.975-6.58 6.644v4.691c0 .58.465 1.05 1.04 1.05h5.761c.574 0 1.04-.47 1.04-1.05v-.716c0-.58.465-1.05 1.04-1.05h17.874c.805 0 1.457-.659 1.457-1.472v-6.626c0-.813-.652-1.472-1.457-1.472zM6.559 43.184h40.489v7.71H6.559z" fill="#fc5759"/><path d="M6.559 48.133h40.489v2.762H6.559z" fill="#ef4246"/><g transform="matrix(.112189 0 0 .113281 .48917 2.585599)" fill="gray"><circle cx="55.08" cy="392.42" r="55.08"/><circle cx="414.02" cy="392.42" r="55.08"/></g><g fill="#ef4246"><use xlink:href="#B"/><use xlink:href="#B" x="3.712"/><use xlink:href="#B" x="7.424"/><use xlink:href="#B" x="11.136"/></g><g transform="matrix(.112189 0 0 .113281 .48917 2.585599)" fill="#4d4d4d"><circle cx="55.08" cy="392.42" r="24.448"/><circle cx="415" cy="392.42" r="24.448"/></g><defs ><path id="B" d="M25.837 29.128a.86.86 0 0 0-.854.863v3.75a.86.86 0 0 0 .854.863.86.86 0 0 0 .854-.863v-3.75a.86.86 0 0 0-.854-.863z"/></defs></svg>