<?xml version="1.0" encoding="UTF-8" standalone="no"?>
<svg
   xmlns:dc="http://purl.org/dc/elements/1.1/"
   xmlns:cc="http://creativecommons.org/ns#"
   xmlns:rdf="http://www.w3.org/1999/02/22-rdf-syntax-ns#"
   xmlns:svg="http://www.w3.org/2000/svg"
   xmlns="http://www.w3.org/2000/svg"
   xmlns:sodipodi="http://sodipodi.sourceforge.net/DTD/sodipodi-0.dtd"
   xmlns:inkscape="http://www.inkscape.org/namespaces/inkscape"
   height="476.22168"
   viewBox="0 0 58 53.946987"
   width="512"
   version="1.1"
   id="svg749"
   sodipodi:docname="grass.svg"
   inkscape:version="1.0.2-2 (e86c870879, 2021-01-15)">
  <metadata
     id="metadata755">
    <rdf:RDF>
      <cc:Work
         rdf:about="">
        <dc:format>image/svg+xml</dc:format>
        <dc:type
           rdf:resource="http://purl.org/dc/dcmitype/StillImage" />
      </cc:Work>
    </rdf:RDF>
  </metadata>
  <defs
     id="defs753" />
  <sodipodi:namedview
     pagecolor="#ffffff"
     bordercolor="#666666"
     borderopacity="1"
     objecttolerance="10"
     gridtolerance="10"
     guidetolerance="10"
     inkscape:pageopacity="0"
     inkscape:pageshadow="2"
     inkscape:window-width="1920"
     inkscape:window-height="1001"
     id="namedview751"
     showgrid="false"
     inkscape:zoom="1.6210938"
     inkscape:cx="256"
     inkscape:cy="186.5253"
     inkscape:window-x="-9"
     inkscape:window-y="-9"
     inkscape:window-maximized="1"
     inkscape:current-layer="svg749" />
  <g
     id="Page-1"
     fill="none"
     fill-rule="evenodd"
     transform="translate(0,-4.053012)">
    <g
       id="016---Grass"
       fill-rule="nonzero">
      <path
         id="Shape"
         d="M 50,50.5 C 49,38.5 56,35 56,35 52.085061,35.114942 48.331416,36.585296 45.38,39.16 H 12.62 C 9.6685837,36.585296 5.9149387,35.114942 2,35 c 0,0 7,3.5 6,15.5 z"
         fill="#33907c" />
      <path
         id="path733"
         d="m 56,54 h -2 v -2 c 0,-1.104569 -0.895431,-2 -2,-2 H 6 c -1.1045695,0 -2,0.895431 -2,2 v 2 H 2 c -1.1045695,0 -2,0.895431 -2,2 v 2 h 58 v -2 c 0,-1.104569 -0.895431,-2 -2,-2 z"
         fill="#a56a43" />
      <path
         id="path735"
         d="m 2,54 h 54 c 1.104569,0 2,0.895431 2,2 v 2 H 0 v -2 c 0,-1.104569 0.8954305,-2 2,-2 z"
         fill="#805333" />
      <path
         id="path737"
         d="M 23.09,19.83 C 24.51531,13.069734 25.932881,10.490575 28.440964,4.053012 30.952037,10.49384 33.491011,13.076292 34.92,19.84 L 29,50 Z"
         fill="#33907c"
         sodipodi:nodetypes="ccccc" />
      <path
         id="path739"
         d="m 19,50 c 4,-24 -7,-40 -7,-40 5,1.4 8.59,5.15 11.09,9.83 5.26,9.83 5.91,23.75 5.91,28.51 v 0.13 1 0.53 z"
         fill="#14a085" />
      <path
         id="path741"
         d="m 22,50 c 0,0 1,-21 -15,-27 0,0 7,9 6,27 z"
         fill="#26b99a" />
      <path
         id="path743"
         d="m 39,50 c -4,-24 7,-40 7,-40 -5,1.4 -8.6,5.16 -11.09,9.84 -5.3,9.92 -5.88,24 -5.92,28.63 v 1 0.53 z"
         fill="#14a085" />
      <path
         id="path745"
         d="m 36,50 c 0,0 -1,-21 15,-27 0,0 -7,9 -6,27 z"
         fill="#26b99a" />
    </g>
  </g>
  <path
     style="fill:#ef4246;stroke-width:0.112734"
     d="M 35.004345,28.692056 H 24.483673 l 0.277668,-4.066344 c 0.05913,-0.865695 0.771863,-1.537453 1.631235,-1.537453 h 6.702866 c 0.859371,0 1.572222,0.671758 1.631234,1.537453 z"
     id="path632" />
  <path
     style="fill:#c6c5ca;stroke-width:0.112734"
     d="M 56.277022,12.107454 54.0412,10.108946 c -0.353396,-0.315941 -0.893252,-0.282637 -1.205811,0.07397 -0.312784,0.356722 -0.279913,0.901832 0.07326,1.217547 l 2.235822,1.998621 c 1.139283,1.018172 1.411005,2.721129 0.649127,4.043914 L 47.634847,31.386674 H 40.2879 c -0.471868,0 -0.854209,0.386176 -0.854209,0.862523 0,0.476461 0.382454,0.862524 0.854209,0.862524 h 6.337579 l -6.602682,11.284172 c -0.239973,0.410191 -0.105233,0.939101 0.300892,1.18141 0.136422,0.08145 0.286083,0.120078 0.433837,0.120078 0.29214,0 0.576877,-0.151457 0.736186,-0.423899 L 57.267542,18.31538 c 1.172604,-2.035778 0.756044,-4.646797 -0.99052,-6.207926 z"
     id="path634" />
  <rect
     x="16.098078"
     y="36.504276"
     style="fill:#ef4246;stroke-width:0.112734"
     width="20.87508"
     height="7.7665625"
     id="rect636" />
  <path
     style="fill:#d8323a;stroke-width:0.112734"
     d="m 16.097629,41.077321 h 4.677512 c 0.574185,0 1.039659,-0.470004 1.039659,-1.049777 v -0.716277 c 0,-0.579774 0.465474,-1.049778 1.039659,-1.049778 H 36.973156 V 36.503817 H 16.097629 Z"
     id="path638" />
  <g
     id="g644"
     transform="matrix(0.11218938,0,0,0.11328125,0.48916951,2.5855993)">
    <path
       style="fill:#fc5759"
       d="M 351.328,216.559 H 171.507 c -32.393,0 -58.654,26.26 -58.654,58.654 v 41.411 c 0,5.118 4.149,9.267 9.267,9.267 h 51.354 c 5.118,0 9.267,-4.149 9.267,-9.267 v -6.323 c 0,-5.118 4.149,-9.267 9.267,-9.267 h 159.32 c 7.175,0 12.991,-5.816 12.991,-12.991 V 229.55 c 0,-7.175 -5.816,-12.991 -12.991,-12.991 z"
       id="path640" />
    <rect
       x="54.099998"
       y="358.39001"
       style="fill:#fc5759"
       width="360.89999"
       height="68.059998"
       id="rect642" />
  </g>
  <rect
     x="6.5586143"
     y="48.132595"
     style="fill:#ef4246;stroke-width:0.112734"
     width="40.489147"
     height="2.7624764"
     id="rect646" />
  <g
     id="g652"
     transform="matrix(0.11218938,0,0,0.11328125,0.48916951,2.5855993)">
    <circle
       style="fill:#808080"
       cx="55.080002"
       cy="392.42001"
       r="55.080002"
       id="circle648" />
    <circle
       style="fill:#808080"
       cx="414.01999"
       cy="392.42001"
       r="55.080002"
       id="circle650" />
  </g>
  <g
     id="g662"
     transform="matrix(0.11218938,0,0,0.11328125,0.48916951,2.5855993)">
    <path
       style="fill:#ef4246"
       d="m 225.939,234.303 c -4.206,0 -7.614,3.409 -7.614,7.614 v 33.103 c 0,4.206 3.409,7.614 7.614,7.614 4.205,0 7.614,-3.409 7.614,-7.614 v -33.103 c 0.001,-4.205 -3.408,-7.614 -7.614,-7.614 z"
       id="path654" />
    <path
       style="fill:#ef4246"
       d="m 259.026,234.303 c -4.206,0 -7.614,3.409 -7.614,7.614 v 33.103 c 0,4.206 3.409,7.614 7.614,7.614 4.206,0 7.614,-3.409 7.614,-7.614 v -33.103 c 0.001,-4.205 -3.408,-7.614 -7.614,-7.614 z"
       id="path656" />
    <path
       style="fill:#ef4246"
       d="m 292.113,234.303 c -4.206,0 -7.614,3.409 -7.614,7.614 v 33.103 c 0,4.206 3.409,7.614 7.614,7.614 4.206,0 7.614,-3.409 7.614,-7.614 v -33.103 c 0.001,-4.205 -3.408,-7.614 -7.614,-7.614 z"
       id="path658" />
    <path
       style="fill:#ef4246"
       d="m 325.2,234.303 c -4.206,0 -7.614,3.409 -7.614,7.614 v 33.103 c 0,4.206 3.409,7.614 7.614,7.614 4.206,0 7.614,-3.409 7.614,-7.614 v -33.103 c 10e-4,-4.205 -3.408,-7.614 -7.614,-7.614 z"
       id="path660" />
  </g>
  <g
     id="g668"
     transform="matrix(0.11218938,0,0,0.11328125,0.48916951,2.5855993)">
    <circle
       style="fill:#4d4d4d"
       cx="55.080002"
       cy="392.42001"
       r="24.448"
       id="circle664" />
    <circle
       style="fill:#4d4d4d"
       cx="415"
       cy="392.42001"
       r="24.448"
       id="circle666" />
  </g>
</svg>
