<svg xmlns="http://www.w3.org/2000/svg" xmlns:svgjs="http://svgjs.com/svgjs" xmlns:xlink="http://www.w3.org/1999/xlink" width="1440" height="560" preserveAspectRatio="none" version="1.1" viewBox="0 0 1440 560"><g fill="none" mask="url(&quot;#SvgjsMask1003&quot;)"><rect width="1440" height="560" x="0" y="0" fill="rgba(0, 0, 0, 1)"/><path stroke="rgba(4, 45, 85, 1)" stroke-width="2" d="M60.9 484.26L104.21 509.26L104.21 559.26L60.9 584.26L17.6 559.26L17.6 509.26zM147.51 184.26L190.81 209.26L190.81 259.26L147.51 284.26L104.21 259.26L104.21 209.26zM104.21 259.26L147.51 284.26L147.51 334.26L104.21 359.26L60.9 334.26L60.9 284.26zM147.51 484.26L190.81 509.26L190.81 559.26L147.51 584.26L104.21 559.26L104.21 509.26zM190.81 259.26L234.11 284.26L234.11 334.26L190.81 359.26L147.51 334.26L147.51 284.26zM277.42 -40.74L320.72 -15.74L320.72 34.26L277.42 59.26L234.11 34.26L234.11 -15.74zM320.72 484.26L364.02 509.26L364.02 559.26L320.72 584.26L277.42 559.26L277.42 509.26zM407.32 34.26L450.63 59.26L450.63 109.26L407.32 134.26L364.02 109.26L364.02 59.26zM364.02 409.26L407.32 434.26L407.32 484.26L364.02 509.26L320.72 484.26L320.72 434.26zM450.63 -40.74L493.93 -15.74L493.93 34.26L450.63 59.26L407.32 34.26L407.32 -15.74zM493.93 334.26L537.23 359.26L537.23 409.26L493.93 434.26L450.63 409.26L450.63 359.26zM580.53 34.26L623.84 59.26L623.84 109.26L580.53 134.26L537.23 109.26L537.23 59.26zM537.23 109.26L580.53 134.26L580.53 184.26L537.23 209.26L493.93 184.26L493.93 134.26zM580.53 184.26L623.84 209.26L623.84 259.26L580.53 284.26L537.23 259.26L537.23 209.26zM623.84 -40.74L667.14 -15.74L667.14 34.26L623.84 59.26L580.53 34.26L580.53 -15.74zM667.14 184.26L710.44 209.26L710.44 259.26L667.14 284.26L623.84 259.26L623.84 209.26zM623.84 259.26L667.14 284.26L667.14 334.26L623.84 359.26L580.53 334.26L580.53 284.26zM710.44 109.26L753.74 134.26L753.74 184.26L710.44 209.26L667.14 184.26L667.14 134.26zM710.44 409.26L753.74 434.26L753.74 484.26L710.44 509.26L667.14 484.26L667.14 434.26zM840.35 34.26L883.65 59.26L883.65 109.26L840.35 134.26L797.05 109.26L797.05 59.26zM840.35 184.26L883.65 209.26L883.65 259.26L840.35 284.26L797.05 259.26L797.05 209.26zM883.65 -40.74L926.95 -15.74L926.95 34.26L883.65 59.26L840.35 34.26L840.35 -15.74zM926.95 184.26L970.26 209.26L970.26 259.26L926.95 284.26L883.65 259.26L883.65 209.26zM1013.56 334.26L1056.86 359.26L1056.86 409.26L1013.56 434.26L970.26 409.26L970.26 359.26zM1056.86 259.26L1100.16 284.26L1100.16 334.26L1056.86 359.26L1013.56 334.26L1013.56 284.26zM1100.16 334.26L1143.46 359.26L1143.46 409.26L1100.16 434.26L1056.86 409.26L1056.86 359.26zM1186.77 34.26L1230.07 59.26L1230.07 109.26L1186.77 134.26L1143.46 109.26L1143.46 59.26zM1143.46 109.26L1186.77 134.26L1186.77 184.26L1143.46 209.26L1100.16 184.26L1100.16 134.26zM1186.77 334.26L1230.07 359.26L1230.07 409.26L1186.77 434.26L1143.46 409.26L1143.46 359.26zM1230.07 109.26L1273.37 134.26L1273.37 184.26L1230.07 209.26L1186.77 184.26L1186.77 134.26zM1359.98 334.26L1403.28 359.26L1403.28 409.26L1359.98 434.26L1316.67 409.26L1316.67 359.26zM1446.58 34.26L1489.88 59.26L1489.88 109.26L1446.58 134.26L1403.28 109.26L1403.28 59.26zM1403.28 109.26L1446.58 134.26L1446.58 184.26L1403.28 209.26L1359.98 184.26L1359.98 134.26zM1446.58 334.26L1489.88 359.26L1489.88 409.26L1446.58 434.26L1403.28 409.26L1403.28 359.26zM1446.58 484.26L1489.88 509.26L1489.88 559.26L1446.58 584.26L1403.28 559.26L1403.28 509.26z"/></g><defs><mask id="SvgjsMask1003"><rect width="1440" height="560" fill="#fff"/></mask></defs></svg>