<svg xmlns="http://www.w3.org/2000/svg" xmlns:svg="http://www.w3.org/2000/svg" id="b0be4804-10ca-4842-b31b-b943f29dadcb" width="731.413" height="522.402" data-name="Layer 1" version="1.1" viewBox="0 0 731.413 522.402"><metadata id="metadata1804"/><rect style="stroke-width:1.51883" id="rect1769" width="636" height="3.163" x="47" y="385.482" fill="#e6e6e6"/><rect style="stroke-width:1.51883" id="rect1771" width="636" height="3.163" x="47" y="262.128" fill="#e6e6e6"/><rect style="stroke-width:1.51883" id="rect1773" width="636" height="3.163" x="47" y="138.773" fill="#e6e6e6"/><rect style="stroke-width:1.51883" id="rect1775" width="2.917" height="493.419" x="554.341" y="17" fill="#e6e6e6"/><rect style="stroke-width:1.51883" id="rect1777" width="2.917" height="493.419" x="427.141" y="17" fill="#e6e6e6"/><rect style="stroke-width:1.51883" id="rect1779" width="2.917" height="493.419" x="299.941" y="17" fill="#e6e6e6"/><rect style="stroke-width:1.51883" id="rect1781" width="2.917" height="493.419" x="172.741" y="17" fill="#e6e6e6"/><rect style="fill:#2a7fff;stroke-width:1.51883" id="rect1783" width="255.275" height="123.355" x="173.908" y="140.355" fill="#00b0ff"/><path style="stroke-width:1.51883" id="path1785" fill="#00b0ff" d="M 302.16038,254.32011"/><polygon style="fill:#2a7fff" id="polygon1787" fill="#00b0ff" points="178 153 87 150 87 234" transform="matrix(1.4587156,0,0,1.5814696,47,17)"/><path style="fill:#2a7fff;stroke-width:1.51883" id="path1789" fill="#00b0ff" d="m 429.18348,258.96488 v 4.74442 l -1.66314,1.59728 -3.35474,3.22619 c -65.24836,2.13499 -117.95157,52.80527 -120.3298,115.63706 l -2.99008,2.87828 -0.0292,0.0158 V 254.22049 Z"/><path style="stroke-width:1.51883" id="path1791" fill="#e6e6e6" d="m 428.45412,265.29076 c -0.30632,0 -0.6275,0 -0.93378,0.0158 -69.40509,0.47444 -125.81422,54.75047 -126.67462,121.74153 -0.0292,0.5377 -0.0292,1.05958 -0.0292,1.59728 0,68.019 57.25459,123.35462 127.63762,123.35462 70.38302,0 127.63761,-55.33562 127.63761,-123.35462 0,-68.01902 -57.25461,-123.35464 -127.63765,-123.35464 z m 0,243.54631 c -68.76404,0 -124.72018,-53.9123 -124.72018,-120.19168 0,-1.5024 0.0292,-2.98899 0.10181,-4.47556 2.37825,-62.83179 55.08148,-113.50207 120.3298,-115.63706 1.41527,-0.0633 2.84406,-0.0791 4.28854,-0.0791 68.76404,0 124.72018,53.91231 124.72018,120.1917 0,66.27937 -55.95614,120.19168 -124.72018,120.19168 z"/><path style="stroke-width:1.51883" id="path1793" fill="#e6e6e6" d="m 358.43578,387.08935 -7.29358,-0.0439 c 0.002,-0.70347 1.17136,-70.3445 75.78199,-75.17463 l 0.43447,7.89345 c -67.66698,4.38066 -68.90348,64.7576 -68.92288,67.32516 z"/><path style="stroke-width:1.51883" id="path1795" fill="#e6e6e6" d="m 502.09006,385.48246 a 62.048,67.269466 0 0 0 -20.39284,-47.61805 77.948918,84.508482 0 0 0 -53.09711,-22.06152 h -0.14601 c -40.07053,0 -72.77552,31.10753 -73.63596,69.67957 -0.0292,0.52187 -0.0292,1.05956 -0.0292,1.58145 0,20.17955 8.70884,38.4139 22.68274,51.38195 a 78.250246,84.835166 0 0 0 50.9824,19.87906 h 0.146 c 40.55202,-0.0791 73.51914,-32.00893 73.51914,-71.26101 2e-5,-0.52189 2e-5,-1.05958 -0.0292,-1.58145 z"/><path style="fill:#0aabff;fill-opacity:1;stroke-width:1.51883" id="path1797" fill="#00b0ff" d="m 481.69724,337.86441 -2.18806,2.10335 -99.84938,96.37475 -2.18808,2.10335 C 363.49783,425.47781 354.789,407.24346 354.789,387.06391 c 0,-0.52189 0,-1.05958 0.0292,-1.58145 0.86041,-38.57204 33.56541,-69.67957 73.63596,-69.67957 h 0.146 a 77.948918,84.508482 0 0 1 53.09712,22.06152 z"/></svg>