<svg xmlns="http://www.w3.org/2000/svg" xmlns:svg="http://www.w3.org/2000/svg" id="Capa_1" x="0" y="0" version="1.1" viewBox="0 0 489.2 489.2" xml:space="preserve" style="enable-background:new 0 0 489.2 489.2"><metadata id="metadata300"/><g id="g263" transform="matrix(0.79558463,0,0,0.76415094,55.57703,54.715397)" style="fill:#06f"><g id="g261" style="fill:#06f"><g id="g259" style="fill:#06f"><polygon id="polygon249" points="0 288.9 45.4 367.7 136.7 367.7 182.1 288.9 136.7 210 45.4 210" style="fill:#06f"/><polygon id="polygon251" points="199.2 279.2 290 279.2 335.8 200.3 290 121.5 199.2 121.5 153.7 200.3" style="fill:#06f"/><polygon id="polygon253" points="290 456.6 335.8 377.4 290 298.6 199.2 298.6 153.7 377.4 199.2 456.6" style="fill:#06f"/><polygon id="polygon255" points="45.4 32.6 0 111.8 45.4 190.6 136.7 190.6 182.1 111.8 136.7 32.6" style="fill:#06f"/><polygon id="polygon257" points="443.8 190.6 489.2 111.8 443.8 32.6 352.5 32.6 307.1 111.4 352.5 190.6" style="fill:#06f"/></g></g></g></svg>