<svg xmlns="http://www.w3.org/2000/svg" xmlns:svg="http://www.w3.org/2000/svg" xmlns:xlink="http://www.w3.org/1999/xlink" id="b6844486-882e-488a-b917-920917943dff" width="762" height="689.787" data-name="Layer 1" version="1.1" viewBox="0 0 762 689.787"><metadata id="metadata6863"/><defs id="defs6861"><linearGradient id="5a176c23-bf11-4e32-afb4-461b4082aabc-5" x1="687.77" x2="687.77" y1="477.59" y2="422.25" gradientTransform="matrix(0.52041505,0,0,0.44301252,-873.14614,28.627392)" xlink:href="#347a516f-b616-42cd-bca2-6cfbf586638c"/><linearGradient id="347a516f-b616-42cd-bca2-6cfbf586638c" x1="572.9" x2="572.9" y1="755.08" y2="525.34" gradientUnits="userSpaceOnUse"><stop id="stop9441" offset="0" stop-color="gray" stop-opacity=".25"/><stop id="stop9443" offset=".54" stop-color="gray" stop-opacity=".12"/><stop id="stop9445" offset="1" stop-color="gray" stop-opacity=".1"/></linearGradient><linearGradient id="linear-gradient" x1="488" x2="451.71" y1="269.1" y2="362.84" gradientUnits="userSpaceOnUse"><stop id="stop5545" offset="0" stop-color="#010101" stop-opacity="0"/><stop id="stop5547" offset=".95" stop-color="#010101"/></linearGradient><linearGradient id="linear-gradient-2" x1="475.54" x2="566.26" y1="295.98" y2="121.93" gradientUnits="userSpaceOnUse"><stop id="stop5550" offset="0" stop-color="#fff" stop-opacity="0"/><stop id="stop5552" offset=".95" stop-color="#fff"/></linearGradient><linearGradient id="linear-gradient-3" x1="485.73" x2="502.36" y1="265.76" y2="169.38" gradientTransform="matrix(0.83769662,0,0,0.73108882,103.56451,165.75335)" xlink:href="#linear-gradient-2"/><linearGradient id="linear-gradient-4" x1="492.98" x2="505.45" y1="225.57" y2="200.34" gradientTransform="matrix(0.83769662,0,0,0.73108882,104.9132,163.8379)" xlink:href="#linear-gradient"/><linearGradient id="linear-gradient-5" x1="482.56" x2="522.88" y1="175.24" y2="175.24" gradientTransform="matrix(0.83769662,0,0,0.73108882,103.56451,165.75335)" xlink:href="#linear-gradient-2"/><linearGradient id="linear-gradient-6" x1="464.79" x2="485.73" y1="205.77" y2="205.77" gradientTransform="matrix(0.83769662,0,0,0.73108882,103.56451,165.75335)" xlink:href="#linear-gradient"/><linearGradient id="linear-gradient-7" x1="447.78" x2="468.73" y1="205.13" y2="205.13" gradientTransform="matrix(-0.81256572,-0.17546132,-0.20104719,0.70915616,955.61085,255.07047)" xlink:href="#linear-gradient"/><linearGradient id="linear-gradient-8" x1="521.62" x2="281.23" y1="265.18" y2="322.26" gradientTransform="matrix(0.83769662,0,0,0.73108882,103.56451,165.75335)" xlink:href="#linear-gradient-2"/><linearGradient id="linear-gradient-9" x1="498.55" x2="510.21" y1="123.11" y2="123.11" gradientTransform="matrix(0.83769662,0,0,0.73108882,106.67094,188.59483)" xlink:href="#linear-gradient"/></defs><path style="fill:#ccc;stroke-width:1.94032" id="path6730" fill="#f2f2f2" d="M 646.69621,575.36056 H 101.32995 A 35.350727,29.060946 0 0 1 66.019184,546.33246 V 194.20613 A 25.898526,21.290529 0 0 1 91.887823,172.93926 H 655.69066 a 26.346352,21.658675 0 0 1 26.31633,21.63449 v 351.75871 a 35.350706,29.060928 0 0 1 -35.31078,29.0281 z"/><path style="stroke-width:2.08412" id="path6732" fill="#fff" d="M 117.23267,558.69508 H 631.7318 a 36.941495,30.100893 0 0 0 36.94152,-30.10089 V 239.72368 A 36.941495,30.100893 0 0 0 631.7318,209.62278 H 117.23267 a 36.941495,30.100893 0 0 0 -36.941503,30.1009 v 288.87051 a 36.941495,30.100893 0 0 0 36.941503,30.10089 z"/><path style="fill:#06f;stroke-width:2.00415" id="path6734" fill="#ccc" d="M 681.64947,194.23543 H 66.271563 V 178.45329 A 35.43328,31.137736 0 0 1 101.67543,147.36056 H 646.2455 a 35.433129,31.137605 0 0 1 35.40397,31.09273 z"/><circle style="stroke-width:1.75822" id="circle6736" cx="182.206" cy="183.795" fill="#fff" rx="7.257" ry="7.815"/><circle style="stroke-width:1.75822" id="circle6738" cx="209.753" cy="183.795" fill="#fff" rx="7.257" ry="7.815"/><circle style="stroke-width:1.75822" id="circle6740" cx="237.3" cy="183.795" fill="#fff" rx="7.257" ry="7.815"/><ellipse id="circle6736-9-3" cx="95.792" cy="170.851" fill="#fff" rx="5.036" ry="5.508" style="stroke-width:1.22959"/><ellipse id="circle6738-1-7" cx="114.907" cy="170.851" fill="#fff" rx="5.036" ry="5.508" style="stroke-width:1.22959"/><ellipse id="circle6740-7-8" cx="134.023" cy="170.851" fill="#fff" rx="5.036" ry="5.508" style="stroke-width:1.22959"/><path id="path7671" fill="#ccc" d="m 334.73795,526.58462 h -55.42824 a 12.259712,12.370821 0 0 1 -12.24579,-12.35676 v -55.9306 a 12.259712,12.370821 0 0 1 12.24579,-12.35676 h 55.42824 a 12.259712,12.370821 0 0 1 12.24579,12.35676 v 55.9306 a 12.259712,12.370821 0 0 1 -12.24579,12.35676 z m -55.42824,-78.0427 a 9.6784818,9.7661993 0 0 0 -9.66773,9.75534 v 55.9306 a 9.6784955,9.7662105 0 0 0 9.66773,9.75534 h 55.42824 a 9.6784955,9.7662105 0 0 0 9.66772,-9.75534 v -55.9306 a 9.6784818,9.7661993 0 0 0 -9.66772,-9.75534 z" style="fill:#333;stroke-width:1.29487"/><path id="path7673" fill="#ccc" d="m 323.7812,510.97608 h -33.51474 a 3.8713155,3.9064014 0 0 1 -3.8671,-3.90214 v -41.62277 a 3.8713155,3.9064014 0 0 1 3.8671,-3.90213 h 24.28445 a 3.8764975,3.9116304 0 0 1 2.42261,0.86058 l 9.22966,7.48416 a 3.8469786,3.8818439 0 0 1 1.44512,3.04156 v 34.1386 a 3.8713155,3.9064014 0 0 1 -3.8671,3.90214 z m -33.51474,-46.82562 a 1.2907049,1.3024027 0 0 0 -1.28905,1.30071 v 41.62277 a 1.2907049,1.3024027 0 0 0 1.28905,1.30073 h 33.51474 a 1.2907049,1.3024027 0 0 0 1.28905,-1.30073 v -34.1386 a 1.2820297,1.2936488 0 0 0 -0.48151,-1.01364 l -9.2309,-7.4848 a 1.2916846,1.3033912 0 0 0 -0.80694,-0.28644 z" style="fill:#b3b3b3;stroke-width:1.29487"/><path style="stroke-width:1.29487" id="path7675" fill="#ccc" d="M 317.33607,479.75899 H 296.7116 a 1.2890291,1.3007118 0 0 1 0,-2.60142 h 20.62447 a 1.2890291,1.3007118 0 0 1 0,2.60142 z"/><path style="stroke-width:1.29487" id="path7677" fill="#ccc" d="M 317.33607,487.56327 H 296.7116 a 1.2890361,1.3007187 0 0 1 0,-2.60142 h 20.62447 a 1.2890361,1.3007187 0 0 1 0,2.60142 z"/><path style="stroke-width:1.29487" id="path7679" fill="#ccc" d="M 317.33607,495.36754 H 296.7116 a 1.2890305,1.3007132 0 0 1 0,-2.60142 h 20.62447 a 1.2890305,1.3007132 0 0 1 0,2.60142 z"/><path style="fill:#999;stroke-width:1.29487" id="path7681" fill="#ccc" d="m 466.21894,501.87943 h -55.42825 a 12.259712,12.370821 0 0 1 -12.24578,-12.35678 v -55.9306 a 12.259712,12.370821 0 0 1 12.24578,-12.35675 h 55.42825 a 12.259712,12.370821 0 0 1 12.24578,12.35675 v 55.9306 a 12.259712,12.370821 0 0 1 -12.24578,12.35678 z m -55.42825,-78.04271 a 9.6784818,9.7661993 0 0 0 -9.66774,9.75533 v 55.9306 a 9.6784955,9.7662105 0 0 0 9.66774,9.75535 h 55.42825 a 9.6784955,9.7662105 0 0 0 9.6677,-9.75535 v -55.9306 a 9.6784818,9.7661993 0 0 0 -9.6677,-9.75533 z"/><path id="path7683" fill="#ccc" d="M 456.55121,475.86519 H 420.4584 a 3.8713155,3.9064014 0 0 1 -3.86709,-3.90214 v -20.81139 a 3.8713155,3.9064014 0 0 1 3.86709,-3.90214 h 36.09281 a 3.8713155,3.9064014 0 0 1 3.8671,3.90214 v 20.81139 a 3.8713155,3.9064014 0 0 1 -3.8671,3.90214 z M 420.4584,449.85095 a 1.2903183,1.3020125 0 0 0 -1.28903,1.30071 v 20.81139 a 1.2903183,1.3020125 0 0 0 1.28903,1.30071 h 36.09281 a 1.2903183,1.3020125 0 0 0 1.28904,-1.30071 v -20.81139 a 1.2903183,1.3020125 0 0 0 -1.28904,-1.30071 z" style="fill:#80b3ff;stroke-width:1.29487"/><path id="path7685" fill="#ccc" d="m 438.50481,464.98887 a 3.8715347,3.9066225 0 0 1 -2.04936,-0.58876 L 417.1968,452.25486 a 1.2893805,1.3010661 0 0 1 1.36707,-2.20639 l 19.25866,12.14525 a 1.2961833,1.3079306 0 0 0 1.3658,0 l 19.25741,-12.14525 a 1.2893805,1.3010661 0 0 1 1.36707,2.20639 l -19.25739,12.14525 a 3.8726561,3.9077543 0 0 1 -2.05061,0.58876 z" style="fill:#80b3ff;stroke-width:1.29487"/><path style="fill:#59f;stroke-width:1.29487" id="path7687" fill="#ccc" d="m 203.25697,501.87943 h -55.42825 a 12.259712,12.370821 0 0 1 -12.24577,-12.35678 v -55.9306 a 12.259712,12.370821 0 0 1 12.24577,-12.35675 h 55.42825 a 12.259712,12.370821 0 0 1 12.24578,12.35675 v 55.9306 a 12.259712,12.370821 0 0 1 -12.24578,12.35678 z m -55.42825,-78.04271 a 9.6784818,9.7661993 0 0 0 -9.6677,9.75533 v 55.9306 a 9.6784955,9.7662105 0 0 0 9.6677,9.75535 h 55.42825 a 9.6784955,9.7662105 0 0 0 9.66774,-9.75535 v -55.9306 a 9.6784818,9.7661993 0 0 0 -9.66774,-9.75533 z"/><path id="path7689" fill="#ccc" d="m 193.58927,475.86519 h -36.09282 a 3.8713155,3.9064014 0 0 1 -3.8671,-3.90214 v -20.81139 a 3.8713155,3.9064014 0 0 1 3.8671,-3.90214 h 36.09282 a 3.8713155,3.9064014 0 0 1 3.86708,3.90214 v 20.81139 a 3.8713155,3.9064014 0 0 1 -3.86708,3.90214 z m -36.09282,-26.01424 a 1.2903183,1.3020125 0 0 0 -1.28903,1.30071 v 20.81139 a 1.2903183,1.3020125 0 0 0 1.28903,1.30071 h 36.09282 a 1.2903183,1.3020125 0 0 0 1.28902,-1.30071 v -20.81139 a 1.2903183,1.3020125 0 0 0 -1.28902,-1.30071 z" style="fill:#999;stroke-width:1.29487"/><path id="path7691" fill="#ccc" d="m 187.86856,475.86519 h -25.94042 a 2.5775169,2.6008771 0 0 1 -2.23252,-3.90214 l 7.81349,-13.65747 a 2.5783419,2.6017095 0 0 1 4.46565,0 l 5.04654,8.82045 2.92361,-5.11012 a 2.5783419,2.6017095 0 0 1 4.46565,0 l 5.69107,9.94714 a 2.5780585,2.6014234 0 0 1 -2.23316,3.90214 z m 0,-2.60143 v 0 l -5.69106,-9.94713 -4.03955,7.06119 a 1.2888359,1.3005165 0 0 1 -1.11657,0.65035 v 0 a 1.2888359,1.3005165 0 0 1 -1.11656,-0.65035 l -6.16254,-10.77152 -7.81411,13.65746 z" style="fill:#999;stroke-width:1.29487"/><ellipse id="circle7693" cx="189.722" cy="455.054" fill="#ccc" rx="2.578" ry="2.601" style="fill:#999;stroke-width:1.29487"/><path style="stroke-width:1.36361" id="path7721" fill="#fff" d="M 695.69161,384.41887 H 282.77375 a 22.43702,22.613475 0 0 1 -22.41166,-22.58793 v -88.98269 a 22.437033,22.613488 0 0 1 22.41166,-22.58792 h 412.91786 a 22.437467,22.613925 0 0 1 22.41166,22.58792 v 88.98269 a 22.437467,22.613925 0 0 1 -22.41166,22.58793 z"/><path id="path7723" fill="#3f3d56" d="M 695.69139,385.10354 H 282.77352 a 23.11684,23.298641 0 0 1 -23.09081,-23.27241 v -88.98268 a 23.116827,23.298627 0 0 1 23.09081,-23.2724 h 412.91787 a 23.116827,23.298627 0 0 1 23.09079,23.2724 v 88.98268 a 23.11684,23.298641 0 0 1 -23.09079,23.27241 z M 282.77352,252.31397 a 20.397327,20.557741 0 0 0 -20.37424,20.53448 v 88.98268 a 20.397327,20.557741 0 0 0 20.37424,20.53448 h 412.91787 a 20.397327,20.557741 0 0 0 20.37424,-20.53448 v -88.98268 a 20.397327,20.557741 0 0 0 -20.37424,-20.53448 z" style="fill:#000;stroke-width:1.36361"/><path style="fill:#e6e6e6;stroke-width:1.36361" id="path7725" fill="#f2f2f2" d="M 645.43493,362.51562 H 333.02997 A 22.437033,22.613488 0 0 1 310.61831,339.92771 V 293.38292 A 22.43702,22.613475 0 0 1 333.02997,270.795 h 312.40496 a 22.437007,22.613461 0 0 1 22.41167,22.58792 v 46.54479 a 22.43702,22.613475 0 0 1 -22.41167,22.58791 z"/><ellipse style="fill:#0af;fill-opacity:1;stroke-width:1.36361" id="circle7727" cx="400.258" cy="310.416" fill="#ff6584" rx="26.802" ry="27.013"/><path style="fill:#4d4d4d;stroke-width:1.36361" id="path7729" fill="#3f3d56" d="m 626.02102,359.78955 -37.83161,-31.97858 -37.17834,-31.42645 a 5.4335509,5.4762828 0 0 0 -6.99901,0.0138 l -37.0583,31.57059 -9.05167,7.7118 -13.64849,-11.53677 -41.47802,-35.06036 a 5.4326409,5.4753656 0 0 0 -6.99834,0.0138 l -41.34341,35.22116 -41.99401,35.77583 a 1.358201,1.3688824 0 0 0 0.87944,2.4145 l 86.09707,-0.1672 27.25258,-0.0529 -0.26662,0.22724 81.23564,-0.15773 77.51297,-0.1505 a 1.358133,1.3688139 0 0 0 0.87012,-2.41787 z"/><path style="stroke-width:1.29487" id="path7761" fill="#fff" d="m 598.67021,526.69004 h -55.42825 a 12.259712,12.370821 0 0 1 -12.24578,-12.35675 v -55.93061 a 12.259712,12.370821 0 0 1 12.24578,-12.35676 h 55.42825 a 12.259712,12.370821 0 0 1 12.24578,12.35676 v 55.93061 a 12.259712,12.370821 0 0 1 -12.24578,12.35675 z"/><path id="path7763" fill="#3f3d56" d="m 598.67021,526.69004 h -55.42825 a 12.259712,12.370821 0 0 1 -12.24578,-12.35675 v -55.93061 a 12.259712,12.370821 0 0 1 12.24578,-12.35676 h 55.42825 a 12.259712,12.370821 0 0 1 12.24578,12.35676 v 55.93061 a 12.259712,12.370821 0 0 1 -12.24578,12.35675 z m -55.42825,-78.04271 a 9.6784955,9.7662105 0 0 0 -9.66771,9.75535 v 55.93061 a 9.6784955,9.7662105 0 0 0 9.66771,9.75533 h 55.42825 a 9.6784955,9.7662105 0 0 0 9.66773,-9.75533 v -55.93061 a 9.6784955,9.7662105 0 0 0 -9.66773,-9.75535 z" style="fill:#ccc;stroke-width:1.29487"/><path style="fill:#06f;stroke-width:1.29487" id="path7765" fill="#00b0ff" d="m 589.0025,503.9276 h -36.09282 a 3.8713155,3.9064014 0 0 1 -3.86709,-3.90215 v -27.31494 a 3.8713155,3.9064014 0 0 1 3.86709,-3.90213 h 10.16054 a 3.8428152,3.8776428 0 0 1 3.2937,1.85642 l 2.8336,4.64714 h 19.80498 a 3.8713155,3.9064014 0 0 1 3.86709,3.90213 v 20.81138 a 3.8713155,3.9064014 0 0 1 -3.86709,3.90215 z"/><path id="path46696" fill="#7952b3" fill-rule="evenodd" d="m 131.57502,277.63548 c -5.25725,0 -9.14735,4.89609 -8.97317,10.2058 0.1672,5.10118 -0.0498,11.70796 -1.61312,17.09578 -1.56868,5.40294 -4.21979,8.82678 -8.55096,9.2662 v 4.9616 c 4.33117,0.44041 6.98228,3.86251 8.55078,9.26622 1.56327,5.38783 1.78032,11.9946 1.61313,17.09578 -0.1742,5.30893 3.71592,10.20581 8.97404,10.20581 h 53.8693 c 5.25726,0 9.14665,-4.8961 8.97245,-10.20581 -0.16716,-5.10118 0.05,-11.70795 1.61313,-17.09578 1.56867,-5.40371 4.21332,-8.82715 8.54466,-9.26622 v -4.9616 c -4.33118,-0.44039 -6.97581,-3.8625 -8.54466,-9.2662 -1.56329,-5.38707 -1.78029,-11.9946 -1.61313,-17.09578 0.1742,-5.30894 -3.71519,-10.2058 -8.97245,-10.2058 h -53.87073 z m 43.32891,48.07393 c 0,7.31123 -5.12533,11.7453 -13.63095,11.7453 h -14.47891 a 1.5616588,1.6616506 0 0 1 -1.56166,-1.66167 v -38.21777 a 1.5616588,1.6616506 0 0 1 1.56166,-1.66164 h 14.39648 c 7.09227,0 11.74683,4.08768 11.74683,10.36358 0,4.40497 -3.13124,8.34846 -7.12033,9.03933 v 0.22976 c 5.43035,0.63381 9.08688,4.6357 9.08688,10.16311 z m -15.2097,-24.52839 h -8.25566 v 12.40778 h 6.95331 c 5.37528,0 8.33917,-2.30308 8.33917,-6.41969 -4.1e-4,-3.8579 -2.54872,-5.98809 -7.03682,-5.98809 z m -8.25566,17.33089 v 13.67368 h 8.55941 c 5.59664,0 8.56107,-2.38946 8.56107,-6.88001 0,-4.49056 -3.04755,-6.79442 -8.92097,-6.79442 h -8.19951 z" style="stroke-width:.185629"/></svg>