<svg xmlns="http://www.w3.org/2000/svg" xmlns:svg="http://www.w3.org/2000/svg" id="svg11872" width="555.319" height="529.259" version="1.1" viewBox="0 0 416.489 396.944"><metadata id="metadata11876"/><defs id="defs11848"><linearGradient id="A" x1="79.5" x2="441.5" y1="266.5" y2="266.5" gradientUnits="userSpaceOnUse"><stop id="stop11843" offset="0" stop-color="#59f"/><stop id="stop11845" offset="1" stop-color="#59f" stop-opacity="0"/></linearGradient></defs><path id="path11854" fill="#fff" d="m 174.93995,288.5098 h -45.584 c -29.146,0 -52.855985,-23.71 -52.855985,-52.856 v -6.645 c 0,-29.146 23.709985,-52.856 52.855985,-52.856 h 58.63701 c 29.146,0 52.856,23.71 52.856,52.856 v 13.715 h -24.039 v -13.716 c 0,-15.889 -12.928,-28.817 -28.817,-28.817 h -58.63701 c -15.889,0 -28.817,12.928 -28.817,28.817 v 6.645 c 0,15.889 12.928,28.817 28.817,28.817 h 45.584 z m 0,0"/><path id="path11856" fill="#e9edf5" d="m 209.99396,180.9658 v 29.461 a 28.68,28.68 0 0 1 6.816,18.582 v 13.715 h 24.039 v -13.716 c 0,-21.297 -12.666,-39.677 -30.855,-48.042 z m 0,0"/><path id="path11858" fill="#fff" d="m 290.90196,306.8038 h -58.637 c -29.146,0 -52.856,-23.71 -52.856,-52.856 v -13.715 h 24.039 v 13.715 c 0,15.889 12.928,28.817 28.817,28.817 h 58.637 c 15.889,0 28.817,-12.928 28.817,-28.817 v -6.645 c 0,-15.889 -12.928,-28.817 -28.817,-28.817 h -45.584 v -24.039 h 45.584 c 29.146,0 52.856,23.713 52.856,52.856 v 6.645 c 0,29.146 -23.71,52.856 -52.856,52.856 z m 0,0"/><path id="path11860" fill="#e9edf5" d="m 290.90196,194.4468 h -45.584 v 24.039 h 45.584 c 15.889,0 28.817,12.928 28.817,28.817 v 6.645 c 0,15.889 -12.928,28.817 -28.817,28.817 h -58.637 c -8.962,0 -16.983,-4.115 -22.272,-10.55 v 29.651 a 52.55,52.55 0 0 0 22.272,4.938 h 58.637 c 29.146,0 52.856,-23.713 52.856,-52.856 v -6.645 c 0,-29.146 -23.71,-52.856 -52.856,-52.856 z m 0,0"/><path id="path11862" fill="#fff" d="m 198.81696,102.1928 h 21.211 v 42.894 h -21.211 z m 0,0"/><path id="path11864" fill="#ececec" d="m 209.99396,102.1928 h 10.034 v 42.894 h -10.034 z m 0,0"/><path id="path11866" fill="#fff" d="m 132.27795,130.6838 15,-14.997 30.33601,30.344 -15.00201,14.997 z m 110.36601,15.364 30.336,-30.344 15,14.997 -30.333,30.344 z m -42.413,191.821 h 21.211 v 42.894 h -21.211 z m 0,0"/><path id="path11868" fill="#e6e6e6" d="m 209.99396,337.8688 h 11.448 v 42.894 h -11.448 z m 0,0"/><path id="path11870" fill="#fff" d="m 242.64196,336.9028 15,-14.994 30.336,30.342 -15.002,14.997 z m -110.36901,15.375 30.336,-30.344 15.00001,14.997 -30.33601,30.344 z m 0,0"/></svg>