<svg xmlns="http://www.w3.org/2000/svg" xmlns:svgjs="http://svgjs.com/svgjs" xmlns:xlink="http://www.w3.org/1999/xlink" width="1440" height="560" preserveAspectRatio="none" version="1.1" viewBox="0 0 1440 560"><g fill="none" mask="url(&quot;#SvgjsMask1844&quot;)"><rect width="1440" height="560" x="0" y="0" fill="rgba(0, 0, 0, 1)"/><path stroke="rgba(2, 130, 255, 1)" stroke-width="2" d="M512.94 38.19L577.89 75.69L577.89 150.69L512.94 188.19L447.98 150.69L447.98 75.69zM577.89 375.69L642.84 413.19L642.84 488.19L577.89 525.69L512.94 488.19L512.94 413.19zM1032.57 488.19L1097.52 525.69L1097.52 600.69L1032.57 638.19L967.61 600.69L967.61 525.69zM1227.43 375.69L1292.38 413.19L1292.38 488.19L1227.43 525.69L1162.47 488.19L1162.47 413.19zM1422.29 488.19L1487.24 525.69L1487.24 600.69L1422.29 638.19L1357.34 600.69L1357.34 525.69zM1552.2 38.19L1617.15 75.69L1617.15 150.69L1552.2 188.19L1487.24 150.69L1487.24 75.69z"/><path stroke="rgba(6, 132, 255, 1)" stroke-width="2" d="M16.77 418.9L60.07 443.9L60.07 493.9L16.77 518.9L-26.53 493.9L-26.53 443.9zM103.38 -31.1L146.68 -6.1L146.68 43.9L103.38 68.9L60.07 43.9L60.07 -6.1zM146.68 343.9L189.98 368.9L189.98 418.9L146.68 443.9L103.38 418.9L103.38 368.9zM146.68 493.9L189.98 518.9L189.98 568.9L146.68 593.9L103.38 568.9L103.38 518.9zM276.58 118.9L319.89 143.9L319.89 193.9L276.58 218.9L233.28 193.9L233.28 143.9zM363.19 -31.1L406.49 -6.1L406.49 43.9L363.19 68.9L319.89 43.9L319.89 -6.1zM406.49 43.9L449.8 68.9L449.8 118.9L406.49 143.9L363.19 118.9L363.19 68.9zM449.8 -31.1L493.1 -6.1L493.1 43.9L449.8 68.9L406.49 43.9L406.49 -6.1zM449.8 268.9L493.1 293.9L493.1 343.9L449.8 368.9L406.49 343.9L406.49 293.9zM623 118.9L666.31 143.9L666.31 193.9L623 218.9L579.7 193.9L579.7 143.9zM752.91 43.9L796.22 68.9L796.22 118.9L752.91 143.9L709.61 118.9L709.61 68.9zM882.82 -31.1L926.12 -6.1L926.12 43.9L882.82 68.9L839.52 43.9L839.52 -6.1zM926.12 43.9L969.43 68.9L969.43 118.9L926.12 143.9L882.82 118.9L882.82 68.9zM969.43 268.9L1012.73 293.9L1012.73 343.9L969.43 368.9L926.12 343.9L926.12 293.9zM1272.54 43.9L1315.85 68.9L1315.85 118.9L1272.54 143.9L1229.24 118.9L1229.24 68.9zM1229.24 118.9L1272.54 143.9L1272.54 193.9L1229.24 218.9L1185.94 193.9L1185.94 143.9zM1359.15 343.9L1402.45 368.9L1402.45 418.9L1359.15 443.9L1315.85 418.9L1315.85 368.9zM1445.75 193.9L1489.06 218.9L1489.06 268.9L1445.75 293.9L1402.45 268.9L1402.45 218.9zM1402.45 268.9L1445.75 293.9L1445.75 343.9L1402.45 368.9L1359.15 343.9L1359.15 293.9z"/></g><defs><mask id="SvgjsMask1844"><rect width="1440" height="560" fill="#fff"/></mask></defs></svg>