<svg xmlns="http://www.w3.org/2000/svg" xmlns:svg="http://www.w3.org/2000/svg" id="b0be4804-10ca-4842-b31b-b943f29dadcb" width="731.413" height="522.402" data-name="Layer 1" version="1.1" viewBox="0 0 731.413 522.402"><metadata id="metadata1804"/><rect style="stroke-width:1.50341" id="rect1769" width="636" height="3.099" x="47" y="378.038" fill="#e6e6e6"/><rect style="stroke-width:1.50341" id="rect1771" width="636" height="3.099" x="47" y="257.176" fill="#e6e6e6"/><rect style="stroke-width:1.50341" id="rect1773" width="636" height="3.099" x="47" y="136.313" fill="#e6e6e6"/><rect style="stroke-width:1.50341" id="rect1775" width="2.917" height="483.45" x="554.341" y="17" fill="#e6e6e6"/><rect style="stroke-width:1.50341" id="rect1777" width="2.917" height="483.45" x="427.141" y="17" fill="#e6e6e6"/><rect style="stroke-width:1.50341" id="rect1779" width="2.917" height="483.45" x="299.941" y="17" fill="#e6e6e6"/><rect style="stroke-width:1.50341" id="rect1781" width="2.917" height="483.45" x="172.741" y="17" fill="#e6e6e6"/><rect style="fill:#2a7fff;stroke-width:1.50341" id="rect1783" width="255.275" height="120.863" x="173.908" y="137.863" fill="#00b0ff"/><path style="stroke-width:1.50341" id="path1785" fill="#00b0ff" d="M 302.16038,249.52577"/><polygon style="fill:#2a7fff" id="polygon1787" fill="#00b0ff" points="87 150 87 234 178 153" transform="matrix(1.4587156,0,0,1.5495208,47,17)"/><path style="fill:#2a7fff;stroke-width:1.50341" id="path1789" fill="#00b0ff" d="m 429.18348,254.07671 v 4.64857 l -1.66314,1.56501 -3.35474,3.16101 c -65.24836,2.09186 -117.95157,51.7385 -120.3298,113.30096 l -2.99008,2.82014 -0.0292,0.0155 V 249.42816 Z"/><path style="stroke-width:1.50341" id="path1791" fill="#e6e6e6" d="m 428.45412,260.27479 c -0.30632,0 -0.6275,0 -0.93378,0.0155 -69.40509,0.46486 -125.81422,53.6444 -126.67462,119.28211 -0.0292,0.52684 -0.0292,1.03817 -0.0292,1.56501 0,66.64488 57.25459,120.86261 127.63762,120.86261 70.38302,0 127.63761,-54.21773 127.63761,-120.86261 0,-66.6449 -57.25461,-120.86263 -127.63765,-120.86263 z m 0,238.62619 c -68.76404,0 -124.72018,-52.82317 -124.72018,-117.76357 0,-1.47205 0.0292,-2.92861 0.10181,-4.38515 2.37825,-61.56246 55.08148,-111.2091 120.3298,-113.30096 1.41527,-0.062 2.84406,-0.0775 4.28854,-0.0775 68.76404,0 124.72018,52.82318 124.72018,117.76359 0,64.94039 -55.95614,117.76357 -124.72018,117.76357 z"/><path style="stroke-width:1.50341" id="path1793" fill="#e6e6e6" d="m 358.43578,379.6128 -7.29358,-0.043 c 0.002,-0.68926 1.17136,-68.9234 75.78199,-73.65595 l 0.43447,7.73399 c -67.66698,4.29216 -68.90348,63.44936 -68.92288,65.96505 z"/><path style="stroke-width:1.50341" id="path1795" fill="#e6e6e6" d="m 502.09006,378.03838 a 62.048,65.910488 0 0 0 -20.39284,-46.65607 77.948918,82.801242 0 0 0 -53.09711,-21.61584 h -0.14601 c -40.07053,0 -72.77552,30.4791 -73.63596,68.27191 -0.0292,0.51132 -0.0292,1.03815 -0.0292,1.5495 0,19.77188 8.70884,37.63786 22.68274,50.34393 a 78.250246,83.121326 0 0 0 50.9824,19.47746 h 0.146 c 40.55202,-0.0775 73.51914,-31.36228 73.51914,-69.82139 2e-5,-0.51135 2e-5,-1.03818 -0.0292,-1.5495 z"/><path style="fill:#0aabff;fill-opacity:1;stroke-width:1.50341" id="path1797" fill="#00b0ff" d="m 481.69724,331.38231 -2.18806,2.06086 -99.84938,94.42778 -2.18808,2.06086 C 363.49783,417.22574 354.789,399.35976 354.789,379.58788 c 0,-0.51135 0,-1.03818 0.0292,-1.5495 0.86041,-37.79281 33.56541,-68.27191 73.63596,-68.27191 h 0.146 a 77.948918,82.801242 0 0 1 53.09712,21.61584 z"/></svg>