<?xml version="1.0" encoding="UTF-8" standalone="no"?>
<svg
   xmlns:dc="http://purl.org/dc/elements/1.1/"
   xmlns:cc="http://creativecommons.org/ns#"
   xmlns:rdf="http://www.w3.org/1999/02/22-rdf-syntax-ns#"
   xmlns:svg="http://www.w3.org/2000/svg"
   xmlns="http://www.w3.org/2000/svg"
   xmlns:sodipodi="http://sodipodi.sourceforge.net/DTD/sodipodi-0.dtd"
   xmlns:inkscape="http://www.inkscape.org/namespaces/inkscape"
   id="f921693e-33a8-40f4-b606-3710578972cc"
   data-name="Layer 1"
   width="859.39917"
   height="767.78379"
   viewBox="0 0 859.39917 767.78379"
   version="1.1"
   sodipodi:docname="JunTechPC Aruba-Coronavirus-COVID-19.svg"
   inkscape:version="1.0.2-2 (e86c870879, 2021-01-15)">
  <metadata
     id="metadata212">
    <rdf:RDF>
      <cc:Work
         rdf:about="">
        <dc:format>image/svg+xml</dc:format>
        <dc:type
           rdf:resource="http://purl.org/dc/dcmitype/StillImage" />
        <dc:title>Security on</dc:title>
      </cc:Work>
    </rdf:RDF>
  </metadata>
  <sodipodi:namedview
     pagecolor="#ffffff"
     bordercolor="#666666"
     borderopacity="1"
     objecttolerance="10"
     gridtolerance="10"
     guidetolerance="10"
     inkscape:pageopacity="0"
     inkscape:pageshadow="2"
     inkscape:window-width="1920"
     inkscape:window-height="1001"
     id="namedview210"
     showgrid="false"
     inkscape:zoom="1.4142136"
     inkscape:cx="433.46942"
     inkscape:cy="354.26257"
     inkscape:window-x="-9"
     inkscape:window-y="-9"
     inkscape:window-maximized="1"
     inkscape:current-layer="f921693e-33a8-40f4-b606-3710578972cc" />
  <defs
     id="defs119">
    <linearGradient
       id="b629f179-8ab2-4411-a7df-956765958247"
       x1="344.9209"
       y1="369.39721"
       x2="505.39917"
       y2="369.39721"
       gradientUnits="userSpaceOnUse">
      <stop
         offset="0"
         stop-color="gray"
         stop-opacity="0.25"
         id="stop112" />
      <stop
         offset="0.53514"
         stop-color="gray"
         stop-opacity="0.12"
         id="stop114" />
      <stop
         offset="1"
         stop-color="gray"
         stop-opacity="0.1"
         id="stop116" />
    </linearGradient>
  </defs>
  <title
     id="title121">Security on</title>
  <path
     d="M 421.00444,107.94701 214.06782,230.68389 c 0,0 0,253.14483 206.93662,391.22386 C 627.94105,483.82876 627.94105,230.68389 627.94105,230.68389 Z"
     fill="#3f3d56"
     id="path123"
     style="stroke-width:0.753266" />
  <path
     d="m 422.23998,107.94701 -3.53738,2.09807 v 509.46839 c 1.17471,0.80048 2.34904,1.60132 3.53738,2.39424 C 629.17659,483.82872 629.17659,230.68385 629.17659,230.68385 Z"
     fill="#00b0ff"
     opacity="0.04"
     id="path125"
     style="stroke-width:0.753266" />
  <g
     opacity="0.7"
     id="g129"
     transform="matrix(0.76727859,0,0,0.73951028,90.001086,100)"
     style="fill:#4d4d4d">
    <polygon
       points="505.399,323.935 416.949,436.044 344.921,355.542 366.106,347.068 416.949,393.674 479.977,302.75 "
       fill="url(#b629f179-8ab2-4411-a7df-956765958247)"
       id="polygon127"
       style="fill:#4d4d4d" />
  </g>
  <polygon
     points="498.399,318.935 419.349,422.044 360.921,356.742 378.106,349.868 419.349,387.674 477.777,301.75 "
     fill="#3ad29f"
     id="polygon131"
     transform="matrix(0.76727859,0,0,0.73951028,90.001086,100)"
     style="fill:#ffffff" />
  <path
     d="m 216.82431,135.46418 a 2.8194342,2.7173971 0 0 1 -1.57099,-3.28416 1.355014,1.3059751 0 0 0 0.0613,-0.30138 v 0 a 1.4137645,1.3625994 0 0 0 -2.54004,-0.90308 v 0 a 1.3550907,1.3060491 0 0 0 -0.15645,0.26755 2.8194496,2.7174119 0 0 1 -3.40748,1.51414 1.355014,1.3059751 0 0 0 -0.3127,-0.0591 v 0 a 1.4137645,1.3625994 0 0 0 -0.93699,2.44811 v 0 a 1.3547378,1.3057089 0 0 0 0.2776,0.15079 2.8194342,2.7173971 0 0 1 1.57099,3.28416 1.3550984,1.3060565 0 0 0 -0.0613,0.30139 v 0 a 1.4137645,1.3625994 0 0 0 2.54004,0.90308 v 0 a 1.3552979,1.3062488 0 0 0 0.15645,-0.26755 2.8194342,2.7173971 0 0 1 3.40748,-1.51414 1.355014,1.3059751 0 0 0 0.3127,0.0591 v 0 a 1.4137645,1.3625994 0 0 0 0.93699,-2.44811 v 0 a 1.3550907,1.3060491 0 0 0 -0.2776,-0.15079 z"
     fill="#4d8af0"
     opacity="0.5"
     id="path133"
     style="stroke-width:0.753266;fill:#ffffff" />
  <path
     d="m 104.80164,375.80502 a 2.8194342,2.7173971 0 0 1 -1.57099,-3.28416 1.355014,1.3059751 0 0 0 0.0613,-0.30138 v 0 a 1.4137645,1.3625994 0 0 0 -2.54004,-0.90308 v 0 a 1.3550907,1.3060491 0 0 0 -0.15645,0.26755 2.8194496,2.7174119 0 0 1 -3.407481,1.51414 1.355014,1.3059751 0 0 0 -0.312697,-0.0591 v 0 a 1.4137645,1.3625994 0 0 0 -0.936992,2.44812 v 0 a 1.3547378,1.3057089 0 0 0 0.277601,0.15078 2.8194342,2.7173971 0 0 1 1.570988,3.28417 1.3550984,1.3060565 0 0 0 -0.06131,0.30138 v 0 a 1.4137645,1.3625994 0 0 0 2.540037,0.90309 v 0 a 1.3552979,1.3062488 0 0 0 0.15645,-0.26756 2.8194342,2.7173971 0 0 1 3.40748,-1.51414 1.355014,1.3059751 0 0 0 0.3127,0.0591 v 0 a 1.4137645,1.3625994 0 0 0 0.93699,-2.44811 v 0 a 1.3550907,1.3060491 0 0 0 -0.2776,-0.15079 z"
     fill="#4d8af0"
     opacity="0.5"
     id="path135"
     style="stroke-width:0.753266;fill:#ffffff" />
  <ellipse
     cx="664.23175"
     cy="287.83563"
     fill="#f55f44"
     opacity="0.5"
     id="circle137"
     rx="4.6036716"
     ry="4.4370618"
     style="stroke-width:0.753266;fill:#ffffff" />
  <ellipse
     cx="183.14807"
     cy="605.08551"
     fill="#f55f44"
     opacity="0.5"
     id="circle139"
     rx="4.6036716"
     ry="4.4370618"
     style="stroke-width:0.753266;fill:#ffffff" />
  <ellipse
     cx="742.49414"
     cy="458.66248"
     fill="#f55f44"
     opacity="0.5"
     id="circle141"
     rx="4.6036716"
     ry="4.4370618"
     style="stroke-width:0.753266;fill:#ffffff" />
  <path
     d="m 630.38747,156.90998 a 2.8194342,2.7173971 0 0 1 -1.57099,-3.28416 1.355014,1.3059751 0 0 0 0.0613,-0.30138 v 0 a 1.4137645,1.3625994 0 0 0 -2.54004,-0.90309 v 0 a 1.3550907,1.3060491 0 0 0 -0.15645,0.26756 2.8194496,2.7174119 0 0 1 -3.40748,1.51414 1.355014,1.3059751 0 0 0 -0.3127,-0.0591 v 0 a 1.4137645,1.3625994 0 0 0 -0.93699,2.44811 v 0 a 1.3547378,1.3057089 0 0 0 0.2776,0.15079 2.8194342,2.7173971 0 0 1 1.57099,3.28416 1.3550984,1.3060565 0 0 0 -0.0613,0.30139 v 0 a 1.4137645,1.3625994 0 0 0 2.54004,0.90308 v 0 a 1.3552979,1.3062488 0 0 0 0.15645,-0.26755 2.8194342,2.7173971 0 0 1 3.40748,-1.51414 1.355014,1.3059751 0 0 0 0.3127,0.0591 v 0 a 1.4137645,1.3625994 0 0 0 0.93699,-2.44811 v 0 a 1.3550907,1.3060491 0 0 0 -0.2776,-0.15079 z"
     fill="#4d8af0"
     opacity="0.5"
     id="path143"
     style="stroke-width:0.753266;fill:#ffffff" />
  <path
     d="m 707.11533,621.32244 a 2.8194342,2.7173971 0 0 1 -1.57099,-3.28417 1.355014,1.3059751 0 0 0 0.0613,-0.30138 v 0 a 1.4137645,1.3625994 0 0 0 -2.54004,-0.90308 v 0 a 1.3550907,1.3060491 0 0 0 -0.15645,0.26755 2.8194496,2.7174119 0 0 1 -3.40748,1.51414 1.355014,1.3059751 0 0 0 -0.3127,-0.0591 v 0 a 1.4137645,1.3625994 0 0 0 -0.93699,2.44811 v 0 a 1.3547378,1.3057089 0 0 0 0.2776,0.15078 2.8194342,2.7173971 0 0 1 1.57099,3.28417 1.3550984,1.3060565 0 0 0 -0.0613,0.30139 v 0 a 1.4137645,1.3625994 0 0 0 2.54004,0.90308 v 0 a 1.3552979,1.3062488 0 0 0 0.15645,-0.26756 2.8194342,2.7173971 0 0 1 3.40748,-1.51414 1.355014,1.3059751 0 0 0 0.3127,0.0591 v 0 a 1.4137645,1.3625994 0 0 0 0.93699,-2.4481 v 0 a 1.3550907,1.3060491 0 0 0 -0.2776,-0.1508 z"
     fill="#4d8af0"
     opacity="0.5"
     id="path145"
     style="stroke-width:0.753266;fill:#ffffff" />
  <path
     d="m 99.430687,235.29807 a 2.8194342,2.7173971 0 0 1 -1.570988,-3.28416 1.355014,1.3059751 0 0 0 0.06131,-0.30138 v 0 a 1.4137645,1.3625994 0 0 0 -2.540037,-0.90309 v 0 a 1.3550907,1.3060491 0 0 0 -0.156448,0.26756 2.8194496,2.7174119 0 0 1 -3.407484,1.51414 1.355014,1.3059751 0 0 0 -0.312697,-0.0591 v 0 a 1.4137645,1.3625994 0 0 0 -0.936993,2.44811 v 0 a 1.3547378,1.3057089 0 0 0 0.277601,0.15079 2.8194342,2.7173971 0 0 1 1.570988,3.28416 1.3550984,1.3060565 0 0 0 -0.06131,0.30139 v 0 a 1.4137645,1.3625994 0 0 0 2.540037,0.90308 v 0 a 1.3552979,1.3062488 0 0 0 0.156448,-0.26755 2.8194342,2.7173971 0 0 1 3.407485,-1.51414 1.355014,1.3059751 0 0 0 0.312696,0.0591 v 0 a 1.4137645,1.3625994 0 0 0 0.936993,-2.44811 v 0 a 1.3550907,1.3060491 0 0 0 -0.277601,-0.15079 z"
     fill="#4d8af0"
     opacity="0.5"
     id="path147"
     style="stroke-width:0.753266;fill:#ffffff" />
  <ellipse
     cx="150.92236"
     cy="310.02094"
     fill="#47e6b1"
     opacity="0.5"
     id="circle149"
     rx="4.6036716"
     ry="4.4370618"
     style="stroke-width:0.753266;fill:#ffffff" />
  <ellipse
     cx="744.79602"
     cy="345.5174"
     fill="#47e6b1"
     opacity="0.5"
     id="circle151"
     rx="4.6036716"
     ry="4.4370618"
     style="stroke-width:0.753266;fill:#ffffff" />
  <g
     opacity="0.5"
     id="g157"
     transform="matrix(0.76727859,0,0,0.73951028,90.001086,100)"
     style="fill:#ffffff">
    <rect
       x="583.39917"
       width="3"
       height="17"
       fill="#47e6b1"
       id="rect153"
       y="0"
       style="fill:#ffffff" />
    <rect
       x="753.69958"
       y="66.108109"
       width="3"
       height="17"
       transform="rotate(90,703.10343,-43.596155)"
       fill="#47e6b1"
       id="rect155"
       style="fill:#ffffff" />
  </g>
  <g
     opacity="0.5"
     id="g163"
     transform="matrix(0.76727859,0,0,0.73951028,90.001086,100)"
     style="fill:#ffffff">
    <rect
       x="594.39917"
       y="666"
       width="3"
       height="17"
       fill="#47e6b1"
       id="rect159"
       style="fill:#ffffff" />
    <rect
       x="764.69958"
       y="732.10809"
       width="3"
       height="17"
       transform="rotate(90,714.10343,622.40385)"
       fill="#47e6b1"
       id="rect161"
       style="fill:#ffffff" />
  </g>
  <g
     opacity="0.5"
     id="g169"
     transform="matrix(0.76727859,0,0,0.73951028,90.001086,100)"
     style="fill:#ffffff">
    <rect
       x="26.39917"
       y="702"
       width="3"
       height="17"
       fill="#47e6b1"
       id="rect165"
       style="fill:#ffffff" />
    <rect
       x="196.69958"
       y="768.10809"
       width="3"
       height="17"
       transform="rotate(90,146.10343,658.40385)"
       fill="#47e6b1"
       id="rect167"
       style="fill:#ffffff" />
  </g>
  <g
     opacity="0.5"
     id="g175"
     transform="matrix(0.76727859,0,0,0.73951028,90.001086,100)"
     style="fill:#ffffff">
    <rect
       x="709.39917"
       y="396"
       width="3"
       height="17"
       fill="#47e6b1"
       id="rect171"
       style="fill:#ffffff" />
    <rect
       x="879.69958"
       y="462.10812"
       width="3"
       height="17"
       transform="rotate(90,829.10343,352.40384)"
       fill="#47e6b1"
       id="rect173"
       style="fill:#ffffff" />
  </g>
  <polygon
     points="814.399,118.185 802.049,134.294 792.921,124.092 795.606,123.018 802.049,128.924 811.177,115.5 "
     fill="#47e6b1"
     opacity="0.5"
     id="polygon177"
     transform="matrix(0.76727859,0,0,0.73951028,90.001086,100)"
     style="fill:#ffffff" />
  <rect
     x="530.67316"
     y="297.64182"
     width="17.065144"
     height="21.149189"
     transform="matrix(0.9993023,-0.03734864,0.0402017,0.99919158,0,0)"
     fill="#00b0ff"
     id="rect179"
     style="stroke-width:0.753268" />
  <path
     d="m 482.39478,350.95314 c 0,0 -23.61606,-10.87506 -23.23815,-1.48302 0.37792,9.39204 23.80498,15.57109 23.80498,15.57109 z"
     fill="#ffb9b9"
     id="path181"
     style="stroke-width:0.753266" />
  <path
     d="m 495.35149,430.42129 c 0,0 -11.14171,26.28337 -15.2583,45.24955 -4.1166,18.96619 -10.38595,45.06745 -2.32165,63.57838 8.0643,18.51092 30.99185,72.91523 31.22802,78.78526 0.23618,5.87002 -1.96382,11.8311 2.90853,11.64899 4.87235,-0.1821 31.38689,-8.22769 32.46328,-11.79524 1.07638,-3.56754 -9.04622,-12.59538 -9.04622,-12.59538 l -24.99587,-75.49086 26.07939,-49.18131 18.81097,73.37051 3.68435,91.57241 c 0,0 18.08239,-5.37891 20.7075,-0.77394 0,0 8.1015,-10.88473 9.13061,-15.62628 1.02912,-4.74155 -3.82605,-95.09441 -3.82605,-95.09441 0,0 16.59804,-102.91238 3.19906,-102.4116 -13.39897,0.50078 -65.88124,-30.45929 -92.76362,-1.23608 z"
     fill="#00b0ff"
     id="path183"
     style="stroke-width:0.753266;fill:#2a7fff" />
  <path
     d="m 511.71916,624.98746 c 0,0 -12.3598,26.32889 -13.53066,27.54842 -1.17086,1.21952 -9.22512,13.27826 -3.13468,13.05063 6.09044,-0.22763 20.47133,-6.64396 31.05625,-16.44573 10.58491,-9.80177 24.54068,-26.78415 23.27539,-27.91263 -1.26529,-1.12848 -9.93365,-4.33182 -9.93365,-4.33182 z"
     fill="#575a89"
     id="path185"
     style="stroke-width:0.753266;fill:#333333" />
  <path
     d="m 561.10399,639.60249 c 0,0 -0.74574,11.78558 -2.99297,16.57265 -2.24724,4.78707 -1.96383,11.83111 4.12661,11.60348 6.09044,-0.22763 21.83113,-3.16748 21.83113,-3.16748 0,0 0.93467,-7.08955 -0.33065,-8.21804 -1.26532,-1.12848 -6.65727,-13.86042 -4.3628,-17.47349 2.29447,-3.61307 -18.27132,0.68288 -18.27132,0.68288 z"
     fill="#575a89"
     id="path187"
     style="stroke-width:0.753266;fill:#333333" />
  <path
     d="m 570.11431,257.14032 c 0,0 12.98388,19.50283 18.04518,24.01675 5.06129,4.51392 -9.17788,14.45225 -9.17788,14.45225 l -25.48539,3.30405 c 0,0 0.32061,-22.35162 -0.99195,-24.6541 -1.31256,-2.30249 17.61004,-17.11895 17.61004,-17.11895 z"
     fill="#ffb9b9"
     id="path189"
     style="stroke-width:0.753266" />
  <path
     d="m 547.96257,282.65942 c 0,0 5.25023,9.20994 10.12259,9.02783 4.87236,-0.1821 30.07433,-10.53018 31.15074,-14.09772 1.07642,-3.56754 8.34771,25.55496 8.34771,25.55496 l -61.66738,104.59683 -15.04215,-10.01974 7.28848,-61.41248 5.98595,-33.14529 z"
     fill="#00b0ff"
     id="path191"
     style="stroke-width:0.753266;fill:#0066ff" />
  <path
     d="m 591.51047,376.26924 c -2.4599,4.95964 -3.99626,10.13163 -3.78322,15.42641 0.009,0.23482 0.0189,0.46959 0.0405,0.70392 0.58356,10.86584 4.73672,23.43246 6.22672,32.57131 1.08116,6.55564 0.77348,11.34076 -3.20699,12.46545 -9.65024,2.71221 1.40703,4.65049 -35.92859,16.62783 -37.33561,11.97735 -43.85119,1.63893 -43.94566,-0.70908 -0.0945,-2.34801 5.28744,-20.18571 4.02212,-21.31417 -1.26532,-1.12845 -17.70451,14.77098 -22.67133,12.60504 -4.96682,-2.16593 -0.56682,-14.08806 -0.56682,-14.08806 0,0 11.18895,-25.10933 10.95277,-30.97939 -0.23617,-5.87005 16.94874,-33.55502 16.94874,-33.55502 l 11.6885,-73.33466 c 0,0 4.49447,-9.57414 10.53768,-10.97581 6.04321,-1.40167 11.05725,1.93826 11.05725,1.93826 l -10.11261,21.54187 -10.66936,38.0234 1.78491,14.04256 c 0,0 12.40704,-25.15489 20.55578,-34.86561 8.14875,-9.71073 25.5226,-32.69971 25.5226,-32.69971 0,0 4.05618,-13.19092 0.99416,-17.1329 -3.06249,-3.95366 12.77266,-4.54549 19.5244,11.66295 3.57845,8.59045 9.38827,21.40087 13.02779,33.32825 3.24315,10.5665 4.77511,20.4445 1.56209,26.09073 -4.91075,8.62558 -17.26378,19.96315 -23.56146,32.62643 z"
     fill="#575a89"
     id="path193"
     style="stroke-width:0.753266;fill:#003376;fill-opacity:1" />
  <path
     d="m 615.07196,343.64283 c -4.91081,8.62556 -17.26381,19.96313 -23.56149,32.62641 -1.64488,-5.7116 -3.65155,-11.62123 -3.65155,-11.62123 0,0 -7.69643,-39.68855 15.06935,-49.94558 a 15.236357,14.684944 0 0 1 10.58159,2.84966 c 3.24316,10.5665 4.77512,20.44452 1.5621,26.09074 z"
     opacity="0.1"
     id="path195"
     style="stroke-width:0.753266" />
  <path
     d="m 524.69724,341.14171 -19.30048,5.42443 -26.79797,1.00157 -2.75683,22.44266 44.04012,3.05709 c 0,0 11.00004,-29.80537 4.81516,-31.92575 z"
     fill="#575a89"
     id="path197"
     style="stroke-width:0.753266;fill:#003e75;fill-opacity:1" />
  <path
     d="m 556.16932,416.60103 c 0,0 -25.82018,4.12878 -19.92699,11.61756 5.89318,7.48878 28.76676,-0.3844 28.76676,-0.3844 z"
     fill="#ffb9b9"
     id="path199"
     style="stroke-width:0.753266" />
  <path
     d="m 587.76778,392.39957 c 0.58356,10.86584 4.73672,23.43246 6.22672,32.57131 -8.22535,7.50313 -16.04715,14.12112 -18.99491,14.23129 -6.09044,0.22763 -15.88238,-0.58217 -19.48941,0.72841 -3.60703,1.31059 -5.72259,-20.94998 -5.72259,-20.94998 0,0 2.15276,-7.13511 11.75575,-11.02131 6.48184,-2.62911 18.90651,-9.76008 26.22444,-15.55972 z"
     opacity="0.1"
     id="path201"
     style="stroke-width:0.753266" />
  <path
     d="m 602.64487,307.6584 c 0,0 20.61304,-3.12194 19.49945,29.84125 -1.11359,32.96319 2.17282,54.00422 -6.11763,60.19294 -8.29044,6.18873 -35.22006,34.23791 -41.31051,34.46554 -6.09044,0.22763 -15.88239,-0.58216 -19.48942,0.72842 -3.60703,1.31058 -5.72258,-20.94999 -5.72258,-20.94999 0,0 2.15276,-7.13509 11.75576,-11.0213 9.603,-3.88622 32.2271,-17.66528 32.03816,-22.36131 -0.18893,-4.69604 -5.72259,-20.94999 -5.72259,-20.94999 0,0 -7.69644,-39.68853 15.06936,-49.94556 z"
     fill="#575a89"
     id="path203"
     style="stroke-width:0.753266;fill:#003e75;fill-opacity:1" />
  <ellipse
     cx="551.93744"
     cy="260.17123"
     fill="#ffb9b9"
     id="circle205"
     rx="26.81809"
     ry="25.847527"
     style="stroke-width:0.753266" />
  <path
     d="m 533.88016,223.12419 a 5.1783632,4.9909549 0 0 1 -2.2549,1.09063 1.6091136,1.5508788 0 0 1 -1.8647,-1.24493 c -0.61358,1.22641 -1.30585,2.5335 -2.55858,3.16279 -1.25273,0.6293 -3.18982,0.10162 -3.37039,-1.24876 a 5.9126488,5.6986662 0 0 1 -1.36088,2.76867 c -0.77725,0.71424 -2.18674,0.89451 -2.86532,0.0923 0.54861,2.8896 0.21,5.86126 0.38228,8.79414 0.17229,2.93288 0.98373,6.04217 3.28278,7.97074 3.35291,2.81261 8.39486,2.11845 12.80534,1.58558 a 3.8868415,3.7461742 0 0 1 2.00673,0.10581 c 1.65142,0.67813 1.5765,2.89378 1.59877,4.62373 a 13.329754,12.847342 0 0 0 11.672,12.20007 6.68193,6.4401066 0 0 0 4.96617,-1.16817 c 1.25224,-1.023 1.89189,-2.69034 3.3268,-3.45886 2.33412,-1.25007 5.16496,0.57302 6.8715,2.55247 1.70655,1.97946 3.38846,4.41439 6.03213,4.77674 3.49642,0.4792 6.15946,-2.95509 7.46599,-6.11736 a 37.000475,35.661404 0 0 0 -0.73534,-27.70928 c -7.30061,-15.33823 -32.23967,-17.76428 -45.40038,-8.77631 z"
     fill="#2f2e41"
     id="path207"
     style="stroke-width:0.753266;fill:#333333" />
</svg>
