<svg xmlns="http://www.w3.org/2000/svg" xmlns:svg="http://www.w3.org/2000/svg" id="e947267e-2fd0-4612-8553-18e563890315" width="808.778" height="560.418" data-name="Layer 1" version="1.1" viewBox="0 0 808.778 560.418"><metadata id="metadata202"/><path style="fill:#646389;fill-opacity:1;stroke-width:.853775" id="path111" fill="#2f2e41" d="M 745.62664,510.20354 H 78.37336 A 22.373357,20.20157 0 0 1 56,490.00196 v 0 q 362.81878,-38.07336 712,0 v 0 a 22.373367,20.201578 0 0 1 -22.37336,20.20158 z"/><path style="stroke-width:.853775" id="path113" fill="#3f3d56" d="m 768,491.19027 -712,-1.18833 82.51831,-125.36865 0.39481,-0.59418 V 87.740719 A 28.280206,25.535037 0 0 1 167.1957,62.20354 h 485.66036 a 28.280214,25.535045 0 0 1 28.28255,25.537179 V 365.94035 Z"/><path style="stroke-width:.853775" id="path115" fill="#fff" d="m 166.55084,80.028476 a 9.2229174,8.3276459 0 0 0 -9.21258,8.318301 V 340.2725 a 9.2233306,8.3280191 0 0 0 9.21258,8.31831 h 490.89832 a 9.223744,8.3283922 0 0 0 9.21258,-8.31831 V 88.346777 a 9.2233306,8.3280191 0 0 0 -9.21258,-8.318301 z"/><path style="fill:#4d4b68;fill-opacity:1;stroke-width:.853775" id="path117" fill="#2f2e41" d="m 169.77705,381.86403 a 3.9591416,3.5748265 0 0 0 -3.58709,2.07494 l -25.42646,49.90982 a 3.9480721,3.5648316 0 0 0 3.58645,5.05507 H 679.0549 a 3.9477936,3.5645801 0 0 0 3.53054,-5.15949 l -27.63773,-49.90981 a 3.9282243,3.5469104 0 0 0 -3.53054,-1.97049 z"/><ellipse style="stroke-width:.853775" id="circle119" cx="410.026" cy="70.522" fill="#fff" rx="5.922" ry="5.347"/><path style="fill:#616086;fill-opacity:1;stroke-width:.853775" id="path121" fill="#2f2e41" d="m 357.46873,448.41044 a 3.9542807,3.5704375 0 0 0 -3.812,2.63777 l -6.378,21.3899 a 3.9478744,3.5646531 0 0 0 3.81203,4.49222 h 121.29475 a 3.9473443,3.5641744 0 0 0 3.72979,-4.73123 l -8.1998,-21.38991 a 3.9503183,3.5668598 0 0 0 -3.73104,-2.39871 z"/><polygon id="polygon123" fill="#2f2e41" points="695.761 375.126 695.761 380.985 91.84 380.985 92.295 380.253 92.295 375.126" transform="matrix(0.89849596,0,0,0.81127869,56,55.548183)"/><path style="stroke-width:.853775" id="path125" fill="#e6e6e6" d="M 512.43939,124.53848 H 384.41301 v 2.11141 h 128.02638 a 23.765952,21.458983 0 0 1 0,42.91796 H 318.71341 a 23.765952,21.458983 0 0 1 0,-42.91796 h 7.23958 v -2.11141 h -7.23958 a 26.104354,23.570397 0 0 0 0,47.14078 h 193.72598 a 26.104354,23.570397 0 1 0 0,-47.14078 z"/><path style="stroke-width:.853775" id="path127" fill="#e6e6e6" d="M 512.43939,197.3822 H 384.41301 v 2.11141 h 128.02638 a 23.765955,21.458986 0 0 1 0,42.91796 H 318.71341 a 23.765952,21.458983 0 0 1 0,-42.91796 h 7.23958 v -2.11141 h -7.23958 a 26.104354,23.570397 0 0 0 0,47.14079 h 193.72598 a 26.104354,23.570397 0 1 0 0,-47.14079 z"/><path style="stroke-width:.853775" id="path129" fill="#e6e6e6" d="M 512.43939,270.22592 H 384.41301 v 2.11143 h 128.02638 a 23.765946,21.458978 0 1 1 0,42.91795 H 318.71341 a 23.765946,21.458978 0 0 1 0,-42.91795 h 7.23958 v -2.11142 h -7.23958 a 26.104354,23.570397 0 0 0 0,47.14079 h 193.72598 a 26.104354,23.570397 0 1 0 0,-47.14079 z"/><path style="stroke-width:.853775" id="ab287899-84e3-434f-b92d-b2aaa12c9990" fill="#3f3d56" d="m 340.40377,118.96047 a 6.953029,6.2780964 0 0 0 0,12.55454 h 30.49945 a 6.9530514,6.2781164 0 1 0 0.22828,-12.55454 q -0.11413,-0.002 -0.22828,0 z" data-name="Path 40"/><path style="stroke-width:.853775" id="af2a4b37-a3ed-4662-953e-6f9b285406f1" fill="#3f3d56" d="m 340.40377,192.85991 a 6.953029,6.2780964 0 0 0 0,12.55453 h 30.49945 a 6.9530495,6.2781149 0 0 0 0.22828,-12.55453 q -0.11413,-0.002 -0.22828,0 z" data-name="Path 40"/><path style="stroke-width:.853775" id="ff7e389f-e1f1-4104-a8c8-8a888f7bdbd5" fill="#3f3d56" d="m 340.40377,264.64793 a 6.953038,6.2781044 0 0 0 0,12.55453 h 30.49945 a 6.9530495,6.2781149 0 0 0 0.22828,-12.55453 q -0.11413,-0.002 -0.22828,0 z" data-name="Path 40"/><path style="stroke-width:.853775" id="ab3f55ca-45f9-4d6f-a8ad-e44fa73330dd" fill="#00b0ff" d="m 328.30668,141.83163 a 6.953029,6.2780964 0 0 0 0,12.55454 h 174.31117 a 6.9530514,6.2781164 0 1 0 0.22828,-12.55454 q -0.11413,-0.002 -0.22828,0 z" data-name="Path 40"/><path style="stroke-width:.853775" id="b755e68c-1f13-420d-a9db-7573ff270e8f" fill="#00b0ff" d="m 328.30668,214.67534 a 6.953038,6.2781044 0 0 0 0,12.55455 h 174.31117 a 6.9530571,6.2781215 0 1 0 0.22828,-12.55455 q -0.11413,-0.002 -0.22828,0 z" data-name="Path 40"/><path style="stroke-width:.853775" id="f0f56a0b-ed67-4282-9bfe-4d2fc6a8304e" fill="#e6e6e6" d="m 328.30668,287.51907 a 6.953038,6.2781044 0 0 0 0,12.55453 h 174.31117 a 6.9530495,6.2781149 0 1 0 0.22828,-12.55453 q -0.11413,-0.002 -0.22828,0 z" data-name="Path 40"/><ellipse style="stroke-width:.853775" id="circle137" cx="263.566" cy="147.614" fill="#00b0ff" rx="13.922" ry="12.571"/><polygon id="polygon139" fill="#fff" points="237.046 107.129 239.461 109.417 229.577 119.849 225.063 114.045 227.688 112.003 229.826 114.751" transform="matrix(0.89849596,0,0,0.81127869,56,55.548183)"/><ellipse style="stroke-width:.853775" id="circle141" cx="263.566" cy="220.458" fill="#00b0ff" rx="13.922" ry="12.571"/><polygon id="polygon143" fill="#fff" points="237.046 196.918 239.461 199.206 229.577 209.638 225.063 203.834 227.688 201.792 229.826 204.54" transform="matrix(0.89849596,0,0,0.81127869,56,55.548183)"/><ellipse style="stroke-width:.853775" id="circle145" cx="263.566" cy="293.302" fill="#e6e6e6" rx="13.922" ry="12.571"/><ellipse style="stroke-width:.853775" id="circle147" cx="568.727" cy="147.614" fill="#e6e6e6" rx="13.922" ry="12.571"/><ellipse style="stroke-width:.853775" id="circle149" cx="568.727" cy="220.458" fill="#e6e6e6" rx="13.922" ry="12.571"/><ellipse style="stroke-width:.853775" id="circle151" cx="568.727" cy="293.302" fill="#e6e6e6" rx="13.922" ry="12.571"/><polygon id="polygon153" fill="#fff" points="237.046 286.707 239.461 288.994 229.577 299.427 225.063 293.623 227.688 291.581 229.826 294.329" transform="matrix(0.89849596,0,0,0.81127869,56,55.548183)"/><rect style="stroke-width:.855999" id="rect155" width="1.561" height="10.489" x="272.078" y="487.88" fill="#fff" transform="matrix(0.74221196,-0.67016521,0.74221196,0.67016521,0,0)"/><rect style="stroke-width:.855999" id="rect157" width="10.489" height="1.561" x="267.89" y="492.62" fill="#fff" transform="matrix(0.74221196,-0.67016521,0.74221196,0.67016521,0,0)"/><rect style="stroke-width:.855999" id="rect159" width="1.561" height="10.489" x="217.731" y="542.228" fill="#fff" transform="matrix(0.74221196,-0.67016521,0.74221196,0.67016521,0,0)"/><rect style="stroke-width:.855999" id="rect161" width="10.489" height="1.561" x="213.543" y="546.968" fill="#fff" transform="matrix(0.74221196,-0.67016521,0.74221196,0.67016521,0,0)"/><rect style="stroke-width:.855999" id="rect163" width="1.561" height="10.489" x="163.383" y="596.575" fill="#fff" transform="matrix(0.74221196,-0.67016521,0.74221196,0.67016521,0,0)"/><rect style="stroke-width:.855999" id="rect165" width="10.489" height="1.561" x="159.195" y="601.315" fill="#fff" transform="matrix(0.74221196,-0.67016521,0.74221196,0.67016521,0,0)"/><path style="stroke-width:.853775" id="path167" fill="#ffb8b8" d="m 266.24397,288.26599 v 0 a 10.053271,9.0773971 0 0 0 1.86132,-13.70719 l -13.36545,-13.15459 -12.83756,5.86891 9.82574,17.52259 a 10.053271,9.0773971 0 0 0 14.51595,3.47028 z"/><path style="stroke-width:.853775" id="path169" fill="#ffb8b8" d="m 93.47293,327.33326 v 0 a 10.053271,9.0773971 0 0 0 8.51802,-11.46986 l -5.3432,-17.18735 H 82.2585 v 19.64057 a 10.053271,9.0773971 0 0 0 11.21443,9.01664 z"/><polygon id="polygon171" fill="#ffb8b8" points="152.006 477.034 134.211 477.034 134.211 494.829 164.462 490.084" transform="matrix(0.89849596,0,0,0.81127869,56,55.548183)"/><path style="stroke-width:.853775" id="path173" fill="#ffb8b8" d="m 89.18668,457.95459 28.24562,6.73686 c -5.20237,-9.74447 -8.40598,-18.36644 -6.39524,-24.06021 l -13.3234,-1.44361 z"/><polygon id="polygon175" fill="#575a88" points="133.618 478.814 153.192 478.814 151.412 249.861 75.49 249.861 43.46 475.848 61.848 479.407 112.265 316.886" transform="matrix(0.89849596,0,0,0.81127869,56,55.548183)"/><path style="fill:#000;stroke-width:.853775" id="path177" fill="#575a88" d="m 181.79173,462.83568 26.88521,-7.98535 a 5.2287074,4.7211552 0 0 0 3.04286,-6.59613 v 0 a 5.2287253,4.7211715 0 0 0 -5.0292,-2.59904 l -6.09861,0.37207 -2.39005,-1.21449 a 1.3902428,1.2552915 0 0 0 -1.96736,1.5719 l 2.20406,4.83313 -22.38334,-1.44361 -1.10438,7.97738 a 5.2429845,4.7340465 0 0 0 6.84081,5.08414 z"/><path style="fill:#000;stroke-width:.853775" id="path179" fill="#575a88" d="m 90.92309,466.50655 29.2252,1.71098 a 5.410536,4.8853337 0 0 0 5.74283,-5.27086 v 0 a 5.410518,4.8853174 0 0 0 -3.71605,-4.24907 l -6.01368,-1.76983 -1.77482,-1.9995 a 1.4385819,1.2989382 0 0 0 -2.56107,0.82283 l 0.0482,5.4084 -20.86989,-9.19246 -4.47283,7.27292 a 5.4252893,4.8986548 0 0 0 4.39204,7.26659 z"/><ellipse style="stroke-width:.853775" id="circle181" cx="153.139" cy="136.51" fill="#ffb8b8" rx="19.719" ry="17.805"/><path style="stroke-width:.853775" id="path183" fill="#ffb8b8" d="m 140.34856,169.23213 h 27.17977 v -23.579 h -27.17977 c 2.24612,7.28202 1.95572,15.21637 0,23.579 z"/><path style="stroke-width:.853775" id="path185" fill="#00b0ff" d="m 120.09699,260.6609 74.6111,0.96241 7.46111,-71.17309 a 24.616147,22.226651 0 0 0 -16.70002,-21.04601 l -11.54561,-3.5405 -6.39523,-6.73687 c -8.07432,-1.5755 -16.85945,-1.19358 -26.11389,0.48121 l -6.92818,9.14287 -7.46066,2.14993 a 24.539776,22.157692 0 0 0 -17.06898,21.7308 c 5.55159,25.89131 9.86841,49.95461 10.14036,68.02925 z"/><path style="stroke-width:.853775" id="path187" fill="#00b0ff" d="m 79.59381,298.67604 18.65278,1.92482 21.31745,-77.47389 2.13176,-50.04522 -0.62939,0.27503 a 35.302374,31.875561 0 0 0 -19.27262,22.58855 z"/><path style="stroke-width:.853775" id="path189" fill="#00b0ff" d="m 242.67236,269.80379 14.38927,-6.25565 -42.20534,-71.10963 a 55.179009,49.822766 0 0 0 -28.14223,-22.72518 v 0 l 7.99405,45.23319 z"/><path style="fill:#1a1a1a;stroke-width:.853775" id="path191" fill="#2f2e41" d="m 140.95163,152.53533 c 0,0 19.33591,-1.03545 19.7545,-4.05529 0.41858,-3.01985 3.24169,-9.9086 6.58619,-9.53066 3.3445,0.37795 12.61341,-9.68916 10.6283,-13.74743 -1.98509,-4.05826 -11.35437,-18.99971 -30.48221,-12.1132 -19.12785,6.8865 -16.93591,24.15687 -14.95075,28.21514 1.98515,4.05826 8.46397,11.23144 8.46397,11.23144 z"/><path style="stroke-width:.853775" id="path193" fill="#00b0ff" d="m 614.16264,370.76849 a 0.96293609,0.8694636 0 0 0 -0.9283,0.64234 l -1.55313,5.20877 a 0.96139068,0.86806819 0 0 0 0.92828,1.09392 h 29.53709 a 0.96124692,0.86793839 0 0 0 0.90825,-1.15214 l -1.99677,-5.20876 a 0.96194775,0.86857118 0 0 0 -0.90857,-0.58413 z"/><path style="stroke-width:.853775" id="path195" fill="#00b0ff" d="m 571.03483,370.76849 a 0.96293609,0.8694636 0 0 0 -0.9283,0.64234 l -1.55312,5.20877 a 0.96139068,0.86806819 0 0 0 0.92827,1.09392 h 29.53709 a 0.96124692,0.86793839 0 0 0 0.90826,-1.15214 l -1.99678,-5.20876 a 0.96194775,0.86857118 0 0 0 -0.90857,-0.58413 z"/><g id="g1082" transform="matrix(0.09238231,0,0,0.08620077,605.67467,95.236098)" style="fill:#2a7fff"><path style="fill:#2a7fff" id="path1074" d="m 235.015,43.268 v 195.943 c 0,2.318 1.878,4.197 4.197,4.197 h 268.525 c 2.318,0 4.197,-1.878 4.197,-4.197 V 4.197 c 0,-1.219 -0.529,-2.377 -1.45,-3.174 -0.92,-0.797 -2.14,-1.153 -3.351,-0.979 L 238.607,39.115 c -2.063,0.301 -3.592,2.07 -3.592,4.153 z"/><path style="fill:#2a7fff" id="path1076" d="m 205.641,469.945 c 1.009,0 1.991,-0.363 2.76,-1.034 0.913,-0.797 1.437,-1.951 1.437,-3.163 V 272.787 c 0,-2.318 -1.878,-4.197 -4.197,-4.197 H 4.351 c -1.113,0 -2.181,0.443 -2.968,1.229 -0.787,0.787 -1.229,1.855 -1.229,2.968 l 0.01,165.376 c 0,2.097 1.549,3.874 3.626,4.16 l 201.28,27.588 c 0.19,0.021 0.381,0.034 0.571,0.034 z"/><path style="fill:#2a7fff" id="path1078" d="m 4.38,243.408 h 201.261 c 2.318,0 4.197,-1.878 4.197,-4.197 V 48.146 c 0,-1.212 -0.524,-2.364 -1.435,-3.161 -0.912,-0.797 -2.117,-1.163 -3.325,-0.997 L 3.633,71.344 C 1.549,71.628 -0.002,73.406 0,75.507 l 0.183,163.707 c 0.003,2.317 1.882,4.194 4.197,4.194 z"/><path style="fill:#2a7fff" id="path1080" d="m 507.736,512 c 1.006,0 1.984,-0.361 2.753,-1.029 0.917,-0.797 1.444,-1.951 1.444,-3.168 L 512,272.787 c 0,-1.111 -0.441,-2.181 -1.229,-2.968 -0.787,-0.787 -1.855,-1.229 -2.968,-1.229 H 239.211 c -2.318,0 -4.197,1.878 -4.197,4.197 v 197.239 c 0,2.092 1.541,3.864 3.611,4.156 L 507.15,511.96 c 0.197,0.027 0.391,0.04 0.586,0.04 z"/></g></svg>