<svg xmlns="http://www.w3.org/2000/svg" xmlns:v="https://vecta.io/nano" xmlns:xlink="http://www.w3.org/1999/xlink" width="762" height="689.787"><style>.B{fill:#1784b9}.C{fill:#fff}.D{opacity:.24}</style><defs><linearGradient id="A" gradientTransform="matrix(0.99780432,0,0,0.81915909,45.65851,137.89596)" xlink:href="#B"/><linearGradient id="B" x1="488" x2="451.71" y1="269.1" y2="362.84" gradientUnits="userSpaceOnUse"><stop offset="0" stop-color="#010101" stop-opacity="0"/><stop offset=".95" stop-color="#010101"/></linearGradient><linearGradient id="C" gradientTransform="matrix(0.99780432,0,0,0.81915909,45.65851,137.89596)" xlink:href="#D"/><linearGradient id="D" x1="475.54" x2="566.26" y1="295.98" y2="121.93" gradientUnits="userSpaceOnUse"><stop offset="0" stop-color="#fff" stop-opacity="0"/><stop offset=".95" stop-color="#fff"/></linearGradient><linearGradient id="E" x1="530.322" x2="546.915" y1="355.596" y2="276.645" xlink:href="#D"/><linearGradient id="F" x1="492.98" x2="505.45" y1="225.57" y2="200.34" gradientTransform="matrix(0.99780432,0,0,0.81915909,47.26497,135.74976)" xlink:href="#B"/><linearGradient id="G" x1="527.159" x2="567.39" y1="281.445" y2="281.445" xlink:href="#D"/><linearGradient id="H" x1="509.428" x2="530.322" y1="306.454" y2="306.454" xlink:href="#B"/><linearGradient id="I" x1="447.78" x2="468.73" y1="205.13" y2="205.13" gradientTransform="matrix(-0.96787019,-0.19659819,-0.23947304,0.79458431,1060.5552,237.97262)" xlink:href="#B"/><linearGradient id="J" x1="566.133" x2="326.271" y1="355.121" y2="401.878" xlink:href="#D"/><linearGradient id="K" x1="546.814" x2="558.448" y1="264.336" y2="264.336" xlink:href="#B"/><path id="L" d="M556.534 367.646q-1.277 13.025-6.985 18.841-7.354 7.471-20.774 7.487-12.972 0-20.615-7.651c-4.989-5.079-7.514-13.328-7.553-24.845a78.986 64.845 0 0 1 2.165-6.332 27.819 22.838 0 0 0 9.16-6.963c3.502-4.251 5.308-9.461 9.689-13.107 1.487-1.221 3.213-2.277 4.301-3.735a9.12 7.487 0 0 0 1.247-3.096c.359-2.179-.08-4.555-.12-6.799a26.661 21.888 0 0 1 3.931-11.64c8.322.098 16.514 3.195 24.676 4.415 3.572 4.915-2.654 11.255-.928 16.826.609 1.982 2.215 3.662 2.894 5.644 1.128 3.367-.599 6.66-2.285 10.027a41.259 33.872 0 0 0-1.936 4.653c-1.596 5.423.499 10.977 3.133 16.277z"/><path id="M" d="M527.159 301.072s4.52-50.788 28.657-56.35 2.993 67.499 2.993 67.499-31.65 19.815-31.65-11.149z"/><path id="N" d="M524.305 292.111c-5.538 4.317-11.285 8.896-13.59 14.876-1.726 4.448-1.357 9.232-.998 13.926.11 1.253.429 2.761 1.856 3.211 1.616.508 3.193-.77 4.181-1.933 3.353-3.948 6.176-8.347 10.816-11.28a8.721 7.159 0 0 0 2.135-1.638 7.154 5.873 0 0 0 .808-3.055c.259-5.816.738-11.739.778-17.505-2.375.508-4.151 1.958-5.987 3.4z"/></defs><path fill="#ccc" d="M692.482 577.967H72.735a40.172 31.234 0 0 1-40.127-31.198V168.315a29.431 22.882 0 0 1 29.397-22.857h640.698a29.94 23.278 0 0 1 29.906 23.252v378.058a40.172 31.234 0 0 1-40.127 31.198z"/><path d="M90.807 560.056h584.67a41.98 32.351 0 0 0 41.98-32.351V217.236a41.98 32.351 0 0 0-41.98-32.351H90.807a41.98 32.351 0 0 0-41.98 32.351v310.468a41.98 32.351 0 0 0 41.98 32.351z" class="C"/><path fill="#06f" d="M732.202 168.347H32.895v-16.962a40.266 33.466 0 0 1 40.232-33.417H691.97a40.266 33.466 0 0 1 40.233 33.417z"/><g class="C"><ellipse cx="451.261" cy="388.568" rx="4.794" ry="4.328"/><ellipse cx="469.458" cy="388.568" rx="4.794" ry="4.328"/><ellipse cx="487.655" cy="388.568" rx="4.794" ry="4.328"/></g><path fill="#2a98ff" d="M636.718 235.9l-1.138 67.343-20.076 9.052-5.089-50.157-203.781 111.406-106.256-72.635L89.652 422.144c-4.42-6.398-9.359-12.631-14.259-18.841l226.392-130.336 106.685 72.995 185.252-98.913c.2.049-53.173-15.326-53.173-15.326 1.577-.926 11.275-9.83 12.972-10.837l68.848 10.387c9.729 2.67 5.149.868 14.348 4.628z"/><g class="B"><rect width="100.459" height="28.892" x="586.408" y="296.624" class="D" rx="9.878"/><rect width="131.141" height="38.14" x="109.069" y="426.027" class="D" rx="12.961"/><path d="M455.187 375.903q0-30.104 18.809-46.872 18.809-16.768 52.395-16.768 34.424 0 53.043 16.473 18.619 16.473 18.629 46.16 0 21.552-8.142 35.347c-5.097 8.898-13.278 16.363-23.518 21.462q-15.366 7.643-38.326 7.643-23.319 0-38.605-6.627-15.286-6.627-24.736-20.93-9.549-14.335-9.549-35.887zm42.606.172q0 18.619 7.763 26.746 7.763 8.126 21.114 8.134 13.73 0 21.253-7.97 7.523-7.97 7.523-28.589 0-17.358-7.853-25.394-7.853-8.036-21.303-7.954c-8.072-.187-15.758 2.832-20.645 8.11q-7.843 8.134-7.853 26.918z" opacity=".37"/></g><path d="M178.277 397.709l40.77-2.097q1.327 8.192 5.398 12.427 6.615 6.922 18.958 6.914 9.18 0 14.139-3.539 4.959-3.539 4.989-8.192 0-4.423-4.73-7.921-4.73-3.498-21.952-6.602-28.188-5.202-40.202-13.819c-7.897-5.433-12.351-13.522-12.103-21.978.021-5.908 2.178-11.678 6.196-16.58q6.196-7.807 18.629-12.287 12.433-4.481 34.105-4.464 26.581 0 40.531 8.118 13.949 8.118 16.603 25.82l-40.421 1.958q-1.616-7.692-6.765-11.182-5.149-3.49-14.239-3.498-7.464 0-11.255 2.605c-2.391 1.513-3.789 3.853-3.782 6.332.066 1.945 1.217 3.758 3.123 4.915q2.993 2.244 14.378 4.194 28.098 4.964 40.251 10.051 12.153 5.087 17.681 12.623c3.699 5.081 5.606 10.906 5.508 16.826.041 7.184-2.53 14.215-7.384 20.192-5.032 6.243-12.206 11.12-20.615 14.016q-13.241 4.776-33.396 4.776-35.362 0-48.992-11.182-13.63-11.182-15.426-28.425zm147.285-76.182H440.4v24.313h-71.892v18.087h66.683v23.223h-66.683v22.445h73.967v25.779H325.562z" class="B" opacity=".37"/><g class="C"><path d="M179.414 379.597l40.77-2.097q1.317 8.192 5.388 12.427 6.635 6.914 18.958 6.914 9.17 0 14.139-3.539 4.969-3.539 4.989-8.192 0-4.423-4.73-7.921-4.73-3.498-21.952-6.602-28.198-5.202-40.202-13.819a33.925 27.851 0 0 1-12.113-21.978 36.36 29.85 0 0 1 6.196-16.58q6.196-7.798 18.639-12.287 12.443-4.489 34.095-4.464 26.582 0 40.541 8.118 13.959 8.118 16.593 25.82l-40.391 1.941q-1.596-7.692-6.765-11.182-5.169-3.49-14.229-3.498-7.483 0-11.255 2.605a9.709 7.97 0 0 0-3.792 6.324 7.713 6.332 0 0 0 3.123 4.915q2.993 2.261 14.378 4.202 28.088 4.964 40.251 10.051 12.163 5.087 17.691 12.623a39.034 32.046 0 0 1 5.528 16.85 44.043 36.158 0 0 1-7.374 20.192 46.188 37.919 0 0 1-20.625 14.016q-13.241 4.784-33.387 4.776-35.382 0-49.002-11.182-13.62-11.182-15.466-28.433zm147.276-76.182h114.837v24.304h-71.892v18.095h66.693v23.223h-66.693v22.445h73.977v25.746H326.69z"/><rect width="396.747" height="38.394" x="183.475" y="485.49" rx="14.398"/></g><path d="M571.791 484.761c-1.906-.617-3.938-.931-5.987-.926h-367.92c-9.058.004-16.406 6.022-16.434 13.459v14.745c.021 7.44 7.372 13.462 16.434 13.467h367.96c9.033-.049 16.34-6.051 16.394-13.467v-14.745c0-5.546-4.152-10.521-10.447-12.533zm6.436 27.311c-.015 5.609-5.551 10.152-12.383 10.166h-367.96c-6.845 0-12.401-4.546-12.423-10.166v-14.745c.029-5.616 5.581-10.158 12.423-10.158h367.96c7.234-.919 12.361 4.552 12.383 10.158z" class="B" opacity=".553"/><path d="M197.704 508.377c.807.412 1.734.641 2.684.664 1.477 0 2.165-.606 2.165-1.368s-.579-1.229-2.075-1.687c-1.996-.59-2.993-1.499-2.993-2.597 0-1.483 1.457-2.695 3.862-2.695a6.6 6.6 0 0 1 2.754.565l-.509 1.221a5.05 5.05 0 0 0-2.285-.532c-1.207 0-1.876.565-1.876 1.253s.669 1.098 2.125 1.556c1.946.598 2.934 1.401 2.934 2.769 0 1.638-1.527 2.752-4.181 2.752-1.096.014-2.178-.204-3.143-.631zm10.597-2.58c-.086.851.283 1.691 1.011 2.301s1.743.93 2.781.877a8.68 8.68 0 0 0 3.103-.475l.349 1.196a10.72 10.72 0 0 1-3.722.573c-3.452 0-5.508-1.859-5.508-4.636s1.996-4.915 5.248-4.915c3.652 0 4.62 2.638 4.62 4.325-.003.26-.023.52-.06.778zm5.987-1.196c0-1.065-.539-2.711-2.824-2.711-2.055 0-2.993 1.548-3.123 2.711zm10.606 5.48l-.16-1.155h-.07c-.807.881-2.08 1.39-3.422 1.368-.889.053-1.765-.202-2.415-.703s-1.015-1.202-1.007-1.934c0-2.22 2.405-3.432 6.725-3.416v-.18c.093-.576-.142-1.155-.636-1.571s-1.195-.622-1.898-.559c-1.03.002-2.039.241-2.914.688l-.469-1.106c1.111-.548 2.386-.832 3.682-.819 3.422 0 4.251 1.917 4.251 3.752v3.44a10.55 10.55 0 0 0 .18 2.195zm-.299-4.686c-2.215-.041-4.74.287-4.74 2.072-.042.428.146.85.514 1.155s.88.464 1.402.434c1.212.03 2.308-.591 2.704-1.532a1.47 1.47 0 0 0 .12-.532zm5.238-1.63l-.09-2.867h1.776l.07 1.802h.09c.396-1.15 1.649-1.96 3.103-2.007a2.53 2.53 0 0 1 .579.057v1.573c-.229-.042-.464-.061-.698-.057-1.437.05-2.605.969-2.724 2.146-.058.257-.088.517-.09.778v4.915h-1.996zm15.297 5.98c-1.009.372-2.107.553-3.213.532-3.373 0-5.568-1.884-5.568-4.694-.076-1.318.532-2.601 1.673-3.53s2.709-1.418 4.313-1.344a8.11 8.11 0 0 1 2.824.475l-.469 1.294a5.51 5.51 0 0 0-2.355-.442c-2.564 0-3.991 1.556-3.991 3.473-.099.891.267 1.774 1.007 2.43s1.785 1.023 2.874 1.01a6.89 6.89 0 0 0 2.495-.459zm2.374-13.131h1.996v5.734c.348-.493.851-.901 1.457-1.18.635-.3 1.353-.46 2.085-.467 1.507 0 3.901.754 3.901 3.924v5.464h-1.996v-5.275c0-1.474-.669-2.728-2.584-2.728-1.239.017-2.331.673-2.724 1.638a1.63 1.63 0 0 0-.14.819v5.538h-1.996z" opacity=".56"/><path fill="#0283ff" d="M578.735 498.383l-.512 15.688c.017 3.952-5.577 7.324-10.488 8.28l-39.937.055v-35.547h41.925c5.994 1.884 9.01 6.338 9.012 11.524z" opacity=".716"/><g class="C"><path d="M548.931 512.9a14.099 11.575 0 1 1 14.089-11.567 14.119 11.591 0 0 1-14.089 11.567zm0-19.922a10.178 8.355 0 1 0 10.168 8.355 10.178 8.355 0 0 0-10.168-8.355z"/><path d="M555.096 508.886l3.318-2.155 9.353 9.708-3.318 2.155zm25.206-192.307q-18.22-15.482-51.796-15.507-32.798 0-51.197 15.769c-12.213 10.559-18.37 25.238-18.37 44.144q0 20.291 9.29 33.782 9.289 13.492 24.227 19.725 14.897 6.242 37.697 6.234 22.421 0 37.408-7.225a58.332 47.888 0 0 0 22.949-20.184q7.883-13.025 7.913-33.291.02-27.901-18.12-43.448zm-79.724 44.57q0-17.718 7.593-25.337a24.436 20.061 0 0 1 18.958-7.585 6.496 5.333 0 0 1 1.247-.066q13.121 0 20.814 7.52a31.441 25.812 0 0 1 6.107 11.018 70.505 57.882 0 0 1 1.567 12.869c0 2.9-.12 5.57-.359 8.077q-1.277 13.025-6.985 18.841-7.354 7.471-20.774 7.487-12.971 0-20.615-7.651c-4.989-5.079-7.514-13.328-7.553-24.845z"/></g><use class="B" xlink:href="#L"/><use fill="url(#A)" xlink:href="#L"/><path fill="url(#C)" d="M551.436 369.775q-.998 13.016-5.238 18.841c-3.672 4.98-8.851 7.495-15.566 7.495q-9.759 0-15.446-7.659c-3.732-5.079-5.628-13.328-5.658-24.837q.669-3.277 1.626-6.332a25.105 20.61 0 0 0 6.865-6.963c2.614-4.26 3.991-9.469 7.254-13.107a26.053 21.388 0 0 0 3.223-3.727 11.435 9.388 0 0 0 .928-3.105 76.482 62.789 0 0 0-.089-6.791 33.716 27.679 0 0 1 2.993-11.648c6.226.098 12.373 3.203 18.479 4.423 2.684 4.915-1.996 11.247-.688 16.826.449 1.974 1.656 3.662 2.165 5.636.848 3.367-.449 6.668-1.716 10.035a53.373 43.817 0 0 0-1.447 4.645c-1.207 5.415.359 10.985 2.315 16.269z"/><path fill="url(#E)" d="M531.23 337.681l1.297-1.188a31.75 26.066 0 0 1-6.985 16.998c-2.165 2.195-4.859 4.227-5.698 6.971a39.703 32.594 0 0 0 17.122-21.052c.698-3.039.998-6.365 3.353-8.765l.489 4.186a104.61 85.881 0 0 0 5.358-10.027c.299-.664.539-1.515-.11-1.982a2.235 1.835 0 0 0-1.267-.336c-3.991-.319-8.421-1.409-10.477 1.917-2.345 3.817-2.884 9.101-3.083 13.279z"/><path d="M529.374 311.951s-.569 6.733.998 8.708 12.163 5.808 16.264 4.096a27.739 22.773 0 0 0 6.935-4.292l2.065-6.226z" class="B"/><path fill="url(#F)" d="M530.981 309.805s-.569 6.733.998 8.708 12.163 5.808 16.264 4.096a27.739 22.773 0 0 0 6.935-4.292l2.066-6.226z"/><use class="B" xlink:href="#M"/><use fill="url(#G)" xlink:href="#M"/><use class="B" xlink:href="#N"/><use fill="url(#H)" xlink:href="#N"/><path d="M567.71 297.386c4.141 5.275 8.402 10.846 8.92 17.096.389 4.661-1.357 9.24-3.073 13.688-.459 1.196-1.207 2.597-2.724 2.761-1.726.18-2.884-1.368-3.512-2.695-2.115-4.481-3.592-9.306-7.254-13.057a8.791 7.217 0 0 1-1.606-1.982 7.284 5.98 0 0 1 .089-3.129c1.427-5.734 2.664-11.542 4.3-17.202 2.185 1.016 3.492 2.769 4.859 4.522z" class="B"/><path fill="url(#I)" d="M567.68 297.534c4.131 5.267 8.391 10.837 8.91 17.096.389 4.653-1.347 9.232-3.073 13.688-.459 1.196-1.207 2.597-2.724 2.752-1.716.18-2.884-1.368-3.512-2.695-2.115-4.481-3.592-9.297-7.244-13.049a8.571 7.037 0 0 1-1.606-1.982 7.174 5.89 0 0 1 .08-3.129c1.427-5.734 2.674-11.55 4.3-17.202 2.195 1.016 3.492 2.769 4.869 4.522z"/><path fill="url(#J)" d="M540.29 341.375a32.928 27.032 0 0 0-2.415 6.373c-.359 2.179-.059 4.399-.299 6.553-.469 4.44-3.073 8.511-4.52 12.812-2.055 6.127-1.706 12.599-1.337 18.939l8.851-23.379a44.492 36.526 0 0 0 1.996-6.553 62.363 51.197 0 0 0-.05-7.602 92.866 76.239 0 0 1 1.097-13.246c-1.527 1.745-2.335 4.088-3.323 6.103z"/><ellipse cx="552.681" cy="264.485" class="B" rx="7.144" ry="5.865"/><ellipse cx="552.631" cy="264.336" fill="url(#K)" rx="5.817" ry="4.776"/><rect width="138.415" height="39.803" x="96.656" y="417.401" class="C" rx="13.61"/><rect width="112.083" height="3.424" x="110.995" y="428.312" fill="#1ca0e0" opacity=".753" rx="2.085"/><rect width="78.886" height="3.236" x="110.995" y="437.782" class="B D" rx="1.696"/><rect width="100.459" height="28.892" x="589.711" y="287.646" class="C" rx="9.878"/><rect width="81.351" height="2.482" x="600.118" y="295.568" class="B D" rx="1.517"/><rect width="57.264" height="2.351" x="600.118" y="302.44" fill="#1da6e9" opacity=".655" rx="1.237"/><path d="M261.164 491.06h1.507v24.149h-1.507z" class="B" opacity=".359"/><g class="C"><ellipse cx="66.441" cy="143.214" rx="5.723" ry="5.92"/><ellipse cx="88.164" cy="143.214" rx="5.723" ry="5.92"/><ellipse cx="109.888" cy="143.214" rx="5.723" ry="5.92"/></g></svg>