<svg xmlns="http://www.w3.org/2000/svg" xmlns:svg="http://www.w3.org/2000/svg" xmlns:xlink="http://www.w3.org/1999/xlink" id="b6844486-882e-488a-b917-920917943dff" width="762" height="689.787" data-name="Layer 1" version="1.1" viewBox="0 0 762 689.787"><metadata id="metadata6863"/><defs id="defs6861"><linearGradient id="5a176c23-bf11-4e32-afb4-461b4082aabc-5" x1="687.77" x2="687.77" y1="477.59" y2="422.25" gradientTransform="matrix(0.52041505,0,0,0.44301252,-873.14614,28.627392)" xlink:href="#347a516f-b616-42cd-bca2-6cfbf586638c"/><linearGradient id="347a516f-b616-42cd-bca2-6cfbf586638c" x1="572.9" x2="572.9" y1="755.08" y2="525.34" gradientUnits="userSpaceOnUse"><stop id="stop9441" offset="0" stop-color="gray" stop-opacity=".25"/><stop id="stop9443" offset=".54" stop-color="gray" stop-opacity=".12"/><stop id="stop9445" offset="1" stop-color="gray" stop-opacity=".1"/></linearGradient><linearGradient id="linear-gradient" x1="488" x2="451.71" y1="269.1" y2="362.84" gradientUnits="userSpaceOnUse"><stop id="stop5545" offset="0" stop-color="#010101" stop-opacity="0"/><stop id="stop5547" offset=".95" stop-color="#010101"/></linearGradient><linearGradient id="linear-gradient-2" x1="475.54" x2="566.26" y1="295.98" y2="121.93" gradientUnits="userSpaceOnUse"><stop id="stop5550" offset="0" stop-color="#fff" stop-opacity="0"/><stop id="stop5552" offset=".95" stop-color="#fff"/></linearGradient><linearGradient id="linear-gradient-3" x1="485.73" x2="502.36" y1="265.76" y2="169.38" gradientTransform="matrix(0.83769662,0,0,0.73108882,103.56451,165.75335)" xlink:href="#linear-gradient-2"/><linearGradient id="linear-gradient-4" x1="492.98" x2="505.45" y1="225.57" y2="200.34" gradientTransform="matrix(0.83769662,0,0,0.73108882,104.9132,163.8379)" xlink:href="#linear-gradient"/><linearGradient id="linear-gradient-5" x1="482.56" x2="522.88" y1="175.24" y2="175.24" gradientTransform="matrix(0.83769662,0,0,0.73108882,103.56451,165.75335)" xlink:href="#linear-gradient-2"/><linearGradient id="linear-gradient-6" x1="464.79" x2="485.73" y1="205.77" y2="205.77" gradientTransform="matrix(0.83769662,0,0,0.73108882,103.56451,165.75335)" xlink:href="#linear-gradient"/><linearGradient id="linear-gradient-7" x1="447.78" x2="468.73" y1="205.13" y2="205.13" gradientTransform="matrix(-0.81256572,-0.17546132,-0.20104719,0.70915616,955.61085,255.07047)" xlink:href="#linear-gradient"/><linearGradient id="linear-gradient-8" x1="521.62" x2="281.23" y1="265.18" y2="322.26" gradientTransform="matrix(0.83769662,0,0,0.73108882,103.56451,165.75335)" xlink:href="#linear-gradient-2"/><linearGradient id="linear-gradient-9" x1="498.55" x2="510.21" y1="123.11" y2="123.11" gradientTransform="matrix(0.83769662,0,0,0.73108882,106.67094,188.59483)" xlink:href="#linear-gradient"/></defs><path style="fill:#ccc;stroke-width:1.96286" id="path6730" fill="#f2f2f2" d="M 646.69621,585.36056 H 101.32995 A 35.350727,29.73994 0 0 1 66.019184,555.65423 V 195.30065 A 25.898526,21.787971 0 0 1 91.887823,173.53689 H 655.69066 a 26.346352,22.164719 0 0 1 26.31633,22.13997 v 359.97737 a 35.350706,29.739922 0 0 1 -35.31078,29.70633 z"/><path style="stroke-width:2.10833" id="path6732" fill="#fff" d="M 117.23267,568.3057 H 631.7318 a 36.941495,30.804185 0 0 0 36.94152,-30.80418 V 241.8817 A 36.941495,30.804185 0 0 0 631.7318,211.0775 H 117.23267 a 36.941495,30.804185 0 0 0 -36.941503,30.8042 v 295.61982 a 36.941495,30.804185 0 0 0 36.941503,30.80418 z"/><path style="fill:#06f;stroke-width:2.02743" id="path6734" fill="#ccc" d="M 681.64947,195.33064 H 66.271563 v -16.15088 a 35.43328,31.865253 0 0 1 35.403867,-31.8192 H 646.2455 a 35.433129,31.865119 0 0 1 35.40397,31.8192 z"/><circle style="stroke-width:1.75822" id="circle6736" cx="182.206" cy="183.795" fill="#fff" rx="7.257" ry="7.815"/><circle style="stroke-width:1.75822" id="circle6738" cx="209.753" cy="183.795" fill="#fff" rx="7.257" ry="7.815"/><circle style="stroke-width:1.75822" id="circle6740" cx="237.3" cy="183.795" fill="#fff" rx="7.257" ry="7.815"/><ellipse id="circle6736-9-3" cx="95.792" cy="171.4" fill="#fff" rx="5.036" ry="5.637" style="stroke-width:1.24387"/><ellipse id="circle6738-1-7" cx="114.907" cy="171.4" fill="#fff" rx="5.036" ry="5.637" style="stroke-width:1.24387"/><ellipse id="circle6740-7-8" cx="134.023" cy="171.4" fill="#fff" rx="5.036" ry="5.637" style="stroke-width:1.24387"/><path id="path7671" fill="#ccc" d="m 334.73795,535.445 h -55.42824 a 12.259712,12.659859 0 0 1 -12.24579,-12.64547 v -57.23739 a 12.259712,12.659859 0 0 1 12.24579,-12.64547 h 55.42824 a 12.259712,12.659859 0 0 1 12.24579,12.64547 v 57.23739 A 12.259712,12.659859 0 0 1 334.73795,535.445 Z m -55.42824,-79.86613 a 9.6784818,9.9943815 0 0 0 -9.66773,9.98327 v 57.23739 a 9.6784955,9.994393 0 0 0 9.66773,9.98326 h 55.42824 a 9.6784955,9.994393 0 0 0 9.66772,-9.98326 v -57.23739 a 9.6784818,9.9943815 0 0 0 -9.66772,-9.98327 z" style="fill:#333;stroke-width:1.30991"/><path id="path7673" fill="#ccc" d="m 323.7812,519.47177 h -33.51474 a 3.8713155,3.9976725 0 0 1 -3.8671,-3.99331 v -42.59527 a 3.8713155,3.9976725 0 0 1 3.8671,-3.9933 h 24.28445 a 3.8764975,4.0030236 0 0 1 2.42261,0.88069 l 9.22966,7.65902 a 3.8469786,3.9725412 0 0 1 1.44512,3.11263 v 34.93623 a 3.8713155,3.9976725 0 0 1 -3.8671,3.99331 z m -33.51474,-47.91968 a 1.2907049,1.3328327 0 0 0 -1.28905,1.3311 v 42.59527 a 1.2907049,1.3328327 0 0 0 1.28905,1.33112 h 33.51474 a 1.2907049,1.3328327 0 0 0 1.28905,-1.33112 v -34.93623 a 1.2820297,1.3238742 0 0 0 -0.48151,-1.03733 l -9.2309,-7.65967 a 1.2916846,1.3338443 0 0 0 -0.80694,-0.29314 z" style="fill:#b3b3b3;stroke-width:1.30991"/><path style="stroke-width:1.30991" id="path7675" fill="#ccc" d="M 317.33607,487.52531 H 296.7116 a 1.2890291,1.3311023 0 0 1 0,-2.6622 h 20.62447 a 1.2890291,1.3311023 0 0 1 0,2.6622 z"/><path style="stroke-width:1.30991" id="path7677" fill="#ccc" d="M 317.33607,495.51193 H 296.7116 a 1.2890361,1.3311093 0 0 1 0,-2.6622 h 20.62447 a 1.2890361,1.3311093 0 0 1 0,2.6622 z"/><path style="stroke-width:1.30991" id="path7679" fill="#ccc" d="M 317.33607,503.49854 H 296.7116 a 1.2890305,1.3311037 0 0 1 0,-2.6622 h 20.62447 a 1.2890305,1.3311037 0 0 1 0,2.6622 z"/><path style="fill:#999;stroke-width:1.30991" id="path7681" fill="#ccc" d="M 466.21894,510.16258 H 410.79069 A 12.259712,12.659859 0 0 1 398.54491,497.51709 V 440.2797 a 12.259712,12.659859 0 0 1 12.24578,-12.64546 h 55.42825 a 12.259712,12.659859 0 0 1 12.24578,12.64546 v 57.23739 a 12.259712,12.659859 0 0 1 -12.24578,12.64549 z m -55.42825,-79.86614 a 9.6784818,9.9943815 0 0 0 -9.66774,9.98326 v 57.23739 a 9.6784955,9.994393 0 0 0 9.66774,9.98328 h 55.42825 a 9.6784955,9.994393 0 0 0 9.6677,-9.98328 V 440.2797 a 9.6784818,9.9943815 0 0 0 -9.6677,-9.98326 z"/><path id="path7683" fill="#ccc" d="M 456.55121,483.54053 H 420.4584 a 3.8713155,3.9976725 0 0 1 -3.86709,-3.99331 v -21.29764 a 3.8713155,3.9976725 0 0 1 3.86709,-3.99331 h 36.09281 a 3.8713155,3.9976725 0 0 1 3.8671,3.99331 v 21.29764 a 3.8713155,3.9976725 0 0 1 -3.8671,3.99331 z M 420.4584,456.91848 a 1.2903183,1.3324334 0 0 0 -1.28903,1.3311 v 21.29764 a 1.2903183,1.3324334 0 0 0 1.28903,1.3311 h 36.09281 a 1.2903183,1.3324334 0 0 0 1.28904,-1.3311 v -21.29764 a 1.2903183,1.3324334 0 0 0 -1.28904,-1.3311 z" style="fill:#80b3ff;stroke-width:1.30991"/><path id="path7685" fill="#ccc" d="m 438.50481,472.41009 a 3.8715347,3.9978987 0 0 1 -2.04936,-0.60251 L 417.1968,459.37856 a 1.2893805,1.3314648 0 0 1 1.36707,-2.25794 l 19.25866,12.42902 a 1.2961833,1.3384897 0 0 0 1.3658,0 l 19.25741,-12.42902 a 1.2893805,1.3314648 0 0 1 1.36707,2.25794 l -19.25739,12.42902 a 3.8726561,3.999057 0 0 1 -2.05061,0.60251 z" style="fill:#80b3ff;stroke-width:1.30991"/><path style="fill:#59f;stroke-width:1.30991" id="path7687" fill="#ccc" d="M 203.25697,510.16258 H 147.82872 A 12.259712,12.659859 0 0 1 135.58295,497.51709 V 440.2797 a 12.259712,12.659859 0 0 1 12.24577,-12.64546 h 55.42825 a 12.259712,12.659859 0 0 1 12.24578,12.64546 v 57.23739 a 12.259712,12.659859 0 0 1 -12.24578,12.64549 z m -55.42825,-79.86614 a 9.6784818,9.9943815 0 0 0 -9.6677,9.98326 v 57.23739 a 9.6784955,9.994393 0 0 0 9.6677,9.98328 h 55.42825 a 9.6784955,9.994393 0 0 0 9.66774,-9.98328 V 440.2797 a 9.6784818,9.9943815 0 0 0 -9.66774,-9.98326 z"/><path id="path7689" fill="#ccc" d="m 193.58927,483.54053 h -36.09282 a 3.8713155,3.9976725 0 0 1 -3.8671,-3.99331 v -21.29764 a 3.8713155,3.9976725 0 0 1 3.8671,-3.99331 h 36.09282 a 3.8713155,3.9976725 0 0 1 3.86708,3.99331 v 21.29764 a 3.8713155,3.9976725 0 0 1 -3.86708,3.99331 z m -36.09282,-26.62205 a 1.2903183,1.3324334 0 0 0 -1.28903,1.3311 v 21.29764 a 1.2903183,1.3324334 0 0 0 1.28903,1.3311 h 36.09282 a 1.2903183,1.3324334 0 0 0 1.28902,-1.3311 v -21.29764 a 1.2903183,1.3324334 0 0 0 -1.28902,-1.3311 z" style="fill:#999;stroke-width:1.30991"/><path id="path7691" fill="#ccc" d="m 187.86856,483.54053 h -25.94042 a 2.5775169,2.6616453 0 0 1 -2.23252,-3.99331 l 7.81349,-13.97657 a 2.5783419,2.6624971 0 0 1 4.46565,0 l 5.04654,9.02654 2.92361,-5.22952 a 2.5783419,2.6624971 0 0 1 4.46565,0 l 5.69107,10.17955 a 2.5780585,2.6622043 0 0 1 -2.23316,3.99331 z m 0,-2.66221 v 0 l -5.69106,-10.17954 -4.03955,7.22617 a 1.2888359,1.3309024 0 0 1 -1.11657,0.66555 v 0 a 1.2888359,1.3309024 0 0 1 -1.11656,-0.66555 l -6.16254,-11.02319 -7.81411,13.97656 z" style="fill:#999;stroke-width:1.30991"/><ellipse id="circle7693" cx="189.722" cy="462.243" fill="#ccc" rx="2.578" ry="2.662" style="fill:#999;stroke-width:1.30991"/><path style="stroke-width:1.37945" id="path7721" fill="#fff" d="M 695.69161,389.95762 H 282.77375 a 22.43702,23.141827 0 0 1 -22.41166,-23.11569 v -91.06172 a 22.437033,23.141841 0 0 1 22.41166,-23.11568 h 412.91786 a 22.437467,23.142288 0 0 1 22.41166,23.11568 v 91.06172 a 22.437467,23.142288 0 0 1 -22.41166,23.11569 z"/><path id="path7723" fill="#3f3d56" d="M 695.69139,390.65828 H 282.77352 a 23.11684,23.843002 0 0 1 -23.09081,-23.81616 v -91.06171 a 23.116827,23.842987 0 0 1 23.09081,-23.81615 h 412.91787 a 23.116827,23.842987 0 0 1 23.09079,23.81615 v 91.06171 a 23.11684,23.843002 0 0 1 -23.09079,23.81616 z M 282.77352,254.76615 a 20.397327,21.038062 0 0 0 -20.37424,21.01426 v 91.06171 a 20.397327,21.038062 0 0 0 20.37424,21.01426 h 412.91787 a 20.397327,21.038062 0 0 0 20.37424,-21.01426 v -91.06171 a 20.397327,21.038062 0 0 0 -20.37424,-21.01426 z" style="fill:#000;stroke-width:1.37945"/><path style="fill:#e6e6e6;stroke-width:1.37945" id="path7725" fill="#f2f2f2" d="M 645.43493,367.54261 H 333.02997 a 22.437033,23.141841 0 0 1 -22.41166,-23.11567 v -47.63228 a 22.43702,23.141827 0 0 1 22.41166,-23.11568 h 312.40496 a 22.437007,23.141813 0 0 1 22.41167,23.11568 v 47.63228 a 22.43702,23.141827 0 0 1 -22.41167,23.11567 z"/><ellipse style="fill:#0af;fill-opacity:1;stroke-width:1.37945" id="circle7727" cx="400.258" cy="314.225" fill="#ff6584" rx="26.802" ry="27.644"/><path style="fill:#4d4d4d;stroke-width:1.37945" id="path7729" fill="#3f3d56" d="M 626.02102,364.75284 588.18941,332.0271 551.01107,299.86639 a 5.4335509,5.6042333 0 0 0 -6.99901,0.0141 l -37.0583,32.30822 -9.05167,7.89198 -13.64849,-11.80632 -41.47802,-35.87952 a 5.4326409,5.6032947 0 0 0 -6.99834,0.0141 l -41.34341,36.04408 -41.99401,36.61172 a 1.358201,1.4008656 0 0 0 0.87944,2.47091 l 86.09707,-0.17111 27.25258,-0.0541 -0.26662,0.23255 81.23564,-0.16142 77.51297,-0.15402 a 1.358133,1.4007955 0 0 0 0.87012,-2.47436 z"/><path style="stroke-width:1.30991" id="path7761" fill="#fff" d="m 598.67021,535.55288 h -55.42825 a 12.259712,12.659859 0 0 1 -12.24578,-12.64546 v -57.2374 a 12.259712,12.659859 0 0 1 12.24578,-12.64547 h 55.42825 a 12.259712,12.659859 0 0 1 12.24578,12.64547 v 57.2374 a 12.259712,12.659859 0 0 1 -12.24578,12.64546 z"/><path id="path7763" fill="#3f3d56" d="m 598.67021,535.55288 h -55.42825 a 12.259712,12.659859 0 0 1 -12.24578,-12.64546 v -57.2374 a 12.259712,12.659859 0 0 1 12.24578,-12.64547 h 55.42825 a 12.259712,12.659859 0 0 1 12.24578,12.64547 v 57.2374 a 12.259712,12.659859 0 0 1 -12.24578,12.64546 z m -55.42825,-79.86614 a 9.6784955,9.994393 0 0 0 -9.66771,9.98328 v 57.2374 a 9.6784955,9.994393 0 0 0 9.66771,9.98326 h 55.42825 a 9.6784955,9.994393 0 0 0 9.66773,-9.98326 v -57.2374 a 9.6784955,9.994393 0 0 0 -9.66773,-9.98328 z" style="fill:#ccc;stroke-width:1.30991"/><path style="fill:#06f;stroke-width:1.30991" id="path7765" fill="#00b0ff" d="m 589.0025,512.25861 h -36.09282 a 3.8713155,3.9976725 0 0 1 -3.86709,-3.99333 v -27.95314 a 3.8713155,3.9976725 0 0 1 3.86709,-3.9933 h 10.16054 a 3.8428152,3.9682419 0 0 1 3.2937,1.8998 l 2.8336,4.75572 h 19.80498 a 3.8713155,3.9976725 0 0 1 3.86709,3.9933 v 21.29762 a 3.8713155,3.9976725 0 0 1 -3.86709,3.99333 z"/><path id="path46696" fill="#7952b3" fill-rule="evenodd" d="m 131.57502,280.67929 c -5.25725,0 -9.14735,5.01048 -8.97317,10.44425 0.1672,5.22037 -0.0498,11.98151 -1.61312,17.49521 -1.56868,5.52918 -4.21979,9.03302 -8.55096,9.4827 v 5.07753 c 4.33117,0.4507 6.98228,3.95275 8.55078,9.48272 1.56327,5.51371 1.78032,12.27485 1.61313,17.49521 -0.1742,5.43297 3.71592,10.44427 8.97404,10.44427 h 53.8693 c 5.25726,0 9.14665,-5.0105 8.97245,-10.44427 -0.16716,-5.22036 0.05,-11.9815 1.61313,-17.49521 1.56867,-5.52997 4.21332,-9.03339 8.54466,-9.48272 v -5.07753 c -4.33118,-0.45068 -6.97581,-3.95274 -8.54466,-9.4827 -1.56329,-5.51293 -1.78029,-12.27484 -1.61313,-17.49521 0.1742,-5.43298 -3.71519,-10.44425 -8.97245,-10.44425 h -53.87073 z m 43.32891,49.19715 c 0,7.48205 -5.12533,12.01972 -13.63095,12.01972 h -14.47891 a 1.5616588,1.7004742 0 0 1 -1.56166,-1.70049 v -39.11071 a 1.5616588,1.7004742 0 0 1 1.56166,-1.70046 h 14.39648 c 7.09227,0 11.74683,4.18318 11.74683,10.60572 0,4.50789 -3.13124,8.54351 -7.12033,9.25053 v 0.23512 c 5.43035,0.64862 9.08688,4.74401 9.08688,10.40057 z m -15.2097,-25.10148 h -8.25566 v 12.69768 h 6.95331 c 5.37528,0 8.33917,-2.35689 8.33917,-6.56969 -4.1e-4,-3.94803 -2.54872,-6.12799 -7.03682,-6.12799 z m -8.25566,17.73581 v 13.99316 h 8.55941 c 5.59664,0 8.56107,-2.44529 8.56107,-7.04076 0,-4.59548 -3.04755,-6.95316 -8.92097,-6.95316 h -8.19951 z" style="stroke-width:.187785"/></svg>