<svg xmlns="http://www.w3.org/2000/svg" xmlns:v="https://vecta.io/nano" xmlns:xlink="http://www.w3.org/1999/xlink" width="762" height="689.787"><path fill="#ccc" d="M668.966 571.361H65.117a39.142 31.234 0 0 1-39.097-31.198V161.709a28.676 22.882 0 0 1 28.643-22.857h624.263a29.172 23.278 0 0 1 29.138 23.252v378.058a39.142 31.234 0 0 1-39.097 31.198z"/><path fill="#fff" d="M82.725 553.449h569.672a40.903 32.351 0 0 0 40.903-32.351V210.629a40.903 32.351 0 0 0-40.903-32.351H82.725a40.903 32.351 0 0 0-40.903 32.351v310.468a40.903 32.351 0 0 0 40.903 32.351z"/><path fill="#06f" d="M707.667 161.74H26.299v-16.962a39.233 33.466 0 0 1 39.2-33.417h602.968a39.233 33.466 0 0 1 39.201 33.417z"/><g fill="#fff"><ellipse cx="58.984" cy="136.608" rx="5.576" ry="5.92"/><ellipse cx="80.15" cy="136.608" rx="5.576" ry="5.92"/><ellipse cx="101.316" cy="136.608" rx="5.576" ry="5.92"/></g><use fill="#333" xlink:href="#B"/><path fill="#b3b3b3" d="M311.423 502.162h-37.109a4.286 4.198 0 0 1-4.282-4.194v-44.735a4.286 4.198 0 0 1 4.282-4.194h26.889a4.292 4.204 0 0 1 2.682.925l10.219 8.044a4.26 4.172 0 0 1 1.6 3.269v36.691a4.286 4.198 0 0 1-4.282 4.194zm-37.109-50.327a1.429 1.4 0 0 0-1.427 1.398v44.735a1.429 1.4 0 0 0 1.427 1.398h37.109a1.429 1.4 0 0 0 1.427-1.398v-36.691a1.42 1.39 0 0 0-.533-1.089l-10.221-8.044a1.43 1.401 0 0 0-.893-.308z"/><g fill="#ccc"><use xlink:href="#C"/><use y="8.388" xlink:href="#C"/><use y="16.776" xlink:href="#C"/></g><use x="145.581" y="-26.552" fill="#999" xlink:href="#B"/><g fill="#80b3ff"><use xlink:href="#D"/><path d="M438.449 452.737a4.287 4.199 0 0 1-2.269-.633l-21.324-13.053a1.428 1.398 0 0 1 1.514-2.371l21.324 13.053a1.435 1.406 0 0 0 1.512 0l21.323-13.053a1.428 1.398 0 0 1 1.514 2.371l-21.322 13.053a4.288 4.2 0 0 1-2.271.633z"/></g><use x="-145.58" y="-26.552" fill="#59f" xlink:href="#B"/><g fill="#999"><use x="-291.161" xlink:href="#D"/><path d="M160.935 464.426h-28.722a2.854 2.795 0 0 1-2.472-4.194l8.651-14.679a2.855 2.796 0 0 1 4.945 0l5.588 9.48 3.237-5.492a2.855 2.796 0 0 1 4.945 0l6.301 10.691a2.855 2.796 0 0 1-2.473 4.194zm0-2.796h0l-6.301-10.691-4.473 7.589a1.427 1.398 0 0 1-1.236.699h0a1.427 1.398 0 0 1-1.236-.699l-6.823-11.577-8.652 14.679z"/><ellipse cx="162.987" cy="442.059" rx="2.855" ry="2.796"/></g><path fill="#fff" d="M723.215 366.143H266.018a24.843 24.304 0 0 1-24.815-24.277v-95.636a24.843 24.304 0 0 1 24.815-24.277h457.198a24.844 24.305 0 0 1 24.815 24.277v95.636a24.844 24.305 0 0 1-24.815 24.277z"/><path d="M723.215 366.879H266.017a25.596 25.041 0 0 1-25.567-25.012v-95.636a25.596 25.041 0 0 1 25.567-25.012h457.198a25.596 25.041 0 0 1 25.567 25.012v95.636a25.596 25.041 0 0 1-25.567 25.012zM266.017 224.161a22.585 22.095 0 0 0-22.559 22.07v95.636a22.585 22.095 0 0 0 22.559 22.07h457.198a22.585 22.095 0 0 0 22.559-22.07v-95.636a22.585 22.095 0 0 0-22.559-22.07z"/><path fill="#e6e6e6" d="M667.569 342.602H321.663a24.843 24.304 0 0 1-24.815-24.277V268.3a24.843 24.304 0 0 1 24.815-24.277h345.906a24.843 24.304 0 0 1 24.815 24.277v50.025a24.843 24.304 0 0 1-24.815 24.277z"/><ellipse cx="396.101" cy="286.607" fill="#0af" rx="29.676" ry="29.032"/><path fill="#4d4d4d" d="M646.074 339.672l-83.054-68.146a6.016 5.886 0 0 0-7.75.015l-51.055 42.219-61.038-50.081a6.015 5.885 0 0 0-7.749.015L343.155 340a1.504 1.471 0 0 0 .974 2.595l125.505-.237-.295.244 175.772-.331a1.504 1.471 0 0 0 .963-2.599z"/><path fill="#fff" d="M615.79 519.051h-61.372a13.574 13.296 0 0 1-13.559-13.281v-60.112a13.574 13.296 0 0 1 13.559-13.281h61.372a13.574 13.296 0 0 1 13.559 13.281v60.112a13.574 13.296 0 0 1-13.559 13.281z"/><use x="292.236" y=".113" fill="#ccc" xlink:href="#B"/><path fill="#06f" d="M605.085 494.587h-39.963a4.286 4.198 0 0 1-4.282-4.194v-29.357a4.286 4.198 0 0 1 4.282-4.194h11.25a4.255 4.168 0 0 1 3.647 1.995l3.137 4.995h21.929a4.286 4.198 0 0 1 4.282 4.194v22.367a4.286 4.198 0 0 1-4.282 4.194z"/><path fill="#7952b3" fill-rule="evenodd" d="M98.605 251.376c-5.821 0-10.128 5.262-9.935 10.969.185 5.483-.055 12.583-1.786 18.374-1.737 5.807-4.672 9.487-9.468 9.959v5.333c4.796.473 7.731 4.151 9.468 9.959 1.731 5.791 1.971 12.891 1.786 18.374-.193 5.706 4.114 10.969 9.936 10.969h59.646c5.821 0 10.127-5.262 9.935-10.969-.185-5.483.055-12.583 1.786-18.374 1.737-5.808 4.665-9.487 9.461-9.959v-5.333c-4.796-.473-7.724-4.151-9.461-9.959-1.731-5.79-1.971-12.891-1.786-18.374.193-5.706-4.114-10.969-9.935-10.969H98.604zm47.975 51.668c0 7.858-5.675 12.623-15.093 12.623h-16.032a1.729 1.786 0 0 1-1.729-1.786v-41.075a1.729 1.786 0 0 1 1.729-1.786h15.94c7.853 0 13.007 4.393 13.007 11.138 0 4.734-3.467 8.973-7.884 9.715v.247c6.013.681 10.061 4.982 10.061 10.923zm-16.841-26.362h-9.141v13.335h7.699c5.952 0 9.233-2.475 9.233-6.9 0-4.146-2.822-6.436-7.791-6.436zm-9.141 18.627v14.696h9.477c6.197 0 9.479-2.568 9.479-7.394s-3.374-7.302-9.878-7.302h-9.079z"/><defs><path id="B" d="M323.554 518.938h-61.372a13.574 13.296 0 0 1-13.559-13.281v-60.112a13.574 13.296 0 0 1 13.559-13.281h61.372a13.574 13.296 0 0 1 13.559 13.281v60.112a13.574 13.296 0 0 1-13.559 13.281zm-61.372-83.878a10.716 10.496 0 0 0-10.704 10.485v60.112a10.716 10.496 0 0 0 10.704 10.485h61.372a10.716 10.496 0 0 0 10.704-10.485v-60.112a10.716 10.496 0 0 0-10.704-10.485z"/><path id="C" d="M304.286 468.611H281.45a1.427 1.398 0 0 1 0-2.796h22.836a1.427 1.398 0 0 1 0 2.796z"/><path id="D" d="M458.43 464.426h-39.963a4.286 4.198 0 0 1-4.282-4.194v-22.367a4.286 4.198 0 0 1 4.282-4.194h39.963a4.286 4.198 0 0 1 4.282 4.194v22.367a4.286 4.198 0 0 1-4.282 4.194zm-39.963-27.959a1.429 1.399 0 0 0-1.427 1.398v22.367a1.429 1.399 0 0 0 1.427 1.398h39.963a1.429 1.399 0 0 0 1.427-1.398v-22.367a1.429 1.399 0 0 0-1.427-1.398z"/></defs></svg>