<svg xmlns="http://www.w3.org/2000/svg" xmlns:svg="http://www.w3.org/2000/svg" id="a4b4d3ba-298a-4a01-b7c2-bf784b737cdf" width="759.523" height="640.549" data-name="Layer 1" version="1.1" viewBox="0 0 759.523 640.549"><metadata id="metadata9530"/><path id="path9485" fill="#e6e6e6" d="m 123.63816,183.21863 c 40.11741,6.66654 81.04052,0 120.99071,-4.51737 l 121.41634,-13.68898 c 4.91017,-0.56125 12.05497,-3.20323 14.94331,2.20393 1.62659,3.02526 0.53207,9.58228 0.65368,13.05929 0.31923,9.58229 0.28883,19.16458 0,28.74687 -0.54726,18.31587 -2.03703,36.59067 -3.93725,54.8244 -3.69402,35.6872 -8.92343,71.18275 -11.53813,107.00682 -1.33775,18.23376 -2.00663,36.52224 -1.41376,54.75596 0.13682,4.35309 0.33444,8.70621 0.62327,13.04561 0.31923,4.85958 2.73632,12.07368 -3.14677,15.31798 -3.35958,1.8617 -9.97235,1.76588 -13.81838,2.31344 -6.0807,0.86241 -12.1614,1.54685 -18.3637,2.1081 -40.8775,3.68235 -82.28705,2.14918 -123.31657,1.93016 L 82.836676,459.7499 52.615608,459.59931 c -2.736308,0 -12.602254,1.47842 -14.289643,-1.45103 -0.714484,-1.2457 1.185728,-7.07722 1.520172,-8.63775 q 0.699276,-3.8603 1.520172,-7.7069 c 3.526807,-18.00102 7.692095,-35.89253 11.887769,-53.77035 9.014631,-38.32917 18.242097,-76.84998 21.95133,-116.00049 1.839407,-19.6437 0.623261,-39.46536 2.873127,-59.06799 1.048918,-9.10318 2.295462,-29.41764 15.749005,-30.22529 11.40131,-0.68445 23.13706,0 34.56878,0 a 2.280262,2.0533483 0 0 0 0,-4.10669 c -10.79325,0 -21.60169,-0.26009 -32.39493,-0.0684 -7.17523,0.12319 -12.161392,1.65637 -15.581797,7.59738 -8.740992,15.24954 -7.844092,35.59138 -8.117731,52.23719 -0.653659,39.84865 -7.448853,78.84857 -16.296267,117.82112 -4.454104,19.61633 -9.257862,39.1642 -13.681569,58.79422 -2.08265,9.37695 -4.074064,18.78129 -5.898284,28.21299 -0.851293,4.49 -5.15339,14.38712 -1.368153,18.50751 3.785236,4.12039 15.429763,1.90279 20.64397,1.93016 l 36.271371,0.19165 69.50238,0.35591 c 44.90597,0.23271 89.96394,1.3689 134.85469,0.17794 21.43446,-0.57492 44.08506,-1.36889 64.95706,-5.98207 6.21751,-1.36891 9.21225,-3.94243 9.45549,-9.91083 0.36483,-9.25376 -1.30736,-18.79499 -1.52018,-28.08981 -1.52017,-79.53302 19.23021,-157.95724 17.10196,-237.51765 -0.1368,-5.40715 2.12825,-19.04139 -4.4389,-22.31305 -2.94914,-1.47841 -6.77999,-0.67076 -9.88115,-0.34222 -5.92867,0.616 -11.84216,1.3689 -17.77084,1.99859 l -76.99683,8.65144 c -24.61161,2.73781 -49.20805,5.69463 -73.86529,8.21339 -26.10139,2.73781 -52.46122,4.36679 -78.4714,0 -2.87314,-0.4791 -4.10448,3.477 -1.21615,3.95612 z" style="opacity:1;fill:#1a1a1a;fill-opacity:1;stroke-width:1.44255"/><path id="path9487" fill="#e6e6e6" d="M 75.235815,231.60921 378.9971,218.19399 c 2.93393,-0.13688 2.94913,-4.24357 0,-4.10669 L 75.235815,227.50251 c -2.918754,0.1232 -2.933911,4.2299 0,4.1067 z" style="fill:#1a1a1a;fill-opacity:1;stroke-width:1.44255"/><path id="path9489" fill="#e6e6e6" d="m 168.81777,197.75634 a 7.6008734,6.8444945 0 0 0 2.6907,11.04701 c 4.08928,1.68374 8.89304,0.27378 12.9519,-0.64339 6.0807,-1.36889 12.16139,-2.58721 18.40931,-3.5865 a 251.05668,226.07351 0 0 1 41.18154,-3.44963 c 6.29353,-0.0685 12.54143,0.19165 18.83496,0.43804 4.56053,0.16427 9.47069,0.49281 13.33193,-2.05334 4.40852,-2.90207 5.83748,-8.56931 1.52018,-12.10107 -6.08071,-4.99648 -19.1846,-2.09441 -26.20782,-1.57423 a 587.72586,529.24002 0 0 0 -75.7959,10.1846 c -2.85792,0.54756 -1.65698,4.51737 1.21614,3.95612 q 24.73325,-4.80484 49.84653,-7.72059 12.34381,-1.36889 24.73323,-2.31343 c 3.89166,-0.28747 7.7833,-0.54756 11.67495,-0.7529 1.52017,-0.0821 3.13156,-0.23271 4.68214,-0.19165 4.81895,0.0958 5.38142,-0.68445 2.49308,4.55844 -2.56909,4.64056 -1.74819,4.10669 -6.20231,3.95611 -1.88501,0 -3.77002,-0.19164 -5.65505,-0.27376 q -5.79187,-0.21905 -11.58373,-0.23272 -12.32863,0 -24.59642,1.06773 c -6.932,0.60232 -13.84879,1.45103 -20.70478,2.54616 -4.2869,0.68444 -8.54338,1.4784 -12.78468,2.3545 -1.8698,0.39697 -3.75483,0.80765 -5.62464,1.232 -0.8969,0.21902 -1.809,0.41068 -2.70591,0.61602 q -4.98617,1.56054 -8.49779,-4.1067 c 2.03705,-1.90277 -1.17051,-4.81853 -3.22276,-2.90207 z" style="fill:#1a1a1a;fill-opacity:1;stroke-width:1.44255"/><path id="path9491" fill="#e6e6e6" d="m 223.8785,256.18094 c -21.99693,-0.76658 -45.75726,4.58581 -60.24453,20.53348 -11.3405,12.47066 -17.80124,33.86656 -5.79186,47.91146 12.90628,15.05789 41.21194,12.40223 58.2835,5.9821 18.05967,-6.8445 37.82195,-20.95785 43.24898,-38.61665 6.76477,-22.05295 -15.20176,-38.72614 -38.08038,-38.97255 a 2.2817823,2.0547173 0 0 0 0,4.10669 c 13.0431,0.1369 25.84296,5.17445 31.92366,16.11195 6.36954,11.52612 0.88169,23.62721 -7.60087,32.85356 -13.59036,14.68829 -34.8424,25.76268 -56.48969,25.44784 -12.99749,-0.17795 -27.36315,-4.18882 -31.39162,-16.5363 -3.31396,-10.00665 -0.79048,-20.94415 4.98619,-29.81461 12.49583,-19.16458 37.92836,-25.65318 61.24783,-24.83183 2.93394,0.0958 2.93394,-4.01087 0,-4.1067 z" style="fill:#1a1a1a;fill-opacity:1;stroke-width:1.44255"/><path style="stroke-width:1.44255;fill:#1a1a1a" id="path9493" fill="#e6e6e6" d="m 202.03359,286.59788 a 5.9286812,5.3387057 0 0 0 -7.96571,5.47559 c 0.45604,5.33871 6.99279,6.84449 11.90296,6.52965 4.2413,-0.32853 9.19705,-1.73849 7.70729,-6.51596 a 6.8102458,6.1325438 0 0 0 -3.70923,-3.8603 8.5888046,7.7341145 0 0 0 -4.28689,-0.47911 c -0.56247,0 -5.71585,1.69743 -3.5268,-0.34223 l -3.58762,-0.42435 a 3.7395385,3.3674091 0 0 1 1.09453,2.73779 2.2954638,2.0670374 0 0 0 3.42039,1.76588 3.0403493,2.7377978 0 0 1 4.11968,3.20322 2.2954638,2.0670374 0 0 0 4.16528,1.58793 c 1.52018,-2.46402 3.35959,-7.36467 1.07932,-9.93821 -1.52018,-1.73849 -4.45411,-1.21831 -6.27832,-0.20533 a 21.997081,19.808104 0 0 0 -3.13157,2.42294 c -1.83941,1.46473 -3.04034,2.14918 -2.35627,-0.65707 1.14014,-5.10598 6.55196,-9.17161 11.49252,-11.21127 l -3.34438,-2.31345 a 48.067558,43.284254 0 0 1 -9.19705,16.22145 l 3.89164,1.45103 a 10.154767,9.1442445 0 0 1 6.20231,-8.91152 h -2.23465 l 1.18573,1.75219 c -0.44084,2.58723 3.95247,3.69602 4.3933,1.08143 0.57768,-3.38117 -1.7938,-7.77534 -6.18711,-6.11897 -5.24459,1.97121 -7.96571,7.37836 -7.8593,12.19687 0,1.64269 2.5843,2.91576 3.90685,1.46472 a 53.60104,48.267088 0 0 0 10.35239,-18.05576 2.3106655,2.0807263 0 0 0 -3.35958,-2.31343 25.493071,22.956202 0 0 0 -11.06687,8.67881 c -1.85461,2.7378 -4.18048,7.00875 -2.29547,10.15722 a 4.8341556,4.3530985 0 0 0 6.56883,1.70589 l 0.0439,-0.0222 a 17.785801,16.015898 0 0 0 3.81565,-2.73778 c 0.56246,-0.45175 1.18572,-1.23202 1.93062,-1.36892 0.66886,-0.41066 0.63847,-0.17795 -0.10637,0.72552 a 8.2851344,7.4606633 0 0 1 -1.32255,3.99719 l 4.16528,1.57422 a 7.6008734,6.8444945 0 0 0 -10.80845,-7.84377 l 3.4356,1.77956 a 8.284952,7.4604989 0 0 0 -1.7178,-4.83221 2.3106655,2.0807263 0 0 0 -3.57241,-0.42436 c -2.31066,2.17655 -2.75152,5.94102 0.15203,7.9533 2.17384,1.49209 3.23796,0 5.62464,-0.34222 8.10253,-0.94454 3.37479,2.34082 0.51686,2.45033 a 10.777522,9.7050276 0 0 1 -3.81564,-0.2464 q -4.75816,-1.45104 -0.59288,-3.73709 c 2.72112,0.99929 3.89166,-2.97053 1.21615,-3.95613 z"/><path style="stroke-width:1.44255;fill:#1a1a1a" id="path9495" fill="#e6e6e6" d="m 198.36997,294.09944 c 1.86981,5.47559 -5.85267,7.28253 -9.5163,9.17163 a 21.191326,19.082532 0 0 0 -6.58235,5.18812 c -3.83084,4.62687 -5.25981,10.51314 -6.52154,16.05718 -0.57768,2.58723 3.81563,3.68235 4.40849,1.09513 a 51.685939,46.542562 0 0 1 3.84605,-11.8136 c 2.73631,-4.90066 6.65836,-6.54335 11.76614,-9.0621 5.1078,-2.51879 8.80182,-6.42015 6.99281,-11.73147 -0.85129,-2.51878 -5.2598,-1.43735 -4.3933,1.09511 z"/><path style="stroke-width:1.44255;fill:#1a1a1a" id="path9497" fill="#e6e6e6" d="m 205.97084,291.34795 a 4.4085065,3.9698067 0 0 0 -3.80043,4.1067 c 0,1.62898 1.20094,2.66935 2.02183,3.96981 a 34.810982,31.346868 0 0 1 4.4085,8.63776 c 0.72968,2.94312 1.44418,8.21339 -0.25843,10.95117 -3.14676,5.07864 -8.83222,4.1067 -13.68157,4.1067 -4.56053,0 -8.08732,1.36891 -7.9353,-4.3531 0.0913,-3.2169 2.5843,-6.47488 4.56052,-9.00735 l -4.16529,-0.4928 a 79.4614,71.554029 0 0 1 1.38337,12.676 c 0,1.90277 3.23797,2.95683 4.24129,1.02668 a 88.064541,79.301052 0 0 0 5.79186,-14.4282 l -4.48452,-0.54755 0.7905,10.40362 a 2.2954638,2.0670374 0 0 0 4.24128,1.04037 5.1681379,4.6538456 0 0 0 1.14014,-1.84802 c 0.15201,-0.64339 -1.24654,-4.98278 -1.80901,-3.43593 l 4.46931,0.54757 0.31924,-9.88346 -4.56053,0.54757 a 22.711881,20.451774 0 0 1 0.85131,8.62405 c -0.28885,2.28607 3.98285,2.80625 4.56051,0.54755 l 2.85793,-13.27831 -4.16528,0.47911 a 10.078849,9.0758817 0 0 1 0.77529,5.91366 c -0.33444,2.62828 4.22609,2.6009 4.56052,0 a 16.022808,14.428344 0 0 0 -1.39855,-7.9807 2.2954638,2.0670374 0 0 0 -4.16529,0.49281 l -2.87313,13.27831 4.48453,0.54757 a 24.870818,22.39587 0 0 0 -1.01852,-9.7055 2.280262,2.0533483 0 0 0 -4.46932,0.53388 l -0.31923,9.88346 a 2.2909944,2.0630127 0 0 0 4.48451,0.54754 l 0.24323,-0.67075 a 2.3106655,2.0807263 0 0 0 -0.57768,-1.99859 c -4.72774,-4.62688 -5.68543,2.73779 -7.32723,4.77745 l 4.25649,1.04036 -0.7905,-10.40362 c -0.16721,-2.21763 -3.81563,-2.90208 -4.4845,-0.54757 a 81.725807,73.5931 0 0 1 -5.32063,13.45628 l 4.25649,1.04036 a 85.95086,77.397708 0 0 0 -1.52016,-13.77112 c -0.39525,-1.88908 -3.14676,-1.80694 -4.16529,-0.4928 -3.04034,3.94242 -8.30015,12.5528 -4.24128,17.27551 3.54201,4.10669 14.68489,2.51877 19.44304,2.25867 7.50967,-0.38329 10.23076,-4.66794 11.05166,-11.047 a 30.037558,27.048456 0 0 0 -0.56247,-9.14426 c -0.41043,-1.6153 -4.56051,-11.85465 -5.80706,-11.64932 2.88833,-0.47913 1.657,-4.44892 -1.21614,-3.96981 z"/><path style="stroke-width:1.44255;fill:#1a1a1a" id="path9499" fill="#e6e6e6" d="m 197.13862,300.57433 -12.45023,14.79779 3.93726,2.06705 9.12104,-11.88205 -4.16528,-1.58792 -4.54531,15.61913 a 2.2954638,2.0670374 0 0 0 4.16527,1.58794 80.134079,72.159767 0 0 1 6.94721,-8.80202 l -3.80044,-1.9986 a 24.824452,22.354118 0 0 1 -5.73107,9.48646 l 3.81564,1.9986 a 20.370615,18.343491 0 0 1 1.657,-5.4756 c 1.17054,-2.3682 -2.53869,-4.46262 -3.93724,-2.08074 a 53.52383,48.197561 0 0 1 -4.39331,6.21481 l 4.16527,0.49281 0.9273,-3.90136 -4.16528,-0.4928 0.66889,3.42225 a 2.2954638,2.0670374 0 0 0 3.81564,0.90347 45.391732,40.874705 0 0 0 9.12104,-12.38853 h -3.92205 a 20.477331,18.439588 0 0 1 2.14345,5.47558 c 0.54725,2.46403 4.18047,1.54687 4.46931,-0.54755 a 123.60346,111.30342 0 0 0 1.00331,-13.82589 h -4.56051 v 8.61039 c 0,2.2313 4.05886,2.88837 4.48451,0.54756 a 17.421309,15.687677 0 0 1 2.23466,-5.88627 h -3.99806 a 10.139732,9.1307062 0 0 1 1.52017,4.65425 2.2802636,2.0533496 0 0 0 4.56052,0 l 0.57767,-2.73779 h -4.39331 c 0.44086,2.42294 2.11305,16.07087 -3.83083,14.46926 -1.00333,-0.21902 -1.29215,-0.16427 -0.86651,0.15058 l 1.35296,-2.60091 3.17716,-6.06423 -4.25649,-1.04036 c 0.27363,2.81994 0.56247,6.84449 -1.32254,9.25375 -1.52018,1.95753 -6.20231,2.73781 -8.589,1.58793 a 15.20199,13.689207 0 0 1 -3.96765,-3.75078 l -3.11636,2.73779 c 2.52349,1.65637 6.61276,5.72201 9.86595,5.95472 2.47787,0.17796 4.5605,-1.67007 6.1871,-3.14846 a 26.496737,23.85999 0 0 0 7.43365,-17.56299 2.280265,2.0533509 0 0 0 -4.56053,0 v 4.68164 a 2.280265,2.0533509 0 0 0 4.56053,0 v -11.48506 a 2.280265,2.0533509 0 0 0 -4.56053,0 54.72451,49.278758 0 0 1 -0.79049,8.2134 l 4.48452,0.54755 a 104.98573,94.538375 0 0 1 -0.50165,-9.84238 2.280262,2.0533483 0 0 0 -4.46932,-0.54756 c -0.68407,2.6146 -1.52017,5.18813 -2.32587,7.74797 l 4.16528,-0.49281 -0.31924,-1.09512 c -0.21282,-2.6146 -4.77335,-2.62828 -4.56052,0 a 8.3462151,7.5156656 0 0 0 0.9425,3.17585 c 0.88172,1.67007 3.63322,1.08143 4.16529,-0.49281 0.86649,-2.57351 1.64178,-5.14706 2.32587,-7.74796 l -4.48452,-0.54756 a 104.98544,94.538114 0 0 0 0.50166,9.84238 c 0.22802,2.10811 3.99806,3.01158 4.46931,0.54756 a 62.825247,56.573374 0 0 0 0.95771,-9.36327 h -4.56053 v 11.48507 h 4.56053 v -4.68164 h -4.56053 a 21.920918,19.739522 0 0 1 -5.54863,14.07207 18.675787,16.817319 0 0 1 -1.91543,1.69744 c -1.07933,0.93084 -2.06742,0.79394 -2.93392,-0.42438 -2.15865,-0.80764 -4.39331,-2.88837 -6.27832,-4.10669 -1.88503,-1.21832 -4.46933,1.19094 -3.13157,2.80624 3.4964,4.18884 8.7106,8.85678 15.20175,6.84449 6.82558,-2.17654 7.75289,-10.49945 7.23603,-15.97503 -0.16722,-1.82065 -3.19236,-3.05266 -4.24129,-1.02669 -1.52017,2.88838 -3.04035,5.76308 -4.56053,8.66514 a 8.5018354,7.6557998 0 0 0 -1.36815,3.61389 c 0.50165,3.08003 4.65174,2.57353 7.20563,2.39556 9.89634,-0.67075 8.33055,-13.30568 7.19043,-19.65738 -0.38005,-2.10811 -3.78523,-1.77956 -4.39331,0 a 13.422793,12.087062 0 0 0 -0.74489,3.88767 h 4.56053 a 18.07509,16.276399 0 0 0 -2.14345,-6.72129 2.2954638,2.0670374 0 0 0 -3.93725,0 22.164618,19.95897 0 0 0 -2.70591,6.84449 l 4.56052,0.54757 v -8.61038 a 2.2802636,2.0533496 0 0 0 -4.56052,0 123.60346,111.30342 0 0 1 -1.00331,13.82589 l 4.48451,-0.54756 a 26.101856,23.504406 0 0 0 -2.5995,-6.40645 2.2954638,2.0670374 0 0 0 -3.93726,0 41.59242,37.45347 0 0 1 -8.40655,11.5535 l 3.81563,0.90347 -0.66887,-3.42224 c -0.34964,-1.82064 -3.20758,-1.8754 -4.16529,-0.49281 a 10.002643,9.0072588 0 0 0 -1.38335,7.06352 c 0.38004,1.94385 3.11635,1.7385 4.16528,0.49281 a 53.354893,48.045434 0 0 0 4.39329,-6.20111 l -3.93725,-2.08073 a 25.933891,23.353155 0 0 0 -2.12823,6.4475 c -0.27364,1.80696 2.11305,3.69604 3.81563,1.9986 a 30.403493,27.377978 0 0 0 6.90159,-11.3071 c 0.56246,-1.8617 -2.29545,-3.62759 -3.81564,-1.99859 a 87.087144,78.420918 0 0 0 -7.60087,9.5823 l 4.16528,1.58791 4.63653,-15.56438 a 2.2954638,2.0670374 0 0 0 -4.16528,-1.58792 l -9.12104,11.89574 c -1.7026,2.20392 2.20425,4.10669 3.93726,2.06703 l 12.40461,-14.7841 c 1.76341,-2.10812 -2.18905,-4.1067 -3.93724,-2.08075 z"/><path id="path9501" fill="#e6e6e6" d="m 391.08249,349.97789 c 18.24209,-10.04771 32.74456,-25.03716 48.85841,-37.57627 17.48202,-13.59318 35.83051,-26.25549 54.72629,-38.24705 36.69701,-23.27127 75.23344,-44.09221 113.73946,-64.85841 a 2.280262,2.0533483 0 0 0 -2.29546,-3.54545 c -38.50602,20.76619 -77.05765,41.54608 -113.75466,64.85842 -17.3148,10.95119 -34.21914,22.55945 -50.4242,34.87955 -17.63403,13.41521 -33.33743,30.11578 -53.20611,40.94376 -2.5083,1.36891 -0.21282,4.92804 2.29545,3.54545 z" style="fill:#1a1a1a;fill-opacity:1;stroke-width:1.44255"/><path id="path9503" fill="#e6e6e6" d="m 667.28302,145.53285 c -19.76227,1.80694 -41.04472,6.338 -53.20612,21.90238 -10.5044,13.38782 -10.27637,36.74124 -0.41043,50.48498 11.20368,15.61914 34.09751,16.18038 51.88356,11.12915 17.78604,-5.05123 36.19535,-13.908 36.02813,-33.04521 -0.0913,-10.26675 -4.21088,-20.95785 -8.7562,-30.26636 -3.92205,-8.03543 -10.86926,-15.05788 -21.38886,-14.1681 -2.90354,0.24639 -2.93394,4.35308 0,4.10671 14.09202,-1.17726 18.62214,13.8943 21.96652,23.40816 3.04036,8.88415 5.85267,19.39729 1.07932,28.22669 -4.77335,8.82939 -16.28105,13.33307 -26.11659,16.56367 -10.64122,3.477 -22.33137,5.59881 -33.44384,2.73781 -22.01213,-5.54404 -28.09283,-30.66334 -21.7537,-48.48641 7.29684,-20.53348 33.13981,-26.57032 54.19423,-28.48678 2.88832,-0.26009 2.91873,-4.36679 0,-4.10669 z" style="fill:#1a1a1a;fill-opacity:1;stroke-width:1.44255"/><path id="path9505" fill="#e6e6e6" d="m 697.68653,304.32512 c -19.76228,1.80694 -41.04472,6.338 -53.20613,21.90237 -10.5044,13.38784 -10.27639,36.74125 -0.41044,50.48499 11.20369,15.61915 34.09751,16.18039 51.88356,11.12915 17.78605,-5.05123 36.19536,-13.908 36.02814,-33.04521 -0.0913,-10.26675 -4.21089,-20.95785 -8.7562,-30.26637 -3.92206,-8.03542 -10.86925,-15.05787 -21.38887,-14.16809 -2.90352,0.2464 -2.93394,4.35309 0,4.1067 14.09203,-1.17725 18.62214,13.89431 21.96652,23.40817 3.04035,8.88415 5.85269,19.39729 1.07933,28.22669 -4.77335,8.82939 -16.28107,13.33308 -26.11661,16.56368 -10.64121,3.477 -22.33135,5.5988 -33.44383,2.7378 -22.01213,-5.54404 -28.09283,-30.66335 -21.7537,-48.4864 7.29683,-20.53349 33.1398,-26.57033 54.19423,-28.48679 2.88834,-0.26009 2.91873,-4.36679 0,-4.10669 z" style="fill:#1a1a1a;fill-opacity:1;stroke-width:1.44255"/><path id="path9507" fill="#e6e6e6" d="m 637.47239,185.51839 14.39607,14.7841 a 2.2954638,2.0670374 0 0 0 3.80042,-0.91716 c 3.04037,-7.20041 2.46269,-14.66092 3.17716,-22.23092 a 81.28365,73.19494 0 0 1 6.46075,-22.68265 85.023097,76.562269 0 0 1 34.02151,-35.11225 c 2.50829,-1.3689 0.21282,-4.92804 -2.29545,-3.54545 a 89.264779,80.381852 0 0 0 -34.40157,34.03082 87.365655,78.671715 0 0 0 -7.60087,21.72442 c -1.52016,8.88416 -0.13682,18.19267 -3.78524,26.72091 l 3.81566,-0.91717 -14.32006,-14.75672 c -1.94582,-1.98491 -5.15339,0.93084 -3.22277,2.90207 z" style="fill:#1a1a1a;fill-opacity:1;stroke-width:1.44255"/><path id="path9509" fill="#e6e6e6" d="m 398.42493,365.98032 q 117.61591,-3.2306 235.29264,-1.36889 a 2.2817823,2.0547173 0 0 0 0,-4.1067 q -117.64633,-1.88908 -235.29264,1.36889 c -2.93395,0.0822 -2.94913,4.18884 0,4.1067 z" style="fill:#1a1a1a;fill-opacity:1;stroke-width:1.44255"/><path style="stroke-width:1.44255;fill:#1a1a1a" id="path9511" fill="#e6e6e6" d="m 650.10505,325.48829 a 471.13228,424.24891 0 0 1 77.02725,34.85217 c 2.49309,1.36889 4.78855,-2.14918 2.29546,-3.54545 a 476.16334,428.77932 0 0 0 -78.04577,-35.26284 c -2.72111,-0.97191 -3.90684,2.99788 -1.20093,3.95612 z"/><path id="path9513" fill="#e6e6e6" d="m 698.78104,306.88496 a 186.2214,167.69011 0 0 0 -44.70832,102.02403 c -0.1216,2.64196 4.43889,2.64196 4.5605,0 a 181.11339,163.09041 0 0 1 43.37059,-99.12196 c 1.90022,-1.99861 -1.30735,-4.91436 -3.22277,-2.90207 z" style="fill:#1a1a1a;fill-opacity:1;stroke-width:1.44255"/><path id="path9515" fill="#e6e6e6" d="m 90.78722,351.07301 169.90992,-1.99859 19.53425,-0.23271 c 3.51161,0 7.02321,-0.10951 10.53481,-0.12321 4.94056,0 8.26975,3.69603 8.17854,8.2134 -0.22803,9.5823 -6.91679,9.24006 -15.673,9.5823 l -21.11523,0.8624 -85.98108,3.40856 c -15.39936,0.61599 -30.81394,1.36889 -46.2133,1.848 -13.89441,0.3833 -40.31503,-3.69602 -34.14313,-21.90237 0.8513,-2.53247 -3.54201,-3.61389 -4.4085,-1.09513 -3.04036,8.95261 2.34106,18.04209 11.00606,22.73742 12.29822,6.65284 28.50327,4.39417 42.07844,3.84661 l 105.56093,-4.31204 25.63014,-1.02668 c 6.56715,-0.27377 15.7034,0.93086 21.73849,-1.82063 7.08402,-3.21692 8.33056,-15.98873 3.86125,-21.36851 -2.29546,-2.7378 -5.51823,-2.9842 -9.12105,-3.1074 -9.45548,-0.32853 -19.0782,0.23271 -28.54888,0.34222 l -52.62844,0.62969 -120.26102,1.36892 a 2.2817823,2.0547173 0 0 0 0,4.10669 z" style="fill:#1a1a1a;fill-opacity:1;stroke-width:1.44255"/><polygon id="polygon9517" fill="#00b0ff" points="494.495 344.744 508.937 343.083 476.472 323.524 485.953 360.222 491.668 346.852 501.2 359.634 504.027 357.526" transform="matrix(1.5201747,0,0,1.3688989,-149.70763,-45.941733)" style="fill:#2a7fff;fill-opacity:1"/><rect style="stroke-width:1.44255;fill:#06f" id="rect9519" width="83.61" height="26.009" x="614.004" y="452.543" fill="#00b0ff"/><polygon id="polygon9521" fill="#3f3d56" points="321.741 202.526 331.273 189.744 316.831 188.083 349.296 168.524 339.815 205.222 334.1 191.852 324.568 204.634" transform="matrix(1.5201747,0,0,1.3688989,-183.70763,-11.941733)" style="fill:#59f;fill-opacity:1"/><rect style="fill:#2a7fff;stroke-width:1.44255" id="rect9523" width="83.61" height="26.009" x="224.283" y="275.732" fill="#3f3d56"/><path id="path68" fill="#d4e1f4" d="M 435.48208,483.18749 H 258.89291 c 0,-48.76363 39.53095,-88.29458 88.29458,-88.29458 48.76365,0 88.29459,39.53095 88.29459,88.29458 z m 0,0" style="stroke-width:.492715;fill:#1a1a1a"/><path id="path70" fill="#e3e7f2" d="m 418.66421,483.18749 h -159.7713 c 0,-48.77325 35.73741,-88.29458 79.88566,-88.29458 44.14824,0 79.88564,39.52133 79.88564,88.29458 z m 0,0" style="fill:#1a1a1a;stroke-width:.492715"/><path id="path72" fill="#a4c2f7" d="m 435.48208,483.18749 c 0,48.76363 -39.53094,88.29459 -88.29459,88.29459 -48.76363,0 -88.29458,-39.53096 -88.29458,-88.29459 z m 0,0" style="stroke-width:.492715;fill:#1a1a1a"/><path id="path74" fill="#d4e1f4" d="m 418.66421,483.18749 c 0,48.77325 -35.75857,88.29459 -79.88564,88.29459 -44.12708,0 -79.88566,-39.52134 -79.88566,-88.29459 z m 0,0" style="fill:#1a1a1a;stroke-width:.492715"/><g id="g92" fill="#428dff" transform="matrix(0.49271741,0,0,0.49271744,221.05182,357.05183)" style="fill:#1a1a1a"><path id="path76" d="m 128,221.86719 c 0,4.71093 -3.82031,8.53125 -8.53516,8.53125 -4.71093,0 -8.53125,-3.82032 -8.53125,-8.53125 0,-4.71485 3.82032,-8.53516 8.53125,-8.53516 4.71485,0 8.53516,3.82031 8.53516,8.53516 z m 0,0" style="fill:#1a1a1a"/><path id="path78" d="m 145.06641,179.19922 c 0,4.71484 -3.82032,8.53515 -8.53125,8.53515 -4.71485,0 -8.53516,-3.82031 -8.53516,-8.53515 0,-4.71094 3.82031,-8.53125 8.53516,-8.53125 4.71093,0 8.53125,3.82031 8.53125,8.53125 z m 0,0" style="fill:#1a1a1a"/><path id="path80" d="m 170.66797,145.06641 c 0,4.71484 -3.82031,8.53515 -8.53516,8.53515 -4.71094,0 -8.53125,-3.82031 -8.53125,-8.53515 0,-4.71094 3.82031,-8.53125 8.53125,-8.53125 4.71485,0 8.53516,3.82031 8.53516,8.53125 z m 0,0" style="fill:#1a1a1a"/><path id="path82" d="m 213.33203,119.46484 c 0,4.71485 -3.82031,8.53516 -8.53125,8.53516 -4.71484,0 -8.53516,-3.82031 -8.53516,-8.53516 0,-4.71093 3.82032,-8.53125 8.53516,-8.53125 4.71094,0 8.53125,3.82032 8.53125,8.53125 z m 0,0" style="fill:#1a1a1a"/><path id="path84" d="m 384,179.19922 c 0,4.71484 -3.82031,8.53515 -8.53516,8.53515 -4.71093,0 -8.53125,-3.82031 -8.53125,-8.53515 0,-4.71094 3.82032,-8.53125 8.53125,-8.53125 4.71485,0 8.53516,3.82031 8.53516,8.53125 z m 0,0" style="fill:#1a1a1a"/><path id="path86" d="m 358.39844,145.06641 c 0,4.71484 -3.82032,8.53515 -8.53125,8.53515 -4.71485,0 -8.53516,-3.82031 -8.53516,-8.53515 0,-4.71094 3.82031,-8.53125 8.53516,-8.53125 4.71093,0 8.53125,3.82031 8.53125,8.53125 z m 0,0" style="fill:#1a1a1a"/><path id="path88" d="m 315.73437,119.46484 c 0,4.71485 -3.82031,8.53516 -8.53515,8.53516 -4.71094,0 -8.53125,-3.82031 -8.53125,-8.53516 0,-4.71093 3.82031,-8.53125 8.53125,-8.53125 4.71484,0 8.53515,3.82032 8.53515,8.53125 z m 0,0" style="fill:#1a1a1a"/><path id="path90" d="m 264.53516,102.39844 c 0,4.71484 -3.82422,8.53515 -8.53516,8.53515 -4.71094,0 -8.53516,-3.82031 -8.53516,-8.53515 0,-4.71094 3.82422,-8.531252 8.53516,-8.531252 4.71094,0 8.53516,3.820312 8.53516,8.531252 z m 0,0" style="fill:#1a1a1a"/></g><path id="path100" fill="#428dff" d="m 347.18749,390.68749 c -51.08672,0 -92.5,41.41329 -92.5,92.5 0,51.08671 41.41328,92.5 92.5,92.5 51.08674,0 92.5,-41.41329 92.5,-92.5 -0.0581,-51.0617 -41.43825,-92.44226 -92.5,-92.5 z m 0,8.40892 c 44.75843,0.0751 81.62168,35.18503 83.87552,79.88566 h -60.68703 l 45.55903,-17.08152 c 2.17685,-0.81414 3.28155,-3.23538 2.46944,-5.41219 -0.81423,-2.17488 -3.23544,-3.27965 -5.41219,-2.46743 l -66.57081,24.96114 h -36.82677 c 1.4358,-12.93961 9.42706,-24.22977 21.15413,-29.88447 11.72707,-5.65469 25.53855,-4.87521 36.55732,2.05941 l -8.52245,2.13254 c -2.05939,0.51582 -3.41053,2.48476 -3.15072,4.59035 0.25791,2.10561 2.04591,3.68961 4.16886,3.69154 0.3445,0.002 0.68708,-0.0404 1.02007,-0.1251 l 16.81975,-4.20543 c 0.10972,-0.0404 0.21747,-0.0885 0.32338,-0.14243 0.18671,-0.0655 0.36764,-0.14242 0.54271,-0.2348 0.30222,-0.15397 0.58517,-0.34453 0.8392,-0.56778 0.0847,-0.077 0.19821,-0.10586 0.27908,-0.19055 0.0789,-0.0827 0.0674,-0.1174 0.11353,-0.17129 0.25022,-0.29062 0.46198,-0.61205 0.62554,-0.95849 0.056,-0.12318 0.13859,-0.22327 0.1848,-0.34452 0.17896,-0.46962 0.27133,-0.96619 0.27324,-1.46853 V 440.5501 c 0,-2.32307 -1.88228,-4.20541 -4.20351,-4.20541 -2.32302,0 -4.20542,1.88234 -4.20542,4.20541 v 3.86669 c -13.58818,-8.83042 -30.80636,-9.90632 -45.38771,-2.83312 -14.58326,7.07125 -24.3972,21.25998 -25.87343,37.3984 h -37.84108 c 2.2538,-44.70063 39.11715,-79.8106 83.87552,-79.88566 z m 0,168.18217 c -44.75837,-0.0751 -81.62172,-35.18504 -83.87552,-79.88567 H 431.0726 c -2.25569,44.70449 -39.1229,79.81445 -83.88511,79.88567 z m 0,0" style="fill:#fff;stroke-width:.492715"/><path id="path104" fill="#428dff" d="m 313.55184,508.41424 c 2.32114,0 4.20349,1.88233 4.20349,4.20542 0,2.32116 1.88231,4.20349 4.20541,4.20349 2.32115,0 4.2035,-1.88233 4.2035,-4.20349 0,-6.96734 -5.64702,-12.61434 -12.6124,-12.61434 -6.89229,0.17515 -12.43921,5.72206 -12.61435,12.61434 0,6.80181 6.20708,9.90439 10.73392,12.19283 3.56256,1.75723 6.08392,3.13723 6.08392,4.625 -0.14049,2.25957 -1.94395,4.063 -4.20349,4.2035 -2.32311,0 -4.20542,-1.88234 -4.20542,-4.2035 0,-2.32308 -1.88235,-4.20542 -4.20351,-4.20542 -2.32309,0 -4.20542,1.88234 -4.20542,4.20542 0,6.96541 5.647,12.61241 12.61435,12.61241 6.89225,-0.17322 12.43916,-5.72014 12.6124,-12.61241 0,-6.80374 -6.20517,-9.90632 -10.73393,-12.19283 -3.56065,-1.75724 -6.08389,-3.13722 -6.08389,-4.625 0.14242,-2.26149 1.94391,-4.063 4.20542,-4.20542 z m 0,0" style="fill:#06f;stroke-width:.492715"/><path id="path106" fill="#428dff" d="m 351.39291,508.41424 c 2.32116,0 4.2035,-1.88233 4.2035,-4.20349 0,-2.3231 -1.88234,-4.20543 -4.2035,-4.20543 h -8.41085 c -4.64424,0 -8.4089,3.76467 -8.4089,8.40892 v 25.22675 c 0,4.64424 3.76466,8.40891 8.4089,8.40891 h 8.41085 c 2.32116,0 4.2035,-1.88233 4.2035,-4.20349 0,-2.32309 -1.88234,-4.20542 -4.2035,-4.20542 h -8.41085 v -8.40892 h 8.41085 c 2.32116,0 4.2035,-1.88233 4.2035,-4.2035 0,-2.32308 -1.88234,-4.20542 -4.2035,-4.20542 h -8.41085 v -8.40891 z m 0,0" style="fill:#2a7fff;stroke-width:.492715"/><path id="path108" fill="#428dff" d="m 378.7214,500.00532 c -8.12789,0 -14.71606,6.58817 -14.71606,14.71609 v 12.61433 c 0,8.12599 6.58817,14.71416 14.71606,14.71416 8.12787,0 14.71614,-6.58817 14.71614,-14.71416 v -12.61433 c 0,-8.12792 -6.58827,-14.71609 -14.71614,-14.71609 z m 6.30713,27.33042 c 0,3.48175 -2.82344,6.30525 -6.30713,6.30525 -3.48364,0 -6.30721,-2.8235 -6.30721,-6.30525 v -12.61433 c 0,-3.48367 2.82357,-6.30717 6.30721,-6.30717 3.48369,0 6.30713,2.8235 6.30713,6.30717 z m 0,0" style="fill:#2a7fff;stroke-width:.492715"/></svg>