<svg xmlns="http://www.w3.org/2000/svg" xmlns:xlink="http://www.w3.org/1999/xlink" viewBox="0 0 50000 50000"><defs><path id="a" d="M21568 24468a133 133 0 01 266 0 133 133 0 11-266 0"/><path id="b" d="M25984 43562a520 520 0 01-441-588l643-4474a432 432 0 01 500-349l420 61a450 450 0 00 434-182l117-171a450 450 0 01 434-182l2000 287a452 452 0 01 350 257l76 170a452 452 0 00 349 257l2545 366a431 431 0 01 381 475l-658 4575a519 519 0 01-588 440"/><path id="c" d="M37593 41574a342 342 0 01-441-200l-1060-2770a282 282 0 01 175-359l260-100a300 300 0 00 191-243l12-135a294 294 0 01 191-243l1236-474a300 300 0 01 283 36l100 73a300 300 0 00 282 36l1576-600a284 284 0 01 371 151l1084 2833a341 341 0 01-200 441"/><path id="d" d="M11950 17228a137 137 0 01-118 151 130 130 0 01-153-109 137 137 0 01 118-151 131 131 0 01 153 109"/><linearGradient id="e" x1="-50628.8" x2="49036.9" y1="13510.5" y2="24460" gradientUnits="userSpaceOnUse"><stop offset="0" stop-color="#0684ff"/><stop offset="1" stop-color="#0684ff" stop-opacity="0"/></linearGradient></defs><path fill="#ececec" d="m45243 34530-4107-1564a551 551 0 01-319-710l2165-5684a551 551 0 01 710-319l2608 992 1225 2846-1570 4121a549 549 0 01-712 318"/><path fill="#59f" d="m46300 27245-610 1600a512 512 0 00 300 660l1539 586"/><path fill="gray" d="M45368 28649c-8 20-440-125-964-325s-944-378-936-400 439 125 964 325 944 379 936 400"/><path fill="#999" d="M46251 30021c-8 20-715-230-1578-559s-1558-612-1550-632 714 229 1578 558 1557 612 1550 633zm-7 862c-7 21-777-253-1718-612s-1700-665-1690-686 777 253 1718 612 1698 666 1690 686"/><path fill="#b3b3b3" d="M45973 31600c-8 21-777-253-1718-612s-1700-666-1691-686 777 253 1719 612 1698 661 1690 686zm-273 709c-8 20-778-254-1719-612s-1700-666-1690-687 777 254 1718 612 1700 666 1691 687"/><path fill="#999" d="M45430 33021c-8 21-777-253-1718-611s-1700-666-1691-687 777 253 1719 612 1698 665 1690 686"/><g fill="#f5f5f5"><path d="m25800 16290-43-373-59-391 59 391 43 373zm-1006 1546c-108-244-132-514-200-771a509 509 0 00-231-345 2117 2117 0 00-278-63c-326-100-414-552-723-693a1033 1033 0 00-310-65c-413-49-841-192-1100-516a2046 2046 0 00-255-314c-106-85-270-122-373-35q131 263 258 522a1377 1377 0 00 290 434 464 464 0 00 486 100 324 324 0 01 164-57 176 176 0 01 106 68c225 249 152 662-68 917s-542 385-854 509a669 669 0 01-349 68c-216-40-331-276-394-487-141-467-209-974-500-1368a1667 1667 0 01-263-382c-60-157-46-340-140-477s-305-229-319-400a319 319 0 01 200-283c112-54 237-69 352-116 45-20 100-53 100-100 0-74-100-100-128-171s51-149 84-223c72-171-106-344-279-414s-378-120-458-287a1000 1000 0 01-56-250 545 545 0 00-408-449c-214-35-451 155-417 368 21 116 109 207 156 315s34 269-77 300c-183 56-359-279-513-163l187 645c-241 122-528-100-631-351s-107-535-229-776-451-421-660-251c-11 311 400 436 580 687 131 182 112 476-82 591s-500-85-423-300c26-73 87-134 94-213 7-100-75-176-150-239l-350-294a738 738 0 00-250-157c-240-70-481 125-608 340s-200 469-375 648c-253 262-732 277-969 0s-117-787 233-886c133-36 300-33 370-150 122-207-227-472-106-681 92-161 336-88 514-142s275-231 380-385 265-300 446-265a558 558 0 01 19-317 200 200 0 01 267-100c-89 147 18 351 173 424a935 935 0 00 507 36c171-20 385-83 400-254 0-56-16-115 0-167 75-200 452 76 600-88 83-85-9-237-126-265s-235 14-354 18-263-58-268-176 125-200 139-316c23-200-308-245-425-87s-75 377-40 570 54 422-89 558c-61 92-220 44-272-54a792 792 0 01-51-326c-8-112-57-237-165-267a600 600 0 00-232 26c-300 37-514-355-419-645s370-477 637-625c200-108 437-210 631-100 90 51 153 138 242 190 154 91 344 58 520 61a1213 1213 0 01 758 300c78 71 152 190 91 275s-257 110-224 216a378 378 0 00 475-300 320 320 0 01 183 258 566 566 0 01 828 68 709 709 0 00 153 200c70 46 192 23 200-59a188 188 0 00-14-77l-128-352c163-87 354 49 464 200 408 545 700 217 1274 306 389 60 560 309 780 610 673 928 1562 1688 2174 2657 64 100 123 200 179 309-10-26-19-53-30-79a10671 10671 0 00-889-1807c-75-122-151-243-230-361l-150-220c-64-94-132-185-200-275-54-74-108-145-164-215-38-49-78-100-119-146a2036 2036 0 00-136-164l-144-169c-14-18-30-35-47-53-51-59-105-116-159-174a40 40 0 00-15-17c-14-16-30-32-46-47-43-49-90-100-136-143-75-77-151-154-230-227-64-64-130-125-200-186l-180-161-180-153c-61-53-148-124-225-185a9737 9737 0 00-652-479 8062.4 8062.4 0 00-335-220c-56-35-113-72-171-105l-172-100c-57-31-93-54-140-78a636 636 0 00-71-40c-100-56-200-110-300-160-50-27-100-53-153-77s-131-65-200-94a138 138 0 00-30-14l-179-82-257-108-294-117-332-119-338-109-341-100q-341-91-689-162h-12l-267-48a68 68 0 00-17 0 2270 2270 0 00-119-19 9247 9247 0 00-500-70l-61-7c-49-7-100-10-148-15a9188 9188 0 00-337-27l-353-17-372-7c-327 0-652 14-973 44-76 0-151 12-226 20l-235 28-234 33-234 39c-66 10-134 22-200 36q-246 48-486 100c-75 17-150 37-225 58l-224 61c-123 34-244 73-364 111l-292 100h-7c-100 35-200 71-293 110h-16l-265 108c-110 45-218 94-324 143l-267 127-281 143-10 6c-89 47-178 100-265 146a3200 3200 0 00-269 159c-84 50-166 100-248 153-31 19-61 40-92 61-87 56-171 113-256 173l-307 221-262 200a11000 11000 0 00-1370 1300c-148 164-288 331-424 500q-172 219-333 448c-100 133-188 269-277 407a10395 10395 0 01 277-407l84-9a1284 1284 0 00 464-75c131-64 223-181 342-265 300-216 800-256 882-619 28-122-6-254 40-371 85-218 376-249 610-246 100 0 216 14 261 100a253 253 0 01-10 200 1893 1893 0 01-800 983c-300 185-700 328-783 673 42 117 255 108 272 230 12 100-113 148-159 235-66 128 86 283 230 276s265-112 372-209c317-300 650-612 765-1031 49-172 66-375 206-490a340 340 0 01 517 166c138-77 353-134 424 9a742 742 0 01 30 164c45 223 350 324 382 549 36 259-300 394-557 434l-706 111a654 654 0 00-292 94 230 230 0 00-88 274 692 692 0 00 122 126c200 200 35 600-240 606-94 0-187-31-281-35-279-12-500 234-633 480s-231 526-455 694c-359 270-978 207-1152 622-70 167-33 356 0 535s40 377-65 525-371 178-448 14a406 406 0 01-10-232l122-774c30-192 56-406-58-563-158-220-514-200-720-23s-289 452-346 715a3122 3122 0 01-200 694c-37 216-67 436-89 657a10682 10682 0 00-47 682 1100 1100 0 00 89-84c110-113 331-593 530-357a179 179 0 01 0 218c-61 78-183 100-230 181-57 100 23 226 117 293s209 109 275 205c128 183 6 461 129 647 107 161 333 171 527 192l66 10c54-383 234-695 757-814 721-164 1670 434 2076 978 453 609 667 1470 1361 1775 500 218 1200 139 1445 626 217 436-160 925-218 1408-36 319 68 637 93 956s-72 693-363 828c-162 73-366 64-500 186-231 220-41 673-273 893a1219 1219 0 01-300 155c-521 263-507 1030-265 1562 9 19 18 36 26 56a11017 11017 0 00 10819 280 11179 11179 0 00 974-587 10915 10915 0 00 1369-1088 10765 10765 0 00 836-873c185-213 360-434 527-661 85-117 169-234 247-354a10515 10515 0 00 658-1100 10673 10673 0 00 713-1719 10786 10786 0 00 420-1867c33-247 59-500 76-751a634 634 0 01-442 200c-259-8-478-228-584-472zm-19535 2440c-34-315 70-631 75-950l-15-673a2939 2939 0 01-560-78 173 173 0 01-100-52 200 200 0 01-22-117c-14-248-253-411-467-535a1852 1852 0 00-340-168v77a10989 10989 0 00 700 3495 10474 10474 0 00 670 1444l350 591 487 700 511 629a10526 10526 0 00 779 800l758 645c-600-1614-1168-3261-2200-4635-265-360-575-726-626-1173zm-1434-3094v361-361"/><path d="m8700 26530 281 183 200 122-200-122L8700 26530" opacity=".6"/></g><path fill="#ebebeb" d="M18033 25839a940 940 0 01-205-22 673 673 0 01-486-368 1251 1251 0 01-85-480 1800 1800 0 00-35-328 1726 1726 0 00-258-526 1833 1833 0 01-345-1242v-68c-58-1937-600-3510-1562-4548a1060 1060 0 00-473-335 590 590 0 00-607 210 1233 1233 0 00-91 149 846 846 0 01-159 227 455 455 0 01-388 100 700 700 0 01-484-334c-171-300-140-672-115-971l100-1200c16-186 37-440 187-614a1026 1026 0 01 447-256 1332 1332 0 00 344-165c193-145 279-373 370-614a2477 2477 0 01 175-400 741 741 0 01 690-339 319 319 0 01 253 169 759 759 0 01 449-411c400-115 884 200 1353 505 429 279 833 541 1151 483a2471 2471 0 00 240-59 1267 1267 0 01 517-71c463 65 700 567 853 1000l753 2100c94 262 215 549 464 646a947 947 0 00 314 46 1050 1050 0 01 328 47 526 526 0 01 346 424c64 348-110 800-405 1058a4876 4876 0 01-442 325c-340 232-662 451-800 811a1947 1947 0 00-93 615 1893 1893 0 01-107 663 1915 1915 0 01-327 477 2954 2954 0 00-219 279c-241 363-308 814-373 1249l-25 167c-75 486-205 1027-600 1365a1017 1017 0 01-650 236"/><path fill="#f5f5f5" d="M3832 16922v261-200c-4-21-2-40 0-61zm-8 620v161-161" opacity=".6"/><g fill="#ebebeb"><path d="m5338 18226-66-10c-194-21-420-31-527-192-123-186 0-464-129-647-66-100-181-137-275-205s-175-192-117-293c47-86 169-100 230-181a179 179 0 00 0-218c-200-236-420 244-530 357a1100 1100 0 01-89 84v783a1813 1813 0 01 339 168c215 123 454 287 468 535a200 200 0 00 22 117 173 173 0 00 100 52 2939 2939 0 00 560 78"/><path d="m5319 18653 15 673c-5 319-109 635-74 950 50 447 360 813 631 1172 1028 1374 1600 3021 2200 4635 111 89 225 173 340 255a10397.3 10397.3 0 00 556 375l200 122c-8-20-17-37-26-56-242-532-256-1300 265-1562a1219 1219 0 00 300-155c232-220 42-673 273-893 131-122 335-113 500-186 291-135 386-508 363-828s-129-637-93-956c58-483 435-972 218-1408-242-487-948-408-1445-626-704-305-918-1165-1371-1775-406-544-1355-1142-2076-978-523 119-700 431-757 814m-825-4053c206-176 562-200 720 23 114 157 88 371 58 563l-122 774a406 406 0 00 10 232c77 164 345 132 448-14s93-347 65-525-65-368 0-535c174-415 793-352 1152-622 224-168 323-448 455-694s354-492 633-480c94 0 187 39 281 35 275-8 436-411 240-606a692 692 0 01-117-124 230 230 0 01 88-274 654 654 0 01 292-94l706-111c260-40 593-175 557-434-32-225-337-326-382-549a742 742 0 00-30-164c-71-143-286-86-424-9a340 340 0 00-517-165c-140 115-157 318-206 490-115 419-448 736-765 1031-107 100-227 200-372 209s-300-148-230-276c46-87 171-137 159-235-17-122-230-113-272-230 84-345 479-488 783-673a1893 1893 0 00 800-983 253 253 0 00 10-200c-45-87-162-100-261-100-234 0-525 28-610 246-46 117-12 249-40 371-82 363-579 400-882 619-119 84-211 200-342 265a1284 1284 0 01-464 75l-84 9c-100 133-188 269-277 407S5400 11700 5315 11839a10949 10949 0 00-955 2130c-85 261-161 526-226 795a11066 11066 0 00-166 818 3122 3122 0 00 200-694c56-263 141-539 345-715zm9241-5109c100-137 73-333 141-491 112-262 461-356 582-615 46-100 58-221 139-294s168-75 240-130c163-125 95-408-77-518-432-276-1227 43-1600 314-480 347-949 765-1588 724-176-11-359-59-524 0s-267 310-125 414c79 59 191 42 281 84 164 76 181 314 100 477S11100 9316 11000 9471a826 826 0 00-118 500 458 458 0 00 149 325c200 158 500 22 669-168s285-437 500-568a1236 1236 0 01 358-124l833-200a610 610 0 00 363-172"/></g><path fill="#f5f5f5" d="m25846 17229-15-472 15 472v152l-23 725 23-725c3-51 3-101 0-152zm-689-3695 148 421-148-421" opacity=".6"/><path fill="#ebebeb" d="m25846 17229-15-472-36-467-43-373-59-391a10648 10648 0 00-257-1144l-131-427-148-421-179-309c-612-969-1500-1729-2174-2657-220-300-391-550-780-610-575-89-866 239-1274-306-110-147-300-283-464-200l128 352a188 188 0 01 14 77c-9 82-131 100-200 59a709 709 0 01-153-200 566 566 0 00-828-68 320 320 0 00-183-258 378 378 0 01-475 300c-33-106 157-125 224-216s-13-200-91-275a1213 1213 0 00-758-300c-176 0-366 30-520-61-89-52-152-139-242-190-194-110-436-8-631 100-267 148-542 334-637 625s116 682 419 645a600 600 0 01 232-26c108 30 157 155 165 267a792 792 0 00 51 326c52 100 211 146 272 54 143-136 125-364 89-558s-75-411 40-570 448-108 425 87c-14 115-144 200-139 316s150 181 268 176 239-47 354-18 209 180 126 265c-145 164-522-116-600 88-21 52 0 111 0 167-14 171-228 234-400 254a935 935 0 01-507-36c-155-73-262-277-173-424a200 200 0 00-267 100 558 558 0 00-19 317c-181-40-343 113-446 265s-200 331-380 385-422-19-514 142c-121 209 228 474 106 681-70 117-237 114-370 150-350 100-472 612-233 886s716 258 969 0c176-179 248-432 375-648s368-410 608-340a738 738 0 01 250 157l350 294c75 63 157 141 150 239-7 79-68 140-94 213-73 211 232 411 423 300s213-409 82-591c-181-251-591-376-580-687 209-170 538 9 660 251s126 527 229 776 390 473 631 351l-187-645c154-116 330 219 513 163 111-34 125-200 77-300s-135-200-156-315c-34-213 200-400 417-368a545 545 0 01 408 449 1000 1000 0 00 56 250c80 167 287 218 458 287s351 243 279 414c-33 74-111 146-84 223s128 100 128 171c0 48-53 81-100 100-115 47-240 62-352 116a319 319 0 00-200 283c14 174 221 258 319 400s80 320 140 477a1667 1667 0 00 263 382c289 394 357 900 500 1368 63 211 178 447 394 487a669 669 0 00 349-68c312-124 636-256 854-509s293-668 68-917a176 176 0 00-106-68 324 324 0 00-164 57 464 464 0 01-486-100 1377 1377 0 01-290-434l-258-522c100-87 267-50 373 35a2046 2046 0 01 255 314c259 324 687 467 1100 516a1033 1033 0 01 310 65c309 141 400 600 723 693a2117 2117 0 01 278 63 509 509 0 01 231 345c72 257 100 527 200 771s325 465 590 469a634 634 0 00 442-200c14-241 23-481 23-725l-5-149zM21387 21800c-164 32-200 128-286 250-116 158-282 317-388 473-179 265-18 677-254 900-48 46-110 75-153 125a279 279 0 00 57 385 378 378 0 00 410 8 607 607 0 00 252-344 575 575 0 01 127-282c135-118 345-30 522-55 756-104 431-1600-287-1460"/><path fill="#59f" d="m21168 44290-3934 1230a516 516 0 01-646-339l-1700-5445a516 516 0 01 339-646l2494-780 2551 1390 1234 3947a516 516 0 01-338 643"/><path fill="#06f" d="m16130 43723.4 4918.3-1537.5 447.6 1431.7a546 546 0 01-358.2 684l-3887.5 1215.3a533 533 0 01-667.8-350.2l-451.4-1444.1-1 .2"/><g fill="#fff"><path d="m18234 43674 249 795-177 56-100-327-346 109 100 326-176 55-248-795 176-55 100 313 346-108-100-314zm786 595a247 247 0 01-126 82 206 206 0 01-287-151l-79-251-90 28-43-136 91-28-47-149 170-53 46 149 146-46 43 136-144 50 78 249a72 72 0 00 100 57 106 106 0 00 61-44zm985-660 109 350-169 53-100-322c-31-100-88-131-156-110s-114 92-80 200l100 307-170 53-100-323c-31-100-86-132-156-110s-113 92-79 200l100 306-170 53-191-611 162-50 22 70a246 246 0 01 159-137 227 227 0 01 224 40 272 272 0 01 180-166c130-42 257 11 315 197zm-5-540 170-53 263 842-170 53zm-2559-2094-567 482 740 70 88 284-1063-119-92-295 806-700zm441-1060 272-85 21 2342-273 85zm1546 585 92 300-806 700-89-284 568-479-740-73-88-281"/><path d="m17718 38310 480 1533a479 479 0 00 600 314l1474-460" opacity=".3"/></g><path fill="#e0e0e0" d="M18260 39971a532 532 0 00 558 367 455 455 0 00 52 0c200-26 1540-200 1531-225l-129-413-1472 458s-373 102-540-187"/><path fill="#fff" d="M9587 12964h29869v22444H9587"/><path fill="#263238" d="M39456 35408v-412l-5-1193-11-4536-22-16300 43 43-29866 9 52-52v22444l-47-47 21558 23 6123 13 1625 6h526-518l-1616 6-6112 13-21589 23h-57v-47l-5-22444v-52h55l29866 10h44v42l-22 16330-11 4526v1485c0 66-11 110-11 110zm-150-19695a609 609 0 01-75 5h-222l-852 9-3132 8c-2646 0-6300-19-10336-52L14353 15600l-3133-25-851-10-222-6a329 329 0 01-75 0 329 329 0 01 75-5h222l851-9 3133-9 10337 53 10335 83 3133 24 851 11h222a358 358 0 01 75 6"/><path fill="#acf" d="M11538 14100a352 352 0 11-351-351 352 352 0 01 351 351"/><path fill="#59f" d="M12945 14100a352 352 0 11-352-351 352 352 0 01 352 351"/><circle cx="14000" cy="14104" r="352" fill="#2a7fff"/><path fill="#ccc" d="M14793 28741h6138v4595h-6138"/><path fill="#e6e6e6" d="M21534 28741h6138v4595h-6138"/><path fill="#ebebeb" d="M29390 28741h6138v4595H29390"/><path fill="#f5f5f5" d="M46081 17791c-187-3464-3807-5207-5659-5432L38940 14100c1193-179 4160 1477 4305 2675s-768 2729-1970 2839c-944 87-2518-751-3117-17-1514-1348-4100-1237-5492 236a3784 3784 0 00-5036 3144l5575 3236s2323 2082 3907 800c541-438 747-1067 800-1674a839 839 0 00 316-20c400-108 700-468 832-863 17-51 30-100 42-155 1354 300 3200-40 4289-720 1580-981 2790-3927 2690-5790"/><path fill="#263238" d="M38552 20271s-8-8-21-27l-55-82-93-132-136-172a3590 3590 0 00-1083-872 3452 3452 0 00-900-327 3253 3253 0 00-1100-50 3567 3567 0 00-2200 1143c-83 90-156 188-225 278l-13 18-19-10a3511 3511 0 00-2860-100 4350 4350 0 00-453 227 3683 3683 0 00-729 541 2946 2946 0 00-728 1079c-30 72-50 137-68 194a1500 1500 0 00-41 145l-24 90a100 100 0 01-10 30s0-11 5-31l19-91a1166 1166 0 01 37-147l63-200a2928 2928 0 01 722-1100 3646 3646 0 01 733-551 4153 4153 0 01 457-232 3464 3464 0 01 519-169 3539 3539 0 01 2381 260l-33 8a3568 3568 0 01 2462-1438 3279 3279 0 01 1114 54 3478 3478 0 01 912 338 3516 3516 0 01 1081 891 2091 2091 0 01 133 176 1427 1427 0 01 90 135l51 85a241 241 0 01 12 39zm1077-724c-6 8-78-45-210-94a1121 1121 0 00-238-58 1264 1264 0 00-300 0 1279 1279 0 00-290 80 1110 1110 0 00-214 120c-114 83-169 153-176 147s9-21 33-54a714 714 0 01 121-122 953 953 0 01 217-135 1100 1100 0 01 616-85 959 959 0 01 246 72 668 668 0 01 149 86c32 26 48 41 46 43zM41200 21654s-57-28-164-66a1215 1215 0 00-475-68 1131 1131 0 00-662 256 1185 1185 0 00-421 767l-5 42-34-23a1814 1814 0 00-367-180 1872 1872 0 00-1033-65 1852 1852 0 00-761 381 1944 1944 0 00-384 433l-110 183a210 210 0 01 20-52 1223 1223 0 01 73-142 1847 1847 0 01 1151-849 1875 1875 0 01 1439 248l-40 19a1221 1221 0 01 443-800 1156 1156 0 01 690-255 1179 1179 0 01 483 84 869 869 0 01 119 59 166 166 0 01 38 28zm4322-5887a500 500 0 01 41 70l105 207a4626 4626 0 01 280 805A5435 5435 0 01 46100 18100a6417 6417 0 01-38 746 7157 7157 0 01-128 792 8249 8249 0 01-1046 2600 4772 4772 0 01-510 683l-164 164a444 444 0 01-62 52 560 560 0 01 55-60c38-37 89-95 156-170a5228 5228 0 00 494-688 8505 8505 0 00 1026-2590 7094 7094 0 00 128-786 6354 6354 0 00 41-741 5600 5600 0 00-139-1246 5085 5085 0 00-263-800l-100-210a511 511 0 01-28-79zM42756 15900a500 500 0 01 93 100 1967 1967 0 01 207 300 2188 2188 0 01-74 2294 1972 1972 0 01-225 285 552 552 0 01-100 90 4356 4356 0 00 293-395 2243 2243 0 00 73-2256 3861 3861 0 00-267-418"/><path fill="#407bff" d="M39090 13217a3539 3539 0 00 975 991 317 317 0 00 475-369v-8a12960 12960 0 00 1427 951 390 390 0 00 563-472 5982 5982 0 00-2740-3191"/><path d="M39666 13265a600 600 0 00 157 178 206 206 0 00 224 14c100-67 95-230 200-292s241 27 333 114l290 277c71 68 167 141 258 100s107-182 85-288a1564 1564 0 00-931-1115" opacity=".3"/><path fill="#407bff" d="M43516 15647a349 349 0 10 0-25"/><path fill="#f5f5f5" d="M25130 3581c-282 439 335 1973 1749 3937a13392 13392 0 00 3000 3018l8154 5231 1378-2148 800-1246 1378-2148-7400-4747A13452 13452 0 00 31900 4300a16039 16039 0 00-2462-771c-2355-517-4027-387-4308 52"/><path fill="#407bff" d="m36475 6947 30-10a6100 6100 0 01 5240 652l977 627-2593 1075"/><path fill="#263238" d="m36475 6947 19 12 53 33 200 129 761 479 2629 1676h-14L42486 8300l229-100v30l-575-370-561-353a6168 6168 0 00-1128-530 5875 5875 0 00-1093-272c-174-31-344-41-507-58s-320-18-470-12a6046 6046 0 00-1400 174c-164 35-286 79-371 100l-129 37 32-12 87-34 370-108a5900 5900 0 01 1406-185c150-7 308 0 472 10l509 56a5919 5919 0 01 1100 270 6200 6200 0 01 1135 531l562 354 577 372 28 18-31 13-229 100-2364 979h-15l-2631-1700-750-486-200-129-50-33"/><path fill="#407bff" d="M32920 12490v31a6019 6019 0 00 2739 4429l964 619-100-2767"/><path fill="#263238" d="m32920 12490 16 9 50 32 200 124 744 473 2605 1660 7 5v7l94 2522 9 245v33l-28-18-568-364-548-359a6054 6054 0 01-943-800 5752 5752 0 01-693-874c-100-144-179-294-261-434s-147-281-200-419a5850 5850 0 01-416-1332c-33-162-43-290-55-376l-12-100c-3-26 0-33 0-33 0 19 8 55 20 130s26 214 61 375a5992 5992 0 00 421 1329c57 137 132 272 200 417s162 287 261 430a5792 5792 0 00 693 868 6100 6100 0 00 939 794l548 357 568 364-27 15-9-244-91-2523 7 13-2584-1668-743-482-200-129-51-34"/><path fill="#407bff" d="M25130 3581c-231 331 100 1334 912 2676L28235 3300c-1577-193-2810-144-3105 281"/><path fill="#263238" d="M40224 9431c8 6-766 1243-1729 2763l-1758 2744c-8-6 763-1238 1729-2762l1758-2745zm231 184c8 0-766 1242-1729 2762l-1758 2744c-8-6 766-1241 1729-2762l1758-2744zm264 162c8 6-766 1243-1729 2763l-1758 2744c-8-6 766-1241 1729-2762l1758-2745zm264 163c8 6-767 1243-1729 2763L37500 15447c0-5 766-1241 1729-2762l1754-2745"/><g fill="#263238"><path d="M41246 10100c8 0-766 1242-1729 2763l-1758 2744c-8-5 766-1241 1729-2762L41246 10100zm-6536-388s15 0 42 18 65 36 115 64l411 254 1338 864 1328 879 400 271 107 75a157 157 0 01 36 28 300 300 0 01-40-23l-111-69-406-262-1330-871-1332-872-400-262-111-70"/><path d="M36475 6947c8 6-774 1241-1746 2758l-1775 2740c-8-5 774-1240 1746-2758l1775-2740zm1209 4045a84 84 0 01 0-49 200 200 0 01 258-168 212 212 0 01 37 400 200 200 0 01-200-12 208 208 0 01-86-100c-10-30-8-49-6-49s5 17 19 44a207 207 0 00 85 89 174 174 0 00 173 0 182 182 0 00-32-339 174 174 0 00-168 36 208 208 0 00-68 100c-9 31-9 48-12 48zm-1557-1040s-7-17 0-49a200 200 0 01 258-168 212 212 0 01 37 400 200 200 0 01-200-12 211 211 0 01-85-100 100 100 0 01-7-49s6 17 20 44a207 207 0 00 85 89 172 172 0 00 172 0 182 182 0 00-31-339 176 176 0 00-169 36 212 212 0 00-67 100c-10 31-10 48-13 48zm-2999-724a100 100 0 01 0-49 210 210 0 01 64-119 200 200 0 01 200-49 212 212 0 01 36 400 200 200 0 01-200-12 205 205 0 01-85-100c-11-31-9-49-7-49a400 400 0 01 19 44 219 219 0 00 85 89 176 176 0 00 173 0 200 200 0 00 100-181 193 193 0 00-134-158 174 174 0 00-168 36 208 208 0 00-68 100c-12 31-12 48-15 48"/><path d="M31793 8900c6-7 578 308 1278 700s1262 725 1256 733-578-308-1278-700-1261-722-1256-733"/></g><path d="M36430 14741s-2330-1572-3510-2251c407 583 876 1245 1441 1677a2969 2969 0 00 2069 574" opacity=".3"/><circle cx="30751" cy="7244" r="1972" fill="#fff" transform="rotate(-73.63 307.496 72.448)"/><path fill="#263238" d="M32720 7357a134 134 0 01 0-32v-94a976 976 0 00-9-152 1493 1493 0 00-30-205 1922 1922 0 00-190-532 1974 1974 0 00-467-581 1947 1947 0 00-1827-381 1826 1826 0 00-507 237 2262 2262 0 00-231 175 2419 2419 0 00-200 214 1940 1940 0 00-131 2300A2300 2300 0 00 29300 8540a2076 2076 0 00 210 200 1830 1830 0 00 477 294A1961 1961 0 00 31000 9178a1964 1964 0 00 1371-840 1900 1900 0 00 249-507 1650 1650 0 00 54-200 967 967 0 00 26-150l13-93a124 124 0 01 6-31 193 193 0 01 0 32c0 24-5 55-8 93a910 910 0 01-21 152 1487 1487 0 01-50 200 1837 1837 0 01-240 520 1985 1985 0 01-1389 867 2000 2000 0 01-1042-143 1875 1875 0 01-490-300 1858 1858 0 01-400-447 1944 1944 0 01-254-566 2109 2109 0 01-67-636 2000 2000 0 01 456-1156 2073 2073 0 01 209-220 2375 2375 0 01 237-179 1884 1884 0 01 520-241 2000 2000 0 01 1051-24 1988 1988 0 01 1283 1019A1885 1885 0 01 32700 6870a1252 1252 0 01 26 208 923 923 0 01 5 153v94a134 134 0 01-11 32zm-7590-3776a207 207 0 01 13-19 257 257 0 01 45-52 746 746 0 01 230-141 3146 3146 0 01 1026-179 9869 9869 0 01 1659 89 15481 15481 0 01 2169 444q594 170 1231 400a13900 13900 0 01 1300 549 13732 13732 0 01 1324 738l1358 869L41600 10200l22 14-14 22-1777 2771-1779 2771-13 22-22-14L31900 11863l-1356-872-644-416c-211-142-406-300-600-451a14331 14331 0 01-1909-1911A17267 17267 0 01 26116 6400a11010 11010 0 01-775-1469 3219 3219 0 01-281-1000 731 731 0 01 29-268 271 271 0 01 29-63 113 113 0 01 12-20 425 425 0 00-36 84 746 746 0 00-24 266 3267 3267 0 00 288 1000 11162 11162 0 00 781 1462 17444 17444 0 00 1280 1800 14294 14294 0 00 1909 1900l592 447 648 415 1357 870 6118 3920-36 8 1778-2771 1777-2771 8 36-6113-3925-1357-870a13787 13787 0 00-1318-739c-437-214-871-393-1293-550s-832-293-1227-406a15479 15479 0 00-2162-450 9931 9931 0 00-1654-100 3194 3194 0 00-1023 170 775 775 0 00-231 135 635 635 0 00-62 70"/><path fill="#fff" d="M33205 26217H15838a2053 2053 0 01-2053-2053 2053 2053 0 01 2053-2053h17367a2053 2053 0 01 2053 2053 2053 2053 0 01-2053 2053"/><path fill="#263238" d="m33205 26217 122-9a922 922 0 00 150-15 1645 1645 0 00 205-39l122-32 131-48 70-26 71-35a1223 1223 0 00 147-77 2013 2013 0 00 595-522 1566 1566 0 00 131-191 1678 1678 0 00 113-215 2307 2307 0 00 92-238l33-128 17-65 10-67 21-137 6-140v-144c0-49 0-100-9-147a2172 2172 0 00-159-592 2071 2071 0 00-906-981 2025 2025 0 00-700-223c-252-28-517-14-786-17l-16839 8a2277 2277 0 00-600 89 2221 2221 0 00-542 261 2189 2189 0 00-438 400 2107 2107 0 00-300 511 2138 2138 0 00-140 572 2189 2189 0 00 30 583 2020 2020 0 00 529 1012 2016 2016 0 00 973 561 2158 2158 0 00 276 50l281 11h2750l7571 6 5100 8 1388 5h484-1872l-5100 9-7571 5h-2750c-94 0-191-7-286-11a2268 2268 0 01-283-51 2066 2066 0 01-1000-574 2152 2152 0 01-346-478 2200 2200 0 01-200-560 2259 2259 0 01-30-600 2080 2080 0 01 451-1111 2075 2075 0 01 1006-682 2300 2300 0 01 613-92l16839 7 790 20a2026 2026 0 01 715 228 2100 2100 0 01 917 1000 2179 2179 0 01 159 600l8 149v145l-7 143c-2 43-15 93-22 138l-10 68-17 66-34 129c-33 82-55 166-94 241a1788 1788 0 01-116 217 1660 1660 0 01-133 191 2028 2028 0 01-600 524 1500 1500 0 01-149 76l-72 34-70 26-133 47-122 31a1500 1500 0 01-207 37 1023 1023 0 01-150 13"/><circle cx="32417" cy="24052" r="914" fill="#fff" transform="rotate(-45 324.174 240.513)"/><g fill="#06f"><path d="M32417 25015a964 964 0 11 963-963 964 964 0 01-963 963zm0-1827a864 864 0 10 863 864 864 864 0 00-863-864"/><path d="m33127.2 24634.5 53.4-84.6 773.7 488.5-53.4 84.6"/></g><g fill="#263238"><path d="m16669 24500 75-168a566 566 0 00 317 100c131 0 185-43 185-100 0-180-558-57-558-413 0-163 132-300 400-300a644 644 0 01 333 84l-68 169a538 538 0 00-266-75c-132 0-182 49-182 109 0 177 557 55 557 407 0 161-133 300-407 300a688 688 0 01-386-113zm1652-217h-558a200 200 0 00 211 148 249 249 0 00 185-71l114 123a385 385 0 01-300 119c-255 0-421-160-421-379a376 376 0 01 394-380 364 364 0 01 383 382 368 368 0 00-8 58zm-560-125h363a184 184 0 00-363 0zm1339 12v421h-200V24500a243 243 0 01-225 100c-172 0-275-100-275-223s92-221 316-221h170c0-92-55-145-170-145a355 355 0 00-212 68l-77-149a563 563 0 01 318-89c224 2 355 106 355 329zm-214 188v-75h-146c-100 0-132 37-132 86s45 89 121 89a157 157 0 00 156-100zm864-515v200h-48a181 181 0 00-200 205v348h-214v-737h200v100a300 300 0 01 262-116zm65 380a381 381 0 01 411-380 337 337 0 01 330 188l-165 89a185 185 0 00-166-100 204.5 204.5 0 00 0 409 181 181 0 00 166-100l165 91a341 341 0 01-330 186 381 381 0 01-411-383zm1613-54v422h-214V24200c0-119-55-174-150-174s-176 63-176 200v364h-214v-1016h214v357a320 320 0 01 234-88c178 0 306 101 306 326"/><use xlink:href="#a"/><use x="359" xlink:href="#a"/><use x="718" xlink:href="#a"/></g><path fill="#407bff" d="m10092 10008-3224-1700a455 455 0 01-190-616l2356-4466a458 458 0 01 617-191L11700 4115l721 2467-1712 3235a458 458 0 01-617 191"/><path fill="#fff" d="m11700 4115-664 1256a426 426 0 00 177 574l1208 637" opacity=".3"/><path d="M10991 5490a472 472 0 00 117 580l35 29c143 112 1083 845 1100 821s178-338 178-338l-1208-637s-300-170-222-455" opacity=".2"/><path fill="#fafafa" d="M10789 5177c-9 16-349-147-761-365L9300 4389c11-17 350 147 762 365l727 423zM11377 6400c-8 16-565-261-1243-619S8914 5116 8922 5100s565 261 1243 619 1221 661 1212 681zm-92 706c-8 16-614-287-1353-678S8600 5709 8609 5693s615 287 1354 677 1331 720 1322 736zm-295 559c-9 16-615-287-1354-677s-1331-720-1322-736 614 287 1353 677 1333 720 1323 736zm-296 560c-8 16-614-287-1353-678s-1331-719-1323-735 615 288 1354 677 1328 720 1322 736zM10400 8784c-9 16-615-287-1353-677s-1332-720-1323-736 614 287 1353 677 1331 720 1323 736"/><use fill="#455a64" xlink:href="#b"/><use opacity=".3" xlink:href="#b"/><path fill="#455a64" d="m30611 38613-1618-237-106-291a565 565 0 00-454-358L26851 37500a500 500 0 00-579 400l-26 185-700 4857a569 569 0 00 500 626l6431 932a568 568 0 00 657-459l660-4588a373 373 0 00-317-424"/><path fill="#fff" d="m28084.8 40059.1 3825.7 549.9-231.4 1609.5-3825.7-549.9"/><path fill="#263238" d="M31217 41235c0 14-592-59-1318-163s-1313-200-1310-215 592 59 1318 163 1312 201 1310 215zm-49 343c0 14-592-59-1318-163s-1313-200-1311-215 592 59 1318 163 1313 201 1311 215"/><use fill="#407bff" xlink:href="#c"/><use opacity=".3" xlink:href="#c"/><path fill="#407bff" d="m38665 37257-1000 382-154-133a367 367 0 00-374-60l-980 375a328 328 0 00-200 417l44 114 1151 3008a375 375 0 00 488 200l3981-1524a373 373 0 00 231-474l-1088-2842a246 246 0 00-318-141"/><path fill="#fff" d="m37678.4 38891.3 2369.3-907.1 381.5 996.5-2369.3 907"/><path fill="#263238" d="M39850 38567a7149 7149 0 01-805 336 7142 7142 0 01-823 287 7621 7621 0 01 800-336 7380 7380 0 01 828-287zm81 213a7536 7536 0 01-800 335A7327 7327 0 01 38300 39400a7149 7149 0 01 805-336 7217 7217 0 01 826-284"/><path fill="#455a64" d="m11670 44864-61 2908 3828 90c-13-346-1975-1087-1975-1087l120-1861"/><path fill="#fff" d="M12282 46591a148 148 0 00-112 166 150 150 0 00 173 107 141 141 0 10-75-269m-659 1177 19-293 3663 200s168 74 146 187" opacity=".6"/><g fill="#263238"><path d="M13524 46758c0 18-94 24-188 79s-144 127-161 120 13-109 128-173 226-42 221-26zm398 167c0 17-78 45-144 118s-86 152-100 151-28-100 55-191 189-95 189-78zm216 459c-17 0-41-85 9-181s139-132 147-117-48 65-88 144-50 153-68 154zM13500 46331c-8 16-94-10-200-6s-189 34-200 19 72-77 200-80 211 54 200 67zm-78-431a380 380 0 01-192-5 918 918 0 01-200-63 948 948 0 01-108-58 237 237 0 01-57-44 73 73 0 01-6-94 100 100 0 01 83-39 279 279 0 01 71 11 700 700 0 01 119 42 657 657 0 01 173 114c87 79 116 146 109 149s-50-50-139-117a791 791 0 00-168-95 835 835 0 00-110-34c-40-11-74-12-85 0s0 9 0 21a188 188 0 00 41 32 1148 1148 0 00 100 57 1009 1009 0 00 184 71 1300 1300 0 01 185 52"/><path d="M13400 45925a279 279 0 01-46-176 552 552 0 01 31-200 600 600 0 01 52-109 161 161 0 01 125-89 92 92 0 01 79 53 206 206 0 01 17 67 381 381 0 01 0 122 414 414 0 01-86 185c-78 92-156 111-158 105s60-41 120-130a410 410 0 00 65-169 337 337 0 00 0-105c0-38-19-70-34-66s-53 27-69 58a600 600 0 00-50 100 610 610 0 00-42 180c-15 105 3 171-4 174"/></g><path fill="#455a64" d="M8769 45106 8400 47991l-3800-472c64-340 2113-785 2113-785l154-1859"/><path fill="#fff" d="M7911 46724a148 148 0 01 87 181 151 151 0 01-187 80 155 155 0 01-91-192 159 159 0 01 200-63m480 1261 25-293-3652-342S4600 47400 4600 47519" opacity=".6"/><g fill="#263238"><path d="M6658 46708c0 18 90 37 175 105s124 147 142 142 0-109-100-189-219-75-217-58zm-417 106c-7 17 70 57 124 139s63 162 81 164 43-100-26-200-177-117-179-103zm-281 423c16 6 52-78 16-180s-118-151-127-138 38 72 66 156 26 158 45 162zm783-948c6 17 94 0 200 23s182 61 193 47-59-86-182-108-219 23-211 38zm142-415a380 380 0 00 190 22 835 835 0 00 206-33 806 806 0 00 116-41 238 238 0 00 63-35 74 74 0 00 20-92 106 106 0 00-77-51 283 283 0 00-72 0 654 654 0 00-123 24 665 665 0 00-189 87c-100 66-135 128-129 132s57-43 154-95a732 732 0 01 294-88c42-5 76 0 84 17s0 10-7 20a176 176 0 01-46 25 844 844 0 01-107 42 1123 1123 0 01-192 44 1227 1227 0 00-185 22"/><path d="M6906 45900a280 280 0 00 71-168 562 562 0 00 0-200 537 537 0 00-35-115 158 158 0 00-110-106 91 91 0 00-86 40 259 259 0 00-27 64 365 365 0 00-15 121 400 400 0 00 58 200c63 100 138 133 141 127s-54-50-100-146a413 413 0 01-39-177 335 335 0 01 16-100c10-38 29-67 44-61s47 35 59 67a643 643 0 01 36 100 677 677 0 01 15 184c-10 105-34 170-28 170"/><path d="m14639 29431-5959 191-1366 10031-866 6800 2520 89 673-3717c184-1000 520-2478 611-3317s1565-6700 1565-6700l-106 7080c3 280-292 6646-292 6646h2500c129-1149 436-5747 500-6676l551-7629c51-1211-331-2798-331-2798"/></g><path fill="#455a64" d="M14246 29477a1100 1100 0 01 0-427 1047 1047 0 01 0 427zm248 113a810 810 0 01 45-540 2054 2054 0 01-26 270 2016 2016 0 01-19 270zm-2226-447a237 237 0 00-126 71 173 173 0 00-41 141 163 163 0 00 285 54 177 177 0 00 14-146 226 226 0 00-92-112s17 0 42 11a179 179 0 01 78 90 200 200 0 01-8 178 200 200 0 01-359-68 200 200 0 01 58-169 184 184 0 01 106-55c28-3 43 3 43 5zM9521 39492a5306 5306 0 01-638-239 5349 5349 0 01-622-279 5452 5452 0 01 639 239 5446 5446 0 01 621 279"/><path d="M9200 15336c19-347 233-561 532-738a1082 1082 0 01 1000-45c210 100 394 270 624 300 380 49 739-300 1111-215a494 494 0 01-36 968c249 36 389 351 300 584s-352 370-600 375a1382 1382 0 01-710-223c-217-126-420-278-647-386a1076 1076 0 00-729-107c-329 87-562 400-647 726s-49 677 0 1013 116 675 84 1014a125 125 0 01-48 100c-50 28-108-19-145-63a4982 4982 0 01-938-1700c-115-360-178-711-41-1063s600-687 894-544"/><path fill="#ffbe9d" d="m8877 17012 555 3427c100 640 520 1259 1524 1049 858-248 794-865 682-1626s944-245 859-1205c-40-464-200-1412-359-2268a1793 1793 0 00-1944-1461l-93 9c-991 163-1410 1089-1224 2075"/><path fill="#eb996e" d="M11638 19862a2328 2328 0 01-1284-243s376 712 1323 530"/><g fill="#263238"><use xlink:href="#d"/><path d="M11980 16880c-15 20-127-47-274-31s-248 100-266 83 6-41 49-80a379 379 0 01 211-89 353 353 0 01 220 48c49 30 67 60 60 69"/><use x="-1341" y="212" xlink:href="#d"/><path d="M10563 17053c-16 19-127-47-274-32s-248 100-266 84 6-41 49-80a379 379 0 01 211-89 362 362 0 01 220 47c49 30 67 61 60 70zm616 1039a945 945 0 01 235-68c37-7 72-18 76-45a200 200 0 00-36-109l-140-275c-200-392-341-716-325-724a5111 5111 0 01 382 700l136 278a223 223 0 01 34 145 94 94 0 01-56 62 313 313 0 01-63 15 1000 1000 0 01-243 21zm-664-1620c-10 42-159 38-330 76s-306 100-332 66c-12-17 8-57 61-100a590 590 0 01 500-108c70 18 105 47 101 66zm1368-13c-23 37-128 12-250 23s-223 45-250 12c-12-16 0-51 43-87a363 363 0 01 400-28c49 30 67 63 57 80"/></g><path fill="#ffbe9d" d="M9026 17714c-17-6-678-129-591 524s725 432 723 413l-132-937"/><path fill="#eb996e" d="M8926 18430s-10 9-28 21a118 118 0 01-85 13 285 285 0 01-164-236 370 370 0 01 10-167 131 131 0 01 74-100 57 57 0 01 71 22c12 17 9 31 13 31s12-13 0-39a70 70 0 00-31-37 88 88 0 00-65-9 162 162 0 00-100 117 391 391 0 00-15 188 300 300 0 00 200 260 123 123 0 00 100-32c21-16 22-31 20-32"/><path d="M12060 15500a1249 1249 0 00-449-423 2149 2149 0 00-1282-319 1748 1748 0 00-1173 584 1842 1842 0 00-411 977 2715 2715 0 00 100 1063 808 808 0 00 221 409c75 64 200 100 267 32a263 263 0 00 61-159c75-518 145-1075-89-1543a1517 1517 0 01 409-460 780 780 0 01 587-141c300 60 510 326 763 500a1389 1389 0 00 1257 153"/><path fill="#eb996e" d="M11309 18489a649 649 0 01-49 180 225 225 0 01-135 122 200 200 0 01-183-55 319 319 0 01-84-177c-10-60 0-135 59-155a168 168 0 01 74 0l334 61"/><path fill="#263238" d="M11239 18768a474 474 0 01-168 14 236 236 0 01-147-87 250 250 0 01-46-200 200 200 0 01 17-51c9-16 7-15 21-15a452 452 0 01 53 9l55 10 190 32a600 600 0 00 177 15 532 532 0 00-169-54l-188-44-54-12c-20 0-35-9-61-11a76 76 0 00-46 11 100 100 0 00-28 34 249 249 0 00-22 65 291 291 0 00 61 244 269 269 0 00 182 93A248 248 0 00 11200 18800c29-16 41-29 39-32"/><g fill="#ffbe9d"><path d="m13674 17080 155-42 2413 2345 1958 236s-20-591-755-1345c-660-674-2195-1474-2715-1888a800 800 0 00-225-134"/><path d="m13673 15964-247-70-582-276-662 247s15 226 189 164l-694 229s57 165 88 176-407 47-407 47 0 223 415 219 576-75 576-75l333 89-13 200-454-7 21 254a5356 5356 0 00 584 90s700 10 890-82l432-223 363-692"/></g><g fill="#eb996e"><path d="M13048 16081c0 6-39-13-100-41a1600 1600 0 01-235-125h30l-27 17a674 674 0 01-273 100c-74 10-120 0-120 0a1500 1500 0 00 366-140l25-16 15-10 15 11c81 56 166 100 222 135s87 64 82 69zm-213 353s-45 16-112-13-142-100-237-140h24a1000 1000 0 01-134 76 949 949 0 01-374 92 342 342 0 01-158-17 1700 1700 0 00 510-122 1022 1022 0 00 128-71l13-7h11c108 55 171 128 230 158s99 36 99 44zm620 217c0 8-51-7-130-6a543 543 0 00-288 87 493 493 0 00-143 141l-6 9h-9a769 769 0 01-237 29 754 754 0 01 228-73l-15 10a474 474 0 01 153-161 500 500 0 01 318-80c86 10 132 39 129 44"/><path d="M14142 16944a82 82 0 01-20 13l-63 36-242 131a779 779 0 01-183 82 1749 1749 0 01-235 38c-170 17-364 24-579 24l-261-27a1681 1681 0 01-286-49h-10v-13l-45-279-5-28h28l432 18-26 22c0-61 9-129 13-200l19 26-334-89h17a1757 1757 0 01-500 76 1172 1172 0 01-263-13 338 338 0 01-237-144 200 200 0 01-26-86v-23h25l308-29 74-10h16v5a21 21 0 00-6 22c0 9 18 21 14 17a55 55 0 01-16-10 159 159 0 01-27-38 1160 1160 0 01-60-142l-9-25 25-8 700-228 16 46a186 186 0 01-88 10 132 132 0 01-78-45 273 273 0 01-56-151v-17l18-7 663-244h16l581 279 243 70 212 75 336 122 211 78a377 377 0 01 72 30 700 700 0 01-75-21l-214-69-339-113-212-71-244-66-584-273h17l-662 249 16-24a227 227 0 00 45 123 100 100 0 00 112 20l16 47-693 230 16-33a884 884 0 00 57 134 121 121 0 00 16 25 33 33 0 00-6 12c10-26 0-7 7-12h7a27 27 0 01 9 15 26 26 0 01-7 24c-8 8-6 5-8 6h-30l-77 10-309 30 23-25a156 156 0 00 19 59 288 288 0 00 200 119 1113 1113 0 00 252 12 1725 1725 0 00 481-70h17l333 90h20v20c0 69-9 137-13 200v24h-24l-431-20 24-27 43 280-12-16a1862 1862 0 00 272 47l259 29 575-16a1688 1688 0 00 232-32 800 800 0 00 180-76l246-122 65-30c-11-2-4-5-3-4zm-836-753a770 770 0 01-257 261 785 785 0 01-331 158c-6-14 140-85 300-200l288-219"/></g><g fill="#407bff"><path d="m18179 19546-1937-163-2284 869-500 306L14170 23000s3579-2109 3731-2289a1300 1300 0 00 278-1165"/><path d="m7839 21341-666 413 1538 6055L8432 31300c400 346 1400 643 3300 535S14900 30900 14900 30900l-182-3591-433-4052-485-2771-1464 106-571-338-256 128-328 910-854-618-1000-481-365 681"/></g><path fill="#263238" d="M13800 21191a800 800 0 01 52 134l120 376a12310 12310 0 01 300 1266 12369 12369 0 01 158 1290l17 393a683 683 0 01 0 145 909 909 0 01-17-144l-34-391a15809 15809 0 00-173-1284 16133 16133 0 00-280-1265l-100-380a662 662 0 01-43-140zm-2892 48a400 400 0 01-138-51 879 879 0 01-300-259l36-10a3390 3390 0 01-179 875l-11 32-28-19-70-49-878-614-262-191a528 528 0 01-92-76 513 513 0 01 100 59l271 178 886 600 71 48-40 13a3663 3663 0 00 188-861v-54l31 44a933 933 0 00 281 263l134 72zm1369-539a3189 3189 0 01-325 369l-18 19-18-20a2241 2241 0 00-217-221l-124-100-61-45a69 69 0 00-14-2l-9 15-93 238a1081 1081 0 01-100 215 1021 1021 0 01 64-228l83-242a71 71 0 01 35-43 64 64 0 01 58 9l64 46 128 100a1868 1868 0 01 220 229h-36a3200 3200 0 01 363-339"/><path fill="#455a64" d="M11881 31573A4142 4142 0 11 10900 39400a4142 4142 0 01 985-7826zm1477 7868a3861 3861 0 10-2345-293 3861 3861 0 00 2345 293"/><g fill="#fff"><path d="M12638 39987a4362 4362 0 11 1494-266 4332 4332 0 01-1494 266zm9-8011a3666 3666 0 10 674 7269 3680 3680 0 00 2647-2055 3668 3668 0 00-3321-5214"/><path d="m2567 31600 37-90c78-193 250-306 384-251l6054 2463c30 12 40 57 23 100l-258 634c-18 43-56 68-86 56l-6054-2468c-134-55-179-255-100-444"/></g><g fill="#ffbe9d"><path d="m8221 24624-728 2409 365 4910-1074 135S5554 27900 5676 27144 6300 24186 6300 24186"/><path d="m7855 31908 500 854 312 800-467-183s-200 966-281 991-306-53-283-238a306 306 0 01-255 84c-142-29-176-121-160-300 0 0-165 134-264 51a300 300 0 01-89-230s-215 18-245-93a1852 1852 0 01-12-552l129-618 48-400"/></g><path fill="#eb996e" d="M7738 33575a922 922 0 00-75 274 935 935 0 00-31 283 910 910 0 00 75-274 935 935 0 00 31-283zM7300 33464a573 573 0 00-67 218 600 600 0 00-23 228 612 612 0 00 67-219 619 619 0 00 23-227zm-366-103a582 582 0 00-34 189c-17 100-44 185-31 190a308 308 0 00 75-183 355 355 0 00-10-196zM8233 33100a1035 1035 0 00-80 268 1100 1100 0 00-52 275 737 737 0 00 95-264 765 765 0 00 37-279"/><path fill="#407bff" d="M5617 28766c0-82-336-1226-234-1819s1322-4600 1486-4886a1249 1249 0 01 521-442 1994 1994 0 01 971 1219c245 879 245 1982 245 1982l-981 2433 117 1382"/><path fill="#263238" d="M8544 24740c-10 0 9-180 0-468a4114 4114 0 00-49-500 4065 4065 0 00-372-1175 4155 4155 0 00-250-439l-269-383a580 580 0 01 88 91 2740 2740 0 01 208 268 3720 3720 0 01 262 438 3862 3862 0 01 377 1190 3846 3846 0 01 38 510 2716 2716 0 01-17 343 659 659 0 01-16 125zm-63 509a1800 1800 0 01-100 300l-300 710-316 700a2257 2257 0 01-136 289 1800 1800 0 01 100-300l300-710 316-700a2257 2257 0 01 136-289zm-799 2098a4571 4571 0 00-672-292 4515 4515 0 00-722-127 685 685 0 01 218-12 2157 2157 0 01 519 89 2109 2109 0 01 482 213 682 682 0 01 175 129"/><path fill="#fff" d="M14068 34238c9 11-779 700-1761 1541l-1794 1500c-9-12 779-700 1761-1540l1794-1501zm1014 0c10 11-654 600-1483 1309l-1517 1270c-10-11 655-600 1483-1309l1517-1270"/><path fill="#263238" d="M16575 35643s0-21-6-63-6-106-12-187c0-41 0-87-8-137l-25-165-30-191c-11-68-34-138-51-214a3783 3783 0 00-436-1043 3914 3914 0 00-995-1110l-169-126-184-112c-62-38-123-80-191-111l-200-100-100-49-109-39-220-80c-75-25-153-41-230-62a2040 2040 0 00-237-54 3624 3624 0 00-494-57c-84 0-169-11-255-10l-258 14c-44 0-88 0-131 8l-130 20-263 43a4121 4121 0 00-521 153 4079 4079 0 00-509 224l-244 145-120 76-115 87a3559 3559 0 00-832 832l-90 120-79 129-78 129a1000 1000 0 00-73 133l-132 275-106 290a3867 3867 0 00 0 2464l106 289c35 96 89 184 133 276l33 68 40 65 78 129 79 129 90 120a4500 4500 0 00 381 449 4600 4600 0 00 443 377l115 86c39 29 81 50 121 76l243 145a4011 4011 0 00 510 224 4121 4121 0 00 521 153l263 43 130 20c44 6 87 5 131 8l258 14 255-10a3624 3624 0 00 494-57 1853 1853 0 00 237-54l230-61 220-81 109-39 100-49 200-100c68-31 128-75 191-111l184-112 169-126a3900 3900 0 00 995-1110 3783 3783 0 00 442-1036c17-76 43-145 51-214l30-191 25-164 8-138q9-120 12-186c0-42 6-64 6-64v64l-7 187q0 62-6 138c0 50-14 105-22 165l-28 192a2210 2210 0 01-50 216 3700 3700 0 01-430 1053 3921 3921 0 01-1000 1124l-170 128-185 114-192 113-205 100-100 49-110 41-222 81c-75 26-154 42-233 63a1728 1728 0 01-239 55 3543 3543 0 01-500 59l-258 11-262-13c-43 0-88 0-132-8l-132-20-266-43a4100 4100 0 01-527-154 3915 3915 0 01-517-226l-246-146-123-77-113-89a4351 4351 0 01-449-381 4266 4266 0 01-388-458l-92-121-79-131-80-131-40-65-34-70-138-279-108-293a3922 3922 0 01 0-2500L9000 34100l134-279a1180 1180 0 01 74-135l80-131 80-130 91-121a4510 4510 0 01 388-458 4351 4351 0 01 449-381l117-87a1400 1400 0 01 122-78l246-146a4051 4051 0 01 517-226 4100 4100 0 01 527-154l266-43 132-20c44-5 88-5 132-8l262-13 257 11a3540 3540 0 01 500 59 2125 2125 0 01 239 55l233 63 222 81 109 41 100 50 200 100a2157 2157 0 01 193 112l185 114 170 128a3921 3921 0 01 1000 1124 3700 3700 0 01 430 1053c17 76 42 147 50 216l28 192 22 165 6 138 7 187 7 64zm-1451 2087a1388 1388 0 01 100-134 3688 3688 0 00 250-375 3451 3451 0 00 300-2862 4100 4100 0 00-167-419 1100 1100 0 01-69-151s10 11 25 35l62 107a3042 3042 0 01 183 416 3340 3340 0 01-300 2893 3164 3164 0 01-266 369l-83 92c-19 21-33 30-35 29zm-207 359c7 13-24 44-69 70s-88 36-95 24 24-44 69-70 88-36 95-24"/><path fill="#fff" d="M9761 37326a200 200 0 01-24-47l-59-139a3635 3635 0 01-159-534 3852 3852 0 01 926-3426 3464 3464 0 01 406-382c50-42 93-70 121-91s43-30 45-28-54 49-153 135a4116 4116 0 00-392 390A3936 3936 0 00 9556 36600a4200 4200 0 00 144 533l61 193zm2321-4901a1084 1084 0 01-467 39 536 536 0 01 231-46 548 548 0 01 236 7"/><path fill="#06f" d="M32145.5 5829.5c-377.8-377.8-880-585.8-1414.2-585.8s-1036.5 208-1414.2 585.8-585.8 880-585.8 1414.2 208 1036.5 585.8 1414.2 880 585.8 1414.2 585.8 1036.5-208 1414.2-585.8 585.8-880 585.8-1414.2-208-1036.5-585.8-1414.2zm-1414.2 3254.9c-1014.9 0-1840.6-825.7-1840.6-1840.6s825.7-1840.6 1840.6-1840.6 1840.6 825.7 1840.6 1840.6-825.7 1840.6-1840.6 1840.6"/><circle cx="30727.9" cy="7250.2" r="1943.7"/><path fill="url(#e)" stroke="#06f" stroke-width="422" d="M4540 36770h9130l4540-7880-4540-7890H4540L0 28890zM29000 27920l4580-7890-4580-7880h-9080l-4550 7880 4550 7890zm4580 9820L29000 29860h-9080l-4550 7880 4550 7920H29000zM0 11180l4540 7880h9130l4540-7880-4540-7920H4540zm48920 0-4540-7920h-9130l-4540 7880 4540 7920h9130" transform="matrix(.0598 0 0 .05686 29261 5822)"/></svg>