<svg xmlns="http://www.w3.org/2000/svg" xmlns:svg="http://www.w3.org/2000/svg" id="Layer_1" x="0" y="0" version="1.1" viewBox="0 0 455 455" xml:space="preserve" style="enable-background:new 0 0 455 455"><metadata id="metadata188"/><g style="fill:#06f" id="g935" transform="matrix(0.68782227,0,0,0.68562695,48.588603,54.145154)"><g style="fill:#06f" id="g933"><path style="fill:#06f" id="path931" d="M 437.02,74.98 C 388.667,26.628 324.38,0 256,0 187.62,0 123.333,26.628 74.98,74.98 26.628,123.333 0,187.62 0,256 0,324.38 26.628,388.667 74.98,437.02 123.333,485.372 187.62,512 256,512 324.38,512 388.667,485.372 437.02,437.02 485.372,388.667 512,324.38 512,256 512,187.62 485.372,123.333 437.02,74.98 Z M 256,491.602 C 126.089,491.602 20.398,385.912 20.398,256 20.398,126.088 126.089,20.398 256,20.398 385.911,20.398 491.602,126.089 491.602,256 491.602,385.911 385.911,491.602 256,491.602 Z"/></g></g><ellipse style="stroke-width:.757371" id="circle151" cx="226.105" cy="229.261" rx="172.583" ry="172.022" transform="matrix(1,0,-0.00411056,0.99999155,0,0)"/><g style="fill:#06f" id="g263" transform="matrix(0.47420482,0,0,0.4740566,109.40499,111.33033)"><g style="fill:#06f" id="g261"><g style="fill:#06f" id="g259"><polygon style="fill:#06f" id="polygon249" points="136.7 210 45.4 210 0 288.9 45.4 367.7 136.7 367.7 182.1 288.9"/><polygon style="fill:#06f" id="polygon251" points="199.2 121.5 153.7 200.3 199.2 279.2 290 279.2 335.8 200.3 290 121.5"/><polygon style="fill:#06f" id="polygon253" points="153.7 377.4 199.2 456.6 290 456.6 335.8 377.4 290 298.6 199.2 298.6"/><polygon style="fill:#06f" id="polygon255" points="182.1 111.8 136.7 32.6 45.4 32.6 0 111.8 45.4 190.6 136.7 190.6"/><polygon style="fill:#06f" id="polygon257" points="307.1 111.4 352.5 190.6 443.8 190.6 489.2 111.8 443.8 32.6 352.5 32.6"/></g></g></g></svg>