<svg xmlns="http://www.w3.org/2000/svg" xmlns:svg="http://www.w3.org/2000/svg" id="svg11872" width="682.667" height="682.667" version="1.1" viewBox="0 0 512 512"><metadata id="metadata11876"/><defs id="defs11848"><linearGradient id="A" x1="79.5" x2="441.5" y1="266.5" y2="266.5" gradientUnits="userSpaceOnUse"><stop id="stop11843" offset="0" stop-color="#59f"/><stop id="stop11845" offset="1" stop-color="#59f" stop-opacity="0"/></linearGradient></defs><path id="path11854" fill="#fff" d="M225.311 313.532h-45.584c-29.146 0-52.856-23.71-52.856-52.856v-6.645c0-29.146 23.71-52.856 52.856-52.856h58.637c29.146 0 52.856 23.71 52.856 52.856v13.715h-24.039V254.03c0-15.889-12.928-28.817-28.817-28.817h-58.637c-15.889 0-28.817 12.928-28.817 28.817v6.645c0 15.889 12.928 28.817 28.817 28.817h45.584zm0 0"/><path id="path11856" fill="#e9edf5" d="M260.365 205.988v29.461a28.68 28.68 0 0 1 6.816 18.582v13.715h24.039V254.03c0-21.297-12.666-39.677-30.855-48.042zm0 0"/><path id="path11858" fill="#fff" d="M341.273 331.826h-58.637c-29.146 0-52.856-23.71-52.856-52.856v-13.715h24.039v13.715c0 15.889 12.928 28.817 28.817 28.817h58.637c15.889 0 28.817-12.928 28.817-28.817v-6.645c0-15.889-12.928-28.817-28.817-28.817h-45.584v-24.039h45.584c29.146 0 52.856 23.713 52.856 52.856v6.645c0 29.146-23.71 52.856-52.856 52.856zm0 0"/><path id="path11860" fill="#e9edf5" d="M341.273 219.469h-45.584v24.039h45.584c15.889 0 28.817 12.928 28.817 28.817v6.645c0 15.889-12.928 28.817-28.817 28.817h-58.637c-8.962 0-16.983-4.115-22.272-10.55v29.651a52.55 52.55 0 0 0 22.272 4.938h58.637c29.146 0 52.856-23.713 52.856-52.856v-6.645c0-29.146-23.71-52.856-52.856-52.856zm0 0"/><path id="path11862" fill="#fff" d="M249.188 127.215h21.211v42.894h-21.211zm0 0"/><path id="path11864" fill="#ececec" d="M260.365 127.215h10.034v42.894h-10.034zm0 0"/><path id="path11866" fill="#fff" d="M182.649 155.706l15-14.997 30.336 30.344-15.002 14.997zm110.366 15.364l30.336-30.344 15 14.997-30.333 30.344zm-42.413 191.821h21.211v42.894h-21.211zm0 0"/><path id="path11868" fill="#e6e6e6" d="M260.365 362.891h11.448v42.894h-11.448zm0 0"/><path id="path11870" fill="#fff" d="M293.013 361.925l15-14.994 30.336 30.342-15.002 14.997zM182.644 377.3l30.336-30.344 15 14.997-30.336 30.344zm0 0"/></svg>