<svg xmlns="http://www.w3.org/2000/svg" xmlns:svg="http://www.w3.org/2000/svg" xmlns:xlink="http://www.w3.org/1999/xlink" id="Capa_1" width="423.836" height="304.41" x="0" y="0" version="1.1" viewBox="0 0 423.836 304.41" xml:space="preserve"><metadata id="metadata300"/><defs id="defs298"><linearGradient id="linearGradient8694" x1="-506.288" x2="490.369" y1="135.105" y2="244.6" gradientUnits="userSpaceOnUse" xlink:href="#linearGradient8692"/><linearGradient id="linearGradient8692"><stop style="stop-color:#0684ff;stop-opacity:1" id="stop943" offset="0"/><stop style="stop-color:#0684ff;stop-opacity:0" id="stop945" offset="1"/></linearGradient><linearGradient id="linearGradient1270" x1="-506.288" x2="490.369" y1="135.105" y2="244.6" gradientUnits="userSpaceOnUse" xlink:href="#linearGradient8692"/><linearGradient id="linearGradient1272" x1="-506.288" x2="490.369" y1="135.105" y2="244.6" gradientUnits="userSpaceOnUse" xlink:href="#linearGradient8692"/><linearGradient id="linearGradient1274" x1="-506.288" x2="490.369" y1="135.105" y2="244.6" gradientUnits="userSpaceOnUse" xlink:href="#linearGradient8692"/><linearGradient id="linearGradient1276" x1="-506.288" x2="490.369" y1="135.105" y2="244.6" gradientUnits="userSpaceOnUse" xlink:href="#linearGradient8692"/><linearGradient id="linearGradient1278" x1="-506.288" x2="490.369" y1="135.105" y2="244.6" gradientUnits="userSpaceOnUse" xlink:href="#linearGradient8692"/><linearGradient id="linearGradient1280" x1="-506.288" x2="490.369" y1="135.105" y2="244.6" gradientUnits="userSpaceOnUse" xlink:href="#linearGradient8692"/><linearGradient id="linearGradient1282" x1="-506.288" x2="490.369" y1="135.105" y2="244.6" gradientUnits="userSpaceOnUse" xlink:href="#linearGradient8692"/></defs><g style="fill:url(#linearGradient8694);fill-opacity:1;stroke:#06f;stroke-width:2.0264;stroke-miterlimit:4;stroke-dasharray:none;stroke-opacity:1" id="g263" transform="matrix(0.53103161,0,0,0.50471994,83.867624,43.887327)"><g style="fill:url(#linearGradient1282);fill-opacity:1;stroke:#06f;stroke-width:2.0264;stroke-miterlimit:4;stroke-dasharray:none;stroke-opacity:1" id="g261"><g style="fill:url(#linearGradient1280);fill-opacity:1;stroke:#06f;stroke-width:2.0264;stroke-miterlimit:4;stroke-dasharray:none;stroke-opacity:1" id="g259"><polygon style="fill:url(#linearGradient1270);fill-opacity:1;stroke:#06f;stroke-width:2.0264;stroke-miterlimit:4;stroke-dasharray:none;stroke-opacity:1" id="polygon249" points="136.7 367.7 182.1 288.9 136.7 210 45.4 210 0 288.9 45.4 367.7"/><polygon style="fill:url(#linearGradient1272);fill-opacity:1;stroke:#06f;stroke-width:2.0264;stroke-miterlimit:4;stroke-dasharray:none;stroke-opacity:1" id="polygon251" points="335.8 200.3 290 121.5 199.2 121.5 153.7 200.3 199.2 279.2 290 279.2"/><polygon style="fill:url(#linearGradient1274);fill-opacity:1;stroke:#06f;stroke-width:2.0264;stroke-miterlimit:4;stroke-dasharray:none;stroke-opacity:1" id="polygon253" points="290 298.6 199.2 298.6 153.7 377.4 199.2 456.6 290 456.6 335.8 377.4"/><polygon style="fill:url(#linearGradient1276);fill-opacity:1;stroke:#06f;stroke-width:2.0264;stroke-miterlimit:4;stroke-dasharray:none;stroke-opacity:1" id="polygon255" points="45.4 190.6 136.7 190.6 182.1 111.8 136.7 32.6 45.4 32.6 0 111.8"/><polygon style="fill:url(#linearGradient1278);fill-opacity:1;stroke:#06f;stroke-width:2.0264;stroke-miterlimit:4;stroke-dasharray:none;stroke-opacity:1" id="polygon257" points="443.8 32.6 352.5 32.6 307.1 111.4 352.5 190.6 443.8 190.6 489.2 111.8"/></g></g></g></svg>