<svg xmlns="http://www.w3.org/2000/svg" xmlns:svg="http://www.w3.org/2000/svg" id="Capa_1" width="613.145" height="456.992" x="0" y="0" version="1.1" viewBox="0 0 613.145 456.992" xml:space="preserve"><path style="fill:#f9f9f9" id="path3266" d="m 126.29,283.07313 v 31.936 l -51.282,0.093 c -6.717,14.824 -21.624,25.147 -38.961,25.147 h -6.706 c -16.205,0 -29.34,-13.135 -29.34,-29.34 h 32.697 l 10.899,-13.413 -10.899,-13.413 H 0 c 0,-16.205 13.135,-29.34 29.34,-29.34 h 6.706 c 18.615,0 34.439,11.899 40.311,28.505 z"/><path style="fill:#1a6fb0" id="path2180" d="m 613.145,102.22025 v 328.125 c 0,14.713 -11.934,26.647 -26.647,26.647 H 127.792 c -14.713,-0.001 -26.647,-11.934 -26.647,-26.648 v -328.124 c 0,-14.713 11.934,-26.647 26.647,-26.647 h 458.706 c 14.713,0 26.647,11.933 26.647,26.647 z"/><path style="fill:#1e81ce" id="path2182" d="m 613.145,102.22025 v 328.125 c 0,14.713 -11.934,26.647 -26.647,26.647 H 157.052 c -14.713,0 -26.647,-11.934 -26.647,-26.647 v -328.125 c 0,-14.713 11.934,-26.647 26.647,-26.647 h 429.446 c 14.713,0 26.647,11.933 26.647,26.647 z"/><path style="fill:#00479b" id="path2184" d="m 613.145,102.22025 v 39.187 h -512 v -39.187 c 0,-14.713 11.934,-26.647 26.647,-26.647 h 458.706 c 14.713,0 26.647,11.933 26.647,26.647 z"/><path style="fill:#1e81ce" id="path2186" d="m 613.145,102.22025 v 39.187 h -482.74 v -39.187 c 0,-14.713 11.934,-26.647 26.647,-26.647 h 429.446 c 14.713,0 26.647,11.933 26.647,26.647 z"/><g id="g2202" transform="translate(101.145,10.28225)"><path style="fill:#004fac" id="path2188" d="m 512,91.938 v 39.187 H 29.26 V 91.938 c 0,-14.713 11.934,-26.647 26.647,-26.647 h 429.446 c 14.713,0 26.647,11.933 26.647,26.647 z"/><path style="fill:#acf" id="path2190" d="m 77.371,156.727 h -41.8 c -4.328,0 -7.837,3.508 -7.837,7.837 0,4.329 3.509,7.837 7.837,7.837 H 77.37 c 4.328,0 7.837,-3.508 7.837,-7.837 0,-4.329 -3.508,-7.837 -7.836,-7.837 z"/><path style="fill:#004fac" id="path2192" d="m 155.744,156.727 h -41.799 c -4.328,0 -7.837,3.508 -7.837,7.837 0,4.329 3.509,7.837 7.837,7.837 h 41.799 c 4.328,0 7.837,-3.508 7.837,-7.837 0,-4.329 -3.508,-7.837 -7.837,-7.837 z"/><path style="fill:#acf" id="path2194" d="m 234.118,156.727 h -41.799 c -4.328,0 -7.837,3.508 -7.837,7.837 0,4.329 3.509,7.837 7.837,7.837 h 41.799 c 4.328,0 7.837,-3.508 7.837,-7.837 0,-4.329 -3.509,-7.837 -7.837,-7.837 z"/><path style="fill:#004fac" id="path2196" d="m 312.492,156.727 h -41.799 c -4.328,0 -7.837,3.508 -7.837,7.837 0,4.329 3.509,7.837 7.837,7.837 h 41.799 c 4.328,0 7.837,-3.508 7.837,-7.837 0,-4.329 -3.509,-7.837 -7.837,-7.837 z"/><path style="fill:#acf" id="path2198" d="m 390.866,156.727 h -41.799 c -4.328,0 -7.837,3.508 -7.837,7.837 0,4.329 3.509,7.837 7.837,7.837 h 41.799 c 4.328,0 7.837,-3.508 7.837,-7.837 0,-4.329 -3.509,-7.837 -7.837,-7.837 z"/><path style="fill:#004fac" id="path2200" d="M 469.239,156.727 H 427.44 c -4.328,0 -7.837,3.508 -7.837,7.837 0,4.329 3.509,7.837 7.837,7.837 h 41.799 c 4.328,0 7.837,-3.508 7.837,-7.837 0,-4.329 -3.508,-7.837 -7.837,-7.837 z"/></g><g id="g2208" transform="translate(101.145,10.28225)"><path style="fill:#fff" id="path2204" d="M 411.765,92.52 H 42.537 c -4.328,0 -7.837,3.508 -7.837,7.837 0,4.329 3.509,7.837 7.837,7.837 h 369.228 c 4.328,0 7.837,-3.508 7.837,-7.837 0,-4.329 -3.508,-7.837 -7.837,-7.837 z"/><path style="fill:#fff" id="path2206" d="m 489.414,105.055 -5.568,-4.931 5.568,-4.931 c 3.24,-2.87 3.54,-7.823 0.671,-11.063 -2.87,-3.242 -7.823,-3.542 -11.063,-0.671 l -6.995,6.196 -6.995,-6.196 c -3.239,-2.871 -8.194,-2.569 -11.063,0.671 -2.871,3.24 -2.57,8.194 0.671,11.063 l 5.568,4.931 -5.568,4.931 c -3.241,2.87 -3.54,7.823 -0.671,11.063 1.549,1.749 3.703,2.641 5.87,2.641 1.848,0 3.701,-0.649 5.194,-1.971 l 6.995,-6.196 6.995,6.196 c 1.491,1.322 3.346,1.971 5.194,1.971 2.165,0 4.321,-0.892 5.87,-2.641 2.867,-3.24 2.567,-8.193 -0.673,-11.063 z"/></g><path style="fill:#004fac" id="path2210" d="m 408.412,231.92325 v 166.246 c 0,9.405 -7.618,17.023 -17.023,17.023 H 153.122 c -4.493,0 -8.579,-1.745 -11.62,-4.598 -3.323,-3.104 -5.392,-7.513 -5.392,-12.425 v -166.246 c 0,-9.394 7.618,-17.023 17.012,-17.023 h 238.267 c 9.405,0 17.023,7.629 17.023,17.023 z"/><g id="g2226" transform="translate(101.145,10.28225)"><path style="fill:#fff" id="path2212" d="m 360.561,212.471 h 108.813 c 4.328,0 7.837,-3.508 7.837,-7.837 0,-4.329 -3.509,-7.837 -7.837,-7.837 H 360.561 c -4.328,0 -7.837,3.508 -7.837,7.837 0,4.329 3.509,7.837 7.837,7.837 z"/><path style="fill:#acf" id="path2214" d="M 469.374,230.236 H 345.021 c -4.328,0 -7.837,3.508 -7.837,7.837 0,4.329 3.509,7.837 7.837,7.837 h 124.353 c 4.328,0 7.837,-3.508 7.837,-7.837 0,-4.329 -3.509,-7.837 -7.837,-7.837 z"/><path style="fill:#fff" id="path2216" d="M 469.374,263.675 H 345.021 c -4.328,0 -7.837,3.508 -7.837,7.837 0,4.329 3.509,7.837 7.837,7.837 h 124.353 c 4.328,0 7.837,-3.508 7.837,-7.837 0,-4.329 -3.509,-7.837 -7.837,-7.837 z"/><path style="fill:#acf" id="path2218" d="M 469.374,297.115 H 345.021 c -4.328,0 -7.837,3.508 -7.837,7.837 0,4.329 3.509,7.837 7.837,7.837 h 124.353 c 4.328,0 7.837,-3.508 7.837,-7.837 0,-4.329 -3.509,-7.837 -7.837,-7.837 z"/><path style="fill:#fff" id="path2220" d="M 469.374,330.554 H 345.021 c -4.328,0 -7.837,3.508 -7.837,7.837 0,4.329 3.509,7.837 7.837,7.837 h 124.353 c 4.328,0 7.837,-3.508 7.837,-7.837 0,-4.329 -3.509,-7.837 -7.837,-7.837 z"/><path style="fill:#fff" id="path2222" d="M 469.374,363.994 H 345.021 c -4.328,0 -7.837,3.508 -7.837,7.837 0,4.329 3.509,7.837 7.837,7.837 h 124.353 c 4.328,0 7.837,-3.508 7.837,-7.837 0,-4.329 -3.509,-7.837 -7.837,-7.837 z"/><path style="fill:#acf" id="path2224" d="m 431.62,397.433 h -86.599 c -4.328,0 -7.837,3.508 -7.837,7.837 0,4.329 3.509,7.837 7.837,7.837 h 86.599 c 4.328,0 7.837,-3.508 7.837,-7.837 0,-4.329 -3.509,-7.837 -7.837,-7.837 z"/></g><path style="fill:#fff" id="path2228" d="M 297.947,415.19225 H 153.122 c -4.493,0 -8.579,-1.745 -11.62,-4.598 l 37.358,-73.671 0.7,-1.39 17.221,-33.941 c 9.039,-17.827 34.505,-17.827 43.544,0 l 17.263,34.046 0.658,1.285 z"/><path style="fill:#ffda44" id="path2230" d="m 374.554,301.67325 c -6.745,15.471 -22.175,26.278 -40.122,26.278 -24.164,0 -43.755,-19.59 -43.755,-43.755 0,-22.125 16.429,-40.42 37.753,-43.342 -2.337,5.349 -3.632,11.269 -3.632,17.477 0,24.164 19.59,43.755 43.755,43.755 2.039,0 4.037,-0.14 6.001,-0.413 z"/><path style="fill:#c2dff6" id="path2232" d="m 257.589,335.63825 c -8.882,11.819 -23.031,19.468 -38.967,19.468 -15.988,0 -30.169,-7.691 -39.061,-19.573 l 17.221,-33.941 c 9.039,-17.827 34.505,-17.827 43.544,0 z"/><path style="fill:#f9f9f9" id="path3316" d="m 513.16921,58.131 v 12.506 c 0,2.38 -1.556,4.368 -3.698,5.079 h -37.354 c 1.659,-3.42 2.596,-7.273 2.596,-11.332 0,-14.32 -11.61,-25.93 -25.93,-25.93 -14.32,0 -25.93,11.61 -25.93,25.93 0,4.059 0.937,7.912 2.596,11.332 h -31.369 c -1.04,0 -2.05,0.103 -3.039,0.288 h -1.277 c -2.967,0 -5.367,-2.4 -5.367,-5.367 V 58.131 c 0,-2.967 2.4,-5.367 5.367,-5.367 h 7.18 c 2.308,0 4.378,-1.473 5.089,-3.667 0.783,-2.411 1.751,-4.729 2.874,-6.964 1.051,-2.05 0.628,-4.553 -0.999,-6.181 l -5.079,-5.079 c -2.091,-2.091 -2.091,-5.501 0,-7.592 l 8.849,-8.849 c 2.091,-2.091 5.501,-2.091 7.592,0 l 5.079,5.079 c 1.628,1.628 4.131,2.05 6.181,0.999 2.235,-1.123 4.553,-2.091 6.964,-2.874 2.194,-0.711 3.667,-2.781 3.667,-5.089 v -7.18 c 0,-2.967 2.4,-5.367 5.367,-5.367 h 12.506 c 2.967,0 5.367,2.4 5.367,5.367 v 7.18 c 0,2.308 1.473,4.378 3.667,5.089 2.411,0.783 4.729,1.751 6.964,2.874 2.05,1.051 4.553,0.628 6.181,-0.999 l 5.079,-5.079 c 2.091,-2.091 5.501,-2.091 7.592,0 l 8.849,8.849 c 2.091,2.091 2.091,5.501 0,7.592 l -5.079,5.079 c -1.628,1.628 -2.05,4.131 -0.999,6.181 1.123,2.235 2.091,4.553 2.874,6.964 0.711,2.194 2.781,3.667 5.089,3.667 h 7.18 c 2.971,0 5.371,2.401 5.371,5.367 z"/></svg>