<svg xmlns="http://www.w3.org/2000/svg" xmlns:svg="http://www.w3.org/2000/svg" style="enable-background:new 0 0 489.2 489.2" id="Capa_1" x="0" y="0" version="1.1" viewBox="0 0 489.2 489.2" xml:space="preserve"><metadata id="metadata300"/><g style="fill:#06f" id="g263"><g style="fill:#06f" id="g261"><g style="fill:#06f" id="g259"><polygon style="fill:#06f" id="polygon249" points="182.1 288.9 136.7 210 45.4 210 0 288.9 45.4 367.7 136.7 367.7"/><polygon style="fill:#06f" id="polygon251" points="290 121.5 199.2 121.5 153.7 200.3 199.2 279.2 290 279.2 335.8 200.3"/><polygon style="fill:#06f" id="polygon253" points="199.2 298.6 153.7 377.4 199.2 456.6 290 456.6 335.8 377.4 290 298.6"/><polygon style="fill:#06f" id="polygon255" points="136.7 190.6 182.1 111.8 136.7 32.6 45.4 32.6 0 111.8 45.4 190.6"/><polygon style="fill:#06f" id="polygon257" points="352.5 32.6 307.1 111.4 352.5 190.6 443.8 190.6 489.2 111.8 443.8 32.6"/></g></g></g></svg>