<svg xmlns="http://www.w3.org/2000/svg" xmlns:svg="http://www.w3.org/2000/svg" xmlns:xlink="http://www.w3.org/1999/xlink" id="Capa_1" width="512" height="512" enable-background="new 0 0 512 512" version="1.1" viewBox="0 0 512 512"><defs id="defs59582"><rect id="rect90034" width="75.006" height="43.047" x="205.452" y="391.99"/><rect id="rect67328" width="598.094" height="190.451" x="98.487" y="317.636"/><linearGradient id="linearGradient8694" x1="-506.288" x2="490.369" y1="135.105" y2="244.6" gradientUnits="userSpaceOnUse" xlink:href="#linearGradient8692"/><linearGradient id="linearGradient8692"><stop style="stop-color:#0684ff;stop-opacity:1" id="stop943" offset="0"/><stop style="stop-color:#0684ff;stop-opacity:0" id="stop945" offset="1"/></linearGradient><linearGradient id="linearGradient65509" x1="-506.288" x2="490.369" y1="135.105" y2="244.6" gradientUnits="userSpaceOnUse" xlink:href="#linearGradient8692"/><linearGradient id="linearGradient65511" x1="-506.288" x2="490.369" y1="135.105" y2="244.6" gradientUnits="userSpaceOnUse" xlink:href="#linearGradient8692"/><linearGradient id="linearGradient65513" x1="-506.288" x2="490.369" y1="135.105" y2="244.6" gradientUnits="userSpaceOnUse" xlink:href="#linearGradient8692"/><linearGradient id="linearGradient65515" x1="-506.288" x2="490.369" y1="135.105" y2="244.6" gradientUnits="userSpaceOnUse" xlink:href="#linearGradient8692"/><linearGradient id="linearGradient65517" x1="-506.288" x2="490.369" y1="135.105" y2="244.6" gradientUnits="userSpaceOnUse" xlink:href="#linearGradient8692"/><linearGradient id="linearGradient65519" x1="-506.288" x2="490.369" y1="135.105" y2="244.6" gradientUnits="userSpaceOnUse" xlink:href="#linearGradient8692"/><linearGradient id="linearGradient65521" x1="-506.288" x2="490.369" y1="135.105" y2="244.6" gradientUnits="userSpaceOnUse" xlink:href="#linearGradient8692"/></defs><g id="g59577"><g id="g59559"><path id="path59497" fill="#01d0fb" d="m256 22c-135.31 0-245 109.69-245 245 0 23.156 3.226 45.556 9.23 66.79l1.551 1h44.669l.284-.522c11.226-20.65 32.786-33.478 56.266-33.478 8.746 0 17.23 1.739 25.219 5.169l1.192.512.191-1.283c3.943-26.451 27.114-46.397 53.897-46.397 8.887 0 17.715 2.195 25.53 6.349l1.47.781v-43.204h51v27.204l1.47-.781c7.815-4.153 16.644-6.349 25.53-6.349 30.052 0 54.5 24.448 54.5 54.5 0 1.482-.071 3.032-.218 4.738l-.123 1.43 1.384-.379c5.537-1.52 11.242-2.289 16.957-2.289 23.48 0 45.04 12.828 56.266 33.478l.284.522h52.669l1.551-1c6.004-21.234 9.23-43.634 9.23-66.79.001-135.311-109.689-245.001-244.999-245.001z"/><path id="path59499" fill="#01c0fa" d="m123 300.79c8.746 0 17.23 1.739 25.219 5.169l1.192.512.191-1.283c3.943-26.451 27.114-46.397 53.897-46.397 8.887 0 17.715 2.195 25.53 6.349l1.47.781v-43.204h51v27.204l1.47-.781c7.815-4.153 16.644-6.349 25.53-6.349 30.052 0 54.5 24.448 54.5 54.5 0 1.481-.071 3.031-.218 4.738l-.123 1.43 1.384-.379c5.537-1.52 11.242-2.289 16.957-2.289 22.027 0 42.364 11.29 54.064 29.736 7.073-19.875 10.937-41.257 10.937-63.527 0-104.766-85.234-190-190-190s-190 85.234-190 190c0 19.516 2.961 38.352 8.452 56.088 12.023-13.994 29.662-22.298 48.548-22.298z"/><path id="path59501" fill="#08a9f1" d="m123 300.79c8.746 0 17.23 1.739 25.219 5.169l1.192.512.191-1.283c3.943-26.451 27.114-46.397 53.897-46.397 8.887 0 17.715 2.195 25.53 6.349l1.47.781v-43.204h51v27.204l1.47-.781c7.815-4.153 16.644-6.349 25.53-6.349 30.052 0 54.5 24.448 54.5 54.5 0 1.481-.071 3.031-.218 4.738l-.123 1.43 1.384-.379c5.537-1.52 11.242-2.289 16.957-2.289 3.611 0 7.177.306 10.667.895 2.828-11.093 4.334-22.713 4.334-34.686 0-77.32-62.68-140-140-140s-140 62.68-140 140c0 11.678 1.439 23.018 4.133 33.862.952-.043 1.907-.072 2.867-.072z"/><path id="path59503" fill="#c8effe" d="m363 297.29c0 1.481-.071 3.031-.218 4.738l-.123 1.43 1.384-.379c5.537-1.52 11.242-2.289 16.957-2.289 6.067 0 12.002.863 17.667 2.489.212-1.634.333-3.297.333-4.989 0-21.263-17.237-38.5-38.5-38.5-3.836 0-7.538.569-11.035 1.613 8.416 9.595 13.535 22.151 13.535 35.887z" style="fill:#fff"/><path id="path59505" fill="#c8effe" d="m123 300.79c8.746 0 17.23 1.739 25.219 5.169l1.192.512.191-1.283c2.055-13.786 9.34-25.796 19.63-34.145-5.32-4.52-12.205-7.252-19.733-7.252-16.845 0-30.5 13.655-30.5 30.5 0 2.265.254 4.469.723 6.593 1.089-.057 2.18-.094 3.278-.094z" style="fill:#fff"/><g id="g59519"><g id="g59515"><g id="g59509"><circle id="circle59507" cx="336.5" cy="221.29" r="10.5" fill="#c8effe" style="fill:#fff"/></g><g id="g59513"><circle id="circle59511" cx="176.5" cy="235.29" r="10.5" fill="#c8effe" style="fill:#fff"/></g></g><path id="path59517" fill="#99e6fc" d="m438.145 333.79c-11.01-20.253-32.472-34-57.145-34-5.965 0-11.735.819-17.222 2.324.137-1.591.222-3.197.222-4.824 0-30.652-24.848-55.5-55.5-55.5-9.397 0-18.243 2.344-26 6.466v-26.54h-53v42.54c-7.757-4.122-16.603-6.466-26-6.466-27.848 0-50.901 20.511-54.886 47.25-7.861-3.374-16.517-5.25-25.614-5.25-24.673 0-46.135 13.747-57.145 34h-45.625c29.076 102.847 123.615 178.21 235.77 178.21s206.694-75.363 235.77-178.21z" style="fill:#e6e6e6"/></g><g id="g59557"><path id="path59521" fill="#fff" d="m223.5 203.819v13.896c0 2.761 2.239 5 5 5h55c2.761 0 5-2.239 5-5v-13.896z"/><path id="path59523" fill="#eaf6ff" d="m248 217.715v-13.896h-24.5v13.896c0 2.761 2.239 5 5 5h24.5c-2.762 0-5-2.238-5-5z" style="fill:#d7eef4"/><g id="g59539"><path id="path59525" fill="#fe5694" d="m219 143.603h-.562c-3.544 0-6.824 1.872-8.626 4.923l-25.23 42.706c-1.973 3.339.435 7.558 4.313 7.558h30.105z" style="fill:#0055d4"/><path id="path59527" fill="#fe5694" d="m327.402 191.206-25.602-42.732c-1.81-3.021-5.073-4.87-8.594-4.87h-.206v55.187h30.105c3.892-.001 6.298-4.246 4.297-7.585z" style="fill:#0055d4"/><path id="path59529" fill="#e8edf2" d="m292.418 58.823h-72.837l-1.582 1v139.996c0 2.761 2.239 5 5 5h66c2.761 0 5-2.239 5-5v-139.996z"/><path id="path59531" fill="#d9e7ec" d="m242 199.819v-139.996h-24v139.996c0 2.761 2.239 5 5 5h24c-2.762 0-5-2.238-5-5z"/><g id="g59535"><path id="path59533" fill="#fe5694" d="m258.128.465c-1.352-.62-2.904-.62-4.256 0-21.232 9.743-35.872 36.768-35.872 59.358h76c0-22.59-14.64-49.615-35.872-59.358z" style="fill:#06f"/></g><path id="path59537" fill="#fd3581" d="m268 6.563c-3.091-2.431-6.391-4.5-9.872-6.097-1.352-.62-2.904-.62-4.256 0-21.232 9.742-35.872 36.767-35.872 59.357h24c0-18.887 10.237-40.865 26-53.26z" style="fill:#0055d4"/></g><g id="g59543"><circle id="circle59541" cx="256" cy="100.748" r="27.5" fill="#fff"/></g><g id="g59553"><path id="path59551" fill="#fff" d="m271.038 189.917h-30.076c-2.761 0-5-2.239-5-5v-8.034c0-2.761 2.239-5 5-5h30.076c2.761 0 5 2.239 5 5v8.034c0 2.761-2.239 5-5 5z"/></g><path id="path59555" fill="#eaf6ff" d="m252.924 184.917v-8.034c0-2.761 2.239-5 5-5h-16.962c-2.761 0-5 2.239-5 5v8.034c0 2.761 2.239 5 5 5h16.962c-2.761 0-5-2.239-5-5z" style="fill:#d7eef4"/></g></g></g><g id="g935" transform="matrix(0.0859375,0,0,0.0859375,233.83694,78.769424)" style="fill:#06f"><g id="g933" style="fill:#06f"><path id="path931" d="M 437.02,74.98 C 388.667,26.628 324.38,0 256,0 187.62,0 123.333,26.628 74.98,74.98 26.628,123.333 0,187.62 0,256 0,324.38 26.628,388.667 74.98,437.02 123.333,485.372 187.62,512 256,512 324.38,512 388.667,485.372 437.02,437.02 485.372,388.667 512,324.38 512,256 512,187.62 485.372,123.333 437.02,74.98 Z M 256,491.602 C 126.089,491.602 20.398,385.912 20.398,256 20.398,126.088 126.089,20.398 256,20.398 385.911,20.398 491.602,126.089 491.602,256 491.602,385.911 385.911,491.602 256,491.602 Z" style="fill:#06f;fill-opacity:1"/></g></g><ellipse style="stroke-width:.0939799" id="circle151" cx="255.8" cy="100.84" rx="21.381" ry="21.38"/><g style="fill:url(#linearGradient8694);fill-opacity:1;stroke:#06f;stroke-width:4.94169;stroke-miterlimit:4;stroke-dasharray:none;stroke-opacity:1" id="g263" transform="matrix(0.06578735,0,0,0.06254964,239.66368,85.129544)"><g style="fill:url(#linearGradient65521);fill-opacity:1;stroke:#06f;stroke-width:4.94169;stroke-miterlimit:4;stroke-dasharray:none;stroke-opacity:1" id="g261"><g style="fill:url(#linearGradient65519);fill-opacity:1;stroke:#06f;stroke-width:4.94169;stroke-miterlimit:4;stroke-dasharray:none;stroke-opacity:1" id="g259"><polygon style="fill:url(#linearGradient65509);fill-opacity:1;stroke:#06f;stroke-width:4.94169;stroke-miterlimit:4;stroke-dasharray:none;stroke-opacity:1" id="polygon249" points="45.4 210 0 288.9 45.4 367.7 136.7 367.7 182.1 288.9 136.7 210"/><polygon style="fill:url(#linearGradient65511);fill-opacity:1;stroke:#06f;stroke-width:4.94169;stroke-miterlimit:4;stroke-dasharray:none;stroke-opacity:1" id="polygon251" points="153.7 200.3 199.2 279.2 290 279.2 335.8 200.3 290 121.5 199.2 121.5"/><polygon style="fill:url(#linearGradient65513);fill-opacity:1;stroke:#06f;stroke-width:4.94169;stroke-miterlimit:4;stroke-dasharray:none;stroke-opacity:1" id="polygon253" points="199.2 456.6 290 456.6 335.8 377.4 290 298.6 199.2 298.6 153.7 377.4"/><polygon style="fill:url(#linearGradient65515);fill-opacity:1;stroke:#06f;stroke-width:4.94169;stroke-miterlimit:4;stroke-dasharray:none;stroke-opacity:1" id="polygon255" points="136.7 32.6 45.4 32.6 0 111.8 45.4 190.6 136.7 190.6 182.1 111.8"/><polygon style="fill:url(#linearGradient65517);fill-opacity:1;stroke:#06f;stroke-width:4.94169;stroke-miterlimit:4;stroke-dasharray:none;stroke-opacity:1" id="polygon257" points="352.5 190.6 443.8 190.6 489.2 111.8 443.8 32.6 352.5 32.6 307.1 111.4"/></g></g></g><text id="text67326" x="251.123" y="0" transform="translate(-138.92483,1.9566879)" xml:space="preserve" style="font-style:normal;font-variant:normal;font-weight:700;font-stretch:normal;font-size:64px;line-height:1.25;font-family:'Century Gothic';-inkscape-font-specification:'Century Gothic Bold';text-align:center;white-space:pre;shape-inside:url(#rect67328);fill:#04a;fill-opacity:1;stroke:none"><tspan id="tspan102326" x="226.658" y="375.739">Boost Your </tspan><tspan id="tspan102328" x="328.424" y="455.739">SEO!</tspan></text></svg>