<?xml version="1.0" encoding="UTF-8" standalone="no"?>
<!-- Generator: Adobe Illustrator 19.0.0, SVG Export Plug-In . SVG Version: 6.00 Build 0)  -->

<svg
   version="1.1"
   id="Capa_1"
   x="0px"
   y="0px"
   viewBox="0 0 613.14502 456.99225"
   xml:space="preserve"
   sodipodi:docname="JunTech-Web-Solutions-Aruba-Services.svg"
   inkscape:version="1.1 (c68e22c387, 2021-05-23)"
   width="613.14502"
   height="456.99225"
   xmlns:inkscape="http://www.inkscape.org/namespaces/inkscape"
   xmlns:sodipodi="http://sodipodi.sourceforge.net/DTD/sodipodi-0.dtd"
   xmlns="http://www.w3.org/2000/svg"
   xmlns:svg="http://www.w3.org/2000/svg"><defs
   id="defs2267" /><sodipodi:namedview
   id="namedview2265"
   pagecolor="#ffffff"
   bordercolor="#666666"
   borderopacity="1.0"
   inkscape:pageshadow="2"
   inkscape:pageopacity="0.0"
   inkscape:pagecheckerboard="0"
   showgrid="false"
   inkscape:zoom="1"
   inkscape:cx="364.5"
   inkscape:cy="203.5"
   inkscape:window-width="1920"
   inkscape:window-height="1003"
   inkscape:window-x="-9"
   inkscape:window-y="-9"
   inkscape:window-maximized="1"
   inkscape:current-layer="Capa_1" />











<g
   id="g2234"
   transform="translate(125.145,7.7783829)">
</g>
<g
   id="g2236"
   transform="translate(125.145,7.7783829)">
</g>
<g
   id="g2238"
   transform="translate(125.145,7.7783829)">
</g>
<g
   id="g2240"
   transform="translate(125.145,7.7783829)">
</g>
<g
   id="g2242"
   transform="translate(125.145,7.7783829)">
</g>
<g
   id="g2244"
   transform="translate(125.145,7.7783829)">
</g>
<g
   id="g2246"
   transform="translate(125.145,7.7783829)">
</g>
<g
   id="g2248"
   transform="translate(125.145,7.7783829)">
</g>
<g
   id="g2250"
   transform="translate(125.145,7.7783829)">
</g>
<g
   id="g2252"
   transform="translate(125.145,7.7783829)">
</g>
<g
   id="g2254"
   transform="translate(125.145,7.7783829)">
</g>
<g
   id="g2256"
   transform="translate(125.145,7.7783829)">
</g>
<g
   id="g2258"
   transform="translate(125.145,7.7783829)">
</g>
<g
   id="g2260"
   transform="translate(125.145,7.7783829)">
</g>
<g
   id="g2262"
   transform="translate(125.145,7.7783829)">
</g>
<path
   style="fill:#f9f9f9;stroke-width:0.855397"
   d="m 434.40417,92.51584 v 10.43745 c 0,1.98634 -1.36417,3.64551 -3.2421,4.23891 h -32.74889 c 1.45448,-2.85432 2.27596,-6.07001 2.27596,-9.45763 0,-11.951404 -10.17868,-21.641052 -22.73327,-21.641052 -12.55459,0 -22.73327,9.689648 -22.73327,21.641052 0,3.38762 0.82148,6.60331 2.27596,9.45763 h -27.50174 c -0.91179,0 -1.79727,0.086 -2.66434,0.24036 h -1.11957 c -2.60122,0 -4.70534,-2.00303 -4.70534,-4.47927 V 92.51584 c 0,-2.476239 2.10412,-4.479267 4.70534,-4.479267 h 6.29483 c 2.02346,0 3.83826,-1.229359 4.46161,-3.06046 0.68647,-2.012209 1.53513,-3.9468 2.51968,-5.81212 0.92143,-1.71092 0.55058,-3.799911 -0.87584,-5.158632 l -4.45284,-4.238908 c -1.83322,-1.745139 -1.83322,-4.591108 0,-6.336246 l 7.75807,-7.385331 c 1.83321,-1.745139 4.82282,-1.745139 6.65603,0 l 4.45285,4.238908 c 1.42729,1.358721 3.62172,1.71092 5.41899,0.83376 1.95946,-0.93725 3.99169,-1.745138 6.10545,-2.398626 1.92352,-0.593397 3.21493,-2.321009 3.21493,-4.247254 V 48.479272 C 367.76667,46.003028 369.87079,44 372.47201,44 h 10.96422 c 2.60122,0 4.70534,2.003028 4.70534,4.479272 v 5.992392 c 0,1.926245 1.2914,3.653857 3.21492,4.247254 2.11376,0.653488 4.14599,1.461376 6.10546,2.398626 1.79727,0.87716 3.99169,0.524126 5.41898,-0.83376 l 4.45285,-4.238908 c 1.83322,-1.745139 4.82282,-1.745139 6.65604,0 l 7.75806,7.385331 c 1.83322,1.745138 1.83322,4.591107 0,6.336246 l -4.45284,4.238908 c -1.4273,1.358721 -1.79727,3.447712 -0.87584,5.158632 0.98455,1.86532 1.83321,3.799911 2.51968,5.81212 0.62335,1.831101 2.43815,3.06046 4.46162,3.06046 h 6.29482 c 2.60473,0 4.70885,2.003862 4.70885,4.479267 z"
   id="path3316" /><path
   style="fill:#f9f9f9;stroke-width:0.855397"
   d="m 149.94327,271.01317 v 26.65363 l -44.95981,0.0776 c -5.888904,12.37204 -18.958125,20.98757 -34.157767,20.98757 h -5.879264 c -14.207199,0 -25.722877,-10.96241 -25.722877,-24.48702 H 67.889568 L 77.444906,283.05052 67.889568,271.8561 H 39.222675 c 0,-13.52461 11.515678,-24.48702 25.722877,-24.48702 h 5.879264 c 16.320087,0 30.193254,9.93085 35.341344,23.79013 z"
   id="path3266" /><path
   style="fill:#1a6fb0;stroke-width:0.855397"
   d="m 576.77733,120.07425 v 273.8515 c 0,12.2794 -10.46276,22.23945 -23.36189,22.23945 H 151.2601 c -12.89914,-8.3e-4 -23.36188,-9.96005 -23.36188,-22.24028 V 120.07425 c 0,-12.27939 10.46274,-22.23945 23.36188,-22.23945 h 402.15534 c 12.89913,0 23.36189,9.95922 23.36189,22.23945 z"
   id="path2180" /><path
   style="fill:#1e81ce;stroke-width:0.855397"
   d="m 576.77733,120.07425 v 273.8515 c 0,12.2794 -10.46276,22.23945 -23.36189,22.23945 h -376.5026 c -12.89914,0 -23.36188,-9.96005 -23.36188,-22.23945 v -273.8515 c 0,-12.27939 10.46274,-22.23945 23.36188,-22.23945 h 376.5026 c 12.89913,0 23.36189,9.95922 23.36189,22.23945 z"
   id="path2182" /><path
   style="fill:#00479b;stroke-width:0.855397"
   d="m 576.77733,120.07425 v 32.70528 H 127.89822 v -32.70528 c 0,-12.27939 10.46274,-22.23945 23.36188,-22.23945 h 402.15534 c 12.89913,0 23.36189,9.95922 23.36189,22.23945 z"
   id="path2184" /><path
   style="fill:#1e81ce;stroke-width:0.855397"
   d="m 576.77733,120.07425 v 32.70528 H 153.55096 v -32.70528 c 0,-12.27939 10.46274,-22.23945 23.36188,-22.23945 h 376.5026 c 12.89913,0 23.36189,9.95922 23.36189,22.23945 z"
   id="path2186" /><g
   id="g2202"
   transform="matrix(0.876717,0,0,0.83459504,127.89822,43.34325)"><path
     style="fill:#004fac"
     d="m 512,91.938 v 39.187 H 29.26 V 91.938 c 0,-14.713 11.934,-26.647 26.647,-26.647 h 429.446 c 14.713,0 26.647,11.933 26.647,26.647 z"
     id="path2188" /><path
     style="fill:#aaccff"
     d="m 77.371,156.727 h -41.8 c -4.328,0 -7.837,3.508 -7.837,7.837 0,4.329 3.509,7.837 7.837,7.837 H 77.37 c 4.328,0 7.837,-3.508 7.837,-7.837 0,-4.329 -3.508,-7.837 -7.836,-7.837 z"
     id="path2190" /><path
     style="fill:#004fac"
     d="m 155.744,156.727 h -41.799 c -4.328,0 -7.837,3.508 -7.837,7.837 0,4.329 3.509,7.837 7.837,7.837 h 41.799 c 4.328,0 7.837,-3.508 7.837,-7.837 0,-4.329 -3.508,-7.837 -7.837,-7.837 z"
     id="path2192" /><path
     style="fill:#aaccff"
     d="m 234.118,156.727 h -41.799 c -4.328,0 -7.837,3.508 -7.837,7.837 0,4.329 3.509,7.837 7.837,7.837 h 41.799 c 4.328,0 7.837,-3.508 7.837,-7.837 0,-4.329 -3.509,-7.837 -7.837,-7.837 z"
     id="path2194" /><path
     style="fill:#004fac"
     d="m 312.492,156.727 h -41.799 c -4.328,0 -7.837,3.508 -7.837,7.837 0,4.329 3.509,7.837 7.837,7.837 h 41.799 c 4.328,0 7.837,-3.508 7.837,-7.837 0,-4.329 -3.509,-7.837 -7.837,-7.837 z"
     id="path2196" /><path
     style="fill:#aaccff"
     d="m 390.866,156.727 h -41.799 c -4.328,0 -7.837,3.508 -7.837,7.837 0,4.329 3.509,7.837 7.837,7.837 h 41.799 c 4.328,0 7.837,-3.508 7.837,-7.837 0,-4.329 -3.509,-7.837 -7.837,-7.837 z"
     id="path2198" /><path
     style="fill:#004fac"
     d="M 469.239,156.727 H 427.44 c -4.328,0 -7.837,3.508 -7.837,7.837 0,4.329 3.509,7.837 7.837,7.837 h 41.799 c 4.328,0 7.837,-3.508 7.837,-7.837 0,-4.329 -3.508,-7.837 -7.837,-7.837 z"
     id="path2200" /></g><g
   id="g2208"
   transform="matrix(0.876717,0,0,0.83459504,127.89822,43.34325)"><path
     style="fill:#ffffff"
     d="M 411.765,92.52 H 42.537 c -4.328,0 -7.837,3.508 -7.837,7.837 0,4.329 3.509,7.837 7.837,7.837 h 369.228 c 4.328,0 7.837,-3.508 7.837,-7.837 0,-4.329 -3.508,-7.837 -7.837,-7.837 z"
     id="path2204" /><path
     style="fill:#ffffff"
     d="m 489.414,105.055 -5.568,-4.931 5.568,-4.931 c 3.24,-2.87 3.54,-7.823 0.671,-11.063 -2.87,-3.242 -7.823,-3.542 -11.063,-0.671 l -6.995,6.196 -6.995,-6.196 c -3.239,-2.871 -8.194,-2.569 -11.063,0.671 -2.871,3.24 -2.57,8.194 0.671,11.063 l 5.568,4.931 -5.568,4.931 c -3.241,2.87 -3.54,7.823 -0.671,11.063 1.549,1.749 3.703,2.641 5.87,2.641 1.848,0 3.701,-0.649 5.194,-1.971 l 6.995,-6.196 6.995,6.196 c 1.491,1.322 3.346,1.971 5.194,1.971 2.165,0 4.321,-0.892 5.87,-2.641 2.867,-3.24 2.567,-8.193 -0.673,-11.063 z"
     id="path2206" /></g><path
   style="fill:#004fac;stroke-width:0.855397"
   d="m 397.28441,228.32373 v 138.74809 c 0,7.84937 -6.67883,14.20731 -14.92435,14.20731 H 173.46734 c -3.93909,0 -7.52135,-1.45637 -10.18745,-3.83747 -2.91333,-2.59058 -4.72726,-6.27031 -4.72726,-10.36984 V 228.32373 c 0,-7.84018 6.67883,-14.20731 14.91471,-14.20731 h 208.89272 c 8.24552,0 14.92435,6.36713 14.92435,14.20731 z"
   id="path2210" /><g
   id="g2226"
   transform="matrix(0.876717,0,0,0.83459504,127.89822,43.34325)"><path
     style="fill:#ffffff"
     d="m 360.561,212.471 h 108.813 c 4.328,0 7.837,-3.508 7.837,-7.837 0,-4.329 -3.509,-7.837 -7.837,-7.837 H 360.561 c -4.328,0 -7.837,3.508 -7.837,7.837 0,4.329 3.509,7.837 7.837,7.837 z"
     id="path2212" /><path
     style="fill:#aaccff"
     d="M 469.374,230.236 H 345.021 c -4.328,0 -7.837,3.508 -7.837,7.837 0,4.329 3.509,7.837 7.837,7.837 h 124.353 c 4.328,0 7.837,-3.508 7.837,-7.837 0,-4.329 -3.509,-7.837 -7.837,-7.837 z"
     id="path2214" /><path
     style="fill:#ffffff"
     d="M 469.374,263.675 H 345.021 c -4.328,0 -7.837,3.508 -7.837,7.837 0,4.329 3.509,7.837 7.837,7.837 h 124.353 c 4.328,0 7.837,-3.508 7.837,-7.837 0,-4.329 -3.509,-7.837 -7.837,-7.837 z"
     id="path2216" /><path
     style="fill:#aaccff"
     d="M 469.374,297.115 H 345.021 c -4.328,0 -7.837,3.508 -7.837,7.837 0,4.329 3.509,7.837 7.837,7.837 h 124.353 c 4.328,0 7.837,-3.508 7.837,-7.837 0,-4.329 -3.509,-7.837 -7.837,-7.837 z"
     id="path2218" /><path
     style="fill:#ffffff"
     d="M 469.374,330.554 H 345.021 c -4.328,0 -7.837,3.508 -7.837,7.837 0,4.329 3.509,7.837 7.837,7.837 h 124.353 c 4.328,0 7.837,-3.508 7.837,-7.837 0,-4.329 -3.509,-7.837 -7.837,-7.837 z"
     id="path2220" /><path
     style="fill:#ffffff"
     d="M 469.374,363.994 H 345.021 c -4.328,0 -7.837,3.508 -7.837,7.837 0,4.329 3.509,7.837 7.837,7.837 h 124.353 c 4.328,0 7.837,-3.508 7.837,-7.837 0,-4.329 -3.509,-7.837 -7.837,-7.837 z"
     id="path2222" /><path
     style="fill:#aaccff"
     d="m 431.62,397.433 h -86.599 c -4.328,0 -7.837,3.508 -7.837,7.837 0,4.329 3.509,7.837 7.837,7.837 h 86.599 c 4.328,0 7.837,-3.508 7.837,-7.837 0,-4.329 -3.509,-7.837 -7.837,-7.837 z"
     id="path2224" /></g><path
   style="fill:#ffffff;stroke-width:0.855397"
   d="M 300.43787,381.27913 H 173.46734 c -3.93909,0 -7.52135,-1.45637 -10.18745,-3.83747 l 32.75239,-61.48545 0.6137,-1.16008 15.09794,-28.32699 c 7.92464,-14.87833 30.25112,-14.87833 38.17576,0 l 15.13477,28.41462 0.57688,1.07245 z"
   id="path2228" /><path
   style="fill:#ffda44;stroke-width:0.855397"
   d="m 367.60053,286.53674 c -5.91346,12.91202 -19.4412,21.93149 -35.17564,21.93149 -21.18498,0 -38.36075,-16.34972 -38.36075,-36.51771 0,-18.46541 14.40358,-33.73433 33.09869,-36.17302 -2.04888,4.46425 -3.18423,9.40505 -3.18423,14.58622 0,20.16715 17.17488,36.51771 38.36075,36.51771 1.78763,0 3.53931,-0.11685 5.26118,-0.34469 z"
   id="path2230" /><path
   style="fill:#c2dff6;stroke-width:0.855397"
   d="m 265.05533,314.88376 c -7.787,9.86408 -20.19167,16.24789 -34.16304,16.24789 -14.01695,0 -26.44967,-6.41887 -34.24543,-16.33552 l 15.09793,-28.32699 c 7.92465,-14.87833 30.25113,-14.87833 38.17577,0 z"
   id="path2232" /></svg>
