<svg xmlns="http://www.w3.org/2000/svg" xmlns:svg="http://www.w3.org/2000/svg" xmlns:xlink="http://www.w3.org/1999/xlink" id="b6844486-882e-488a-b917-920917943dff" width="762" height="689.787" data-name="Layer 1" version="1.1" viewBox="0 0 762 689.787"><metadata id="metadata6863"/><defs id="defs6861"><linearGradient id="5a176c23-bf11-4e32-afb4-461b4082aabc-5" x1="687.77" x2="687.77" y1="477.59" y2="422.25" gradientTransform="matrix(0.52041505,0,0,0.44301252,-873.14614,28.627392)" xlink:href="#347a516f-b616-42cd-bca2-6cfbf586638c"/><linearGradient id="347a516f-b616-42cd-bca2-6cfbf586638c" x1="572.9" x2="572.9" y1="755.08" y2="525.34" gradientUnits="userSpaceOnUse"><stop id="stop9441" offset="0" stop-color="gray" stop-opacity=".25"/><stop id="stop9443" offset=".54" stop-color="gray" stop-opacity=".12"/><stop id="stop9445" offset="1" stop-color="gray" stop-opacity=".1"/></linearGradient><linearGradient id="linear-gradient" x1="488" x2="451.71" y1="269.1" y2="362.84" gradientUnits="userSpaceOnUse"><stop id="stop5545" offset="0" stop-color="#010101" stop-opacity="0"/><stop id="stop5547" offset=".95" stop-color="#010101"/></linearGradient><linearGradient id="linear-gradient-2" x1="475.54" x2="566.26" y1="295.98" y2="121.93" gradientUnits="userSpaceOnUse"><stop id="stop5550" offset="0" stop-color="#fff" stop-opacity="0"/><stop id="stop5552" offset=".95" stop-color="#fff"/></linearGradient><linearGradient id="linear-gradient-3" x1="485.73" x2="502.36" y1="265.76" y2="169.38" gradientTransform="matrix(0.83769662,0,0,0.73108882,103.56451,165.75335)" xlink:href="#linear-gradient-2"/><linearGradient id="linear-gradient-4" x1="492.98" x2="505.45" y1="225.57" y2="200.34" gradientTransform="matrix(0.83769662,0,0,0.73108882,104.9132,163.8379)" xlink:href="#linear-gradient"/><linearGradient id="linear-gradient-5" x1="482.56" x2="522.88" y1="175.24" y2="175.24" gradientTransform="matrix(0.83769662,0,0,0.73108882,103.56451,165.75335)" xlink:href="#linear-gradient-2"/><linearGradient id="linear-gradient-6" x1="464.79" x2="485.73" y1="205.77" y2="205.77" gradientTransform="matrix(0.83769662,0,0,0.73108882,103.56451,165.75335)" xlink:href="#linear-gradient"/><linearGradient id="linear-gradient-7" x1="447.78" x2="468.73" y1="205.13" y2="205.13" gradientTransform="matrix(-0.81256572,-0.17546132,-0.20104719,0.70915616,955.61085,255.07047)" xlink:href="#linear-gradient"/><linearGradient id="linear-gradient-8" x1="521.62" x2="281.23" y1="265.18" y2="322.26" gradientTransform="matrix(0.83769662,0,0,0.73108882,103.56451,165.75335)" xlink:href="#linear-gradient-2"/><linearGradient id="linear-gradient-9" x1="498.55" x2="510.21" y1="123.11" y2="123.11" gradientTransform="matrix(0.83769662,0,0,0.73108882,106.67094,188.59483)" xlink:href="#linear-gradient"/></defs><path id="path6730" fill="#f2f2f2" d="M 646.59859,558.51116 H 126.29648 A 33.726065,27.875694 0 0 1 92.60854,530.66697 V 192.90212 a 24.708271,20.422193 0 0 1 24.67976,-20.39948 h 537.89137 a 25.135516,20.775325 0 0 1 25.10687,20.75212 v 337.41221 a 33.726045,27.875677 0 0 1 -33.68795,27.84419 z" style="fill:#ccc;stroke-width:1.85618"/><path id="path6732" fill="#fff" d="m 141.46834,542.52539 h 490.85358 a 35.243723,28.873227 0 0 0 35.24374,-28.87323 V 236.56324 A 35.243723,28.873227 0 0 0 632.32192,207.69001 H 141.46834 a 35.243723,28.873227 0 0 0 -35.24373,28.87323 v 277.08892 a 35.243723,28.873227 0 0 0 35.24373,28.87323 z" style="stroke-width:1.99373"/><path id="path6734" fill="#ccc" d="M 679.94545,192.93023 H 92.84932 v -15.13846 a 33.804824,29.867782 0 0 1 33.77677,-29.82461 h 519.5425 a 33.80468,29.867656 0 0 1 33.77686,29.82461 z" style="fill:#06f;stroke-width:1.91721"/><circle id="circle6736" cx="182.206" cy="183.795" fill="#fff" rx="7.257" ry="7.815" style="stroke-width:1.75822"/><circle id="circle6738" cx="209.753" cy="183.795" fill="#fff" rx="7.257" ry="7.815" style="stroke-width:1.75822"/><circle id="circle6740" cx="237.3" cy="183.795" fill="#fff" rx="7.257" ry="7.815" style="stroke-width:1.75822"/><ellipse style="stroke-width:1.17626" id="circle6736-9-3" cx="121.013" cy="170.5" fill="#fff" rx="4.805" ry="5.284"/><ellipse style="stroke-width:1.17626" id="circle6738-1-7" cx="139.25" cy="170.5" fill="#fff" rx="4.805" ry="5.284"/><ellipse style="stroke-width:1.17626" id="circle6740-7-8" cx="157.487" cy="170.5" fill="#fff" rx="4.805" ry="5.284"/><path style="fill:#333;stroke-width:1.2387" id="path7671" fill="#ccc" d="m 348.97743,511.72455 h -52.88085 a 11.696275,11.866277 0 0 1 -11.68299,-11.85279 v -53.64947 a 11.696275,11.866277 0 0 1 11.68299,-11.85279 h 52.88085 a 11.696275,11.866277 0 0 1 11.68299,11.85279 v 53.64947 a 11.696275,11.866277 0 0 1 -11.68299,11.85279 z m -52.88085,-74.85972 a 9.2336748,9.3678838 0 0 0 -9.22342,9.35746 v 53.64947 a 9.233687,9.3678963 0 0 0 9.22342,9.35747 h 52.88085 a 9.233687,9.3678963 0 0 0 9.22341,-9.35747 v -53.64947 a 9.2336748,9.3678838 0 0 0 -9.22341,-9.35746 z"/><path style="fill:#b3b3b3;stroke-width:1.2387" id="path7673" fill="#ccc" d="m 338.52424,496.7526 h -31.97447 a 3.6933961,3.7470787 0 0 1 -3.68937,-3.74298 v -39.92519 a 3.6933961,3.7470787 0 0 1 3.68937,-3.74299 h 23.16839 a 3.6983399,3.7520943 0 0 1 2.31127,0.82549 l 8.80547,7.17892 a 3.6701777,3.7235228 0 0 1 1.37871,2.91751 v 32.74626 a 3.6933961,3.7470787 0 0 1 -3.68937,3.74298 z m -31.97447,-44.91583 a 1.2313862,1.2492841 0 0 0 -1.22979,1.24766 v 39.92519 a 1.2313862,1.2492841 0 0 0 1.22979,1.24767 h 31.97447 a 1.2313862,1.2492841 0 0 0 1.22979,-1.24767 v -32.74626 a 1.2231097,1.2408873 0 0 0 -0.45937,-0.9723 l -8.80667,-7.17954 a 1.2323208,1.2502323 0 0 0 -0.76985,-0.27475 z"/><path id="path7675" fill="#ccc" d="M 332.37531,466.80871 H 312.6987 a 1.2297874,1.2476621 0 0 1 0,-2.49532 h 19.67661 a 1.2297874,1.2476621 0 0 1 0,2.49532 z" style="stroke-width:1.2387"/><path id="path7677" fill="#ccc" d="M 332.37531,474.29469 H 312.6987 a 1.2297903,1.247665 0 0 1 0,-2.49533 h 19.67661 a 1.2297903,1.247665 0 0 1 0,2.49533 z" style="stroke-width:1.2387"/><path id="path7679" fill="#ccc" d="M 332.37531,481.78066 H 312.6987 a 1.2297888,1.2476635 0 0 1 0,-2.49532 h 19.67661 a 1.2297888,1.2476635 0 0 1 0,2.49532 z" style="stroke-width:1.2387"/><path id="path7681" fill="#ccc" d="M 474.41576,488.02696 H 421.5349 a 11.696275,11.866277 0 0 1 -11.68298,-11.8528 v -53.64947 a 11.696275,11.866277 0 0 1 11.68298,-11.85278 h 52.88086 a 11.696275,11.866277 0 0 1 11.68298,11.85278 v 53.64947 a 11.696275,11.866277 0 0 1 -11.68298,11.8528 z M 421.5349,413.16723 a 9.2336748,9.3678838 0 0 0 -9.22341,9.35746 v 53.64947 a 9.233687,9.3678963 0 0 0 9.22341,9.35747 h 52.88086 a 9.233687,9.3678963 0 0 0 9.2234,-9.35747 v -53.64947 a 9.2336748,9.3678838 0 0 0 -9.2234,-9.35746 z" style="fill:#999;stroke-width:1.2387"/><path style="fill:#80b3ff;stroke-width:1.2387" id="path7683" fill="#ccc" d="m 465.19235,463.07371 h -34.43404 a 3.6933961,3.7470787 0 0 1 -3.68937,-3.74299 v -19.96259 a 3.6933961,3.7470787 0 0 1 3.68937,-3.74299 h 34.43404 a 3.6933961,3.7470787 0 0 1 3.68937,3.74299 v 19.96259 a 3.6933961,3.7470787 0 0 1 -3.68937,3.74299 z m -34.43404,-24.95324 a 1.2310173,1.2489098 0 0 0 -1.22979,1.24766 v 19.96259 a 1.2310173,1.2489098 0 0 0 1.22979,1.24767 h 34.43404 a 1.2310173,1.2489098 0 0 0 1.22979,-1.24767 v -19.96259 a 1.2310173,1.2489098 0 0 0 -1.22979,-1.24766 z"/><path style="fill:#80b3ff;stroke-width:1.2387" id="path7685" fill="#ccc" d="m 447.97533,452.64099 a 3.6936052,3.7472908 0 0 1 -1.95517,-0.56475 l -18.37355,-11.64991 a 1.2301195,1.2479989 0 0 1 1.30424,-2.1164 l 18.37356,11.64991 a 1.2366128,1.2545866 0 0 0 1.30303,0 l 18.37237,-11.64991 a 1.2301195,1.2479989 0 0 1 1.30424,2.1164 l -18.37235,11.64991 a 3.6946751,3.7483763 0 0 1 -1.95637,0.56475 z"/><path id="path7687" fill="#ccc" d="m 223.53911,488.02696 h -52.88086 a 11.696275,11.866277 0 0 1 -11.68298,-11.8528 v -53.64947 a 11.696275,11.866277 0 0 1 11.68298,-11.85278 h 52.88086 a 11.696275,11.866277 0 0 1 11.68298,11.85278 v 53.64947 a 11.696275,11.866277 0 0 1 -11.68298,11.8528 z m -52.88086,-74.85973 a 9.2336748,9.3678838 0 0 0 -9.2234,9.35746 v 53.64947 a 9.233687,9.3678963 0 0 0 9.2234,9.35747 h 52.88086 a 9.233687,9.3678963 0 0 0 9.22341,-9.35747 v -53.64947 a 9.2336748,9.3678838 0 0 0 -9.22341,-9.35746 z" style="fill:#59f;stroke-width:1.2387"/><path style="fill:#999;stroke-width:1.2387" id="path7689" fill="#ccc" d="m 214.31571,463.07371 h -34.43405 a 3.6933961,3.7470787 0 0 1 -3.68937,-3.74299 v -19.96259 a 3.6933961,3.7470787 0 0 1 3.68937,-3.74299 h 34.43405 a 3.6933961,3.7470787 0 0 1 3.68936,3.74299 v 19.96259 a 3.6933961,3.7470787 0 0 1 -3.68936,3.74299 z m -34.43405,-24.95324 a 1.2310173,1.2489098 0 0 0 -1.22979,1.24766 v 19.96259 a 1.2310173,1.2489098 0 0 0 1.22979,1.24767 h 34.43405 a 1.2310173,1.2489098 0 0 0 1.22978,-1.24767 v -19.96259 a 1.2310173,1.2489098 0 0 0 -1.22978,-1.24766 z"/><path style="fill:#999;stroke-width:1.2387" id="path7691" fill="#ccc" d="m 208.85792,463.07371 h -24.74824 a 2.4590584,2.4948002 0 0 1 -2.12992,-3.74299 l 7.4544,-13.10045 a 2.4598455,2.4955987 0 0 1 4.26041,0 l 4.81461,8.46071 2.78925,-4.9017 a 2.4598455,2.4955987 0 0 1 4.26041,0 l 5.42952,9.54144 a 2.459575,2.4953242 0 0 1 -2.13052,3.74299 z m 0,-2.49532 v 0 l -5.42951,-9.54144 -3.8539,6.77319 a 1.229603,1.2474749 0 0 1 -1.06525,0.62383 v 0 a 1.229603,1.2474749 0 0 1 -1.06525,-0.62383 l -5.87932,-10.3322 -7.45498,13.10045 z"/><ellipse style="fill:#999;stroke-width:1.2387" id="circle7693" cx="210.626" cy="443.111" fill="#ccc" rx="2.46" ry="2.495"/><path id="path7721" fill="#fff" d="M 693.34224,375.35703 H 299.40142 a 21.40585,21.691183 0 0 1 -21.38166,-21.66667 v -85.35353 a 21.405863,21.691196 0 0 1 21.38166,-21.66667 h 393.94082 a 21.406278,21.691616 0 0 1 21.38166,21.66667 v 85.35353 a 21.406278,21.691616 0 0 1 -21.38166,21.66667 z" style="stroke-width:1.30446"/><path style="fill:#000;stroke-width:1.30446" id="path7723" fill="#3f3d56" d="M 693.34202,376.01378 H 299.4012 a 22.054427,22.348405 0 0 1 -22.02959,-22.32324 v -85.35352 a 22.054414,22.348392 0 0 1 22.02959,-22.32324 h 393.94082 a 22.054414,22.348392 0 0 1 22.02959,22.32324 v 85.35352 a 22.054427,22.348405 0 0 1 -22.02959,22.32324 z M 299.4012,248.64004 a 19.459899,19.719293 0 0 0 -19.43787,19.69698 v 85.35352 a 19.459899,19.719293 0 0 0 19.43787,19.69698 h 393.94082 a 19.459899,19.719293 0 0 0 19.43787,-19.69698 v -85.35352 a 19.459899,19.719293 0 0 0 -19.43787,-19.69698 z"/><path id="path7725" fill="#f2f2f2" d="M 645.39528,354.34711 H 347.34794 a 21.405863,21.691196 0 0 1 -21.38166,-21.66666 v -44.64647 a 21.40585,21.691183 0 0 1 21.38166,-21.66666 h 298.04734 a 21.405838,21.69117 0 0 1 21.38166,21.66666 v 44.64647 a 21.40585,21.691183 0 0 1 -21.38166,21.66666 z" style="fill:#e6e6e6;stroke-width:1.30446"/><ellipse id="circle7727" cx="411.486" cy="304.372" fill="#ff6584" rx="25.57" ry="25.911" style="fill:#0af;fill-opacity:1;stroke-width:1.30446"/><path id="path7729" fill="#3f3d56" d="m 626.87359,351.73222 -36.09293,-30.67433 -35.46968,-30.14471 a 5.1838337,5.2529324 0 0 0 -6.67734,0.0132 l -35.35517,30.28298 -8.63567,7.39726 -13.02122,-11.06624 -39.57176,-33.6304 a 5.1829654,5.2520525 0 0 0 -6.6767,0.0132 l -39.44333,33.78468 -40.06404,34.31671 a 1.2957802,1.3130525 0 0 0 0.83902,2.31601 l 82.14019,-0.16038 26.00009,-0.0507 -0.25436,0.21798 77.50218,-0.15132 73.9506,-0.14435 a 1.2957154,1.3129868 0 0 0 0.83012,-2.31926 z" style="fill:#4d4d4d;stroke-width:1.30446"/><path id="path7761" fill="#fff" d="m 600.77979,511.82567 h -52.88086 a 11.696275,11.866277 0 0 1 -11.68298,-11.85278 v -53.64948 a 11.696275,11.866277 0 0 1 11.68298,-11.85278 h 52.88086 a 11.696275,11.866277 0 0 1 11.68298,11.85278 v 53.64948 a 11.696275,11.866277 0 0 1 -11.68298,11.85278 z" style="stroke-width:1.2387"/><path style="fill:#ccc;stroke-width:1.2387" id="path7763" fill="#3f3d56" d="m 600.77979,511.82567 h -52.88086 a 11.696275,11.866277 0 0 1 -11.68298,-11.85278 v -53.64948 a 11.696275,11.866277 0 0 1 11.68298,-11.85278 h 52.88086 a 11.696275,11.866277 0 0 1 11.68298,11.85278 v 53.64948 a 11.696275,11.866277 0 0 1 -11.68298,11.85278 z m -52.88086,-74.85973 a 9.233687,9.3678963 0 0 0 -9.2234,9.35747 v 53.64948 a 9.233687,9.3678963 0 0 0 9.2234,9.35746 h 52.88086 a 9.233687,9.3678963 0 0 0 9.22341,-9.35746 v -53.64948 a 9.233687,9.3678963 0 0 0 -9.22341,-9.35747 z"/><path id="path7765" fill="#00b0ff" d="m 591.55638,489.99159 h -34.43404 a 3.6933961,3.7470787 0 0 1 -3.68937,-3.74299 v -26.2009 a 3.6933961,3.7470787 0 0 1 3.68937,-3.74299 h 9.69357 a 3.6662056,3.7194929 0 0 1 3.14233,1.78072 l 2.70337,4.45759 h 18.89477 a 3.6933961,3.7470787 0 0 1 3.68937,3.74299 v 19.96259 a 3.6933961,3.7470787 0 0 1 -3.68937,3.74299 z" style="fill:#06f;stroke-width:1.2387"/><path style="stroke-width:.177577" id="path46696" fill="#7952b3" fill-rule="evenodd" d="m 155.15153,272.9288 c -5.01563,0 -8.72695,4.69641 -8.56077,9.78956 0.15951,4.89313 -0.0476,11.23046 -1.53898,16.39853 -1.49659,5.18259 -4.02586,8.46678 -8.15798,8.88828 v 4.75924 c 4.13212,0.42245 6.66139,3.70498 8.15781,8.88831 1.49142,5.16808 1.69849,11.50539 1.53898,16.39852 -0.16619,5.0924 3.54515,9.78956 8.56162,9.78956 h 51.39356 c 5.01563,0 8.72628,-4.69642 8.56008,-9.78956 -0.15948,-4.89313 0.0477,-11.23044 1.53899,-16.39852 1.49658,-5.18333 4.01968,-8.46715 8.15196,-8.88831 v -4.75924 c -4.13211,-0.42243 -6.65521,-3.70496 -8.15196,-8.88828 -1.49143,-5.16735 -1.69847,-11.5054 -1.53899,-16.39853 0.1662,-5.09241 -3.54445,-9.78956 -8.56008,-9.78956 h -51.39493 z m 41.33759,46.11324 c 0,7.01304 -4.88978,11.26626 -13.00449,11.26626 h -13.81349 a 1.4898874,1.5938801 0 0 1 -1.48988,-1.59389 v -36.65905 a 1.4898874,1.5938801 0 0 1 1.48988,-1.59387 h 13.73485 c 6.76632,0 11.20696,3.92096 11.20696,9.9409 0,4.22531 -2.98733,8.00797 -6.79309,8.67065 v 0.2204 c 5.18078,0.60795 8.66926,4.44663 8.66926,9.7486 z m -14.51068,-23.528 h -7.87625 v 11.90174 h 6.63375 c 5.12824,0 7.95591,-2.20916 7.95591,-6.15786 -3.9e-4,-3.70057 -2.43158,-5.74388 -6.71341,-5.74388 z m -7.87625,16.62405 v 13.116 h 8.16604 c 5.33942,0 8.16761,-2.292 8.16761,-6.59941 0,-4.3074 -2.90749,-6.5173 -8.51097,-6.5173 h -7.82268 z"/></svg>