<svg xmlns="http://www.w3.org/2000/svg" xmlns:svg="http://www.w3.org/2000/svg" id="b0be4804-10ca-4842-b31b-b943f29dadcb" width="731.413" height="522.402" data-name="Layer 1" version="1.1" viewBox="0 0 731.413 522.402"><metadata id="metadata1804"/><rect style="stroke-width:1.27362" id="rect1769" width="536" height="2.639" x="105" y="356.441" fill="#e6e6e6"/><rect style="stroke-width:1.27362" id="rect1771" width="536" height="2.639" x="105" y="253.521" fill="#e6e6e6"/><rect style="stroke-width:1.27362" id="rect1773" width="536" height="2.639" x="105" y="150.601" fill="#e6e6e6"/><rect style="stroke-width:1.27362" id="rect1775" width="2.459" height="411.68" x="532.571" y="49" fill="#e6e6e6"/><rect style="stroke-width:1.27362" id="rect1777" width="2.459" height="411.68" x="425.371" y="49" fill="#e6e6e6"/><rect style="stroke-width:1.27362" id="rect1779" width="2.459" height="411.68" x="318.171" y="49" fill="#e6e6e6"/><rect style="stroke-width:1.27362" id="rect1781" width="2.459" height="411.68" x="210.971" y="49" fill="#e6e6e6"/><rect style="fill:#2a7fff;stroke-width:1.27362" id="rect1783" width="215.138" height="102.92" x="211.954" y="151.92" fill="#00b0ff"/><path style="stroke-width:1.27362" id="path1785" fill="#00b0ff" d="M 320.04082,247.00647"/><polygon style="fill:#2a7fff" id="polygon1787" fill="#00b0ff" points="178 153 87 150 87 234" transform="matrix(1.2293578,0,0,1.3194887,105,49)"/><path style="fill:#2a7fff;stroke-width:1.27362" id="path1789" fill="#00b0ff" d="m 427.09174,250.88181 v 3.95847 l -1.40164,1.33268 -2.82727,2.69176 c -54.98918,1.78131 -99.40572,44.05772 -101.41002,96.48101 l -2.51994,2.40147 -0.0246,0.0132 V 246.92334 Z"/><path style="stroke-width:1.27362" id="path1791" fill="#e6e6e6" d="m 426.47706,256.15976 c -0.25816,0 -0.52884,0 -0.78696,0.0132 -58.49234,0.39585 -106.03211,45.6807 -106.75723,101.57424 -0.0246,0.44862 -0.0246,0.88406 -0.0246,1.33268 0,56.75121 48.2523,102.92012 107.56881,102.92012 59.31651,0 107.56881,-46.16891 107.56881,-102.92012 0,-56.75121 -48.25232,-102.92012 -107.56884,-102.92012 z m 0,203.20126 c -57.95209,0 -105.11009,-44.98137 -105.11009,-100.28114 0,-1.25351 0.0246,-2.49383 0.0858,-3.73415 2.00431,-52.42329 46.42087,-94.6997 101.41002,-96.48101 1.19274,-0.0528 2.39688,-0.066 3.61424,-0.066 57.95209,0 105.11009,44.98137 105.11009,100.28114 0,55.29977 -47.158,100.28114 -105.11009,100.28114 z"/><path style="stroke-width:1.27362" id="path1793" fill="#e6e6e6" d="m 367.46789,357.78161 -6.14679,-0.0367 c 0.002,-0.58694 0.98718,-58.69148 63.86658,-62.72146 l 0.36616,6.58584 c -57.02752,3.65498 -58.0696,54.03007 -58.08595,56.1723 z"/><path style="stroke-width:1.27362" id="path1795" fill="#e6e6e6" d="M 488.53502,356.4409 A 52.292025,56.125837 0 0 0 471.3486,316.7111 65.692799,70.509095 0 0 0 426.60009,298.30423 h -0.12305 c -33.77013,0 -61.33283,25.95435 -62.05798,58.13667 -0.0246,0.43544 -0.0246,0.88406 -0.0246,1.31949 0,16.83668 7.33953,32.05038 19.11627,42.87019 a 65.946748,70.781662 0 0 0 42.9663,16.58597 h 0.12305 c 34.17591,-0.066 61.95952,-26.70645 61.95952,-59.45616 2e-5,-0.43543 2e-5,-0.88405 -0.0246,-1.31949 z"/><path style="fill:#0aabff;fill-opacity:1;stroke-width:1.27362" id="path1797" fill="#00b0ff" d="m 471.34862,316.7111 -1.84403,1.75492 -84.14979,80.40964 -1.84404,1.75492 c -11.77674,-10.81981 -19.11626,-26.03351 -19.11626,-42.87019 0,-0.43543 0,-0.88405 0.0246,-1.31949 0.72513,-32.18232 28.28783,-58.13667 62.05798,-58.13667 h 0.12305 a 65.692799,70.509095 0 0 1 44.74851,18.40687 z"/></svg>