<svg xmlns="http://www.w3.org/2000/svg" xmlns:svg="http://www.w3.org/2000/svg" xmlns:xlink="http://www.w3.org/1999/xlink" id="svg12419" version="1.1" viewBox="0 0 1329.835 845.45"><metadata id="metadata12423"/><style id="style12059">.B{stroke-width:2.026}.C{stroke-width:2.017}</style><defs id="defs12101"><linearGradient id="A" gradientUnits="userSpaceOnUse"><stop id="stop12061" offset="0" stop-color="#0684ff"/><stop id="stop12063" offset="1" stop-color="#0684ff" stop-opacity="0"/></linearGradient><linearGradient id="B" x1="-506.288" x2="490.369" y1="135.105" y2="244.6" xlink:href="#A"/><linearGradient id="C" x1="0" x2="489.2" y1="244.6" y2="244.6" xlink:href="#A"/><linearGradient id="linearGradient12068" x1="0" x2="489.2" y1="244.6" y2="244.6" xlink:href="#A"/><linearGradient id="E" x1="0" x2="489.2" y1="244.6" y2="244.6" xlink:href="#A"/><path id="F" d="M136.7 367.7l45.4-78.8-45.4-78.9H45.4L0 288.9l45.4 78.8z"/><path id="G" d="M335.8 200.3L290 121.5h-90.8l-45.5 78.8 45.5 78.9H290z"/><path id="H" d="M290 298.6h-90.8l-45.5 78.8 45.5 79.2H290l45.8-79.2z"/><path id="I" d="M45.4 190.6h91.3l45.4-78.8-45.4-79.2H45.4L0 111.8z"/><path id="J" d="M443.8 32.6h-91.3l-45.4 78.8 45.4 79.2h91.3l45.4-78.8z"/><path id="K" d="M182.1 288.9L136.7 210H45.4L0 288.9l45.4 78.8h91.3z"/><path id="L" d="M290 121.5h-90.8l-45.5 78.8 45.5 78.9H290l45.8-78.9z"/><path id="M" d="M199.2 298.6l-45.5 78.8 45.5 79.2H290l45.8-79.2-45.8-78.8z"/><path id="N" d="M136.7 190.6l45.4-78.8-45.4-79.2H45.4L0 111.8l45.4 78.8z"/><path id="O" d="M352.5 32.6l-45.4 78.8 45.4 79.2h91.3l45.4-78.8-45.4-79.2z"/><path id="P" d="M136.7 210H45.4L0 288.9l45.4 78.8h91.3l45.4-78.8z"/><path id="Q" d="M199.2 121.5l-45.5 78.8 45.5 78.9H290l45.8-78.9-45.8-78.8z"/><path id="R" d="M153.7 377.4l45.5 79.2H290l45.8-79.2-45.8-78.8h-90.8z"/><path id="S" d="M182.1 111.8l-45.4-79.2H45.4L0 111.8l45.4 78.8h91.3z"/><path id="T" d="M307.1 111.4l45.4 79.2h91.3l45.4-78.8-45.4-79.2h-91.3z"/><path id="U" d="M45.4 210L0 288.9l45.4 78.8h91.3l45.4-78.8-45.4-78.9z"/><path id="V" d="M153.7 200.3l45.5 78.9H290l45.8-78.9-45.8-78.8h-90.8z"/><path id="W" d="M199.2 456.6H290l45.8-79.2-45.8-78.8h-90.8l-45.5 78.8z"/><path id="X" d="M136.7 32.6H45.4L0 111.8l45.4 78.8h91.3l45.4-78.8z"/><path id="Y" d="M352.5 190.6h91.3l45.4-78.8-45.4-79.2h-91.3l-45.4 78.8z"/><path id="Z" d="M45.4 367.7h91.3l45.4-78.8-45.4-78.9H45.4L0 288.9z"/><path id="a" d="M290 279.2l45.8-78.9-45.8-78.8h-90.8l-45.5 78.8 45.5 78.9z"/><path id="b" d="M335.8 377.4L290 298.6h-90.8l-45.5 78.8 45.5 79.2H290z"/><path id="c" d="M0 111.8l45.4 78.8h91.3l45.4-78.8-45.4-79.2H45.4z"/><path id="d" d="M489.2 111.8l-45.4-79.2h-91.3l-45.4 78.8 45.4 79.2h91.3z"/><path id="e" d="M0 288.9l45.4 78.8h91.3l45.4-78.8-45.4-78.9H45.4z"/><path id="f" d="M199.2 279.2H290l45.8-78.9-45.8-78.8h-90.8l-45.5 78.8z"/><path id="g" d="M290 456.6l45.8-79.2-45.8-78.8h-90.8l-45.5 78.8 45.5 79.2z"/><path id="h" d="M45.4 32.6L0 111.8l45.4 78.8h91.3l45.4-78.8-45.4-79.2z"/><path id="i" d="M443.8 190.6l45.4-78.8-45.4-79.2h-91.3l-45.4 78.8 45.4 79.2z"/></defs><g id="g12417" stroke="#06f"><path id="path12103" stroke-width="1.326" d="M-32.171.663h1361.343v844.124H-32.171z"/><g id="g12115" class="B" transform="matrix(.41354 0 0 .39713 45.405 61.873)"><use id="use12105" fill="url(#B)" xlink:href="#F"/><use id="use12107" fill="url(#B)" xlink:href="#G"/><use id="use12109" fill="url(#B)" xlink:href="#H"/><use id="use12111" fill="url(#B)" xlink:href="#I"/><use id="use12113" fill="url(#B)" xlink:href="#J"/></g><g id="g12127" class="B" transform="matrix(.41354 0 0 .39713 172.402 -8.578)"><use id="use12117" fill="url(#B)" xlink:href="#K"/><use id="use12119" fill="url(#B)" xlink:href="#L"/><use id="use12121" fill="url(#B)" xlink:href="#M"/><use id="use12123" fill="url(#B)" xlink:href="#N"/><use id="use12125" fill="url(#B)" xlink:href="#O"/></g><g id="g12139" class="B" transform="matrix(.41354 0 0 .39713 45.087 556.177)"><use id="use12129" fill="url(#B)" xlink:href="#K"/><use id="use12131" fill="url(#B)" xlink:href="#L"/><use id="use12133" fill="url(#B)" xlink:href="#M"/><use id="use12135" fill="url(#B)" xlink:href="#N"/><use id="use12137" fill="url(#B)" xlink:href="#O"/></g><g id="g12151" class="B" transform="matrix(.41354 0 0 .39713 -18.032 167.509)"><use id="use12141" fill="url(#B)" xlink:href="#F"/><use id="use12143" fill="url(#B)" xlink:href="#G"/><use id="use12145" fill="url(#B)" xlink:href="#H"/><use id="use12147" fill="url(#B)" xlink:href="#I"/><use id="use12149" fill="url(#B)" xlink:href="#J"/></g><g id="g12163" class="B" transform="matrix(.41354 0 0 .39713 1159.9618 -34.760979)"><use id="use12153" fill="url(#B)" xlink:href="#K"/><use id="use12155" fill="url(#B)" xlink:href="#L"/><use id="use12157" fill="url(#B)" xlink:href="#M"/><use id="use12159" fill="url(#B)" xlink:href="#N"/><use id="use12161" fill="url(#B)" xlink:href="#O"/></g><g id="g12175" class="B" transform="matrix(.41354 0 0 .39713 1096.5661 70.875601)"><use id="use12165" fill="url(#B)" xlink:href="#K"/><use id="use12167" fill="url(#B)" xlink:href="#L"/><use id="use12169" fill="url(#B)" xlink:href="#M"/><use id="use12171" fill="url(#B)" xlink:href="#N"/><use id="use12173" fill="url(#B)" xlink:href="#O"/></g><g id="g12187" class="B" transform="matrix(.41354 0 0 .39713 1159.9611 176.5116)"><use id="use12177" fill="url(#B)" xlink:href="#P"/><use id="use12179" fill="url(#B)" xlink:href="#Q"/><use id="use12181" fill="url(#B)" xlink:href="#R"/><use id="use12183" fill="url(#B)" xlink:href="#S"/><use id="use12185" fill="url(#B)" xlink:href="#T"/></g><g id="g12199" class="B" transform="matrix(.41354 0 0 .39713 1032.9651 247.0016)"><use id="use12189" fill="url(#B)" xlink:href="#U"/><use id="use12191" fill="url(#B)" xlink:href="#V"/><use id="use12193" fill="url(#B)" xlink:href="#W"/><use id="use12195" fill="url(#B)" xlink:href="#X"/><use id="use12197" fill="url(#B)" xlink:href="#Y"/></g><g id="g12211" class="B" transform="matrix(.41354 0 0 .39713 778.97009 598.9366)"><use id="use12201" fill="url(#B)" xlink:href="#K"/><use id="use12203" fill="url(#B)" xlink:href="#L"/><use id="use12205" fill="url(#B)" xlink:href="#M"/><use id="use12207" fill="url(#B)" xlink:href="#N"/><use id="use12209" fill="url(#B)" xlink:href="#O"/></g><g id="g12223" class="B" transform="matrix(.41354 0 0 .39713 905.96709 528.6046)"><use id="use12213" fill="url(#B)" xlink:href="#K"/><use id="use12215" fill="url(#B)" xlink:href="#L"/><use id="use12217" fill="url(#B)" xlink:href="#M"/><use id="use12219" fill="url(#B)" xlink:href="#N"/><use id="use12221" fill="url(#B)" xlink:href="#O"/></g><g id="g12235" class="B" transform="matrix(.41354 0 0 .39713 1159.9611 387.8226)"><use id="use12225" fill="url(#B)" xlink:href="#Z"/><use id="use12227" fill="url(#B)" xlink:href="#a"/><use id="use12229" fill="url(#B)" xlink:href="#b"/><use id="use12231" fill="url(#B)" xlink:href="#c"/><use id="use12233" fill="url(#B)" xlink:href="#d"/></g><g id="g12247" class="B" transform="matrix(.41354 0 0 .39713 1096.3601 563.9096)"><use id="use12237" fill="url(#B)" xlink:href="#U"/><use id="use12239" fill="url(#B)" xlink:href="#V"/><use id="use12241" fill="url(#B)" xlink:href="#W"/><use id="use12243" fill="url(#B)" xlink:href="#X"/><use id="use12245" fill="url(#B)" xlink:href="#Y"/></g><g id="g12259" class="B" transform="matrix(.41354 0 0 .39713 1032.9651 458.2736)"><use id="use12249" fill="url(#B)" xlink:href="#U"/><use id="use12251" fill="url(#B)" xlink:href="#V"/><use id="use12253" fill="url(#B)" xlink:href="#W"/><use id="use12255" fill="url(#B)" xlink:href="#X"/><use id="use12257" fill="url(#B)" xlink:href="#Y"/></g><g id="g12271" class="B" transform="matrix(.41354 0 0 .39713 1159.7551 669.5456)"><use id="use12261" fill="url(#B)" xlink:href="#P"/><use id="use12263" fill="url(#B)" xlink:href="#Q"/><use id="use12265" fill="url(#B)" xlink:href="#R"/><use id="use12267" fill="url(#B)" xlink:href="#S"/><use id="use12269" fill="url(#B)" xlink:href="#T"/></g><g id="g12283" class="B" transform="matrix(.41354 0 0 .39713 969.36209 634.2416)"><use id="use12273" fill="url(#B)" xlink:href="#F"/><use id="use12275" fill="url(#B)" xlink:href="#G"/><use id="use12277" fill="url(#B)" xlink:href="#H"/><use id="use12279" fill="url(#B)" xlink:href="#I"/><use id="use12281" fill="url(#B)" xlink:href="#J"/></g><g id="g12295" class="B" transform="matrix(.41354 0 0 .39713 299.399 61.873)"><use id="use12285" fill="url(#B)" xlink:href="#P"/><use id="use12287" fill="url(#B)" xlink:href="#Q"/><use id="use12289" fill="url(#B)" xlink:href="#R"/><use id="use12291" fill="url(#B)" xlink:href="#S"/><use id="use12293" fill="url(#B)" xlink:href="#T"/></g><g id="g12307" class="B" transform="matrix(.41354 0 0 .39713 651.97309 669.4266)"><use id="use12297" fill="url(#B)" xlink:href="#U"/><use id="use12299" fill="url(#B)" xlink:href="#V"/><use id="use12301" fill="url(#B)" xlink:href="#W"/><use id="use12303" fill="url(#B)" xlink:href="#X"/><use id="use12305" fill="url(#B)" xlink:href="#Y"/></g><g id="g12319" class="B" transform="matrix(.41354 0 0 .39713 426.396 -8.459)"><use id="use12309" fill="url(#B)" xlink:href="#K"/><use id="use12311" fill="url(#B)" xlink:href="#L"/><use id="use12313" fill="url(#B)" xlink:href="#M"/><use id="use12315" fill="url(#B)" xlink:href="#N"/><use id="use12317" fill="url(#B)" xlink:href="#O"/></g><g id="g12331" class="B" transform="matrix(.41354 0 0 .39713 -81.91 626.508)"><use id="use12321" fill="url(#B)" xlink:href="#P"/><use id="use12323" fill="url(#B)" xlink:href="#Q"/><use id="use12325" fill="url(#B)" xlink:href="#R"/><use id="use12327" fill="url(#B)" xlink:href="#S"/><use id="use12329" fill="url(#B)" xlink:href="#T"/></g><g id="g12343" class="B" transform="matrix(.41354 0 0 .39713 172.084 556.177)"><use id="use12333" fill="url(#B)" xlink:href="#P"/><use id="use12335" fill="url(#B)" xlink:href="#Q"/><use id="use12337" fill="url(#B)" xlink:href="#R"/><use id="use12339" fill="url(#B)" xlink:href="#S"/><use id="use12341" fill="url(#B)" xlink:href="#T"/></g><g id="g12355" class="B" transform="matrix(.41354 0 0 .39713 -18.515 450.541)"><use id="use12345" fill="url(#B)" xlink:href="#K"/><use id="use12347" fill="url(#B)" xlink:href="#L"/><use id="use12349" fill="url(#B)" xlink:href="#M"/><use id="use12351" fill="url(#B)" xlink:href="#N"/><use id="use12353" fill="url(#B)" xlink:href="#O"/></g><g id="g12367" class="B" transform="matrix(.41354 0 0 .39713 553.393 -78.79)"><use id="use12357" fill="url(#B)" xlink:href="#P"/><use id="use12359" fill="url(#B)" xlink:href="#Q"/><use id="use12361" fill="url(#B)" xlink:href="#R"/><use id="use12363" fill="url(#B)" xlink:href="#S"/><use id="use12365" fill="url(#B)" xlink:href="#T"/></g><g id="g12379" class="B" transform="matrix(.41354 0 0 .39713 299.363 626.92)"><use id="use12369" fill="url(#B)" xlink:href="#U"/><use id="use12371" fill="url(#B)" xlink:href="#V"/><use id="use12373" fill="url(#B)" xlink:href="#W"/><use id="use12375" fill="url(#B)" xlink:href="#X"/><use id="use12377" fill="url(#B)" xlink:href="#Y"/></g><g id="g12391" class="B" transform="matrix(.41354 0 0 .39713 -18.197 -43.764)"><use id="use12381" fill="url(#B)" xlink:href="#Z"/><use id="use12383" fill="url(#B)" xlink:href="#a"/><use id="use12385" fill="url(#B)" xlink:href="#b"/><use id="use12387" fill="url(#B)" xlink:href="#c"/><use id="use12389" fill="url(#B)" xlink:href="#d"/></g><g id="g12403" class="C" opacity=".725" transform="matrix(.41551 0 0 .39903 -82.51 344.338)"><use id="use12393" fill="url(#C)" xlink:href="#e"/><use id="use12395" fill="url(#C)" xlink:href="#f"/><use id="use12397" fill="url(#C)" xlink:href="#g"/><use id="use12399" fill="url(#C)" xlink:href="#h"/><use id="use12401" fill="url(#C)" xlink:href="#i"/></g><g id="g12415" class="C" opacity=".725" transform="matrix(.41551 0 0 .39903 1223.1635 281.77691)"><use id="use12405" fill="url(#E)" xlink:href="#e"/><use id="use12407" fill="url(#E)" xlink:href="#f"/><use id="use12409" fill="url(#E)" xlink:href="#g"/><use id="use12411" fill="url(#E)" xlink:href="#h"/></g></g></svg>