<svg xmlns="http://www.w3.org/2000/svg" xmlns:svg="http://www.w3.org/2000/svg" id="e7dedc5b-fca6-4313-b5a0-e6297481e8ae" width="1022.7" height="785.81" data-name="Layer 1" version="1.1" viewBox="0 0 1022.7 785.81"><metadata id="metadata12494"/><defs id="defs12175"><linearGradient id="af83dc26-9572-4816-b7a1-1af4f72ff554" x1="678.2" x2="678.2" y1="821.79" y2="493.4" gradientTransform="rotate(-2.31,-1844.4579,1701.9644)" gradientUnits="userSpaceOnUse"><stop id="stop12168" offset="0" stop-color="gray" stop-opacity=".25"/><stop id="stop12170" offset=".54" stop-color="gray" stop-opacity=".12"/><stop id="stop12172" offset="1" stop-color="gray" stop-opacity=".1"/></linearGradient></defs><title id="title12177">bug fixing</title><ellipse id="ellipse12179" cx="505.221" cy="614.652" fill="#00b0ff" opacity=".1" rx="201.923" ry="39.371" style="opacity:.15;fill:#666;stroke-width:.752891"/><ellipse id="ellipse12369" cx="654.421" cy="711.36" fill="#00b0ff" opacity=".1" rx="115" ry="20" style="opacity:.209;fill:#4d4d4d"/><polygon id="polygon12371" fill="#d0d2d5" points="377.78 655.02 386.39 579.63 542.88 579.63 554.39 655.02 555.27 660.74 555.44 661.88 377.25 659.59" transform="translate(38.791459,-45.52)"/><polygon id="polygon12373" points="377.25 659.59 377.78 655.02 554.39 655.02 555.27 660.74 466.35 660.74" opacity=".1" transform="translate(38.791459,-45.52)"/><rect id="rect12375" width="236.45" height="5.71" x="386.341" y="610.65" fill="#d0d2d5" style="fill:#999"/><path style="opacity:.85;fill:#333" id="path12377" fill="#3f3d56" d="m 848.38146,81.31 a 14.87,14.87 0 0 0 -14.8,-14.92 h -660.32 a 14.87,14.87 0 0 0 -14.8,14.94 v 400.25 h 689.92 z"/><path id="path12379" fill="#d0d2d5" d="m 158.46146,477.58 v 46.88 a 14.8,14.8 0 0 0 14.8,14.8 h 660.32 a 14.8,14.8 0 0 0 14.8,-14.8 v -46.88 z" style="fill:#999"/><rect id="rect12381" width="636.23" height="359.81" x="187.021" y="91.49" fill="#fff"/><path id="path12383" fill="#00b0ff" d="m 506.85146,521.47 a 15.4,15.4 0 0 0 12.13,-5.89 v 0 a 16.06,16.06 0 0 0 1.2,-1.76 l -8.47,-1.43 9.15,0.06 a 15.42,15.42 0 0 0 0.29,-12.21 l -12.27,6.36 11.32,-8.32 a 15.42,15.42 0 1 0 -25.47,17.26 v 0 a 15.4,15.4 0 0 0 12.12,5.93 z"/><polygon id="polygon12385" points="543.66 584.77 483.48 584.77 554.57 656.17" opacity=".1" transform="translate(38.791459,-45.52)"/><rect id="rect12387" width="636.92" height="21.02" x="186.521" y="91.53" fill="#444053" opacity=".1"/><rect id="rect12389" width="191.9" height="12.79" x="407.661" y="95.19" fill="#00b0ff" opacity=".3" rx=".58"/><path id="path12391" fill="#3f3d56" d="m 593.86146,102.91 h -0.47 l -0.17,-0.15 a 3.89,3.89 0 0 0 0.9,-2.49 3.78,3.78 0 1 0 -3.77,3.81 3.9,3.9 0 0 0 2.49,-0.91 l 0.17,0.15 v 0.47 l 2.93,2.93 0.87,-0.88 z m -3.51,0 a 2.64,2.64 0 1 1 2.63,-2.64 2.62,2.62 0 0 1 -2.63,2.64 z"/><circle id="circle12393" cx="197.971" cy="102.04" r="3.85" fill="#fa5959" opacity=".8"/><circle id="circle12395" cx="208.561" cy="102.04" r="3.85" fill="#fed253" opacity=".8"/><circle id="circle12397" cx="219.161" cy="102.04" r="3.85" fill="#8ccf4d" opacity=".8"/><path id="path12399" fill="#00b0ff" d="m 495.65731,194.90854 c -8.73,-11.6 -21.38,-18.92 -35.46,-18.92 -14.08,0 -26.73,7.32 -35.46,18.92 a 38.39,38.39 0 0 0 8.4,12.65 38.28,38.28 0 0 0 62.52,-12.65 z"/><path id="path12401" fill="#00b0ff" d="m 420.12731,201.69854 a 9.17,9.17 0 0 1 -1.76,-1 7.06,7.06 0 0 1 -1.94,-2.51 7.18,7.18 0 1 0 -11.72,1.74 8,8 0 0 0 1.7,1.37 4.94,4.94 0 0 1 1.91,2 14.44,14.44 0 0 0 3.32,4.36 29,29 0 0 0 4.55,3.2 66.31,66.31 0 0 0 -3.74,19.56 27.05,27.05 0 0 0 -7.62,1.23 12.29,12.29 0 0 0 -3.53,1.76 8.48,8.48 0 0 0 -0.87,-0.06 7.19,7.19 0 1 0 6.73,9.72 4.59,4.59 0 0 1 3.71,-3 16.75,16.75 0 0 1 1.85,-0.12 64.4,64.4 0 0 0 8.55,26.67 c -4.24,3.29 -6.85,6.88 -7.95,10.86 a 3,3 0 0 0 -0.57,0.41 6.81,6.81 0 0 0 -0.84,0.78 7.18,7.18 0 1 0 12.05,2.35 4.71,4.71 0 0 1 1.17,-5.08 c 0.48,-0.45 1,-0.93 1.7,-1.46 8.11,9.47 17.76,15.54 29.81,16.26 v -64.25 c -15.93,-0.87 -29.81,-11.24 -36.51,-24.79 z m 99.83,31.72 a 7.93,7.93 0 0 0 -0.87,0.06 13.56,13.56 0 0 0 -3.53,-1.76 26.86,26.86 0 0 0 -7.62,-1.23 67.76,67.76 0 0 0 -3.74,-19.55 29,29 0 0 0 4.55,-3.2 15.58,15.58 0 0 0 3.44,-4.57 4.22,4.22 0 0 1 1.77,-1.75 7.18,7.18 0 1 0 -10,-3.17 6.82,6.82 0 0 1 -1.94,2.51 18.85,18.85 0 0 1 -1.76,1.29 c -6.7,13.54 -20.57,23.62 -36.48,24.49 v 64.31 c 12,-0.72 21.71,-6.82 29.81,-16.26 0.63,0.5 1.16,0.95 1.61,1.37 a 4.86,4.86 0 0 1 1.26,5.23 7.18,7.18 0 1 0 12.08,-2.33 6.81,6.81 0 0 0 -0.84,-0.78 c -0.33,-0.26 -0.57,-0.41 -0.57,-0.41 -1.1,-4 -3.7,-7.57 -8,-10.86 a 64.4,64.4 0 0 0 8.55,-26.67 15.9,15.9 0 0 1 1.77,0.12 4.8,4.8 0 0 1 3.85,3 7.18,7.18 0 0 0 13.85,-2.18 7.29,7.29 0 0 0 -7.19,-7.66 z"/><path id="path12403" fill="url(#af83dc26-9572-4816-b7a1-1af4f72ff554)" d="m 719.79146,699.7 a 9.56,9.56 0 0 0 -2.17,-2.41 c -4.37,-4.13 -6.4,-10.19 -7.48,-16.13 -1.08,-5.94 -1.39,-12 -3.12,-17.81 a 58.74,58.74 0 0 0 -3.52,-8.67 c -1,-2.14 -2.26,-6.33 -4.09,-7.83 a 2.7,2.7 0 0 0 -1.26,-0.61 14.85,14.85 0 0 0 -3.62,-4.82 c -2.86,-2.59 -6.35,-4.65 -8.26,-8 a 18,18 0 0 0 -1.93,-3.29 c -1.29,-1.42 -3.33,-2 -4.52,-3.5 -1.55,-1.94 -1.2,-4.72 -1,-7.19 0.2,-2.47 0,-5.43 -2.14,-6.73 -1.28,-0.79 -2.93,-0.71 -4.26,-1.41 -2,-1 -2.79,-3.52 -2.75,-5.77 0.04,-2.25 0.74,-4.44 0.92,-6.69 0.56,-7.16 -4.16,-14.28 -2.34,-21.22 0.69,-2.63 2.27,-4.91 3.44,-7.36 a 15.37,15.37 0 0 0 1,-2.54 35.73,35.73 0 0 0 9.74,2.35 c -5.51,-12.36 -4.11,-26.72 -6.68,-40 l 0.33,-0.45 a 20.84,20.84 0 0 0 4.22,-11.86 c 0,-4.94 -2.31,-9.56 -3.35,-14.4 -0.89,-4.11 -0.85,-8.41 -2,-12.45 a 37.65,37.65 0 0 0 -3.16,-7.22 q -1.87,-3.47 -3.93,-6.83 -1.92,-6.36 -3.85,-12.72 c -1.8,-5.95 -3.65,-12 -7.15,-17.14 -1.28,-1.88 -1.67,-5.7 -3.64,-6.84 a 8.81,8.81 0 0 0 -5.2,-0.91 c -2.78,-1.56 -5.22,-3.81 -5.57,-6.89 a 6.68,6.68 0 0 1 0.2,-2 h 0.34 c 4.4,-0.4 6.63,-4.28 8.92,-7.68 3.7,-5.5 2.29,-12.94 0,-19.2 a 13,13 0 0 0 -3,-5.29 c -3.21,-3 -8.29,-2.34 -12.43,-3.79 -1.39,-0.48 -2.69,-1.21 -4.11,-1.55 -2.75,-0.64 -5.63,0.26 -8.15,1.53 -2.52,1.27 -4.87,2.91 -7.51,3.91 -2.64,1 -5.9,1.79 -6.55,4.5 a 5,5 0 0 0 0.22,2.73 10.18,10.18 0 0 0 3.09,4.46 17.81,17.81 0 0 0 10.87,24.82 c 0.76,1.22 1.47,2.46 2.12,3.73 1.16,2.24 2.14,4.88 1.74,7.28 a 22.45,22.45 0 0 0 -2,2.45 c -2.87,4 -4.5,8.69 -6,13.37 a 141.65,141.65 0 0 0 -4.83,18.27 c -2.44,5.19 -5.42,10.15 -7.19,15.6 a 35.21,35.21 0 0 1 -9.38,-1.26 l -8.44,-1.91 c -2.94,-0.67 -6,-1.39 -8.3,-3.33 -1.22,-1 -2.17,-2.33 -3.41,-3.32 -1.24,-0.99 -3.73,-2.15 -5.09,-1.33 a 4,4 0 0 0 -0.69,0.53 c -1.24,-2.51 -2.42,-5 -3.86,-7.43 -2.07,-3.4 -5.15,-6.51 -9.05,-7.16 a 9.21,9.21 0 0 0 -6.79,1.58 c -2.28,1.62 -3.71,5 -2,7.28 a 13.29,13.29 0 0 0 1.39,1.42 29.2,29.2 0 0 1 3.09,4.29 21.91,21.91 0 0 0 13.49,8.76 l -0.35,1 c -0.71,2.08 -2.22,4.59 -1.84,6.75 l 37.54,12.85 a 23.13,23.13 0 0 0 7.56,1.67 12.21,12.21 0 0 0 3,-0.4 v 1.92 0.08 c 0.1,13.19 -2,26.29 -2.39,39.47 -0.07,2.41 0,5 1.52,6.88 1.7,2.06 4.72,2.47 7.35,2 q 0.95,-0.16 1.86,-0.42 a 69.33,69.33 0 0 1 1.92,10.11 l 2.48,17.86 a 27.14,27.14 0 0 1 0.39,5.54 c -0.29,4.19 -2.5,7.94 -4.1,11.81 -1.6,3.87 -2.55,8.5 -0.45,12.12 0.66,1.12 1.57,2.07 2.16,3.23 a 13.14,13.14 0 0 1 1,5.68 q 0.23,8.08 0.44,16.18 a 1.83,1.83 0 0 0 -1.26,0.25 c -2.08,1.62 -1.85,9.33 -2,11.72 -0.16,4 0,8.08 -0.22,12.12 a 72.22,72.22 0 0 1 -2.61,16.09 10.29,10.29 0 0 1 -2.29,4.61 9.74,9.74 0 0 1 -4.07,2.11 46.49,46.49 0 0 1 -15.41,2.1 c -2.11,-0.07 -4.31,-0.27 -6.27,0.53 -1.96,0.8 -3.54,3 -2.83,5 0.61,1.68 2.46,2.48 4.13,3.11 a 65.53,65.53 0 0 1 11,5.06 29.74,29.74 0 0 0 4.25,2.41 21.91,21.91 0 0 0 4.38,1.08 l 17.73,3.06 c 3.63,0.62 8,1 10.31,-2 1.25,-1.62 1.43,-3.82 1.37,-5.88 -0.1,-4 -0.9,-8.07 -0.38,-12.07 a 37.14,37.14 0 0 1 1.86,-6.93 q 2.65,-7.87 5.32,-15.73 c 1.78,-5.26 3.58,-10.57 4.27,-16.09 0.25,-2 0.23,-4.28 -1.3,-5.53 a 3.54,3.54 0 0 0 -1.32,-0.68 c -0.06,-4.82 -0.69,-9.65 -0.42,-14.47 0.07,-1.2 0.19,-2.4 0.29,-3.61 a 17.61,17.61 0 0 1 2.47,2.92 c 1.71,2.68 2.34,6.22 4.95,8 2.22,1.52 5.51,1.44 7.07,3.64 a 10.26,10.26 0 0 1 1.12,2.71 19.32,19.32 0 0 0 4,6.35 32,32 0 0 0 2.47,6.34 q 2.21,4.67 4.4,9.31 a 108.59,108.59 0 0 0 5,9.77 27.55,27.55 0 0 1 3.35,6.46 c 1.41,4.94 -0.89,10.36 -4.53,14 -3.64,3.64 -8.44,5.73 -13.17,7.68 a 3.71,3.71 0 0 0 -1.34,0.8 2.59,2.59 0 0 0 -0.61,1.74 c 0,2.31 1.9,4.29 4.08,5 a 15.26,15.26 0 0 0 6.83,0.25 c 12.78,-1.55 25.52,-4.67 36.82,-10.88 a 13,13 0 0 0 4.39,-3.39 5.13,5.13 0 0 0 0.73,-5.21 z" style="fill:url(#af83dc26-9572-4816-b7a1-1af4f72ff554)"/><path id="path12405" fill="#2f2e41" d="m 665.78146,475.45 q 3.2,4.91 6,10.06 a 37,37 0 0 1 3.17,7.17 c 1.16,4 1.13,8.27 2,12.35 1,4.8 3.34,9.38 3.34,14.3 a 20.56,20.56 0 0 1 -4.22,11.76 55.82,55.82 0 0 1 -8.82,9.1 187.62,187.62 0 0 1 -12.48,-61.21 c -0.1,-2.9 -0.12,-5.89 0.94,-8.6 0.65,-1.7 3.77,-6.36 5.78,-4.53 0.73,0.67 0.92,3.69 1.37,4.7 a 36.13,36.13 0 0 0 2.92,4.9 z"/><path id="path12407" d="m 665.78146,475.45 q 3.2,4.91 6,10.06 a 37,37 0 0 1 3.17,7.17 c 1.16,4 1.13,8.27 2,12.35 1,4.8 3.34,9.38 3.34,14.3 a 20.56,20.56 0 0 1 -4.22,11.76 55.82,55.82 0 0 1 -8.82,9.1 187.62,187.62 0 0 1 -12.48,-61.21 c -0.1,-2.9 -0.12,-5.89 0.94,-8.6 0.65,-1.7 3.77,-6.36 5.78,-4.53 0.73,0.67 0.92,3.69 1.37,4.7 a 36.13,36.13 0 0 0 2.92,4.9 z" opacity=".1" style="fill:#009dff;opacity:1;fill-opacity:1"/><path id="path12409" fill="#d0d2d5" d="m 402.14146,339.02 c -7.91,7.9 -8.86,11.38 -13.61,12.95 -4.75,1.57 -21.84,10.42 -16.47,20.23 l 14.44,9.54 0.42,0.28 2.21,6.64 -21.84,38.88 c 0,0 -36,-16.46 -39.53,7.89 -3.53,24.35 -1.29,31 -2.24,44 -0.95,13 0.31,16.76 -2.86,16.76 -3.17,0 -4.42,-8.54 -4.42,-8.54 0,0 -0.2,-0.39 -0.55,-1.12 -4.71,-9.79 -36.68,-81.66 14.53,-131.06 0,0 23.72,-1.56 29.43,-28.76 3.94,-18.8 17.72,-17.18 26.88,-13.35 a 30.38,30.38 0 0 1 8.22,4.83 40.48,40.48 0 0 1 5.89,7 c 2.61,4.12 4.03,9.29 -0.5,13.83 z"/><path id="path12411" d="m 386.92146,382.02 2.21,6.64 -21.84,38.88 c 0,0 -36,-16.46 -39.53,7.89 -3.53,24.35 -1.29,31 -2.24,44 -0.95,13 0.31,16.76 -2.86,16.76 -3.17,0 -4.42,-8.54 -4.42,-8.54 0,0 -0.2,-0.39 -0.55,-1.12 -1.59,-12.16 -9.65,-83.29 19.57,-79.51 0,0 23.71,11.08 27.5,6.66 3,-3.5 16.32,-23.63 21.74,-31.89 z" opacity=".1"/><path id="path12413" d="m 402.64146,325.13 -14.44,16.41 c 0,0 -16.77,22.44 -20.25,21.49 a 16.23,16.23 0 0 0 -3.17,-0.37 6.16,6.16 0 0 1 -4,-10.38 c 5.72,-6 16.26,-17.39 16.95,-19.92 0.69,-2.53 7.4,-13.62 10.76,-19.05 a 30.38,30.38 0 0 1 8.22,4.83 40.48,40.48 0 0 1 5.93,6.99 z" opacity=".1"/><path id="path12415" fill="#454b69" d="m 811.20146,561.22 c -2.45,4.9 -15,23.28 -20.49,31.31 l -2.57,3.78 c 0,0 -1,6.64 -17.39,-1.59 -16.39,-8.23 -401.48,-170.72 -401.48,-170.72 l -2.61,-7.84 19,-28.45 422.07,163.07 c 0,0 6.64,4.11 3.47,10.44 z" style="opacity:1"/><path id="path12417" d="m 790.71146,592.53 -2.57,3.78 c 0,0 -1,6.64 -17.39,-1.59 -16.39,-8.23 -401.48,-170.72 -401.48,-170.72 l -2.61,-7.84 z" opacity=".1"/><path id="path12419" fill="#fbbebe" d="m 558.43146,486.39 c -3.91,-0.64 -8.25,-0.33 -11.29,2.21 a 9.29,9.29 0 0 0 -3.24,6.16 c -0.26,2.77 1.35,6.06 4.13,6.27 a 13.17,13.17 0 0 0 2,-0.13 29.89,29.89 0 0 1 5.24,0.44 21.39,21.39 0 0 0 18.23,-7.36 c 2.39,-3 -0.76,-4.3 -3.58,-4.9 -3.86,-0.82 -7.63,-2.07 -11.49,-2.69 z"/><path id="path12421" fill="#3f3d56" d="m 625.31146,576.7 2.48,17.62 a 26.84,26.84 0 0 1 0.38,5.51 c -0.29,4.15 -2.5,7.87 -4.09,11.71 -1.59,3.84 -2.56,8.44 -0.45,12 0.65,1.11 1.56,2.06 2.15,3.21 a 12.92,12.92 0 0 1 1,5.63 l 0.68,25 a 157.33,157.33 0 0 0 23.18,-0.13 1.29,1.29 0 0 0 0.84,-0.26 1.36,1.36 0 0 0 0.29,-0.91 c 0.34,-5.85 -0.68,-11.71 -0.35,-17.56 0.12,-2.14 0.42,-4.27 0.46,-6.42 0.12,-8.71 -4.18,-17.24 -2.88,-25.85 a 57,57 0 0 1 1.6,-6.43 c 4.11,-15 3.24,-30.76 2.33,-46.25 a 1.09,1.09 0 0 0 -0.2,-0.7 1.06,1.06 0 0 0 -0.54,-0.29 28.45,28.45 0 0 0 -25.78,4.9 c -1.09,0.88 -3.84,1.73 -4.56,2.78 -1,1.46 0.31,2.92 0.89,4.47 a 56.89,56.89 0 0 1 2.57,11.97 z"/><path id="path12423" d="m 625.31146,576.7 2.48,17.62 a 26.84,26.84 0 0 1 0.38,5.51 c -0.29,4.15 -2.5,7.87 -4.09,11.71 -1.59,3.84 -2.56,8.44 -0.45,12 0.65,1.11 1.56,2.06 2.15,3.21 a 12.92,12.92 0 0 1 1,5.63 l 0.68,25 a 157.33,157.33 0 0 0 23.18,-0.13 1.29,1.29 0 0 0 0.84,-0.26 1.36,1.36 0 0 0 0.29,-0.91 c 0.34,-5.85 -0.68,-11.71 -0.35,-17.56 0.12,-2.14 0.42,-4.27 0.46,-6.42 0.12,-8.71 -4.18,-17.24 -2.88,-25.85 a 57,57 0 0 1 1.6,-6.43 c 4.11,-15 3.24,-30.76 2.33,-46.25 a 1.09,1.09 0 0 0 -0.2,-0.7 1.06,1.06 0 0 0 -0.54,-0.29 28.45,28.45 0 0 0 -25.78,4.9 c -1.09,0.88 -3.84,1.73 -4.56,2.78 -1,1.46 0.31,2.92 0.89,4.47 a 56.89,56.89 0 0 1 2.57,11.97 z" opacity=".1"/><path id="path12425" fill="#3f3d56" d="m 671.68146,571.39 c -1.17,2.43 -2.74,4.69 -3.44,7.3 -1.82,6.89 2.89,14 2.33,21.06 -0.18,2.23 -0.87,4.4 -0.92,6.63 -0.05,2.23 0.77,4.71 2.75,5.74 1.33,0.68 3,0.61 4.25,1.39 2.11,1.29 2.35,4.22 2.14,6.68 -0.21,2.46 -0.56,5.21 1,7.13 1.19,1.49 3.23,2.07 4.51,3.48 a 17.17,17.17 0 0 1 1.93,3.26 c 1.91,3.34 5.4,5.38 8.26,8 2.86,2.62 5.28,6.46 4,10.09 -0.94,2.66 -3.58,4.3 -6.12,5.55 a 64.93,64.93 0 0 1 -14.57,5.15 3.52,3.52 0 0 1 -1.67,0.09 3.57,3.57 0 0 1 -1.46,-1 c -2.95,-2.89 -6,-5.92 -7.36,-9.81 a 10.07,10.07 0 0 0 -1.12,-2.68 c -1.56,-2.19 -4.85,-2.11 -7.07,-3.62 -2.6,-1.77 -3.23,-5.28 -4.93,-7.93 -1.7,-2.65 -4.19,-4.23 -6,-6.56 -3.06,-3.88 -3.81,-9.06 -6,-13.49 -0.93,-1.88 -2.12,-3.64 -2.86,-5.6 a 30.58,30.58 0 0 1 -1.37,-7.24 c -1.41,-11.68 -5,-23.44 -2.74,-35 0.5,-2.54 1.27,-5 1.59,-7.62 0.55,-4.53 -0.32,-9.17 0.35,-13.69 a 3.77,3.77 0 0 1 1.51,-2.91 4,4 0 0 1 1.72,-0.35 117.28,117.28 0 0 1 17.78,0.4 c 3,0.29 6.36,0.9 8.16,3.35 1.53,2.1 1.45,4.91 1.94,7.46 0.61,3.14 2.2,4.85 3.87,7.31 1.67,2.46 0.77,4.89 -0.46,7.43 z"/><path style="fill:#000" id="path12427" fill="#2f2e41" d="m 648.61146,652.65 c 1.58,0 3.33,-0.1 4.55,0.9 1.52,1.25 1.54,3.54 1.3,5.49 -0.7,5.48 -2.49,10.75 -4.28,16 l -5.32,15.61 a 36.65,36.65 0 0 0 -1.86,6.88 c -0.52,4 0.28,8 0.38,12 0,2 -0.13,4.22 -1.38,5.83 -2.26,2.91 -6.67,2.57 -10.3,2 l -17.71,-3 a 21.07,21.07 0 0 1 -4.38,-1.07 30.61,30.61 0 0 1 -4.25,-2.39 65.42,65.42 0 0 0 -11,-5 c -1.66,-0.62 -3.52,-1.41 -4.12,-3.08 -0.71,-2 0.87,-4.2 2.83,-5 1.96,-0.8 4.15,-0.6 6.27,-0.54 a 47,47 0 0 0 15.4,-2.08 9.74,9.74 0 0 0 4.06,-2.1 10,10 0 0 0 2.34,-4.71 70.17,70.17 0 0 0 2.68,-16 c 0.21,-4 0.07,-8 0.23,-12 0.1,-2.37 -0.13,-10 1.95,-11.63 1.59,-1.22 8.13,2.15 10.28,2.64 a 50,50 0 0 0 12.33,1.25 z"/><path style="fill:#000" id="path12429" fill="#2f2e41" d="m 706.95146,663.77 c 1.73,5.73 2,11.79 3.12,17.68 1.12,5.89 3.1,11.9 7.47,16 a 9.87,9.87 0 0 1 2.17,2.4 5.06,5.06 0 0 1 -0.75,5.23 13.13,13.13 0 0 1 -4.39,3.37 c -11.29,6.16 -24,9.27 -36.81,10.81 a 15.51,15.51 0 0 1 -6.82,-0.25 c -2.18,-0.74 -4.11,-2.7 -4.07,-5 a 2.55,2.55 0 0 1 0.6,-1.73 3.73,3.73 0 0 1 1.35,-0.79 c 4.72,-1.94 9.51,-4.05 13.16,-7.63 3.65,-3.58 5.94,-9 4.53,-13.86 a 27.42,27.42 0 0 0 -3.37,-6.41 108.35,108.35 0 0 1 -5,-9.69 l -4.4,-9.23 c -1.29,-2.7 -2.59,-5.48 -2.81,-8.46 a 40.6,40.6 0 0 0 16.22,-2.6 25.51,25.51 0 0 0 6.67,-4 c 1.7,-1.42 3.25,-4.07 5.54,-2.22 1.84,1.48 3,5.65 4.08,7.76 a 57,57 0 0 1 3.51,8.62 z"/><path id="path12431" fill="#fbbebe" d="m 642.47146,434.58 c 0.44,3.84 4.16,6.37 7.71,7.89 l -22.47,7.17 c 1.45,-2.78 0.28,-6.18 -1.16,-9 a 50.93,50.93 0 0 0 -4,-6.41 c -0.22,-0.31 -0.47,-0.7 -0.31,-1.06 a 1.12,1.12 0 0 1 0.63,-0.49 c 4.62,-2.06 9.38,-4.19 14.43,-4.94 1.46,-0.21 4.22,-0.79 5.31,0.69 1.09,1.48 -0.35,4.38 -0.14,6.15 z"/><path id="path12433" d="m 642.47146,434.58 c 0.44,3.84 4.16,6.37 7.71,7.89 l -22.47,7.17 c 1.45,-2.78 0.28,-6.18 -1.16,-9 a 50.93,50.93 0 0 0 -4,-6.41 c -0.22,-0.31 -0.47,-0.7 -0.31,-1.06 a 1.12,1.12 0 0 1 0.63,-0.49 c 4.62,-2.06 9.38,-4.19 14.43,-4.94 1.46,-0.21 4.22,-0.79 5.31,0.69 1.09,1.48 -0.35,4.38 -0.14,6.15 z" opacity=".1"/><circle id="circle12435" cx="629.411" cy="420.07" r="17.62" fill="#fbbebe"/><path style="fill:#00aeff;fill-opacity:1" id="path12437" fill="#2f2e41" d="m 614.14146,565.07 c 1.71,2.05 4.72,2.45 7.35,2 6.15,-1 11.18,-5.53 17.2,-7.16 7.38,-2 15.19,0.57 22.16,3.72 6.97,3.15 13.9,7 21.52,7.54 -6.89,-15.36 -2.95,-33.84 -9.54,-49.33 -1.61,-3.79 -3.86,-7.44 -4.22,-11.54 -0.45,-5.09 2.09,-10 2.48,-15.06 0.36,-4.51 -1,-9 -2.3,-13.3 q -2.41,-7.92 -4.82,-15.84 c -1.8,-5.91 -3.65,-11.92 -7.14,-17 -1.29,-1.87 -1.68,-5.66 -3.64,-6.79 -4.28,-2.47 -10.77,0.64 -15.41,0.81 -4.64,0.17 -8.87,3.47 -11.58,7.2 -2.87,3.94 -4.5,8.63 -6,13.27 a 126.15,126.15 0 0 0 -5.33,21.23 c -0.15,1.08 -0.28,2.16 -0.38,3.25 -1,10.27 0.46,20.6 0.54,30.92 v 0.07 c 0.1,13.09 -2,26.1 -2.39,39.18 -0.04,2.39 0.02,5 1.5,6.83 z"/><path id="path12439" d="m 615.06146,519 c 3.45,-0.87 6.57,-3.1 9.25,-5.54 a 38.67,38.67 0 0 0 6.14,-7 49.86,49.86 0 0 0 5.29,-11.07 129.36,129.36 0 0 0 7,-32.27 c 0.26,-3 0.34,-6.22 -1.45,-8.6 a 7.24,7.24 0 0 0 -8.75,-2.12 c -2.36,1.15 -3.89,3.48 -5.31,5.71 -2.81,4.42 -5.64,8.9 -7.45,13.82 -0.8,2.18 -1.39,4.42 -2.17,6.61 a 61,61 0 0 1 -2.74,6.33 c -0.15,1.08 -0.28,2.16 -0.38,3.25 -0.93,10.27 0.49,20.56 0.57,30.88 z" opacity=".1"/><path style="fill:#009dff;fill-opacity:1" id="path12441" fill="#2f2e41" d="m 641.24146,452.59 c 1.79,2.38 1.71,5.63 1.46,8.59 a 129.18,129.18 0 0 1 -7,32.27 49.43,49.43 0 0 1 -5.29,11.16 39.07,39.07 0 0 1 -6.14,7 c -3.4,3.1 -7.54,5.87 -12.15,5.91 a 23.16,23.16 0 0 1 -7.56,-1.65 l -37.55,-12.78 c -0.38,-2.14 1.13,-4.64 1.84,-6.7 l 2,-5.93 c 0.57,-1.64 1.23,-3.41 2.72,-4.3 1.49,-0.89 3.85,0.33 5.09,1.32 1.24,0.99 2.18,2.29 3.4,3.3 2.31,1.92 5.36,2.64 8.3,3.3 l 8.43,1.89 a 35.2,35.2 0 0 0 9.38,1.25 c 2.35,-7.18 6.82,-13.5 9.35,-20.62 0.78,-2.18 1.37,-4.43 2.18,-6.61 1.8,-4.92 4.64,-9.39 7.45,-13.82 1.41,-2.22 2.94,-4.55 5.31,-5.71 a 7.23,7.23 0 0 1 8.78,2.13 z"/><path style="fill:#1a1a1a" id="path12443" fill="#2f2e41" d="m 635.03146,424.05 a 8.89,8.89 0 0 0 -1.06,-3.3 2.77,2.77 0 0 0 -3,-1.32 c -1.76,0.55 -2.35,3.27 -4.19,3.36 -1.24,0.06 -2.13,-1.2 -2.52,-2.38 -0.39,-1.18 -0.6,-2.53 -1.53,-3.36 a 5.7,5.7 0 0 0 -2.18,-1 c -4.27,-1.35 -8.68,-3.84 -10.1,-8.09 a 4.84,4.84 0 0 1 -0.23,-2.71 c 0.65,-2.69 4,-3.5 6.55,-4.47 2.55,-0.97 5,-2.63 7.5,-3.89 2.5,-1.26 5.4,-2.15 8.15,-1.51 a 42.47,42.47 0 0 1 4.11,1.53 c 4.14,1.44 9.21,0.77 12.42,3.76 a 12.83,12.83 0 0 1 3,5.24 c 2.24,6.22 3.66,13.6 -0.05,19.06 -2.29,3.37 -4.51,7.22 -8.91,7.63 -5.12,0.43 -7.15,-4.21 -7.96,-8.55 z"/><g id="g12449" opacity=".1" transform="translate(38.791459,-45.52)"><path id="path12445" d="m 677.07,520.9 c -0.39,-1.18 -0.6,-2.53 -1.52,-3.36 a 5.7,5.7 0 0 0 -2.18,-1 c -4.28,-1.35 -8.68,-3.84 -10.11,-8.09 a 4.93,4.93 0 0 1 -0.22,-2.71 3.39,3.39 0 0 1 0.53,-1.19 c -1.63,0.71 -3.05,1.65 -3.45,3.31 a 4.84,4.84 0 0 0 0.23,2.71 c 1.42,4.25 5.83,6.74 10.1,8.09 a 5.7,5.7 0 0 1 2.18,1 c 0.93,0.83 1.13,2.17 1.53,3.36 0.4,1.19 1.28,2.44 2.52,2.38 1.24,-0.06 1.84,-1.19 2.63,-2.14 -1.09,-0.14 -1.88,-1.26 -2.24,-2.36 z" transform="translate(-88.65,-57.09)"/><path id="path12447" d="m 695.79,533.06 c -5.14,0.47 -7.17,-4.21 -8,-8.52 a 8.7,8.7 0 0 0 -1,-3.3 2.78,2.78 0 0 0 -3,-1.32 5.32,5.32 0 0 0 -2.21,2 3,3 0 0 1 2.26,1.4 8.89,8.89 0 0 1 1.06,3.3 c 0.81,4.31 2.84,9 8,8.52 a 8.25,8.25 0 0 0 5.28,-2.74 7.46,7.46 0 0 1 -2.39,0.66 z" transform="translate(-88.65,-57.09)"/></g><path id="path12399-6" fill="#00b0ff" d="m 747.88924,261.77089 c -4.34583,-5.59431 -10.64303,-9.12451 -17.6521,-9.12451 -7.00907,0 -13.30628,3.5302 -17.6521,9.12451 a 19.11066,18.514267 0 0 0 4.18155,6.10069 19.055902,18.461217 0 0 0 31.12265,-6.10069 z" style="stroke-width:.489974"/><path id="path12401-3" fill="#00b0ff" d="m 710.29017,265.04549 a 4.5648542,4.4223972 0 0 1 -0.87613,-0.48227 3.5144897,3.4048118 0 0 1 -0.96574,-1.21049 3.5742261,3.4626839 0 1 0 -5.83425,0.83915 3.9824246,3.8581436 0 0 0 0.84626,0.6607 2.4591472,2.3824037 0 0 1 0.9508,0.96454 7.1882764,6.9639493 0 0 0 1.65271,2.10269 14.436289,13.985771 0 0 0 2.265,1.54326 33.009322,31.979188 0 0 0 -1.86178,9.43316 13.465573,13.045348 0 0 0 -3.79326,0.59319 6.1179998,5.9270732 0 0 0 -1.75724,0.84879 4.2213701,4.0896323 0 0 0 -0.43309,-0.0289 3.5792041,3.4675066 0 1 0 3.35021,4.68765 2.2849161,2.2136099 0 0 1 1.84685,-1.44681 8.3382015,8.0779883 0 0 1 0.92094,-0.0579 32.058518,31.058056 0 0 0 4.25621,12.86209 c -2.11068,1.58666 -3.40995,3.318 -3.95753,5.23743 a 1.4934092,1.4468039 0 0 0 -0.28375,0.19773 3.3900389,3.2842448 0 0 0 -0.41815,0.37617 3.5742261,3.4626839 0 1 0 5.99852,1.13333 2.3446525,2.2714821 0 0 1 0.58243,-2.44993 c 0.23895,-0.21702 0.49781,-0.4485 0.84627,-0.70411 4.03718,4.56708 8.84098,7.49445 14.83951,7.84168 v -30.98572 c -7.93,-0.41957 -14.83951,-5.42069 -18.17479,-11.95542 z m 49.69568,15.29754 a 3.9475784,3.8243849 0 0 0 -0.43309,0.0289 6.7502097,6.5395535 0 0 0 -1.75724,-0.84879 13.370991,12.953717 0 0 0 -3.79326,-0.59319 33.731136,32.678477 0 0 0 -1.86179,-9.42834 14.436289,13.985771 0 0 0 2.26501,-1.54326 7.7557719,7.5137347 0 0 0 1.71244,-2.20396 2.100729,2.0351708 0 0 1 0.88111,-0.84397 3.5742261,3.4626839 0 1 0 -4.97803,-1.52879 3.395017,3.2890675 0 0 1 -0.96574,1.21049 9.383588,9.090751 0 0 1 -0.87613,0.62213 c -3.33528,6.5299 -10.23981,11.39116 -18.15986,11.81074 v 31.01465 c 5.97364,-0.34723 10.80731,-3.28907 14.83951,-7.84168 0.31362,0.24114 0.57745,0.45816 0.80147,0.66071 a 2.4193229,2.3438223 0 0 1 0.62723,2.52226 3.5742261,3.4626839 0 1 0 6.01346,-1.12368 3.3900389,3.2842448 0 0 0 -0.41816,-0.37617 c -0.16427,-0.12539 -0.28374,-0.19773 -0.28374,-0.19773 -0.54759,-1.92907 -1.84188,-3.65077 -3.98243,-5.23743 a 32.058518,31.058056 0 0 0 4.25622,-12.86209 7.9150689,7.6680605 0 0 1 0.88111,0.0579 2.3894548,2.3148862 0 0 1 1.91654,1.44681 3.5742261,3.4626839 0 0 0 6.89457,-1.05135 3.6289844,3.5157334 0 0 0 -3.5792,-3.69417 z" style="stroke-width:.489974"/><path id="path12399-9" fill="#00b0ff" d="m 557.45221,357.02557 c -2.77675,-3.66391 -6.80033,-5.97596 -11.27875,-5.97596 -4.47841,0 -8.50199,2.31205 -11.27874,5.97596 a 12.210686,12.125638 0 0 0 2.67178,3.99555 12.175698,12.090894 0 0 0 19.88571,-3.99555 z" style="stroke-width:.31696"/><path id="path12401-34" fill="#00b0ff" d="m 533.42842,359.17022 a 2.9166967,2.8963819 0 0 1 -0.5598,-0.31586 2.2455702,2.2299298 0 0 1 -0.61706,-0.79279 2.2837386,2.2678323 0 1 0 -3.72777,0.54959 2.5445555,2.5268327 0 0 0 0.54072,0.43272 1.571263,1.5603192 0 0 1 0.60751,0.6317 4.5929227,4.560933 0 0 0 1.05599,1.37713 9.2240137,9.1597684 0 0 0 1.44722,1.01073 21.091184,20.944284 0 0 0 -1.18958,6.17811 8.6037783,8.543853 0 0 0 -2.42369,0.3885 3.9090734,3.8818467 0 0 0 -1.12279,0.5559 2.6972288,2.6784426 0 0 0 -0.27672,-0.019 2.2869193,2.2709909 0 1 0 2.14061,3.0701 1.4599387,1.4497702 0 0 1 1.18004,-0.94756 5.3276631,5.2905559 0 0 1 0.58843,-0.0379 20.483672,20.341003 0 0 0 2.71949,8.42383 c -1.34861,1.03916 -2.17878,2.17307 -2.52865,3.43017 a 0.95420831,0.94756225 0 0 0 -0.1813,0.1295 2.1660529,2.1509663 0 0 0 -0.26718,0.24637 2.2837386,2.2678323 0 1 0 3.83274,0.74225 1.4981071,1.4876727 0 0 1 0.37214,-1.60453 c 0.15267,-0.14214 0.31807,-0.29375 0.54072,-0.46115 2.57954,2.99114 5.64891,4.90837 9.48165,5.13579 v -20.29363 c -5.06685,-0.27479 -9.48165,-3.5502 -11.61272,-7.83002 z m 31.75287,10.01889 a 2.5222906,2.5047229 0 0 0 -0.27672,0.019 4.3130216,4.2829814 0 0 0 -1.12278,-0.5559 8.5433451,8.4838407 0 0 0 -2.42369,-0.3885 21.552385,21.402273 0 0 0 -1.18958,-6.17495 9.2240137,9.1597684 0 0 0 1.44721,-1.01073 4.9555218,4.9210066 0 0 0 1.09416,-1.44346 1.342253,1.3329042 0 0 1 0.56299,-0.55274 2.2837386,2.2678323 0 1 0 -3.1807,-1.00126 2.1692336,2.1541249 0 0 1 -0.61705,0.7928 5.9956089,5.9538495 0 0 1 -0.55981,0.40745 c -2.13106,4.27666 -6.54268,7.46047 -11.60317,7.73526 v 20.31258 c 3.81683,-0.22741 6.90529,-2.15412 9.48165,-5.13579 0.20039,0.15793 0.36896,0.30006 0.51209,0.43272 a 1.5458175,1.5350508 0 0 1 0.40077,1.65192 2.2837386,2.2678323 0 1 0 3.84228,-0.73594 2.1660529,2.1509663 0 0 0 -0.26718,-0.24637 c -0.10496,-0.0821 -0.1813,-0.1295 -0.1813,-0.1295 -0.34987,-1.26341 -1.17686,-2.39101 -2.54455,-3.43017 a 20.483672,20.341003 0 0 0 2.71949,-8.42383 5.0573041,5.0220799 0 0 1 0.56298,0.0379 1.5267333,1.5160996 0 0 1 1.22457,0.94756 2.2837386,2.2678323 0 0 0 4.40526,-0.68856 2.3187262,2.3025763 0 0 0 -2.28692,-2.41944 z" style="stroke-width:.31696"/></svg>