<svg xmlns="http://www.w3.org/2000/svg" xmlns:svg="http://www.w3.org/2000/svg" xmlns:xlink="http://www.w3.org/1999/xlink" id="svg2868" width="406" height="306" version="1.1" viewBox="0 0 681.51 520.94"><metadata id="metadata2872"/><style id="style2741">.G{opacity:.24}.H{fill:#4fbefb}.I{fill:#fff}</style><defs id="defs2762"><linearGradient id="A" x1="486.03" x2="449.74" y1="221.36" y2="315.1" gradientUnits="userSpaceOnUse"><stop id="stop2743" offset="0" stop-color="#010101" stop-opacity="0"/><stop id="stop2745" offset=".95" stop-color="#010101"/></linearGradient><linearGradient id="B" x1="475.54" x2="566.26" y1="295.98" y2="121.93" gradientUnits="userSpaceOnUse"><stop id="stop2748" offset="0" stop-color="#fff" stop-opacity="0"/><stop id="stop2750" offset=".95" stop-color="#fff"/></linearGradient><linearGradient id="C" x1="485.73" x2="502.36" y1="265.76" y2="169.38" xlink:href="#B"/><linearGradient id="D" x1="492.98" x2="505.45" y1="225.57" y2="200.34" gradientTransform="matrix(0.71194477,0,0,0.67319453,83.214935,49.721524)" xlink:href="#A"/><linearGradient id="E" x1="482.56" x2="522.88" y1="175.24" y2="175.24" gradientTransform="matrix(0.71194477,0,0,0.67319453,83.214935,49.721524)" xlink:href="#B"/><linearGradient id="F" x1="462.82" x2="483.76" y1="158.03" y2="158.03" xlink:href="#A"/><linearGradient id="G" x1="447.78" x2="468.73" y1="205.13" y2="205.13" gradientTransform="matrix(-0.97,-0.24,-0.24,0.97,1017.13,122.17)" xlink:href="#A"/><linearGradient id="H" x1="521.62" x2="281.23" y1="265.18" y2="322.26" xlink:href="#B"/><linearGradient id="I" x1="498.55" x2="510.21" y1="123.11" y2="123.11" gradientTransform="matrix(0.71194477,0,0,0.67319453,84.617466,81.85983)" xlink:href="#A"/><path id="J" d="M510.03 232.73q-1.28 15.9-7 23-7.37 9.12-20.82 9.14-13 0-20.66-9.34c-5-6.2-7.53-16.27-7.57-30.33a79.16 79.16 0 0 1 2.17-7.73 27.88 27.88 0 0 0 9.18-8.5c3.51-5.19 5.32-11.55 9.71-16 1.49-1.49 3.22-2.78 4.31-4.56a9.14 9.14 0 0 0 1.25-3.78c.36-2.66-.08-5.56-.12-8.3a26.72 26.72 0 0 1 3.94-14.21c8.34.12 16.55 3.9 24.73 5.39 3.58 6-2.66 13.74-.93 20.54.61 2.42 2.22 4.47 2.9 6.89 1.13 4.11-.6 8.13-2.29 12.24a41.35 41.35 0 0 0-1.94 5.68c-1.6 6.62.5 13.4 3.14 19.87z"/><path id="K" d="M477.73 140.52c-5.55 5.27-11.31 10.86-13.62 18.16-1.73 5.43-1.36 11.27-1 17 .11 1.53.43 3.37 1.86 3.92 1.62.62 3.2-.94 4.19-2.36 3.36-4.82 6.19-10.19 10.84-13.77a8.74 8.74 0 0 0 2.14-2 7.17 7.17 0 0 0 .81-3.73c.26-7.1.74-14.33.78-21.37-2.38.62-4.16 2.39-6 4.15z"/><linearGradient id="linearGradient2874" x1="486.03" x2="449.74" y1="221.36" y2="315.1" gradientUnits="userSpaceOnUse" xlink:href="#A"/><linearGradient id="linearGradient2876" x1="475.54" x2="566.26" y1="295.98" y2="121.93" gradientUnits="userSpaceOnUse" xlink:href="#B"/></defs><path id="path2764" d="m 564.29026,247.67437 c -7.76732,24.66585 -22.07029,46.95532 -35.89626,69.10342 -6.36478,10.13831 -12.81501,20.71419 -14.18905,32.42778 -1.00385,8.69767 0.83296,17.50306 0.17086,26.21419 -1.85818,24.888 -24.36987,45.16462 -49.55848,52.63708 -25.1886,7.47246 -52.47032,4.47001 -78.31392,-0.67319 -25.8436,-5.14321 -51.40242,-12.35985 -77.77997,-13.20135 -18.98045,-0.59914 -37.84698,2.08691 -56.59961,4.85374 -22.73951,3.36597 -45.96315,6.73194 -68.61011,2.95532 -22.64697,-3.77662 -45.02339,-16.14994 -53.82303,-36.27172 -10.95683,-25.02264 1.42389,-54.1383 -5.33959,-80.46694 -1.9792,-7.79559 -5.53892,-14.96512 -9.74652,-21.93268 -3.15392,-5.25765 -6.67804,-10.38066 -10.17369,-15.48347 -6.108487,-8.97369 -12.103063,-18.05508 -15.798055,-28.03182 -9.689569,-26.16034 -1.409651,-57.41676 20.212115,-76.17869 39.15696,-34.02325 99.43021,-22.52509 144.52478,-44.76071 49.75071,-24.558133 91.12894,-51.398398 150.07797,-28.004889 16.31064,6.482864 31.07639,16.082619 47.45111,22.477969 13.73342,5.38555 28.41372,8.32068 42.54582,12.70991 l 1.27438,0.41738 a 160.07366,151.36106 0 0 1 20.30467,7.91677 c 18.51056,8.75153 34.88529,21.19889 44.61045,38.22398 12.97164,22.60587 12.40208,50.39534 4.65613,75.06792 z" class="G H" style="stroke-width:.692299;opacity:.501;fill:#acf"/><path id="path2766" fill="#59f" d="m 504.94254,130.26252 -0.81161,55.34331 -14.32433,7.4388 -3.63092,-41.21969 -145.40048,91.55445 -75.815,-59.69216 -150.35562,99.63279 c -3.15392,-5.25765 -6.67804,-10.38066 -10.17369,-15.48347 l 161.53315,-107.11198 76.12114,59.98836 132.17966,-81.28824 c 0.14239,0.0404 -37.93954,-12.59547 -37.93954,-12.59547 1.12488,-0.76071 8.04498,-8.07833 9.25529,-8.90636 l 49.12419,8.53611 c 6.94146,2.19461 3.67363,0.71358 10.23776,3.80355 z" style="stroke-width:.692299;opacity:.98688525;fill:#2a7fff;fill-opacity:1"/><g id="g2778" class="H" transform="matrix(0.71194476,0,0,0.67319453,84.617466,81.85983)" style="opacity:1"><rect id="rect2768" width="100.68" height="35.27" x="539.97" y="146.03" class="G" rx="9.9"/><rect id="rect2770" width="144.33" height="50.56" x="438.61" y="421.36" class="G" rx="14.19"/><rect id="rect2772" width="131.43" height="46.56" x="61.58" y="304" class="G" rx="12.99"/><rect id="rect2774" width="102.57" height="39.78" x="103.23" y="415.5" class="G" rx="10.61"/><path id="path2776" d="m 408.46,242.81 q 0,-36.75 18.85,-57.22 18.85,-20.47 52.51,-20.47 34.5,0 53.16,20.11 18.66,20.11 18.67,56.35 0,26.31 -8.16,43.15 a 61,61 0 0 1 -23.57,26.2 q -15.4,9.33 -38.41,9.33 -23.37,0 -38.69,-8.09 -15.32,-8.09 -24.79,-25.55 -9.57,-17.5 -9.57,-43.81 z m 42.7,0.21 q 0,22.73 7.78,32.65 7.78,9.92 21.16,9.93 13.76,0 21.3,-9.73 7.54,-9.73 7.54,-34.9 0,-21.19 -7.87,-31 -7.87,-9.81 -21.35,-9.71 a 25.1,25.1 0 0 0 -20.69,9.9 q -7.86,9.93 -7.87,32.86 z m -320.22,26.41 40.86,-2.56 q 1.33,10 5.41,15.17 6.63,8.45 19,8.44 9.2,0 14.17,-4.32 4.97,-4.32 5,-10 0,-5.4 -4.74,-9.67 -4.74,-4.27 -22,-8.06 -28.25,-6.35 -40.29,-16.87 a 33.94,33.94 0 0 1 -12.13,-26.83 36.44,36.44 0 0 1 6.21,-20.24 q 6.21,-9.53 18.67,-15 12.46,-5.47 34.18,-5.45 26.64,0 40.62,9.91 13.98,9.91 16.64,31.52 l -40.51,2.39 q -1.62,-9.39 -6.78,-13.65 -5.16,-4.26 -14.27,-4.27 -7.48,0 -11.28,3.18 a 9.73,9.73 0 0 0 -3.79,7.73 7.73,7.73 0 0 0 3.13,6 q 3,2.74 14.41,5.12 28.16,6.06 40.34,12.27 12.18,6.21 17.72,15.41 a 39,39 0 0 1 5.52,20.54 44.07,44.07 0 0 1 -7.4,24.65 46.2,46.2 0 0 1 -20.66,17.11 q -13.27,5.83 -33.47,5.83 -35.44,0 -49.1,-13.65 -13.66,-13.65 -15.46,-34.7 z m 147.61,-93 h 115.09 v 29.68 h -72.05 v 22.08 h 66.83 v 28.35 h -66.83 v 27.4 h 74.13 v 31.47 H 278.55 Z" opacity=".37"/></g><g id="g2784" class="I" transform="matrix(0.71194476,0,0,0.67319453,84.617466,81.85983)" style="opacity:1"><path id="path2780" d="m 132.08,247.32 40.86,-2.56 q 1.32,10 5.4,15.17 6.65,8.44 19,8.44 9.19,0 14.17,-4.32 4.98,-4.32 5,-10 0,-5.4 -4.74,-9.67 -4.74,-4.27 -22,-8.06 -28.26,-6.35 -40.29,-16.87 a 34,34 0 0 1 -12.14,-26.83 36.44,36.44 0 0 1 6.21,-20.24 q 6.21,-9.52 18.68,-15 12.47,-5.48 34.17,-5.45 26.64,0 40.63,9.91 13.99,9.91 16.63,31.52 l -40.48,2.37 q -1.6,-9.39 -6.78,-13.65 -5.18,-4.26 -14.26,-4.27 -7.5,0 -11.28,3.18 a 9.73,9.73 0 0 0 -3.8,7.72 7.73,7.73 0 0 0 3.13,6 q 3,2.76 14.41,5.13 28.15,6.06 40.34,12.27 12.19,6.21 17.73,15.41 a 39.12,39.12 0 0 1 5.54,20.57 44.14,44.14 0 0 1 -7.39,24.65 46.29,46.29 0 0 1 -20.67,17.11 q -13.27,5.84 -33.46,5.83 -35.46,0 -49.11,-13.65 -13.65,-13.65 -15.5,-34.71 z m 147.6,-93 h 115.09 v 29.67 h -72.05 v 22.09 h 66.84 v 28.35 h -66.84 v 27.4 h 74.14 v 31.43 H 279.68 Z"/><rect id="rect2782" width="397.62" height="46.87" x="138.15" y="358.59" rx="14.43"/></g><g id="g2792" class="H" transform="matrix(0.71194476,0,0,0.67319453,84.617466,81.85983)" style="opacity:1"><path id="path2786" d="m 527.32,357.7 a 16.2,16.2 0 0 0 -6,-1.13 H 152.59 c -9.078,0.005 -16.442,7.352 -16.47,16.43 v 18 c 0.022,9.082 7.388,16.435 16.47,16.44 h 368.77 c 9.053,-0.06 16.375,-7.387 16.43,-16.44 v -18 a 16.43,16.43 0 0 0 -10.47,-15.3 z m 6.45,33.34 c -0.016,6.847 -5.563,12.394 -12.41,12.41 H 152.59 c -6.86,0 -12.428,-5.55 -12.45,-12.41 v -18 c 0.028,-6.856 5.594,-12.4 12.45,-12.4 h 368.77 c 6.843,0.016 12.388,5.557 12.41,12.4 z" class="G"/><path id="path2788" d="m 152.41,386.53 a 5.38,5.38 0 0 0 2.69,0.81 c 1.48,0 2.17,-0.74 2.17,-1.67 0,-0.93 -0.58,-1.5 -2.08,-2.06 -2,-0.72 -3,-1.83 -3,-3.17 0,-1.81 1.46,-3.29 3.87,-3.29 a 5.62,5.62 0 0 1 2.76,0.69 l -0.51,1.49 a 4.34,4.34 0 0 0 -2.29,-0.65 c -1.21,0 -1.88,0.69 -1.88,1.53 0,0.84 0.67,1.34 2.13,1.9 1.95,0.73 2.94,1.71 2.94,3.38 0,2 -1.53,3.36 -4.19,3.36 a 6.43,6.43 0 0 1 -3.15,-0.77 z m 10.62,-3.15 a 3.59,3.59 0 0 0 3.8,3.88 7.29,7.29 0 0 0 3.11,-0.58 l 0.35,1.46 a 9,9 0 0 1 -3.73,0.7 c -3.46,0 -5.52,-2.27 -5.52,-5.66 0,-3.39 2,-6 5.26,-6 3.66,0 4.63,3.22 4.63,5.28 a 9.05,9.05 0 0 1 -0.06,0.95 z m 6,-1.46 c 0,-1.3 -0.54,-3.31 -2.83,-3.31 -2.06,0 -3,1.89 -3.13,3.31 z m 10.63,6.69 -0.16,-1.41 h -0.07 a 4.19,4.19 0 0 1 -3.43,1.67 3.2,3.2 0 0 1 -3.43,-3.22 c 0,-2.71 2.41,-4.19 6.74,-4.17 v -0.22 a 2.31,2.31 0 0 0 -2.54,-2.6 5.55,5.55 0 0 0 -2.92,0.84 l -0.47,-1.35 a 7,7 0 0 1 3.69,-1 c 3.43,0 4.26,2.34 4.26,4.58 v 4.2 a 15.62,15.62 0 0 0 0.18,2.68 z m -0.3,-5.72 c -2.22,-0.05 -4.75,0.35 -4.75,2.53 a 1.8,1.8 0 0 0 1.92,1.94 2.78,2.78 0 0 0 2.71,-1.87 2.13,2.13 0 0 0 0.12,-0.65 z m 5.25,-1.99 -0.09,-3.5 h 1.78 l 0.07,2.2 h 0.09 a 3.37,3.37 0 0 1 3.11,-2.45 2.1,2.1 0 0 1 0.58,0.07 v 1.92 a 2.91,2.91 0 0 0 -0.7,-0.07 2.86,2.86 0 0 0 -2.73,2.62 5.29,5.29 0 0 0 -0.09,0.95 v 6 h -2 z m 15.33,7.3 a 7.45,7.45 0 0 1 -3.22,0.65 c -3.38,0 -5.58,-2.3 -5.58,-5.73 a 5.69,5.69 0 0 1 6,-5.95 6.83,6.83 0 0 1 2.83,0.58 l -0.47,1.58 a 4.67,4.67 0 0 0 -2.36,-0.54 c -2.57,0 -4,1.9 -4,4.24 a 3.85,3.85 0 0 0 3.89,4.2 5.84,5.84 0 0 0 2.5,-0.56 z m 2.38,-16.03 h 2 v 7 a 3.88,3.88 0 0 1 1.46,-1.44 4.29,4.29 0 0 1 2.09,-0.57 c 1.51,0 3.91,0.92 3.91,4.79 v 6.67 h -2 v -6.44 c 0,-1.8 -0.67,-3.33 -2.59,-3.33 a 2.93,2.93 0 0 0 -2.73,2 2.37,2.37 0 0 0 -0.14,1 v 6.76 h -2 z" opacity=".56"/><path id="path2790" d="m 537.79,373 v 18 a 16.23,16.23 0 0 1 -6.56,13.09 h -48 V 357.7 h 44.1 a 16.43,16.43 0 0 1 10.46,15.3 z"/></g><g id="g2798" class="I" transform="matrix(0.71194476,0,0,0.67319453,84.617466,81.85983)" style="opacity:1"><path id="path2794" d="m 504.41,390.1 a 14.13,14.13 0 1 1 14.12,-14.12 c -0.017,7.791 -6.329,14.103 -14.12,14.12 z m 0,-24.32 a 10.2,10.2 0 1 0 10.19,10.2 c 0,-5.629 -4.561,-10.194 -10.19,-10.2 z"/><path id="path2796" d="m 509.397,385.878 3.326,-2.63 9.373,11.851 -3.326,2.63 z M 533.85,170.39 q -18.26,-18.9 -51.91,-18.93 -32.87,0 -51.31,19.25 c -12.24,12.89 -18.41,30.81 -18.41,53.89 q 0,24.77 9.31,41.24 9.31,16.47 24.28,24.08 14.93,7.62 37.78,7.61 22.47,0 37.49,-8.82 a 58.46,58.46 0 0 0 23,-24.64 q 7.9,-15.9 7.93,-40.64 0.02,-34.06 -18.16,-53.04 z m -79.9,54.41 q 0,-21.63 7.61,-30.93 a 24.49,24.49 0 0 1 19,-9.26 6.51,6.51 0 0 1 1.25,-0.08 q 13.15,0 20.86,9.18 a 31.51,31.51 0 0 1 6.12,13.45 70.66,70.66 0 0 1 1.57,15.71 c 0,3.54 -0.12,6.8 -0.36,9.86 q -1.28,15.9 -7,23 -7.37,9.12 -20.82,9.14 -13,0 -20.66,-9.34 c -5,-6.2 -7.53,-16.27 -7.57,-30.33 z"/></g><use id="use2800" width="100%" height="100%" x="0" y="0" class="H" transform="matrix(0.71194476,0,0,0.67319453,84.617466,81.85983)" xlink:href="#J" style="opacity:1"/><g id="g2808" transform="matrix(0.71194476,0,0,0.67319453,83.214935,49.721524)" style="opacity:1"><use id="use2802" width="100%" height="100%" x="1.97" y="47.74" fill="url(#A)" xlink:href="#J" style="fill:url(#linearGradient2874)"/><path id="path2804" fill="url(#B)" d="m 506.89,283.07 q -1,15.89 -5.25,23 c -3.68,6.08 -8.87,9.15 -15.6,9.15 q -9.78,0 -15.48,-9.35 c -3.74,-6.2 -5.64,-16.27 -5.67,-30.32 q 0.67,-4 1.63,-7.73 a 25.16,25.16 0 0 0 6.88,-8.5 c 2.62,-5.2 4,-11.56 7.27,-16 a 26.11,26.11 0 0 0 3.23,-4.55 11.46,11.46 0 0 0 0.93,-3.79 76.65,76.65 0 0 0 -0.09,-8.29 33.79,33.79 0 0 1 3,-14.22 c 6.24,0.12 12.4,3.91 18.52,5.4 2.69,6 -2,13.73 -0.69,20.54 0.45,2.41 1.66,4.47 2.17,6.88 0.85,4.11 -0.45,8.14 -1.72,12.25 a 53.49,53.49 0 0 0 -1.45,5.67 c -1.21,6.61 0.36,13.41 2.32,19.86 z" style="fill:url(#linearGradient2876)"/><path id="path2806" fill="url(#C)" d="m 486.64,243.89 1.3,-1.45 a 31.82,31.82 0 0 1 -7,20.75 c -2.17,2.68 -4.87,5.16 -5.71,8.51 A 39.79,39.79 0 0 0 492.39,246 c 0.7,-3.71 1,-7.77 3.36,-10.7 l 0.49,5.11 a 104.84,104.84 0 0 0 5.37,-12.24 c 0.3,-0.81 0.54,-1.85 -0.11,-2.42 a 2.24,2.24 0 0 0 -1.27,-0.41 c -4,-0.39 -8.44,-1.72 -10.5,2.34 -2.35,4.66 -2.89,11.11 -3.09,16.21 z" style="fill:url(#C)"/></g><path id="path2810" d="m 428.35152,192.76189 c 0,0 -0.4058,5.53366 0.71194,7.15606 1.11776,1.6224 8.67861,4.77295 11.60471,3.36597 a 19.792064,18.714808 0 0 0 4.94802,-3.52754 l 1.47372,-5.11627 z" class="H" style="stroke-width:.692299;opacity:1"/><path id="path2812" fill="url(#D)" d="m 428.35152,192.76189 c 0,0 -0.4058,5.53366 0.71194,7.15606 1.11776,1.6224 8.67861,4.77295 11.60471,3.36597 a 19.792064,18.714808 0 0 0 4.94802,-3.52754 l 1.47372,-5.11627 z" style="fill:url(#D);stroke-width:.692299;opacity:1"/><path id="path2814" d="m 426.771,183.82187 c 0,0 3.22512,-41.73806 20.44705,-46.30905 17.22195,-4.57099 2.13584,55.47123 2.13584,55.47123 0,0 -22.58289,16.28457 -22.58289,-9.16218 z" class="H" style="stroke-width:.692299;opacity:1"/><path id="path2816" fill="url(#E)" d="m 426.771,183.82187 c 0,0 3.22512,-41.73806 20.44705,-46.30905 17.22195,-4.57099 2.13584,55.47123 2.13584,55.47123 0,0 -22.58289,16.28457 -22.58289,-9.16218 z" style="fill:url(#E);stroke-width:.692299;opacity:1"/><use id="use2818" width="100%" height="100%" x="0" y="0" class="H" transform="matrix(0.71194476,0,0,0.67319453,84.617466,81.85983)" xlink:href="#K" style="opacity:1"/><use id="use2820" width="100%" height="100%" x="0" y="0" fill="url(#F)" transform="matrix(0.71194476,0,0,0.67319453,84.617466,81.85983)" xlink:href="#K" style="fill:url(#F);opacity:1"/><path id="path2822" d="m 455.70444,180.7925 c 2.95457,4.33537 5.99458,8.91309 6.36479,14.04956 0.27766,3.83048 -0.96824,7.59364 -2.19279,11.24908 -0.3275,0.98287 -0.86146,2.13403 -1.94361,2.26867 -1.23167,0.1481 -2.05753,-1.12423 -2.50605,-2.21481 -1.50932,-3.68237 -2.563,-7.64749 -5.17584,-10.73072 a 6.2722334,5.9308438 0 0 1 -1.14623,-1.62913 5.1971968,4.91432 0 0 1 0.0641,-2.5716 c 1.01808,-4.71237 1.90089,-9.48531 3.06848,-14.13709 1.55915,0.83476 2.49181,2.2754 3.46717,3.71604 z" class="H" style="stroke-width:.692299;opacity:1"/><g id="g2828" transform="matrix(0.71194476,0,0,0.67319453,83.214935,49.721524)" style="opacity:1"><path id="path2824" fill="url(#G)" d="m 523.17,194.88 c 4.14,6.43 8.41,13.23 8.93,20.87 0.39,5.68 -1.35,11.27 -3.08,16.71 -0.46,1.46 -1.21,3.17 -2.73,3.36 -1.72,0.22 -2.89,-1.67 -3.52,-3.29 -2.12,-5.47 -3.6,-11.35 -7.26,-15.93 a 8.59,8.59 0 0 1 -1.61,-2.42 7.19,7.19 0 0 1 0.08,-3.82 l 4.31,-21 c 2.2,1.24 3.5,3.38 4.88,5.52 z" style="fill:url(#G)"/><path id="path2826" fill="url(#H)" d="m 495.72,248.4 a 33,33 0 0 0 -2.42,7.78 c -0.36,2.66 -0.06,5.37 -0.3,8 -0.47,5.42 -3.08,10.39 -4.53,15.64 -2.06,7.48 -1.71,15.38 -1.34,23.12 L 496,274.4 a 44.59,44.59 0 0 0 2,-8 62.5,62.5 0 0 0 -0.05,-9.28 93.07,93.07 0 0 1 1.1,-16.17 c -1.53,2.13 -2.34,4.99 -3.33,7.45 z" style="fill:url(#H)"/></g><ellipse id="circle2830" cx="443.744" cy="164.75" class="H" rx="5.098" ry="4.82" style="stroke-width:.692299;opacity:1"/><ellipse id="circle2832" cx="443.708" cy="164.737" fill="url(#I)" rx="4.151" ry="3.925" style="fill:url(#I);stroke-width:.692299;opacity:1"/><rect id="rect2834" width="98.761" height="32.711" x="400.757" y="370.627" class="I" rx="9.711" style="stroke-width:.692299;opacity:1"/><g id="g2840" class="H" transform="matrix(0.71194476,0,0,0.67319453,84.617466,81.85983)" style="opacity:1"><rect id="rect2836" width="112.33" height="4.18" x="458.41" y="442.27" class="G" rx="2.09"/><rect id="rect2838" width="79.06" height="3.95" x="458.41" y="453.83" class="G" rx="1.7"/></g><rect id="rect2842" width="98.761" height="32.711" x="119.602" y="279.422" class="I" rx="9.711" style="stroke-width:.692299;opacity:1"/><g id="g2848" class="H" transform="matrix(0.71194476,0,0,0.67319453,84.617466,81.85983)" style="opacity:1"><rect id="rect2844" width="112.33" height="4.18" x="63.51" y="306.79" class="G" rx="2.09"/><rect id="rect2846" width="79.06" height="3.95" x="63.51" y="318.35" class="G" rx="1.7"/></g><rect id="rect2850" width="71.679" height="23.744" x="156.403" y="364.965" class="I" rx="7.048" style="stroke-width:.692299;opacity:1"/><g id="g2856" class="H" transform="matrix(0.71194476,0,0,0.67319453,84.617466,81.85983)" style="opacity:1"><rect id="rect2852" width="81.53" height="3.03" x="111.26" y="430.21" class="G" rx="1.52"/><rect id="rect2854" width="57.39" height="2.87" x="111.26" y="438.6" class="G" rx="1.24"/></g><rect id="rect2858" width="71.679" height="23.744" x="471.403" y="172.788" class="I" rx="7.048" style="stroke-width:.692299;opacity:1"/><g id="g2866" class="H" transform="matrix(0.71194476,0,0,0.67319453,84.617466,81.85983)" style="opacity:1"><rect id="rect2860" width="81.53" height="3.03" x="553.71" y="144.74" class="G" rx="1.52"/><rect id="rect2862" width="57.39" height="2.87" x="553.71" y="153.13" class="G" rx="1.24"/><path id="path2864" d="m 216.01,365.39 h 1.51 v 29.48 h -1.51 z" class="G"/></g></svg>