<svg xmlns="http://www.w3.org/2000/svg" xmlns:v="https://vecta.io/nano" xmlns:xlink="http://www.w3.org/1999/xlink" viewBox="0 0 1329.835 845.45"><style>.B{stroke-width:2.026}.C{stroke-width:2.017}</style><defs><linearGradient id="A" gradientUnits="userSpaceOnUse"><stop offset="0" stop-color="#0684ff"/><stop offset="1" stop-color="#0684ff" stop-opacity="0"/></linearGradient><linearGradient id="B" x1="-506.288" x2="490.369" y1="135.105" y2="244.6" xlink:href="#A"/><linearGradient id="C" x1="0" x2="489.2" y1="244.6" y2="244.6" xlink:href="#A"/><linearGradient x1="0" x2="489.2" y1="244.6" y2="244.6" xlink:href="#A"/><linearGradient id="E" x1="0" x2="489.2" y1="244.6" y2="244.6" xlink:href="#A"/><path id="F" d="M136.7 367.7l45.4-78.8-45.4-78.9H45.4L0 288.9l45.4 78.8z"/><path id="G" d="M335.8 200.3L290 121.5h-90.8l-45.5 78.8 45.5 78.9H290z"/><path id="H" d="M290 298.6h-90.8l-45.5 78.8 45.5 79.2H290l45.8-79.2z"/><path id="I" d="M45.4 190.6h91.3l45.4-78.8-45.4-79.2H45.4L0 111.8z"/><path id="J" d="M443.8 32.6h-91.3l-45.4 78.8 45.4 79.2h91.3l45.4-78.8z"/><path id="K" d="M182.1 288.9L136.7 210H45.4L0 288.9l45.4 78.8h91.3z"/><path id="L" d="M290 121.5h-90.8l-45.5 78.8 45.5 78.9H290l45.8-78.9z"/><path id="M" d="M199.2 298.6l-45.5 78.8 45.5 79.2H290l45.8-79.2-45.8-78.8z"/><path id="N" d="M136.7 190.6l45.4-78.8-45.4-79.2H45.4L0 111.8l45.4 78.8z"/><path id="O" d="M352.5 32.6l-45.4 78.8 45.4 79.2h91.3l45.4-78.8-45.4-79.2z"/><path id="P" d="M136.7 210H45.4L0 288.9l45.4 78.8h91.3l45.4-78.8z"/><path id="Q" d="M199.2 121.5l-45.5 78.8 45.5 78.9H290l45.8-78.9-45.8-78.8z"/><path id="R" d="M153.7 377.4l45.5 79.2H290l45.8-79.2-45.8-78.8h-90.8z"/><path id="S" d="M182.1 111.8l-45.4-79.2H45.4L0 111.8l45.4 78.8h91.3z"/><path id="T" d="M307.1 111.4l45.4 79.2h91.3l45.4-78.8-45.4-79.2h-91.3z"/><path id="U" d="M45.4 210L0 288.9l45.4 78.8h91.3l45.4-78.8-45.4-78.9z"/><path id="V" d="M153.7 200.3l45.5 78.9H290l45.8-78.9-45.8-78.8h-90.8z"/><path id="W" d="M199.2 456.6H290l45.8-79.2-45.8-78.8h-90.8l-45.5 78.8z"/><path id="X" d="M136.7 32.6H45.4L0 111.8l45.4 78.8h91.3l45.4-78.8z"/><path id="Y" d="M352.5 190.6h91.3l45.4-78.8-45.4-79.2h-91.3l-45.4 78.8z"/><path id="Z" d="M45.4 367.7h91.3l45.4-78.8-45.4-78.9H45.4L0 288.9z"/><path id="a" d="M290 279.2l45.8-78.9-45.8-78.8h-90.8l-45.5 78.8 45.5 78.9z"/><path id="b" d="M335.8 377.4L290 298.6h-90.8l-45.5 78.8 45.5 79.2H290z"/><path id="c" d="M0 111.8l45.4 78.8h91.3l45.4-78.8-45.4-79.2H45.4z"/><path id="d" d="M489.2 111.8l-45.4-79.2h-91.3l-45.4 78.8 45.4 79.2h91.3z"/><path id="e" d="M0 288.9l45.4 78.8h91.3l45.4-78.8-45.4-78.9H45.4z"/><path id="f" d="M199.2 279.2H290l45.8-78.9-45.8-78.8h-90.8l-45.5 78.8z"/><path id="g" d="M290 456.6l45.8-79.2-45.8-78.8h-90.8l-45.5 78.8 45.5 79.2z"/><path id="h" d="M45.4 32.6L0 111.8l45.4 78.8h91.3l45.4-78.8-45.4-79.2z"/><path id="i" d="M443.8 190.6l45.4-78.8-45.4-79.2h-91.3l-45.4 78.8 45.4 79.2z"/></defs><g stroke="#06f"><path stroke-width="1.326" d="M-32.171.663h1361.343v844.124H-32.171z"/><g class="B" transform="matrix(.41354 0 0 .39713 45.405 61.873)"><use fill="url(#B)" xlink:href="#F"/><use fill="url(#B)" xlink:href="#G"/><use fill="url(#B)" xlink:href="#H"/><use fill="url(#B)" xlink:href="#I"/><use fill="url(#B)" xlink:href="#J"/></g><g class="B" transform="matrix(.41354 0 0 .39713 172.402 -8.578)"><use fill="url(#B)" xlink:href="#K"/><use fill="url(#B)" xlink:href="#L"/><use fill="url(#B)" xlink:href="#M"/><use fill="url(#B)" xlink:href="#N"/><use fill="url(#B)" xlink:href="#O"/></g><g class="B" transform="matrix(.41354 0 0 .39713 45.087 556.177)"><use fill="url(#B)" xlink:href="#K"/><use fill="url(#B)" xlink:href="#L"/><use fill="url(#B)" xlink:href="#M"/><use fill="url(#B)" xlink:href="#N"/><use fill="url(#B)" xlink:href="#O"/></g><g class="B" transform="matrix(.41354 0 0 .39713 -18.032 167.509)"><use fill="url(#B)" xlink:href="#F"/><use fill="url(#B)" xlink:href="#G"/><use fill="url(#B)" xlink:href="#H"/><use fill="url(#B)" xlink:href="#I"/><use fill="url(#B)" xlink:href="#J"/></g><g class="B" transform="matrix(.41354 0 0 .39713 1159.9618 -34.760979)"><use fill="url(#B)" xlink:href="#K"/><use fill="url(#B)" xlink:href="#L"/><use fill="url(#B)" xlink:href="#M"/><use fill="url(#B)" xlink:href="#N"/><use fill="url(#B)" xlink:href="#O"/></g><g class="B" transform="matrix(.41354 0 0 .39713 1096.5661 70.875601)"><use fill="url(#B)" xlink:href="#K"/><use fill="url(#B)" xlink:href="#L"/><use fill="url(#B)" xlink:href="#M"/><use fill="url(#B)" xlink:href="#N"/><use fill="url(#B)" xlink:href="#O"/></g><g class="B" transform="matrix(.41354 0 0 .39713 1159.9611 176.5116)"><use fill="url(#B)" xlink:href="#P"/><use fill="url(#B)" xlink:href="#Q"/><use fill="url(#B)" xlink:href="#R"/><use fill="url(#B)" xlink:href="#S"/><use fill="url(#B)" xlink:href="#T"/></g><g class="B" transform="matrix(.41354 0 0 .39713 1032.9651 247.0016)"><use fill="url(#B)" xlink:href="#U"/><use fill="url(#B)" xlink:href="#V"/><use fill="url(#B)" xlink:href="#W"/><use fill="url(#B)" xlink:href="#X"/><use fill="url(#B)" xlink:href="#Y"/></g><g class="B" transform="matrix(.41354 0 0 .39713 778.97009 598.9366)"><use fill="url(#B)" xlink:href="#K"/><use fill="url(#B)" xlink:href="#L"/><use fill="url(#B)" xlink:href="#M"/><use fill="url(#B)" xlink:href="#N"/><use fill="url(#B)" xlink:href="#O"/></g><g class="B" transform="matrix(.41354 0 0 .39713 905.96709 528.6046)"><use fill="url(#B)" xlink:href="#K"/><use fill="url(#B)" xlink:href="#L"/><use fill="url(#B)" xlink:href="#M"/><use fill="url(#B)" xlink:href="#N"/><use fill="url(#B)" xlink:href="#O"/></g><g class="B" transform="matrix(.41354 0 0 .39713 1159.9611 387.8226)"><use fill="url(#B)" xlink:href="#Z"/><use fill="url(#B)" xlink:href="#a"/><use fill="url(#B)" xlink:href="#b"/><use fill="url(#B)" xlink:href="#c"/><use fill="url(#B)" xlink:href="#d"/></g><g class="B" transform="matrix(.41354 0 0 .39713 1096.3601 563.9096)"><use fill="url(#B)" xlink:href="#U"/><use fill="url(#B)" xlink:href="#V"/><use fill="url(#B)" xlink:href="#W"/><use fill="url(#B)" xlink:href="#X"/><use fill="url(#B)" xlink:href="#Y"/></g><g class="B" transform="matrix(.41354 0 0 .39713 1032.9651 458.2736)"><use fill="url(#B)" xlink:href="#U"/><use fill="url(#B)" xlink:href="#V"/><use fill="url(#B)" xlink:href="#W"/><use fill="url(#B)" xlink:href="#X"/><use fill="url(#B)" xlink:href="#Y"/></g><g class="B" transform="matrix(.41354 0 0 .39713 1159.7551 669.5456)"><use fill="url(#B)" xlink:href="#P"/><use fill="url(#B)" xlink:href="#Q"/><use fill="url(#B)" xlink:href="#R"/><use fill="url(#B)" xlink:href="#S"/><use fill="url(#B)" xlink:href="#T"/></g><g class="B" transform="matrix(.41354 0 0 .39713 969.36209 634.2416)"><use fill="url(#B)" xlink:href="#F"/><use fill="url(#B)" xlink:href="#G"/><use fill="url(#B)" xlink:href="#H"/><use fill="url(#B)" xlink:href="#I"/><use fill="url(#B)" xlink:href="#J"/></g><g class="B" transform="matrix(.41354 0 0 .39713 299.399 61.873)"><use fill="url(#B)" xlink:href="#P"/><use fill="url(#B)" xlink:href="#Q"/><use fill="url(#B)" xlink:href="#R"/><use fill="url(#B)" xlink:href="#S"/><use fill="url(#B)" xlink:href="#T"/></g><g class="B" transform="matrix(.41354 0 0 .39713 651.97309 669.4266)"><use fill="url(#B)" xlink:href="#U"/><use fill="url(#B)" xlink:href="#V"/><use fill="url(#B)" xlink:href="#W"/><use fill="url(#B)" xlink:href="#X"/><use fill="url(#B)" xlink:href="#Y"/></g><g class="B" transform="matrix(.41354 0 0 .39713 426.396 -8.459)"><use fill="url(#B)" xlink:href="#K"/><use fill="url(#B)" xlink:href="#L"/><use fill="url(#B)" xlink:href="#M"/><use fill="url(#B)" xlink:href="#N"/><use fill="url(#B)" xlink:href="#O"/></g><g class="B" transform="matrix(.41354 0 0 .39713 -81.91 626.508)"><use fill="url(#B)" xlink:href="#P"/><use fill="url(#B)" xlink:href="#Q"/><use fill="url(#B)" xlink:href="#R"/><use fill="url(#B)" xlink:href="#S"/><use fill="url(#B)" xlink:href="#T"/></g><g class="B" transform="matrix(.41354 0 0 .39713 172.084 556.177)"><use fill="url(#B)" xlink:href="#P"/><use fill="url(#B)" xlink:href="#Q"/><use fill="url(#B)" xlink:href="#R"/><use fill="url(#B)" xlink:href="#S"/><use fill="url(#B)" xlink:href="#T"/></g><g class="B" transform="matrix(.41354 0 0 .39713 -18.515 450.541)"><use fill="url(#B)" xlink:href="#K"/><use fill="url(#B)" xlink:href="#L"/><use fill="url(#B)" xlink:href="#M"/><use fill="url(#B)" xlink:href="#N"/><use fill="url(#B)" xlink:href="#O"/></g><g class="B" transform="matrix(.41354 0 0 .39713 553.393 -78.79)"><use fill="url(#B)" xlink:href="#P"/><use fill="url(#B)" xlink:href="#Q"/><use fill="url(#B)" xlink:href="#R"/><use fill="url(#B)" xlink:href="#S"/><use fill="url(#B)" xlink:href="#T"/></g><g class="B" transform="matrix(.41354 0 0 .39713 299.363 626.92)"><use fill="url(#B)" xlink:href="#U"/><use fill="url(#B)" xlink:href="#V"/><use fill="url(#B)" xlink:href="#W"/><use fill="url(#B)" xlink:href="#X"/><use fill="url(#B)" xlink:href="#Y"/></g><g class="B" transform="matrix(.41354 0 0 .39713 -18.197 -43.764)"><use fill="url(#B)" xlink:href="#Z"/><use fill="url(#B)" xlink:href="#a"/><use fill="url(#B)" xlink:href="#b"/><use fill="url(#B)" xlink:href="#c"/><use fill="url(#B)" xlink:href="#d"/></g><g class="C" opacity=".725" transform="matrix(.41551 0 0 .39903 -82.51 344.338)"><use fill="url(#C)" xlink:href="#e"/><use fill="url(#C)" xlink:href="#f"/><use fill="url(#C)" xlink:href="#g"/><use fill="url(#C)" xlink:href="#h"/><use fill="url(#C)" xlink:href="#i"/></g><g class="C" opacity=".725" transform="matrix(.41551 0 0 .39903 1223.1635 281.77691)"><use fill="url(#E)" xlink:href="#e"/><use fill="url(#E)" xlink:href="#f"/><use fill="url(#E)" xlink:href="#g"/><use fill="url(#E)" xlink:href="#h"/><use fill="url(#E)" xlink:href="#i"/></g></g></svg>