<svg xmlns="http://www.w3.org/2000/svg" xmlns:svg="http://www.w3.org/2000/svg" id="e59edb86-a3bc-4694-8aac-31e565ca5cfc" width="676" height="676" data-name="Layer 1" version="1.1" viewBox="0 0 676 676"><metadata id="metadata1169"/><title id="title1134">male_avatar</title><path style="fill:#2a7fff;stroke-width:.704142" id="path1136" fill="#00b0ff" d="m 575.99979,337.99996 a 237.19154,237.1916 0 0 1 -19.16673,93.72129 l -0.78864,1.81668 A 238.39351,238.39357 0 0 1 296.70198,572.42991 q -2.1441,-0.38023 -4.28118,-0.78863 A 235.87417,235.87423 0 0 1 249.36958,558.9456 q -3.39045,-1.36252 -6.73159,-2.82361 c -1.52095,-0.66189 -3.0419,-1.34491 -4.54876,-2.04905 A 238.29158,238.29164 0 0 1 100,337.99996 C 100,206.55779 206.55776,100 337.9999,100 c 131.44213,0 237.99989,106.55779 237.99989,237.99996 z"/><path style="stroke-width:.704142" id="path1146" d="m 256.11842,270.06533 c -4.49275,25.34722 5.4251,48.29867 5.4251,48.29867 0,0 17.20203,-18.1445 21.69479,-43.49172 4.49274,-25.34723 -5.42511,-48.29868 -5.42511,-48.29868 0,0 -17.20204,18.14451 -21.69478,43.49173 z" opacity=".2"/><ellipse style="fill:#f4e3d7;stroke-width:.704142" id="circle1152" cx="337.511" cy="297.919" fill="#d0cde1" rx="92.785" ry="92.785"/><path style="fill:#f4e3d7;stroke-width:.704142" id="path1154" fill="#d0cde1" d="m 301.2672,368.95778 c 0,0 11.59811,55.09102 11.59811,60.89007 0,5.79905 55.091,31.89481 55.091,31.89481 l 49.29192,-8.69859 17.39723,-52.1915 c 0,0 -28.99527,-43.4929 -28.99527,-60.89007 z"/><path style="fill:#000;stroke-width:.704142" id="path1156" fill="#2f2e41" d="m 556.83306,431.72125 -0.78864,1.81668 A 238.39351,238.39357 0 0 1 296.70198,572.42991 q -2.1441,-0.38023 -4.28118,-0.78863 A 235.87417,235.87423 0 0 1 249.36958,558.9456 q -3.39045,-1.36252 -6.73159,-2.82361 c -1.52095,-0.66189 -3.0419,-1.34491 -4.54876,-2.04905 a 237.71312,237.71318 0 0 1 -38.90383,-22.7297 l -10.99869,-31.90467 6.18236,-4.71772 12.7168,-9.71011 13.56881,-10.35793 3.52775,-2.69686 53.24016,-40.64307 3.9291,-2.99965 27.67278,-21.12426 0.007,-0.007 c 0,0 29.92603,48.76183 73.42086,34.26354 C 425.94759,426.94723 424.997,385.3747 424.997,385.3747 Z"/><path style="fill:#1a1a1a;stroke-width:.704142" id="path1158" fill="#2f2e41" d="m 257.04851,223.16568 c 0,0 29.45885,-63.82751 85.92163,-49.09809 56.46279,14.72943 88.37653,36.82357 90.83147,58.91771 2.45493,22.09415 -1.22745,55.23534 -1.22745,55.23534 0,0 -6.1373,-45.41575 -45.41574,-35.59611 -39.27843,9.81963 -100.65105,2.45491 -100.65105,2.45491 l -9.81962,88.37655 c 0,0 -11.04707,-15.95687 -23.32159,-6.13725 -12.27451,9.81961 -35.5961,-94.51384 3.68235,-114.15306 z"/><path style="fill:#000;stroke-width:.704142" id="path1160" fill="#2f2e41" d="m 249.36958,558.9456 q -3.39045,-1.36252 -6.73159,-2.82361 c -1.52095,-0.66189 -3.0419,-1.34491 -4.54876,-2.04905 a 238.58785,238.58792 0 0 1 -61.67578,-41.33313 c 6.47107,-8.81586 11.77326,-13.30124 11.77326,-13.30124 h 43.49483 l 6.52035,21.92698 z"/><path style="fill:#000;stroke-width:.704142" id="path1162" fill="#2f2e41" d="m 518.73195,426.94716 37.31247,6.59077 a 237.96071,237.96076 0 0 1 -39.96708,62.36584 z"/><ellipse style="stroke-width:.0857536" id="circle151" cx="484.683" cy="456.607" rx="19.597" ry="19.421"/><g id="g935" transform="matrix(0.07655031,0,0,0.07586502,465.15148,437.20126)" style="fill:#06f"><g id="g933" style="fill:#06f"><path id="path931" d="M 437.02,74.98 C 388.667,26.628 324.38,0 256,0 187.62,0 123.333,26.628 74.98,74.98 26.628,123.333 0,187.62 0,256 0,324.38 26.628,388.667 74.98,437.02 123.333,485.372 187.62,512 256,512 324.38,512 388.667,485.372 437.02,437.02 485.372,388.667 512,324.38 512,256 512,187.62 485.372,123.333 437.02,74.98 Z M 256,491.602 C 126.089,491.602 20.398,385.912 20.398,256 20.398,126.088 126.089,20.398 256,20.398 385.911,20.398 491.602,126.089 491.602,256 491.602,385.911 385.911,491.602 256,491.602 Z" style="fill:#06f"/></g></g><g style="fill:#06f" id="g263" transform="matrix(0.05233018,0,0,0.05186369,472.00498,443.93352)"><g style="fill:#06f" id="g261"><g style="fill:#06f" id="g259"><polygon style="fill:#06f" id="polygon249" points="0 288.9 45.4 367.7 136.7 367.7 182.1 288.9 136.7 210 45.4 210"/><polygon style="fill:#06f" id="polygon251" points="199.2 279.2 290 279.2 335.8 200.3 290 121.5 199.2 121.5 153.7 200.3"/><polygon style="fill:#06f" id="polygon253" points="290 456.6 335.8 377.4 290 298.6 199.2 298.6 153.7 377.4 199.2 456.6"/><polygon style="fill:#06f" id="polygon255" points="45.4 32.6 0 111.8 45.4 190.6 136.7 190.6 182.1 111.8 136.7 32.6"/><polygon style="fill:#06f" id="polygon257" points="443.8 190.6 489.2 111.8 443.8 32.6 352.5 32.6 307.1 111.4 352.5 190.6"/></g></g></g></svg>