<svg xmlns="http://www.w3.org/2000/svg" xmlns:v="https://vecta.io/nano" xmlns:xlink="http://www.w3.org/1999/xlink" width="808.778" height="560.418"><path fill="#646389" d="M686.769 494.204H113.231A19.231 19.3 0 0 1 94 474.904h0q311.861-36.374 612 0h0a19.231 19.3 0 0 1-19.231 19.3z"/><path fill="#3f3d56" d="M706 476.039l-612-1.135 71.268-120.339V90.601a24.308 24.395 0 0 1 24.31-24.397h417.45a24.308 24.395 0 0 1 24.31 24.397v265.78z"/><path fill="#fff" d="M189.024 83.233a7.928 7.956 0 0 0-7.919 7.947v240.679a7.928 7.956 0 0 0 7.919 7.947h421.952a7.928 7.957 0 0 0 7.919-7.947V91.18a7.928 7.956 0 0 0-7.919-7.947z"/><path fill="#4d4b68" d="M191.797 371.593a3.403 3.415 0 0 0-3.083 1.982l-21.855 47.682a3.394 3.406 0 0 0 3.083 4.829h459.606a3.393 3.405 0 0 0 3.035-4.929l-23.756-47.682a3.377 3.389 0 0 0-3.035-1.883z"/><ellipse cx="398.303" cy="74.15" fill="#fff" rx="5.091" ry="5.109"/><path fill="#616086" d="M353.128 435.169a3.399 3.411 0 0 0-3.277 2.52l-5.482 20.435a3.393 3.406 0 0 0 3.277 4.292h104.259a3.393 3.405 0 0 0 3.206-4.52l-7.048-20.435a3.395 3.408 0 0 0-3.207-2.292z"/><path fill="#2f2e41" d="M164.928 355.132l.351-.567v-3.974h466.058v4.541z"/><g fill="#e6e6e6"><use xlink:href="#B"/><use y="69.591" xlink:href="#B"/><path d="M486.333 264.939H376.288v2.017h110.045a20.428 20.501 0 1 1 0 41.002H319.815a20.428 20.501 0 0 1 0-41.002h6.223v-2.017h-6.223a22.438 22.518 0 0 0 0 45.036h166.517a22.438 22.518 0 1 0 0-45.036z"/></g><g fill="#3f3d56"><path d="M338.459 120.427a5.976 5.998 0 0 0 0 11.994h26.216a5.976 5.998 0 1 0 .196-11.994q-.098-.002-.196 0z"/><use xlink:href="#C"/><use y="68.583" xlink:href="#C"/></g><g fill="#00b0ff"><use xlink:href="#D"/><path d="M328.061 211.869a5.976 5.998 0 0 0 0 11.994h149.829a5.977 5.998 0 1 0 .196-11.994q-.098-.002-.196 0z"/></g><use y="139.183" fill="#e6e6e6" xlink:href="#D"/><ellipse cx="272.413" cy="147.801" fill="#00b0ff" rx="11.967" ry="12.01"/><path fill="#fff" d="M267.817 148.237l2.027-1.583 1.651 2.13 5.576-5.908 1.865 1.773-7.633 8.085z"/><ellipse cx="272.413" cy="217.393" fill="#00b0ff" rx="11.967" ry="12.01"/><path fill="#fff" d="M267.817 217.829l2.027-1.583 1.651 2.13 5.576-5.908 1.865 1.773-7.633 8.085z"/><g fill="#e6e6e6"><ellipse cx="272.413" cy="286.985" rx="11.967" ry="12.01"/><ellipse cx="534.715" cy="147.801" rx="11.967" ry="12.01"/><ellipse cx="534.715" cy="217.393" rx="11.967" ry="12.01"/><ellipse cx="534.715" cy="286.985" rx="11.967" ry="12.01"/></g><g fill="#fff"><path d="M267.817 287.421l2.027-1.583 1.651 2.13 5.576-5.908 1.865 1.773-7.633 8.086zm262.878-142.478l.996-1 6.692 6.716-.996 1z"/><path d="M531.047 150.659l6.692-6.716.996 1-6.692 6.716zm-.352 63.876l.996-1 6.692 6.716-.996 1z"/><path d="M531.047 220.251l6.692-6.716.996 1-6.692 6.716zm-.352 63.876l.996-1 6.692 6.716-.996 1z"/><path d="M531.047 289.843l6.692-6.716.996 1-6.692 6.716z"/></g><path fill="#ffb8b8" d="M274.715 282.174h0a8.641 8.672 0 0 0 1.6-13.095l-11.488-12.567-11.035 5.607 8.446 16.74a8.641 8.672 0 0 0 12.477 3.315zM126.21 319.497h0a8.641 8.672 0 0 0 7.322-10.958l-4.593-16.42h-12.368v18.764a8.641 8.672 0 0 0 9.639 8.614zm71.442 110.079v13.792l23.363-3.678-9.62-10.115zm-75.126 14.711l24.279 6.436c-4.472-9.309-7.225-17.547-5.497-22.986l-11.452-1.379z"/><path fill="#575a88" d="M127.564 428.656l14.201 2.758 38.937-125.964 16.491 125.504h15.117l-1.375-177.453h-58.635z"/><path d="M202.124 448.95l23.109-7.629a4.494 4.51 0 0 0 2.615-6.302h0a4.494 4.51 0 0 0-4.323-2.483l-5.242.355-2.054-1.16a1.195 1.199 0 0 0-1.691 1.502l1.894 4.617-19.24-1.379-.949 7.621a4.507 4.523 0 0 0 5.88 4.857zm-78.106 3.507l25.121 1.635a4.651 4.667 0 0 0 4.936-5.036h0a4.651 4.667 0 0 0-3.194-4.059l-5.169-1.691-1.526-1.91a1.237 1.241 0 0 0-2.201.786l.041 5.167-17.939-8.782-3.845 6.948a4.663 4.68 0 0 0 3.775 6.942z"/><g fill="#ffb8b8"><ellipse cx="177.496" cy="137.193" rx="16.949" ry="17.01"/><path d="M166.502 168.454h23.362v-22.526h-23.362c1.931 6.957 1.681 14.537 0 22.526z"/></g><g fill="#00b0ff"><path d="M149.095 255.801l64.132.919 6.413-67.996a21.159 21.234 0 0 0-14.355-20.106l-9.924-3.382-5.497-6.436c-6.94-1.505-14.492-1.14-22.446.46l-5.955 8.735-6.413 2.054a21.093 21.169 0 0 0-14.672 20.761c4.772 24.735 8.482 47.724 8.716 64.992z"/><path d="M114.28 292.119l16.033 1.839 18.323-74.015 1.832-47.811-.541.263a30.344 30.453 0 0 0-16.566 21.58zm140.174-27.583l12.368-5.976-36.278-67.935a47.429 47.599 0 0 0-24.19-21.711h0l6.871 43.214z"/></g><path fill="#1a1a1a" d="M167.02 152.503s16.62-.989 16.98-3.874 2.786-9.466 5.661-9.105 10.842-9.257 9.136-13.134-9.76-18.152-26.201-11.572-14.557 23.078-12.851 26.956 7.275 10.73 7.275 10.73z"/><g fill="#00b0ff"><use xlink:href="#E"/><use x="-37.071" xlink:href="#E"/></g><g fill="#2a7fff"><path d="M585.135 101.325v16.136a.34.34 0 0 0 .333.346h21.323a.34.34 0 0 0 .333-.346V98.107a.35.35 0 0 0-.115-.261c-.073-.066-.17-.095-.266-.081l-21.323 3.218c-.164.025-.285.17-.285.342zm-2.332 35.138c.08 0 .158-.03.219-.085a.35.35 0 0 0 .114-.26v-15.891a.34.34 0 0 0-.333-.346h-15.984a.33.33 0 0 0-.236.101.35.35 0 0 0-.098.244l.001 13.619c0 .173.123.319.288.343l15.983 2.272a.4.4 0 0 0 .045.003z"/><path d="M566.821 117.807h15.982a.34.34 0 0 0 .333-.346v-15.735a.35.35 0 0 0-.114-.26.32.32 0 0 0-.264-.082l-15.996 2.253c-.165.023-.289.17-.288.343l.015 13.482a.34.34 0 0 0 .333.345zm39.97 22.119c.08 0 .158-.03.219-.085a.35.35 0 0 0 .115-.261l.005-19.354a.35.35 0 0 0-.098-.244.33.33 0 0 0-.236-.101h-21.328a.34.34 0 0 0-.333.346v16.243c0 .172.122.318.287.342l21.323 3.111a.33.33 0 0 0 .047.003z"/></g><defs><path id="B" d="M486.333 125.756H376.288v2.017h110.045a20.428 20.501 0 0 1 0 41.002H319.815a20.428 20.501 0 0 1 0-41.002h6.223v-2.017h-6.223a22.438 22.518 0 0 0 0 45.036h166.517a22.438 22.518 0 1 0 0-45.036z"/><path id="C" d="M338.459 191.027a5.976 5.998 0 0 0 0 11.994h26.216a5.976 5.998 0 0 0 .196-11.994q-.098-.002-.196 0z"/><path id="D" d="M328.061 142.277a5.976 5.998 0 0 0 0 11.994h149.829a5.976 5.998 0 1 0 .196-11.994q-.098-.002-.196 0z"/><path id="E" d="M573.769 360.993a.828.831 0 0 0-.798.614l-1.335 4.976a.826.829 0 0 0 .798 1.045h25.389a.826.829 0 0 0 .781-1.101l-1.716-4.976a.827.83 0 0 0-.781-.558z"/></defs></svg>