<svg xmlns="http://www.w3.org/2000/svg" xmlns:svg="http://www.w3.org/2000/svg" id="b0be4804-10ca-4842-b31b-b943f29dadcb" width="394.482" height="313" data-name="Layer 1" version="1.1" viewBox="0 0 394.482 313"><rect id="rect6596" width="394.482" height="2" x="0" y="233" fill="#e6e6e6" style="fill:#fff;stroke-width:.951197"/><rect id="rect6598" width="394.482" height="2" x="0" y="155" fill="#e6e6e6" style="fill:#fff;stroke-width:.951197"/><rect id="rect6600" width="394.482" height="2" x="0" y="77" fill="#e6e6e6" style="fill:#fff;stroke-width:.951197"/><rect id="rect6602" width="1.81" height="312" x="314.681" y="0" fill="#e6e6e6" style="fill:#fff;stroke-width:.951197"/><rect id="rect6604" width="1.81" height="312" x="235.785" y="0" fill="#e6e6e6" style="fill:#fff;stroke-width:.951197"/><rect id="rect6606" width="1.81" height="312" x="156.888" y="0" fill="#e6e6e6" style="fill:#fff;stroke-width:.951197"/><rect id="rect6608" width="1.81" height="312" x="77.992" y="0" fill="#e6e6e6" style="fill:#fff;stroke-width:.951197"/><rect id="rect6610" width="158.336" height="78" x="78.716" y="78" fill="#00b0ff" style="stroke-width:.951197"/><path id="path6612" fill="#00b0ff" d="M 158.26452,150.06303" style="stroke-width:.951197"/><polygon id="polygon6614" fill="#00b0ff" points="87 234 178 153 87 150" transform="matrix(0.90477581,0,0,1,-3.9208985e-6,1.7446289e-6)"/><path id="path6616" fill="#00b0ff" d="m 237.05125,153.00003 v 3 l -1.03155,1.01 -2.08081,2.04 c -40.47062,1.35 -73.16006,33.39 -74.63517,73.12 l -1.85462,1.82 -0.018,0.01 v -84 z" style="stroke-width:.951197"/><path id="path6618" fill="#e6e6e6" d="m 236.59887,157.00003 c -0.19,0 -0.38921,0 -0.57917,0.01 -43.04887,0.3 -78.03692,34.62 -78.5706,76.98 -0.018,0.34 -0.018,0.67 -0.018,1.01 0,43.01 35.51246,78 79.16789,78 43.65543,0 79.16788,-34.99 79.16788,-78 0,-43.01 -35.51247,-78 -79.1679,-78 z m 0,154 c -42.65125,0 -77.35833,-34.09 -77.35833,-76 0,-0.95 0.0181,-1.89 0.0631,-2.83 1.47511,-39.73 34.16457,-71.77 74.63517,-73.12 0.87782,-0.04 1.76404,-0.05 2.65999,-0.05 42.65125,0 77.35833,34.09 77.35833,76 0,41.91 -34.70708,76 -77.35833,76 z" style="fill:#fff;stroke-width:.951197"/><path id="path6620" fill="#e6e6e6" d="m 193.16963,234.01611 -4.52388,-0.0278 c 0.002,-0.44482 0.72654,-44.48047 47.00417,-47.53467 l 0.26948,4.99121 c -41.97079,2.77002 -42.73774,40.94776 -42.74977,42.57129 z" style="stroke-width:.951197"/><path id="path6622" fill="#e6e6e6" d="m 282.27194,233.00003 a 38.485589,42.53605 0 0 0 -12.64877,-30.11 48.348215,53.43668 0 0 0 -32.93375,-13.95 h -0.0905 c -24.85395,0 -45.13939,19.67 -45.67308,44.06 -0.018,0.33 -0.018,0.67 -0.018,1 0,12.76 5.4017,24.29 14.06909,32.49 a 48.535115,53.64325 0 0 0 31.62209,12.57 h 0.0905 c 25.15259,-0.05 45.60061,-20.24 45.60061,-45.06 2e-5,-0.33 2e-5,-0.67 -0.0181,-1 z" style="stroke-width:.951197"/><path id="path6624" fill="#00b0ff" d="m 269.62319,202.89003 -1.35716,1.33 -61.93208,60.94 -1.35717,1.33 c -8.66738,-8.2 -14.06908,-19.73 -14.06908,-32.49 0,-0.33 0,-0.67 0.018,-1 0.53367,-24.39 20.81911,-44.06 45.67308,-44.06 h 0.0905 a 48.348215,53.43668 0 0 1 32.93377,13.95 z" style="fill:#2a7fff;stroke-width:.951197"/></svg>