<?xml version="1.0" encoding="UTF-8" standalone="no"?>
<svg
   xmlns:dc="http://purl.org/dc/elements/1.1/"
   xmlns:cc="http://creativecommons.org/ns#"
   xmlns:rdf="http://www.w3.org/1999/02/22-rdf-syntax-ns#"
   xmlns:svg="http://www.w3.org/2000/svg"
   xmlns="http://www.w3.org/2000/svg"
   xmlns:sodipodi="http://sodipodi.sourceforge.net/DTD/sodipodi-0.dtd"
   xmlns:inkscape="http://www.inkscape.org/namespaces/inkscape"
   id="Capa_1"
   enable-background="new 0 0 512 512"
   height="512"
   viewBox="0 0 512 512"
   width="512"
   version="1.1"
   sodipodi:docname="photography.svg"
   inkscape:version="1.0.2-2 (e86c870879, 2021-01-15)">
  <metadata
     id="metadata547">
    <rdf:RDF>
      <cc:Work
         rdf:about="">
        <dc:format>image/svg+xml</dc:format>
        <dc:type
           rdf:resource="http://purl.org/dc/dcmitype/StillImage" />
      </cc:Work>
    </rdf:RDF>
  </metadata>
  <defs
     id="defs545" />
  <sodipodi:namedview
     pagecolor="#ffffff"
     bordercolor="#666666"
     borderopacity="1"
     objecttolerance="10"
     gridtolerance="10"
     guidetolerance="10"
     inkscape:pageopacity="0"
     inkscape:pageshadow="2"
     inkscape:window-width="1920"
     inkscape:window-height="1001"
     id="namedview543"
     showgrid="false"
     inkscape:zoom="1.5644531"
     inkscape:cx="256"
     inkscape:cy="256"
     inkscape:window-x="-9"
     inkscape:window-y="-9"
     inkscape:window-maximized="1"
     inkscape:current-layer="Capa_1" />
  <g
     id="g540">
    <g
       fill="#eaf6ff"
       id="g430">
      <path
         d="m154.539 304.038h-62.577v81.373c0 1.817 1.473 3.29 3.29 3.29h59.287z"
         id="path426" />
      <path
         d="m437.042 236.737c0-6.058 4.929-10.987 10.986-10.987h27.569c1.643 0 3.197.373 4.598 1.022v-94.7c0-1.817-1.473-3.29-3.29-3.29h-89.671v125.736h49.808z"
         id="path428" />
    </g>
    <g
       fill="#46cc8d"
       id="g436">
      <path
         d="m154.539 304.038h-35.16v53.956c0 1.817 1.473 3.29 3.29 3.29h31.87z"
         id="path432" />
      <path
         d="m437.042 236.737c0-6.058 4.929-10.987 10.986-10.987h4.75v-66.26c0-1.817-1.473-3.29-3.29-3.29h-62.253v98.319h49.808v-17.782z"
         id="path434" />
    </g>
    <g
       fill="#c4e2ff"
       id="g442">
      <path
         d="m445.278 226.113c.881-.228 1.799-.363 2.75-.363h12.25v-66.26c0-5.95-4.841-10.79-10.791-10.79h-62.253v15h58.044z"
         id="path438" />
      <path
         d="m154.539 353.784h-27.66v-49.746h-15v53.956c0 5.95 4.841 10.79 10.79 10.79h31.87z"
         id="path440" />
    </g>
    <g
       id="g470">
      <path
         d="m154.539 257.115c0-9.363 7.617-16.98 16.979-16.98h61.132c8.044 0 15.041 5.712 16.639 13.583l.163.801h34.403l21.052-37.163c3.008-5.312 8.669-8.611 14.774-8.611h68.552v-160.336c0-1.817-1.473-3.29-3.29-3.29h-381.653c-1.817 0-3.29 1.473-3.29 3.29v253.339c0 1.817 1.473 3.29 3.29 3.29h151.249z"
         fill="#fed2a4"
         id="path444"
         style="fill:#80b3ff" />
      <path
         d="m154.539 257.115c0-9.363 7.617-16.98 16.979-16.98h61.132c8.044 0 15.041 5.712 16.639 13.583l.163.801h34.403l21.052-37.163c3.008-5.312 8.669-8.611 14.774-8.611h41.135v-132.918c0-1.817-1.473-3.29-3.29-3.29h-326.818c-1.817 0-3.29 1.473-3.29 3.29v198.503c0 1.817 1.473 3.29 3.29 3.29h123.831z"
         fill="#c4e2ff"
         id="path446" />
      <path
         d="m34.918 230.402 35.649-43.795v-106.57h-35.649z"
         fill="#b3dafe"
         id="path448" />
      <path
         d="m154.539 257.115c0-9.363 7.617-16.98 16.979-16.98h24.772l-80.395-98.765c-2.194-2.696-6.311-2.696-8.505 0l-79.973 98.246v34.714c0 1.817 1.473 3.29 3.29 3.29h123.831v-20.505z"
         fill="#46cc8d"
         id="path450" />
      <path
         d="m154.539 257.115c0-9.363 7.617-16.98 16.979-16.98h24.772l-80.395-98.765c-2.194-2.696-6.311-2.696-8.505 0l-79.973 98.246v34.714c0 1.817 1.473 3.29 3.29 3.29h123.831v-20.505z"
         fill="#46cc8d"
         id="path452" />
      <g
         id="g456">
        <path
           d="m59.704 274.33v-34.714l68.082-83.639-11.89-14.607c-2.194-2.696-6.311-2.696-8.506 0l-79.973 98.246v34.714c0 1.817 1.473 3.29 3.29 3.29h32.286c-1.816 0-3.289-1.473-3.289-3.29z"
           fill="#08b865"
           id="path454" />
      </g>
      <path
         d="m154.539 270.121h-119.621v-190.084h318.398v128.708h15v-132.918c0-5.95-4.841-10.79-10.79-10.79h-326.818c-5.949 0-10.79 4.84-10.79 10.79v198.503c0 5.95 4.841 10.791 10.79 10.791h123.831z"
         fill="#ea9b58"
         id="path458"
         style="fill:#5599ff" />
      <path
         d="m232.65 240.135c8.044 0 15.041 5.712 16.639 13.583l.163.801h34.403l21.052-37.163c1.965-3.469 5.065-6.072 8.678-7.466l-38.415-47.192c-2.194-2.696-6.311-2.696-8.505 0l-63.034 77.437z"
         fill="#08b865"
         id="path460" />
      <g
         id="g464">
        <circle
           cx="200.149"
           cy="130.113"
           fill="#fe9901"
           r="23.579"
           id="circle462" />
      </g>
      <g
         id="g468">
        <path
           d="m197.51 130.113c0-9.261 5.341-17.27 13.109-21.127-3.155-1.567-6.708-2.452-10.47-2.452-13.023 0-23.579 10.557-23.579 23.579 0 13.023 10.557 23.579 23.579 23.579 3.762 0 7.315-.885 10.47-2.452-7.768-3.856-13.109-11.866-13.109-21.127z"
           fill="#fb8801"
           id="path466" />
      </g>
    </g>
    <g
       id="g538">
      <g
         id="g536">
        <g
           id="g474">
          <path
             d="m487.584 254.465v-17.728c0-6.62-5.367-11.987-11.987-11.987h-27.569c-6.62 0-11.987 5.367-11.987 11.987v17.728z"
             fill="#647fa0"
             id="path472" />
        </g>
        <g
           id="g478">
          <path
             d="m468.872 224.751h-20.844c-6.62 0-11.987 5.366-11.987 11.987v17.728h20.844v-17.728c0-6.621 5.367-11.987 11.987-11.987z"
             fill="#5e6f90"
             id="path476" />
        </g>
        <g
           id="g484">
          <g
             id="g482">
            <path
               d="m433.95 254.465-21.177-37.569c-3.187-5.654-9.173-9.151-15.663-9.151h-77.429c-6.476 0-12.452 3.483-15.644 9.118l-21.301 37.603h151.214z"
               fill="#799fca"
               id="path480" />
          </g>
        </g>
        <g
           id="g488">
          <path
             d="m362.19 207.745h-42.509c-6.476 0-12.452 3.483-15.644 9.118l-21.301 37.603h42.509l21.301-37.603c3.192-5.635 9.167-9.118 15.644-9.118z"
             fill="#647fa0"
             id="path486" />
        </g>
        <g
           id="g492">
          <path
             d="m494.02 253.519h-244.726c.251 1.161.39 2.362.39 3.596v197.78h232.35c16.55 0 29.967-13.416 29.967-29.967v-153.429c-.001-9.931-8.051-17.98-17.981-17.98z"
             fill="#a2c7f8"
             id="path490" />
        </g>
        <g
           id="g496">
          <path
             d="m494.02 253.519h-244.726c.251 1.161.39 2.362.39 3.596v59.933h262.316v-45.549c0-9.931-8.05-17.98-17.98-17.98z"
             fill="#8db3df"
             id="path494" />
        </g>
        <g
           id="g500">
          <path
             d="m232.651 239.135h-61.132c-9.93 0-17.98 8.05-17.98 17.98v50.344l1.621.947h93.929l1.542-.947v-50.344c0-9.931-8.05-17.98-17.98-17.98z"
             fill="#799fca"
             id="path498" />
        </g>
        <g
           id="g504">
          <path
             d="m185.693 257.115c0-9.93 8.05-17.98 17.98-17.98h-32.154c-9.93 0-17.98 8.05-17.98 17.98v50.344l1.621.947h32.154l-1.62-.947v-50.344z"
             fill="#647fa0"
             id="path502" />
        </g>
        <path
           d="m153.539 307.458v36.592l1 1h15.451c6.609 0 11.987 5.377 11.987 11.987v65.805c0 6.61-5.378 11.988-11.987 11.988h-15.451l-1 1v1.084c0 16.55 13.417 29.967 29.967 29.967h55.139c6.62 0 11.987-5.366 11.987-11.987v-147.436z"
           fill="#647fa0"
           id="path506" />
        <path
           d="m185.693 436.914v-129.455h-32.154v36.591h16.451c7.173 0 12.988 5.815 12.988 12.988v65.804c0 7.173-5.815 12.988-12.988 12.988h-16.451v1.084c0 16.55 13.417 29.967 29.967 29.967h32.154c-16.551 0-29.967-13.416-29.967-29.967z"
           fill="#5e6f90"
           id="path508" />
        <g
           id="g512">
          <path
             d="m169.99 344.05h-16.451v91.78h16.451c7.173 0 12.988-5.815 12.988-12.988v-65.804c0-7.173-5.815-12.988-12.988-12.988z"
             fill="#0593fc"
             id="path510" />
        </g>
        <path
           d="m453.302 342.22c-1.861 0-3.679.175-5.448.494 3.564 9.352 5.534 19.484 5.534 30.072s-1.97 20.72-5.534 30.072c1.769.318 3.587.494 5.448.494 16.881 0 30.566-13.685 30.566-30.566s-13.684-30.566-30.566-30.566z"
           fill="#799fca"
           id="path514" />
        <g
           id="g518">
          <circle
             cx="368.684"
             cy="372.786"
             fill="#647fa0"
             r="85.705"
             id="circle516" />
        </g>
        <g
           id="g522">
          <circle
             cx="368.684"
             cy="372.786"
             fill="#799fca"
             r="59.031"
             id="circle520" />
        </g>
        <g
           id="g526">
          <path
             d="m368.685 439.317c-36.686 0-66.531-29.846-66.531-66.531s29.846-66.531 66.531-66.531 66.53 29.846 66.53 66.531-29.846 66.531-66.53 66.531zm0-118.062c-28.414 0-51.531 23.117-51.531 51.531 0 28.415 23.117 51.531 51.531 51.531s51.53-23.117 51.53-51.531-23.116-51.531-51.53-51.531z"
             fill="#5e6f90"
             id="path524" />
        </g>
        <g
           id="g530">
          <circle
             cx="368.684"
             cy="372.786"
             fill="#647fa0"
             r="32.511"
             id="circle528" />
        </g>
        <g
           id="g534">
          <path
             d="m356.958 372.786c0-14.293 9.275-26.452 22.119-30.798-3.266-1.105-6.758-1.713-10.392-1.713-17.927 0-32.511 14.585-32.511 32.511 0 17.927 14.585 32.511 32.511 32.511 3.634 0 7.127-.608 10.392-1.713-12.844-4.346-22.119-16.506-22.119-30.798z"
             fill="#5e6f90"
             id="path532" />
        </g>
      </g>
    </g>
  </g>
</svg>
