<svg xmlns="http://www.w3.org/2000/svg" xmlns:xlink="http://www.w3.org/1999/xlink" height="512" width="512" xmlns:v="https://vecta.io/nano"><path d="M154.539 304.038H91.962v81.373a3.29 3.29 0 0 0 3.29 3.29h59.287zm282.503-67.301c0-6.058 4.929-10.987 10.986-10.987h27.569c1.643 0 3.197.373 4.598 1.022v-94.7a3.29 3.29 0 0 0-3.29-3.29h-89.671v125.736h49.808z" fill="#eaf6ff"/><path d="M154.539 304.038h-35.16v53.956a3.29 3.29 0 0 0 3.29 3.29h31.87zm282.503-67.301c0-6.058 4.929-10.987 10.986-10.987h4.75v-66.26a3.29 3.29 0 0 0-3.29-3.29h-62.253v98.319h49.808v-17.782z" fill="#46cc8d"/><path d="M445.278 226.113c.881-.228 1.799-.363 2.75-.363h12.25v-66.26c0-5.95-4.841-10.79-10.791-10.79h-62.253v15h58.044zM154.539 353.784h-27.66v-49.746h-15v53.956c0 5.95 4.841 10.79 10.79 10.79h31.87z" fill="#c4e2ff"/><path d="M154.539 257.115c0-9.363 7.617-16.98 16.979-16.98h61.132c8.044 0 15.041 5.712 16.639 13.583l.163.801h34.403l21.052-37.163c3.008-5.312 8.669-8.611 14.774-8.611h68.552V48.409a3.29 3.29 0 0 0-3.29-3.29H3.29A3.29 3.29 0 0 0 0 48.409v253.339a3.29 3.29 0 0 0 3.29 3.29h151.249z" fill="#80b3ff"/><path d="M154.539 257.115c0-9.363 7.617-16.98 16.979-16.98h61.132c8.044 0 15.041 5.712 16.639 13.583l.163.801h34.403l21.052-37.163c3.008-5.312 8.669-8.611 14.774-8.611h41.135V75.827a3.29 3.29 0 0 0-3.29-3.29H30.708a3.29 3.29 0 0 0-3.29 3.29V274.33a3.29 3.29 0 0 0 3.29 3.29h123.831z" fill="#c4e2ff"/><path d="M34.918 230.402l35.649-43.795V80.037H34.918z" fill="#b3dafe"/><g fill="#46cc8d"><use xlink:href="#B"/><use xlink:href="#B"/></g><path d="M59.704 274.33v-34.714l68.082-83.639-11.89-14.607c-2.194-2.696-6.311-2.696-8.506 0l-79.973 98.246v34.714a3.29 3.29 0 0 0 3.29 3.29h32.286a3.29 3.29 0 0 1-3.289-3.29z" fill="#08b865"/><path d="M154.539 270.121H34.918V80.037h318.398v128.708h15V75.827c0-5.95-4.841-10.79-10.79-10.79H30.708c-5.949 0-10.79 4.84-10.79 10.79V274.33c0 5.95 4.841 10.791 10.79 10.791h123.831z" fill="#59f"/><path d="m232.65 240.135c8.044 0 15.041 5.712 16.639 13.583l.163.801h34.403l21.052-37.163c1.965-3.469 5.065-6.072 8.678-7.466l-38.415-47.192c-2.194-2.696-6.311-2.696-8.505 0l-63.034 77.437z" fill="#08b865"/><circle cx="200.149" cy="130.113" fill="#fe9901" r="23.579"/><path d="M197.51 130.113c0-9.261 5.341-17.27 13.109-21.127-3.155-1.567-6.708-2.452-10.47-2.452-13.023 0-23.579 10.557-23.579 23.579s10.557 23.579 23.579 23.579c3.762 0 7.315-.885 10.47-2.452-7.768-3.856-13.109-11.866-13.109-21.127z" fill="#fb8801"/><path d="M487.584 254.465v-17.728a11.99 11.99 0 0 0-11.987-11.987h-27.569a11.99 11.99 0 0 0-11.987 11.987v17.728z" fill="#647fa0"/><path d="M468.872 224.751h-20.844a11.99 11.99 0 0 0-11.987 11.987v17.728h20.844v-17.728a11.99 11.99 0 0 1 11.987-11.987z" fill="#5e6f90"/><path d="M433.95 254.465l-21.177-37.569a17.98 17.98 0 0 0-15.663-9.151h-77.429a17.98 17.98 0 0 0-15.644 9.118l-21.301 37.603H433.95z" fill="#799fca"/><path d="M362.19 207.745h-42.509a17.98 17.98 0 0 0-15.644 9.118l-21.301 37.603h42.509l21.301-37.603a17.98 17.98 0 0 1 15.644-9.118z" fill="#647fa0"/><path d="M494.02 253.519H249.294a16.99 16.99 0 0 1 .39 3.596v197.78h232.35c16.55 0 29.967-13.416 29.967-29.967V271.499c-.001-9.931-8.051-17.98-17.981-17.98z" fill="#a2c7f8"/><path d="M494.02 253.519H249.294a16.99 16.99 0 0 1 .39 3.596v59.933H512v-45.549c0-9.931-8.05-17.98-17.98-17.98z" fill="#8db3df"/><path d="m232.651 239.135h-61.132c-9.93 0-17.98 8.05-17.98 17.98v50.344l1.621.947h93.929l1.542-.947v-50.344c0-9.931-8.05-17.98-17.98-17.98z" fill="#799fca"/><g fill="#647fa0"><path d="m185.693 257.115c0-9.93 8.05-17.98 17.98-17.98h-32.154c-9.93 0-17.98 8.05-17.98 17.98v50.344l1.621.947h32.154l-1.62-.947v-50.344z"/><path d="M153.539 307.458v36.592l1 1h15.451c6.609 0 11.987 5.377 11.987 11.987v65.805c0 6.61-5.378 11.988-11.987 11.988h-15.451l-1 1v1.084c0 16.55 13.417 29.967 29.967 29.967h55.139a11.99 11.99 0 0 0 11.987-11.987V307.458z"/></g><path d="M185.693 436.914V307.459h-32.154v36.591h16.451a12.99 12.99 0 0 1 12.988 12.988v65.804a12.99 12.99 0 0 1-12.988 12.988h-16.451v1.084c0 16.55 13.417 29.967 29.967 29.967h32.154c-16.551 0-29.967-13.416-29.967-29.967z" fill="#5e6f90"/><path d="M169.99 344.05h-16.451v91.78h16.451a12.99 12.99 0 0 0 12.988-12.988v-65.804a12.99 12.99 0 0 0-12.988-12.988z" fill="#0593fc"/><path d="M453.302 342.22c-1.861 0-3.679.175-5.448.494a84.26 84.26 0 0 1 0 60.144 30.75 30.75 0 0 0 5.448.494c16.881 0 30.566-13.685 30.566-30.566s-13.684-30.566-30.566-30.566z" fill="#799fca"/><circle cx="368.684" cy="372.786" fill="#647fa0" r="85.705"/><circle cx="368.684" cy="372.786" fill="#799fca" r="59.031"/><path d="M368.685 439.317c-36.686 0-66.531-29.846-66.531-66.531s29.846-66.531 66.531-66.531 66.53 29.846 66.53 66.531-29.846 66.531-66.53 66.531zm0-118.062c-28.414 0-51.531 23.117-51.531 51.531s23.117 51.531 51.531 51.531 51.53-23.117 51.53-51.531-23.116-51.531-51.53-51.531z" fill="#5e6f90"/><circle cx="368.684" cy="372.786" fill="#647fa0" r="32.511"/><path d="M356.958 372.786c0-14.293 9.275-26.452 22.119-30.798a32.36 32.36 0 0 0-10.392-1.713c-17.927 0-32.511 14.585-32.511 32.511s14.585 32.511 32.511 32.511c3.634 0 7.127-.608 10.392-1.713-12.844-4.346-22.119-16.506-22.119-30.798z" fill="#5e6f90"/><defs ><path id="B" d="M154.539 257.115c0-9.363 7.617-16.98 16.979-16.98h24.772l-80.395-98.765c-2.194-2.696-6.311-2.696-8.505 0l-79.973 98.246v34.714a3.29 3.29 0 0 0 3.29 3.29h123.831v-20.505z"/></defs></svg>