<?xml version="1.0" encoding="UTF-8" standalone="no"?>
<svg
   height="382.47232"
   viewBox="0 0 554.48799 371.26756"
   width="571.22327"
   version="1.1"
   id="svg6403"
   sodipodi:docname="Portfolio-Web-Design-JunTech-Aruba.svg"
   inkscape:version="1.1 (c68e22c387, 2021-05-23)"
   xmlns:inkscape="http://www.inkscape.org/namespaces/inkscape"
   xmlns:sodipodi="http://sodipodi.sourceforge.net/DTD/sodipodi-0.dtd"
   xmlns:xlink="http://www.w3.org/1999/xlink"
   xmlns="http://www.w3.org/2000/svg"
   xmlns:svg="http://www.w3.org/2000/svg"
   xmlns:rdf="http://www.w3.org/1999/02/22-rdf-syntax-ns#"
   xmlns:cc="http://creativecommons.org/ns#"
   xmlns:dc="http://purl.org/dc/elements/1.1/">
  <metadata
     id="metadata6407">
    <rdf:RDF>
      <cc:Work
         rdf:about="">
        <dc:format>image/svg+xml</dc:format>
        <dc:type
           rdf:resource="http://purl.org/dc/dcmitype/StillImage" />
      </cc:Work>
    </rdf:RDF>
  </metadata>
  <sodipodi:namedview
     pagecolor="#ffffff"
     bordercolor="#666666"
     borderopacity="1"
     objecttolerance="10"
     gridtolerance="10"
     guidetolerance="10"
     inkscape:pageopacity="0"
     inkscape:pageshadow="2"
     inkscape:window-width="1920"
     inkscape:window-height="1003"
     id="namedview6405"
     showgrid="false"
     inkscape:zoom="2"
     inkscape:cx="285.25"
     inkscape:cy="191.25"
     inkscape:window-x="-9"
     inkscape:window-y="-9"
     inkscape:window-maximized="1"
     inkscape:current-layer="svg6403"
     inkscape:pagecheckerboard="0" />
  <defs
     id="defs6357">
    <path
       id="A"
       d="m 142.806,254.967 h -41.037 c -3.333,0 -6.035,-2.603 -6.035,-5.814 0,-3.211 2.702,-5.814 6.035,-5.814 h 41.037 c 3.333,0 6.035,2.603 6.035,5.814 0,3.211 -2.702,5.814 -6.035,5.814 z" />
    <linearGradient
       id="B"
       x1="-506.28799"
       y1="135.105"
       x2="490.36899"
       y2="244.60001"
       gradientUnits="userSpaceOnUse">
      <stop
         offset="0"
         stop-color="#0684ff"
         id="stop6352" />
      <stop
         offset="1"
         stop-color="#0684ff"
         stop-opacity="0"
         id="stop6354" />
    </linearGradient>
    <linearGradient
       inkscape:collect="always"
       xlink:href="#B"
       id="linearGradient6409"
       gradientUnits="userSpaceOnUse"
       x1="-506.28799"
       y1="135.105"
       x2="490.36899"
       y2="244.60001" />
    <linearGradient
       inkscape:collect="always"
       xlink:href="#B"
       id="linearGradient6411"
       gradientUnits="userSpaceOnUse"
       x1="-506.28799"
       y1="135.105"
       x2="490.36899"
       y2="244.60001" />
    <linearGradient
       inkscape:collect="always"
       xlink:href="#B"
       id="linearGradient6413"
       gradientUnits="userSpaceOnUse"
       x1="-506.28799"
       y1="135.105"
       x2="490.36899"
       y2="244.60001" />
    <linearGradient
       inkscape:collect="always"
       xlink:href="#B"
       id="linearGradient6415"
       gradientUnits="userSpaceOnUse"
       x1="-506.28799"
       y1="135.105"
       x2="490.36899"
       y2="244.60001" />
    <linearGradient
       inkscape:collect="always"
       xlink:href="#B"
       id="linearGradient6417"
       gradientUnits="userSpaceOnUse"
       x1="-506.28799"
       y1="135.105"
       x2="490.36899"
       y2="244.60001" />
  </defs>
  <path
     d="M 457.54598,58.616199 V 297.88219 h -280.713 l -46.00202,-4.295 -45.730002,4.294 h -16.057 c -6.311,10e-4 -11.428,-4.929 -11.428,-11.01 V 58.616199 l 202.282022,-10.366 z"
     fill="#ddeafb"
     id="path6359" />
  <path
     d="M 438.43498,51.484199 V 297.88219 h 19.111 V 58.616199 Z"
     fill="#cbe2ff"
     id="path6361" />
  <path
     d="m 419.32298,28.5142 6.914,15.050999 -6.914,15.051 H 57.615958 v -19.092 c 0,-6.081 5.117,-11.009999 11.428,-11.009999 z"
     fill="#2a7fff"
     id="path6363" />
  <path
     d="m 457.54598,39.524199 v 19.092 h -38.223 V 28.5142 h 26.794 c 6.311,0 11.428,4.928999 11.428,11.009999 z"
     fill="#5599ff"
     id="path6365" />
  <path
     d="m 446.11798,28.5142 h -19.111 c 6.312,0 11.428,4.929999 11.428,11.010999 v 19.092 h 19.111 v -19.093 c 0,-6.081 -5.117,-11.009999 -11.428,-11.009999 z"
     fill="#80b3ff"
     id="path6367" />
  <path
     d="m 176.83098,89.106199 v 88.538991 l -46.00002,5.603 -45.734002,-5.603 V 89.106199 c 0,-2.636 2.229,-4.775 4.965,-4.775 h 81.813022 c 2.736,0 4.957,2.14 4.957,4.775 z"
     fill="#5599ff"
     id="path6369"
     style="fill:#002255" />
  <path
     d="m 176.83098,177.64419 v 35.281 c 0,3.132 -2.631,5.675 -5.882,5.675 H 90.986958 c -3.251,0 -5.89,-2.543 -5.89,-5.675 v -35.281 z"
     fill="#fff9df"
     id="path6371" />
  <path
     d="M 176.69698,297.88219 H 84.963958 v -51.414 c 0,-2.64 2.221,-4.779 4.961,-4.779 h 81.810022 c 2.74,0 4.961,2.14 4.961,4.779 v 51.414 z m 127.178,-208.775991 v 38.039991 l -45.863,6.642 -45.863,-6.642 V 89.106199 c 0,-2.636 2.221,-4.775 4.957,-4.775 h 81.813 c 2.736,0 4.957,2.14 4.957,4.775 z"
     fill="#2a7fff"
     id="path6373"
     style="fill:#2a7fff" />
  <path
     d="m 303.87498,197.27319 v 38.04 l -43.977,4.483 -47.749,-4.483 v -38.04 c 0,-2.644 2.221,-4.783 4.957,-4.783 h 81.813 c 2.736,0 4.957,2.14 4.957,4.783 z"
     fill="#80b3ff"
     id="path6375"
     style="fill:#0055d4" />
  <path
     d="m 430.93498,89.106199 v 38.039991 l -45.919,6.642 -45.816,-6.642 V 89.106199 c 0,-2.636 2.221,-4.775 4.965,-4.775 h 81.805 c 2.744,0 4.965,2.14 4.965,4.775 z"
     fill="#5599ff"
     id="path6377"
     style="fill:#002255" />
  <path
     d="m 303.87498,127.14619 v 35.281 c 0,3.132 -2.631,5.675 -5.882,5.675 h -79.962 c -3.251,0 -5.882,-2.543 -5.882,-5.675 v -35.281 z m 127.06,0 v 35.281 c 0,3.132 -2.639,5.675 -5.89,5.675 h -79.962 c -3.251,0 -5.882,-2.543 -5.882,-5.675 v -35.281 z m -127.06,108.167 v 35.281 c 0,3.132 -2.631,5.667 -5.882,5.667 h -79.962 c -3.251,0 -5.882,-2.535 -5.882,-5.667 v -35.281 z"
     fill="#fff9df"
     id="path6379" />
  <path
     d="m 253.86298,261.60019 h -15.967 c -3.333,0 -6.035,-2.603 -6.035,-5.814 0,-3.211 2.702,-5.814 6.035,-5.814 h 15.967 c 3.333,0 6.035,2.603 6.035,5.814 0,3.211 -2.702,5.814 -6.035,5.814 z"
     fill="#2a7fff"
     id="path6381" />
  <g
     transform="translate(9.0809585,-50.649801)"
     fill="#2a7fff"
     id="g6389">
    <use
       xlink:href="#A"
       id="use6383"
       x="0"
       y="0"
       width="100%"
       height="100%" />
    <use
       xlink:href="#A"
       x="127.046"
       y="-50.880001"
       id="use6385"
       width="100%"
       height="100%" />
    <path
       d="M 396.906,204.087 H 355.87 c -3.333,0 -6.035,-2.603 -6.035,-5.814 0,-3.211 2.702,-5.814 6.035,-5.814 h 41.037 c 3.333,0 6.035,2.603 6.035,5.814 0,3.211 -2.703,5.814 -6.036,5.814 z"
       id="path6387" />
  </g>
  <g
     stroke="#0066ff"
     transform="matrix(0.36038189,0,0,0.351237,329.31626,195.17508)"
     stroke-width="2.026"
     id="g6401"
     style="stroke-width:2.57286546;stroke-miterlimit:4;stroke-dasharray:none">
    <path
       d="M 136.7,367.7 182.1,288.9 136.7,210 H 45.4 L 0,288.9 45.4,367.7 Z"
       fill="url(#B)"
       id="path6391"
       style="fill:url(#linearGradient6409);stroke-width:2.57286546;stroke-miterlimit:4;stroke-dasharray:none" />
    <path
       d="M 335.8,200.3 290,121.5 h -90.8 l -45.5,78.8 45.5,78.9 H 290 Z"
       fill="url(#B)"
       id="path6393"
       style="fill:url(#linearGradient6411);stroke-width:2.57286546;stroke-miterlimit:4;stroke-dasharray:none" />
    <path
       d="m 290,298.6 h -90.8 l -45.5,78.8 45.5,79.2 H 290 l 45.8,-79.2 z"
       fill="url(#B)"
       id="path6395"
       style="fill:url(#linearGradient6413);stroke-width:2.57286546;stroke-miterlimit:4;stroke-dasharray:none" />
    <path
       d="m 45.4,190.6 h 91.3 L 182.1,111.8 136.7,32.6 H 45.4 L 0,111.8 Z"
       fill="url(#B)"
       id="path6397"
       style="fill:url(#linearGradient6415);stroke-width:2.57286546;stroke-miterlimit:4;stroke-dasharray:none" />
    <path
       d="m 443.8,32.6 h -91.3 l -45.4,78.8 45.4,79.2 h 91.3 l 45.4,-78.8 z"
       fill="url(#B)"
       id="path6399"
       style="fill:url(#linearGradient6417);stroke-width:2.57286546;stroke-miterlimit:4;stroke-dasharray:none" />
  </g>
</svg>
