<svg xmlns="http://www.w3.org/2000/svg" width="100%" height="100%" viewBox="0 0 100 60"><rect width="100" height="60" fill="#000"/><g><rect width="11" height="11" fill="#000"/><rect width="11" height="11" x="10" fill="#010101"/><rect width="11" height="11" y="10" fill="#020201"/><rect width="11" height="11" x="20" fill="#020202"/><rect width="11" height="11" x="10" y="10" fill="#030302"/><rect width="11" height="11" y="20" fill="#040403"/><rect width="11" height="11" x="30" fill="#050503"/><rect width="11" height="11" x="20" y="10" fill="#060604"/><rect width="11" height="11" x="10" y="20" fill="#070705"/><rect width="11" height="11" y="30" fill="#070705"/><rect width="11" height="11" x="40" fill="#080806"/><rect width="11" height="11" x="30" y="10" fill="#090906"/><rect width="11" height="11" x="20" y="20" fill="#0a0a07"/><rect width="11" height="11" x="10" y="30" fill="#0b0b08"/><rect width="11" height="11" y="40" fill="#0c0b08"/><rect width="11" height="11" x="50" fill="#0c0c09"/><rect width="11" height="11" x="40" y="10" fill="#0d0d09"/><rect width="11" height="11" x="30" y="20" fill="#0e0e0a"/><rect width="11" height="11" x="20" y="30" fill="#0e0e0a"/><rect width="11" height="11" x="10" y="40" fill="#0f0f0b"/><rect width="11" height="11" y="50" fill="#100f0b"/><rect width="11" height="11" x="60" fill="#10100c"/><rect width="11" height="11" x="50" y="10" fill="#11110d"/><rect width="11" height="11" x="40" y="20" fill="#11110d"/><rect width="11" height="11" x="30" y="30" fill="#12120e"/><rect width="11" height="11" x="20" y="40" fill="#13120e"/><rect width="11" height="11" x="10" y="50" fill="#13130e"/><rect width="11" height="11" x="70" fill="#14130f"/><rect width="11" height="11" x="60" y="10" fill="#14140f"/><rect width="11" height="11" x="50" y="20" fill="#151410"/><rect width="11" height="11" x="40" y="30" fill="#151510"/><rect width="11" height="11" x="30" y="40" fill="#161511"/><rect width="11" height="11" x="20" y="50" fill="#161611"/><rect width="11" height="11" x="80" fill="#161611"/><rect width="11" height="11" x="70" y="10" fill="#171712"/><rect width="11" height="11" x="60" y="20" fill="#171712"/><rect width="11" height="11" x="50" y="30" fill="#181813"/><rect width="11" height="11" x="40" y="40" fill="#181813"/><rect width="11" height="11" x="30" y="50" fill="#191913"/><rect width="11" height="11" x="90" fill="#191914"/><rect width="11" height="11" x="80" y="10" fill="#1a1914"/><rect width="11" height="11" x="70" y="20" fill="#1a1a14"/><rect width="11" height="11" x="60" y="30" fill="#1a1a15"/><rect width="11" height="11" x="50" y="40" fill="#1b1b15"/><rect width="11" height="11" x="40" y="50" fill="#1b1b15"/><rect width="11" height="11" x="90" y="10" fill="#1c1c16"/><rect width="11" height="11" x="80" y="20" fill="#1c1c16"/><rect width="11" height="11" x="70" y="30" fill="#1d1d16"/><rect width="11" height="11" x="60" y="40" fill="#1d1d17"/><rect width="11" height="11" x="50" y="50" fill="#1d1d17"/><rect width="11" height="11" x="90" y="20" fill="#1e1e17"/><rect width="11" height="11" x="80" y="30" fill="#1e1e18"/><rect width="11" height="11" x="70" y="40" fill="#1f1f18"/><rect width="11" height="11" x="60" y="50" fill="#1f1f18"/><rect width="11" height="11" x="90" y="30" fill="#202018"/><rect width="11" height="11" x="80" y="40" fill="#202019"/><rect width="11" height="11" x="70" y="50" fill="#212119"/><rect width="11" height="11" x="90" y="40" fill="#212119"/><rect width="11" height="11" x="80" y="50" fill="#22221a"/><rect width="11" height="11" x="90" y="50" fill="#22221a"/></g></svg>