<svg xmlns="http://www.w3.org/2000/svg" xmlns:svg="http://www.w3.org/2000/svg" id="Layer_1" width="675.918" height="512" x="0" y="0" version="1.1" viewBox="0 0 675.918 512" xml:space="preserve"><rect style="fill:#f9f9f9;stroke-width:.81634" id="rect652" width="151.382" height="235.322" x="245.351" y="223.678"/><rect style="fill:#2a7fff;stroke-width:.81634" id="rect654" width="151.382" height="148.069" x="245.351" y="45.633"/><path style="fill:#2a7fff;stroke-width:.81634" id="path656" d="M 215.39239,310.93147 V 459 H 64 V 418.30919 310.93147 Z"/><rect style="fill:#f9f9f9;stroke-width:.81634" id="rect658" width="151.392" height="235.333" x="64" y="45.633"/><polygon style="fill:#e09b2d" id="polygon660" points="131.998 512 96.246 472.668 120.624 445.844 180.742 512" transform="matrix(0.82542251,0,0,0.80735732,55.826666,45.633054)"/><path style="fill:#fff;stroke-width:.81634" id="path662" d="m 168.3235,336.34143 c 13.11019,0 23.72842,10.38584 23.72842,23.2091 0,12.81276 -10.61823,23.20911 -23.72842,23.20911 -13.09946,0 -23.72842,-10.39635 -23.72842,-23.20911 0,-12.82326 10.62896,-23.2091 23.72842,-23.2091 z"/><polygon style="fill:#f7b239" id="polygon664" points="131.998 512 9.902 512 9.902 461.6 48.036 419.644 96.246 472.668" transform="matrix(0.82542251,0,0,0.80735732,55.826666,45.633054)"/><polygon style="fill:#fff" id="polygon666" points="311.759 53.494 311.759 131.821 292.654 131.821 292.654 150.927 311.759 150.927 330.864 150.927 349.968 150.927 349.968 131.821 330.864 131.821 330.864 53.494 358.564 53.494 358.564 76.419 377.67 76.419 377.67 34.388 330.864 34.388 311.759 34.388 264.953 34.388 264.953 76.419 284.058 76.419 284.058 53.494" transform="matrix(0.82542251,0,0,0.80735732,55.826666,45.633054)"/><g id="g692" transform="matrix(0.82542251,0,0,0.80735732,55.826666,45.633054)"><rect style="fill:gray" id="rect668" width="84.06" height="15.284" x="74.864" y="34.708"/><rect style="fill:gray" id="rect670" width="114.627" height="15.284" x="44.297" y="76.064"/><rect style="fill:gray" id="rect672" width="114.627" height="15.284" x="44.297" y="117.422"/><rect style="fill:gray" id="rect674" width="114.627" height="15.284" x="44.297" y="158.779"/><rect style="fill:gray" id="rect676" width="114.627" height="15.284" x="44.297" y="200.136"/><rect style="fill:gray" id="rect678" width="57.314" height="15.284" x="44.297" y="241.493"/><rect style="fill:gray" id="rect680" width="84.06" height="15.284" x="294.568" y="255.223"/><rect style="fill:gray" id="rect682" width="114.627" height="15.284" x="263.999" y="296.58"/><rect style="fill:gray" id="rect684" width="114.627" height="15.284" x="263.999" y="337.937"/><rect style="fill:gray" id="rect686" width="114.627" height="15.284" x="263.999" y="379.294"/><rect style="fill:gray" id="rect688" width="114.627" height="15.284" x="263.999" y="420.651"/><rect style="fill:gray" id="rect690" width="57.314" height="15.284" x="263.999" y="462.007"/></g><polygon style="fill:#f9f9f9" id="polygon694" points="449.867 461.329 475.982 512 502.098 461.329 483.625 461.329 483.625 50.673 502.098 50.673 475.982 .001 449.867 50.673 468.34 50.673 468.34 461.329" transform="matrix(0.82542251,0,0,0.80735732,55.826666,45.633054)"/><path style="fill:#e4eaf6;stroke-width:.81634" id="path1187" d="M 612.99232,294.28873 H 208.22493 c -4.9286,0 -8.92447,-3.90841 -8.92447,-8.72833 v -68.06668 c 0,-4.82074 3.99587,-8.72916 8.92447,-8.72916 h 404.76821 c 4.9286,0 8.92447,3.90842 8.92447,8.72916 v 68.06668 c -8.3e-4,4.81992 -3.9967,8.72833 -8.92529,8.72833 z"/><path style="fill:#2a7fff;stroke-width:.81634" id="path1189" d="m 545.40837,294.28873 h 65.57817 c 6.03631,0 10.92942,-4.78682 10.92942,-10.69021 v -64.14293 c 0,-5.9042 -4.89393,-10.69022 -10.92942,-10.69022 h -65.57817 c -6.03631,0 -10.92942,4.78682 -10.92942,10.69022 v 64.14293 c 0,5.90339 4.89393,10.69021 10.92942,10.69021 z"/><path style="fill:#fff;stroke-width:.81634" id="path1191" d="m 605.20858,267.86878 -14.57283,-14.2539 c -0.019,-0.0186 -0.0446,-0.0234 -0.0627,-0.0412 1.36772,-2.79103 2.1981,-5.87837 2.1981,-9.17399 0,-11.78984 -9.80602,-21.38125 -21.85967,-21.38125 -12.05364,0 -21.85966,9.59141 -21.85966,21.38125 0,11.78983 9.80602,21.38123 21.85966,21.38123 3.3702,0 6.52579,-0.8122 9.37928,-2.14998 0.0182,0.0186 0.0231,0.0436 0.0421,0.0613 l 14.57284,14.2539 c 1.42303,1.39269 3.28683,2.08783 5.15146,2.08783 1.86463,0 3.72926,-0.69595 5.15146,-2.08783 2.84688,-2.78377 2.84688,-7.29286 0,-10.07743 z m -34.29713,-16.34173 c -4.0165,0 -7.28683,-3.19794 -7.28683,-7.12734 0,-3.92942 3.2695,-7.12736 7.28683,-7.12736 4.01733,0 7.28683,3.19794 7.28683,7.12736 0,3.9294 -3.27032,7.12734 -7.28683,7.12734 z"/><ellipse style="fill:#f2f2f2;stroke-width:.81634" id="circle1193" cx="494.403" cy="251.527" rx="18.216" ry="17.818"/><ellipse style="fill:#f9f9f9;stroke-width:.81634" id="circle1195" cx="443.398" cy="251.527" rx="18.216" ry="17.818"/><ellipse style="fill:#fff;stroke-width:.81634" id="circle1195-6" cx="392.843" cy="252.053" rx="18.216" ry="17.818"/></svg>