<svg xmlns="http://www.w3.org/2000/svg" height="512" viewBox="0 0 64 64" width="512"  xmlns:v="https://vecta.io/nano"><path d="m24 49-5 3 13 6v-6z" fill="#c1c8d1"/><path d="M46 19l.103.308A36.99 36.99 0 0 1 48 31c0 8.837-7.163 16-16 16s-16-7.163-16-16a36.99 36.99 0 0 1 1.897-11.692L18 19z" fill="#fadfb2"/><path d="M16 59l8.932-4.872a3.97 3.97 0 0 0 .906-6.29l-.07-.07C24.636 46.636 24 45.101 24 43.5s.636-3.136 1.768-4.268L28 37l-4-4-.586.586a4.83 4.83 0 0 1-6.828 0L16 33l-.586.586a4.83 4.83 0 0 1-6.828 0L8 33l-4 4 2.232 2.232C7.364 40.364 8 41.899 8 43.5s-.636 3.136-1.768 4.268l-.07.07a3.97 3.97 0 0 0 .906 6.29z" fill="#2b74ca"/><path d="M21.966 34.569c-.614.275-1.28.431-1.966.431a4.83 4.83 0 0 1-3.414-1.414L16 33l-.586.586a4.83 4.83 0 0 1-6.828 0L8 33l-4 4 2.232 2.232C7.364 40.364 8 41.899 8 43.5s-.636 3.136-1.768 4.268l-.07.07a3.97 3.97 0 0 0 .906 6.29l3.331 1.817c6.937-3.789 11.643-11.151 11.643-19.612a22.37 22.37 0 0 0-.076-1.764z" fill="#3d98f7"/><path d="M24.542 40.999c.297-.652.709-1.251 1.225-1.767L28 37l-4-4-.586.586a4.83 4.83 0 0 1-6.828 0L16 33l-.586.586a4.83 4.83 0 0 1-6.828 0L8 33l-4 4 2.232 2.232A6.04 6.04 0 0 1 7.458 41h-.001 17.087z" fill="#333"/><path d="M46 19l4.419-3.683a4.39 4.39 0 0 0-1.14-7.437L37.774 3.142a15.17 15.17 0 0 0-11.548 0L14.721 7.88C13.074 8.558 12 10.162 12 11.942c0 1.304.579 2.54 1.581 3.375L18 19" fill="#06f"/><path d="M46 19v-3a1 1 0 0 0-1-1H19a1 1 0 0 0-1 1v3z" fill="#e7e4dd"/><path d="m46 19c-3.168 3.802-7.861 6-12.81 6h-2.38c-4.949 0-9.642-2.198-12.81-6z" fill="#333"/><path d="M48 31h2a3 3 0 1 0 0-6h-2.49c.326 1.98.49 3.987.49 6zm-32 0h-2a3 3 0 1 1 0-6h2.49c-.326 1.98-.49 3.987-.49 6z" fill="#fadfb2"/><path d="M40 45v4l-8 3-5.037-1.889h.001a3.97 3.97 0 0 0-1.126-2.273l-.07-.07c-.78-.78-1.325-1.752-1.588-2.805h.001A15.93 15.93 0 0 0 32 47c2.889 0 5.6-.766 7.939-2.106z" fill="#f5cf88"/><path d="m40 49 5 3-13 6v-6z" fill="#a8b0bc"/><g fill="#333"><path d="M32 62h30v-4a6 6 0 0 0-6-6H45l-13 6z"/><path d="M32 62H2v-4a6 6 0 0 1 3.491-5.452l-.003.002a3.96 3.96 0 0 0 1.581 1.578L16 59l8.326-4.542L32 58z"/></g><circle cx="32" cy="9" fill="#e7e4dd" r="3"/><path d="M47 52v3a1 1 0 0 0 1 1h6a1 1 0 0 0 1-1v-3" fill="#2a7fff"/><path d="M21.55 41c.32-1.506.492-3.066.492-4.667l-.076-1.763c-.614.274-1.28.43-1.966.43a4.83 4.83 0 0 1-3.414-1.414L16 33l-.586.586a4.83 4.83 0 0 1-6.828 0L8 33l-4 4 2.232 2.232A6.04 6.04 0 0 1 7.458 41h-.001z" fill="#4d4d4d"/></svg>