<svg xmlns="http://www.w3.org/2000/svg" xmlns:v="https://vecta.io/nano" width="512" height="512" viewBox="0 0 64 64"><path fill="#c1c8d1" d="M26.288 44.801l-3.958 2.375 10.292 4.75v-4.75z"/><path fill="#fadfb2" d="M43.705 21.051l.082.244a29.284 29.284 0 0 1 1.502 9.256 12.67 12.67 0 0 1-12.667 12.667 12.67 12.67 0 0 1-12.667-12.667 29.284 29.284 0 0 1 1.502-9.256l.082-.244z"/><path fill="#2b74ca" d="M19.955 52.718l7.071-3.857a3.143 3.143 0 0 0 .717-4.98l-.055-.055a4.78 4.78 0 0 1 0-6.758l1.767-1.767-3.167-3.167-.464.464a3.824 3.824 0 0 1-5.405 0l-.464-.464-.464.464a3.824 3.824 0 0 1-5.406 0l-.464-.464-3.167 3.167 1.767 1.767a4.78 4.78 0 0 1 0 6.758l-.055.055a3.143 3.143 0 0 0 .717 4.98z"/><path fill="#3d98f7" d="M24.678 33.377c-.486.218-1.013.341-1.556.341a3.824 3.824 0 0 1-2.703-1.119l-.464-.464-.464.464a3.824 3.824 0 0 1-5.406 0l-.464-.464-3.167 3.167 1.767 1.767a4.78 4.78 0 0 1 0 6.758l-.055.055a3.143 3.143 0 0 0 .717 4.98l2.637 1.438c5.492-3 9.217-8.828 9.217-15.526a17.71 17.71 0 0 0-.06-1.397z"/><path fill="#333" d="M26.717 38.467c.235-.516.561-.99.97-1.399l1.768-1.767-3.167-3.167-.464.464a3.824 3.824 0 0 1-5.405 0l-.464-.464-.464.464a3.824 3.824 0 0 1-5.406 0l-.464-.464-3.167 3.167 1.767 1.767a4.782 4.782 0 0 1 .971 1.4h-.001 13.527z"/><path fill="#06f" d="M43.705 21.051l3.498-2.916a3.475 3.475 0 0 0-.903-5.888l-9.108-3.751a12.01 12.01 0 0 0-9.142 0l-9.108 3.751c-1.304.537-2.154 1.807-2.154 3.216 0 1.032.458 2.011 1.252 2.672l3.498 2.916"/><path fill="#e7e4dd" d="M43.705 21.051v-2.375a.792.792 0 0 0-.792-.792H22.33a.792.792 0 0 0-.792.792v2.375z"/><path fill="#333" d="M43.705 21.051a13.2 13.2 0 0 1-10.141 4.75h-1.884a13.2 13.2 0 0 1-10.141-4.75z"/><path fill="#fadfb2" d="M45.288 30.551h1.583a2.375 2.375 0 1 0 0-4.75H44.9a29.24 29.24 0 0 1 .388 4.75zm-25.333 0h-1.583a2.375 2.375 0 1 1 0-4.75h1.971a29.24 29.24 0 0 0-.388 4.75z"/><path fill="#f5cf88" d="M38.955 41.635v3.167l-6.333 2.375-3.988-1.495h.001a3.143 3.143 0 0 0-.891-1.799l-.055-.055a4.78 4.78 0 0 1-1.257-2.221h.001a12.611 12.611 0 0 0 6.19 1.613c2.287 0 4.433-.606 6.285-1.667z"/><path fill="#a8b0bc" d="M38.955 44.801l3.958 2.375-10.292 4.75v-4.75z"/><g fill="#333"><path d="M32.621 55.093h23.75v-3.167a4.75 4.75 0 0 0-4.75-4.75h-8.708l-10.292 4.75z"/><path d="M32.621 55.093H8.871v-3.167a4.75 4.75 0 0 1 2.764-4.316l-.002.002c.289.528.723.962 1.252 1.249l7.07 3.857 6.591-3.596 6.075 2.804z"/></g><circle cx="32.621" cy="13.135" r="2.375" fill="#e7e4dd"/><path fill="#2a7fff" d="M44.496 47.176v2.375a.792.792 0 0 0 .792.792h4.75a.792.792 0 0 0 .792-.792v-2.375"/><path fill="#4d4d4d" d="M24.348 38.468c.253-1.192.39-2.427.39-3.695l-.06-1.396c-.486.217-1.013.34-1.556.34a3.824 3.824 0 0 1-2.703-1.119l-.464-.464-.464.464a3.824 3.824 0 0 1-5.406 0l-.464-.464-3.167 3.167 1.767 1.767a4.782 4.782 0 0 1 .971 1.4h-.001z"/></svg>