<svg xmlns="http://www.w3.org/2000/svg" xmlns:xlink="http://www.w3.org/1999/xlink" width="1706.667" height="1314.667" viewBox="0 0 1280 986" preserveAspectRatio="xMidYMid meet" xmlns:v="https://vecta.io/nano"><g fill="#fff"><path d="M551 8.5V11h16.8 16.7l-16.7 7.7-16.8 7.6v3.4V33h21 21v-2.5V28l-17.2-.1h-17.3l5.5-2.6c3-1.4 10.4-4.5 16.4-6.9 6.1-2.5 11.5-4.9 12.1-5.4s1-2.3.7-4l-.4-3h-20.9H551v2.5zM161.3 26.1c-4 1.2-7.9 5.8-9.5 11.2-.6 2.3-1.2 9-1.2 14.8.1 13.6 2.3 19.1 9.1 22.1 7.7 3.4 15.9.4 18.9-6.8 2.1-5 1.8-6.4-1.4-6.4-2.3 0-3 .6-3.7 3.2-.6 1.7-2.2 4-3.7 5.2-3.4 2.5-7.1 1.5-10.2-2.7-1.9-2.6-2.1-4.2-2.1-16.1 0-11 .3-13.6 1.8-15.9 4-6.2 11.5-5.7 13.9.9 1 2.8 1.7 3.4 4 3.4 1.9 0 2.8-.5 2.8-1.6 0-2.8-3.1-8.2-5.5-9.8-3.1-2-9.2-2.7-13.2-1.5zm130 .8c-3 1.4-4.9 3.2-6.5 6.3-2.1 3.9-2.3 5.6-2.3 17.3 0 11.6.2 13.5 2.3 17.2 3.1 5.9 6.2 7.6 13.6 7.8 4.9.1 6.9.6 10.1 2.8 4.7 3.2 5.6 3.3 7.2.8 1-1.7.7-2.2-2.8-4.6-2.8-1.8-3.9-3.2-3.6-4.3.3-.9 1.3-3.7 2.2-6.2 2.4-6.5 1.8-24.9-1-30.4-3.8-7.6-11.5-10.3-19.2-6.7zm9.8 4.1c3.4 1.9 5.2 7 5.7 16.6.8 16.1-3.4 24.9-11.1 22.8-5.4-1.6-7.2-6.6-7.2-20.4 0-9 .4-12.2 1.8-14.7 2.7-5 6.6-6.5 10.8-4.3zM85 28.5c0 2.4.3 2.5 5.5 2.5H96l.2 21.7.3 21.8h3 3l.3-21.8.2-21.7h5.5c5.2 0 5.5-.1 5.5-2.5V26H99.5 85v2.5zm35 22V75h12.5H145v-2.5c0-2.5 0-2.5-9.5-2.5H126v-8.9-8.9l8.9-.7c8.1-.6 8.8-.9 8.4-2.6-.5-1.6-1.5-1.9-6.7-1.9-10.5 0-10.6-.1-10.6-8.6V31h9c8.9 0 9 0 9-2.5V26h-12-12v24.5zm68-1v24.2c0 .5 1.2.8 2.8.8h2.7l.3-11.3.3-11.2h7.8c6.3 0 8 .3 8.5 1.6.3.9.6 6 .6 11.5V75h3 3V50.5 26h-3-2.9l-.3 10.2-.3 10.3-5 .3c-2.7.2-6.5.1-8.2-.3l-3.3-.6v-6.8c0-10.3-.8-13.1-3.6-13.1H188v23.5zm39 1V75h3 3V56.2c.1-14.9.3-18.3 1.2-16.7.7 1.1 4.4 9.4 8.4 18.5l7.1 16.5 3.7.3 3.6.3V50.6 26h-3-3v18.7l-.1 18.8-5-11.5c-2.7-6.3-6.5-14.8-8.4-18.8-3.3-6.9-3.5-7.2-7-7.2H227v24.5zm40 0V75h3 3V50.5 26h-3-3v24.5zm54.2-4.2c.3 22.1.7 23.6 6.5 27.4 3.9 2.6 13.3 2.4 17-.3 5.7-4.1 6.3-7 6.3-28.2V26h-2.9-3l-.3 20.1-.3 20.1-2.8 2.4c-3.7 3.1-8.1 3.1-11.2-.1-2.4-2.3-2.5-2.9-2.5-16.3 0-7.7-.3-16.7-.6-20.1-.7-5.9-.8-6.1-3.6-6.1h-2.9l.3 20.3zm39.8 4.2v24.6l12.3-.3c11.8-.3 12.2-.4 12.5-2.6.3-2.1.1-2.2-9.2-2.2H367v-8.9-8.9l8.5-.7c7.4-.6 8.5-1 8.5-2.6 0-1.7-.8-1.9-6.2-1.9-10.8 0-10.8-.1-10.8-8.6V31h9c8.9 0 9 0 9-2.5V26h-12-12v24.5zm202.5-9.6c-6.4 1.2-10.5 3.8-12.2 7.9-3 7.1 0 14.1 7.4 17.4 3.9 1.7 6.2 2 15.2 1.6 8.8-.3 11.2-.7 14.2-2.5 8.7-5.5 7.9-18.2-1.6-22.4-4.8-2.1-16.8-3.2-23-2zm22.2 7.4c7 3.7 4.6 11.1-4.3 13.5-6.1 1.6-18 1-22.3-1.3-4.8-2.4-6.1-8.6-2.5-11.6 4-3.3 23.3-3.6 29.1-.6zm25.5 16.4l.3 4.6 8.8 3.3c4.9 1.8 9.1 3.5 9.3 3.7.3.3-3.8 2-9 3.8l-9.6 3.4v4.7 4.6l5.8-1.7c3.1-1 6.7-2.3 7.8-2.9 5.6-3 18-6.2 23.9-6.2 8.8 0 9.5-.4 9.5-5.6V72h-9.1c-8.8 0-9.5-.2-23.5-6l-14.5-5.9.3 4.6zm407 5.9c-1.2.8-3.4 3.7-4.7 6.4-2.6 5.2-5.3 7.4-7.9 6.4-3.2-1.2-2.9-5.8.5-6.7 1.4-.4 1.9-1.4 1.9-3.6 0-3.9-2.6-4.2-6.7-.7-2.4 2.1-2.8 3.2-2.8 7.5 0 6.6 3.3 10.3 9.4 10.5 4.8.1 7.1-1.8 11-9.1 1.8-3.3 3.3-4.9 4.9-5.1 5.2-.8 7.4 5.9 2.7 8-1.8.8-2.5 1.9-2.5 4.1 0 2.8.2 2.9 3.2 2.3 4.3-.8 5.6-2.2 6.8-6.8 2.1-7.7-2.6-14.8-9.9-14.8-2 0-4.7.7-5.9 1.6zM551 78.5V81h21 21v-2.5V76h-21-21v2.5zm0 20.5c0 12.3.1 13 2 13 1.7 0 2-.7 2-5v-5h19 19v-2.5V97l-17.5-.1-18.7-.3c-.8-.1-1.4-2.1-1.6-5.4-.3-4.4-.6-5.2-2.3-5.2-1.8 0-1.9.8-1.9 13zM94.1 92.2c-5.4 2.9-6.6 6.1-6.6 17.8 0 12.5 1.4 15.6 7.8 17.7 5.9 2 10.6-.1 13.5-5.7 4.1-8.2 2.4-24.3-3.1-28.8-2.3-2-8.8-2.5-11.6-1zm8.5 8.3c1.7 4 1.9 13.9.3 18.3-1.9 5.5-6.1 5.2-8-.5-1.4-4.4-.8-17.5 1-19.7 2.3-2.7 5.1-2 6.7 1.9z"/><path d="M116 110v18h3 3v-10c0-5.5.4-10 .9-10s2.6 4.4 4.8 9.7c3.9 9.7 3.9 9.8 7.6 10.1l3.7.3v-18V92h-3-3v10.7c0 5.9-.4 10.3-.8 9.7-.4-.5-2.5-5.3-4.7-10.7l-3.8-9.7h-3.9-3.8v18zm29.2-.3l.3 17.8 9.3.3 9.2.3V125v-3h-6-6v-15-15h-3.5-3.5l.2 17.7zm22.8.3v18h3.5 3.5v-18-18h-3.5-3.5v18zm13 0v18h3 3l.1-7.8c.1-4.2.4-8.8.8-10.2.6-2.2 1.1-1.5 3.9 5.5l4.2 10.2c.7 1.8 1.8 2.3 4.4 2.3 4.3 0 4.3-.2 3.8-20.3l-.4-15.7h-2.9-2.9l-.1 10.7c0 12.2.2 12.3-6-3l-3.1-7.7h-3.9-3.9v18zm29.2-.3l.3 17.8h9.5 9.5l.3-2.8.3-2.7h-6.5c-6.5 0-6.6 0-6.6-2.8.1-4.4 3.2-7.2 7.9-7.2 3.9 0 4.1-.2 4.1-3v-3h-6-6v-4c0-4 0-4 3.8-4 6.1 0 8.2-1 8.2-3.6 0-2.4-.2-2.4-9.5-2.4H210l.2 17.7zm36.8-5.2c0 11.7.1 12.5 1.9 12.5 1.7 0 2-.8 2.3-4.8.2-3.3.7-4.7 1.8-4.8.8-.1 9.9-.2 20.3-.2l18.7-.2v-2.5-2.5h-20.5H251v-5c0-4.3-.3-5-2-5-1.9 0-2 .7-2 12.5zm198.3-10c-5 2.2-6.7 6.5-6.7 17.5-.1 11.6 1.7 16.3 7 18 2.7.9 4 .9 6.4-.3 1.6-.9 3-1.1 3-.6s.9.9 2 .9c1.9 0 2-.7 2-10.1v-10l-5.2.3c-3.9.2-5.3.7-5.3 1.8 0 1 1.2 1.6 3.3 1.8 3.6.4 4 1.8 2.2 8.4-1.1 3.8-3.5 5.4-6.8 4.3-3.1-.9-4.2-5-4.2-14.9 0-8 .3-9.7 2.1-12 2.8-3.5 6.8-3.2 8.7.6.8 1.7 2.1 2.8 3.3 2.8 2.2 0 2.2.2.8-4-.8-2.2-2.2-3.7-4.5-4.6-4-1.7-4.1-1.7-8.1.1zm-135.8.7c.2.7 1.8 8.8 3.6 18 3 16 3.3 16.8 5.5 16.8 2.5 0 2.1 1.3 6-19.5l1.8-9 2.9 14.3c2.8 13.4 3.1 14.2 5.3 14.2 1.3 0 2.4-.1 2.4-.3s1.6-8.2 3.5-17.7l3.5-17.7c0-.2-.9-.3-2-.3-1.4 0-2.1.9-2.6 3.7-.3 2.1-1.6 8.5-2.8 14.3l-2.2 10.5-1.2-6.5c-3.9-20.3-4.4-22.1-6.5-21.8-1.8.3-2.5 2.2-5.1 14.3l-3 14-2.5-14.3c-2.3-13.5-2.5-14.2-4.7-14.2-1.4 0-2.2.5-1.9 1.2zM348 112v18h8.5c7.8 0 8.5-.2 8.5-2s-.7-2-6.5-2H352v-6.5-6.5h6c5.3 0 6-.2 6-2s-.7-2-6-2h-6.1l.3-5.8.3-5.7 6.3-.3c4.6-.2 6.2-.7 6.2-1.7 0-1.2-1.7-1.5-8.5-1.5H348v18zm22 0v18h6.6c5.9 0 6.8-.3 9.5-2.9 3.8-3.9 4.1-10.9.6-14.5-2.3-2.3-2.3-2.4-.5-4.6 2.6-3.2 2.3-8.6-.7-11.5-2.1-2.2-3.3-2.5-9-2.5H370v18zm11.8-13.4c2.6 1.8 3 6.5.6 8.8-.8.9-3.1 1.6-5 1.6H374v-6c0-5.9 0-6 2.8-6 1.5 0 3.8.7 5 1.6zm-1.1 14.5c3.4 1.3 4.3 2.5 4.3 6.5 0 4.4-2 6.5-6.8 7.1l-4.2.6v-7.7c0-8.4.5-8.9 6.7-6.5zM394 112c0 17.3.1 18 2 18 1.8 0 2-.7 2-7.4v-7.3l5.1-.7c6.8-.9 9.9-4.2 9.9-10.3 0-3.6-.6-5-2.9-7.4-2.7-2.6-3.6-2.9-9.5-2.9H394v18zm13.7-12.3c1.8 2.3 1.6 6.4-.3 9.1-1.1 1.6-2.5 2.2-5.5 2.2H398v-6.3c0-3.5.3-6.7.8-7.1 1.2-1.3 7.6.2 8.9 2.1zm9.9 10l-4.3 18c-.4 1.8-.1 2.3 1.5 2.3 1.7 0 2.3-1 3.3-5.5l1.2-5.5h4.7 4.7l1.3 5.5c1 4.2 1.8 5.5 3.2 5.5 1 0 1.8-.7 1.8-1.5 0-.9-1.9-9-4.1-18-4.1-16.2-4.2-16.5-6.8-16.5-2.7 0-2.8.3-6.5 15.7zm7.4-7.4c0 1.2.7 4.6 1.4 7.4l1.4 5.3h-3.7-3.8l1.6-7.9c1.5-7.4 3.1-9.9 3.1-4.8zm40 9.7v18h8.5c7.8 0 8.5-.2 8.5-2s-.7-2-6.5-2H469v-6.5-6.5h6c5.3 0 6-.2 6-2s-.7-2-6-2h-6.1l.3-5.8c.2-4.2.7-5.7 1.8-5.8.8-.1 3.6-.2 6.3-.3 3.5-.1 4.7-.5 4.7-1.6 0-1.2-1.6-1.5-8.5-1.5H465v18zm542.8-16.8c-2.1.5-4.9 2.3-6.3 4-2.2 2.6-2.5 3.9-2.5 10.4v7.4h17.6 17.6l-.4-7.5c-.3-6.7-.6-7.8-3.3-10.5-4.4-4.4-14.3-6-22.7-3.8zm18 8.5c1.1 1 2.3 2.8 2.7 4 .6 2.3.6 2.3-11.9 2.3-11.9 0-12.6-.1-12.6-2 0-1.1.9-2.9 2-4 2.8-2.8 16.7-2.9 19.8-.3zM611 109.5v14.2c0 .5 1.5.9 3.5 1.1 3.3.3 3.5.1 3.5-2.6 0-1.7.9-3.7 2.3-5 2.2-2.1 3.2-2.2 20-2.2H658v-4.5-4.5l-19.7-.2-19.8-.3-.3-4.8c-.3-4.6-.4-4.7-3.8-4.7H611v13.5zm-37 5.1l-19.2 5.5c-3.5.9-3.8 1.3-3.8 4.4 0 3.3.2 3.5 5.3 4.9 9.8 2.9 35.1 9.6 35.9 9.6.4 0 .8-1.1.8-2.4 0-2.1-.8-2.7-6.2-4.3l-6.3-1.9v-5.9-6l6-1.6c5.3-1.4 6-1.9 6.3-4.2.4-3.5.1-3.5-18.8 1.9zm1.4 7.6c1 3.7.7 6.8-.6 6.8-.7 0-5-1-9.5-2.2l-8.2-2.3 7.7-2.1c10-2.8 9.9-2.8 10.6-.2zm-328.2 2c.3 2.3.4 2.3 17.6 2.3l17.2.1c0 .1-7.9 3.4-17.6 7.4l-17.5 7.3.3 3.1.3 3.1 22.3.3 22.2.2v-2.5-2.5l-18.2-.2-18.3-.3 13.5-5.3 18-7c3.9-1.5 4.5-2.2 4.8-5l.3-3.2h-22.6-22.6l.3 2.2zm754.3.3c-2.2 2.2-2.5 3.2-2.5 10.4v8l4.3.6c2.3.3 10.1.5 17.2.3l13-.3.3-3.3.3-3.2h-7.7-7.6l.6-3.2c.3-1.7.8-3.4 1.1-3.6.3-.3 3.3-.8 6.7-1.1 6.3-.6 6.3-.6 6.6-4l.3-3.4-7.1.5c-4.3.3-7.7 1.1-8.8 2.1-1.5 1.4-1.9 1.4-4.1-.4-3.4-2.8-9.6-2.5-12.6.6zm11.6 7.2c1.5 4.1.5 5.3-4.6 5.3-4.1 0-4.5-.2-4.5-2.4 0-4.4 1-5.6 4.6-5.6 2.8 0 3.6.5 4.5 2.7zm-402.2-2.2l-.2 4.2v3.8l23.6.3 23.7.2v-4.5-4.5h-23.5c-12.9 0-23.5.2-23.6.5zm532.5 3.4c-8.2 5-10.8 13-10.2 31.5.5 14.7 2 19.9 6.9 24.1 5.4 4.5 14.9 4.1 18.3-.7 1.4-2 1.4-2 1.8.3.2 1.8 1 2.5 3.1 2.7l2.7.3v-16.6-16.6l-8.2.3c-8.2.3-8.3.3-8.6 3s-.2 2.8 4.6 2.8c4.6 0 5 .2 5.5 2.7.7 4.1-.7 12.7-2.5 15.6-2.1 3-6.2 4.2-9.9 2.7-4.6-1.9-6.2-6.9-6.7-20.6-.7-18.4 2.7-27.4 10.3-27.4 4.1 0 7.3 2.4 8.3 6.3.7 2.7 1.3 3.3 4.2 3.5 3.3.3 3.3.3 2.7-3.3-.8-4.8-3-8.1-7-10.5-4.1-2.6-11.2-2.6-15.3-.1zm-88.4 28.6v29.6l13.8-.3 13.7-.3.3-2.8.3-2.7h-10.5-10.6v-11.3c0-7.6.3-10.7 1-9.7.6 1 1 1.1 1 .2s2.4-1.2 8.5-1.2h8.5v-3-3h-7.2c-12.1 0-11.8.2-11.8-10.1V138h10 10v-3-3h-13.5-13.5v29.5zm35.2-.3l.3 29.3h3 3l.5-21.9.5-21.9 2.8 5.9c1.5 3.2 5.6 13.1 9 21.9l6.3 16h3.9 4l.3-22c.2-12.1 0-25.3-.3-29.3-.7-7.1-.7-7.2-3.6-7.2h-2.9l-.1 22.7v22.8l-8.5-21-9.1-22.8c-.4-1.3-1.6-1.7-4.9-1.7h-4.4l.2 29.2zm86.8.3V191h2.9c2.1 0 3-.6 3.5-2.3.8-3 .8-42.8 0-50.6-.7-5.9-.8-6.1-3.5-6.1h-2.9v29.5zm18 0V191h3 3v-23.3-23.2l2.8 6c1.6 3.3 5.9 13.8 9.6 23.2l6.8 17.3h3.9 3.9v-29.5V132h-3-3v22.7c-.1 26.2.5 26-8.5 3.3-3.1-8-6.8-17.1-8.2-20.3-2.5-5.5-2.7-5.7-6.4-5.7h-3.9v29.5zm44.2-.3l.3 29.3 13.8.3 13.7.3V188v-3h-10.5-10.5v-9.6c0-12.1.3-12.4 10.8-12.4 4.3 0 8.1-.2 8.4-.5s.3-1.7 0-3c-.4-2.4-.8-2.5-7.6-2.5-11.9 0-11.6.2-11.6-10.1V138h9.8c5.4 0 10.1-.2 10.4-.5s.3-1.7 0-3l-.4-2.5h-13.4-13.4l.2 29.2zm-621.8-15.8c-5.4 2.4-6.4 4.9-6.4 16.2v10.1l3.8.7c2 .3 12.6.6 23.5.6H658v-4.5-4.5h-8.4c-12.6 0-13.9-1.1-8.8-6.8 2.6-2.9 3.5-3.2 8.5-3.2 7.9 0 8.7-.5 8.7-5.4v-4.1l-8.7.4c-8.7.3-14.3 2-14.3 4.3 0 .7-.9.2-2.1-1.1-3.9-4.2-9.8-5.2-15.5-2.7zm12.4 10.3c.6.9 1.2 3.2 1.2 5 0 3.3 0 3.3-4.9 3.3-6.7 0-8.1-.7-8.1-3.9 0-1.9.8-3.2 2.5-4.1 1.4-.7 2.5-1.8 2.5-2.3 0-1.4 5.3.2 6.8 2zm-78.8-6.8c0 3.4.3 3.9 2.8 4.5 1.5.3 9 2.3 16.6 4.5l13.9 3.8-4.9 1.2-16.6 4.3-11.8 3.1v3.8 3.9h21 21v-2.5-2.5l-17.2-.1-17.3-.1 15.5-3.5c19.5-4.3 19.9-4.5 19.3-7.6-.4-2.3-1.8-2.8-15.6-6.6l-16.2-4.6c-.5-.2 6.3-.4 15.3-.4l16.2-.1v-2.5-2.5h-21-21v3.9zm466 1.5l-15.2 3.9c-2.5.7-2.8 1.2-2.8 5.1v4.4l16.5 4.1 17.5 4.1c.7 0 1-1.4.8-3.2-.3-2.8-.8-3.4-4.3-4.4-2.7-.7-4-1.6-3.9-2.7.3-6.6.3-6.5 4.4-7.2 3.8-.6 4-.9 4-4.1 0-4.3-.4-4.3-17 0zm2 9.2c0 2.3-.3 2.5-2.2 2-1.3-.4-4.1-1-6.3-1.4l-4-.6 5-1.2c7.2-1.7 7.5-1.7 7.5 1.2z"/><path d="M288 161.5v8.5h-8.4-8.4l-.7-7.5c-.6-6.5-.9-7.5-2.6-7.5s-1.9.8-1.9 7.5v7.5h-7.5-7.5v-8c0-7.3-.2-8-2-8-1.9 0-2 .7-2 10.4v10.3l4.8.5c2.6.3 12.6.5 22.2.4l17.5-.1.3-10.4c.3-10.1-.2-12-3-12.1-.5 0-.8 3.8-.8 8.5zm717.5 14.3c-5.1 2.4-6.5 5.5-6.5 14.2v6.8l17.5.2 17.5.1v-6.6c0-11.9-3.8-15.7-16.5-16.2-6.3-.3-8.9 0-12 1.5zm21 7.3c.8.8 1.6 2.5 1.7 3.9l.3 2.5-12.2.3c-12.2.3-12.3.2-12.3-2 0-3 1-4.5 4-5.7 3.5-1.5 16.8-.7 18.5 1zm-392.4-1.3l-23.4 5.7v5.5 5.5l4.4 1.3c2.4.7 12.3 3 21.9 5.3l19.3 4.5c1.4.5 1.7-.1 1.7-4 0-4.2-.2-4.6-2.7-5.2-7-1.5-7.8-2-8.1-5.1-.4-3.9 3-7.8 7.6-8.7 3.1-.7 3.2-.9 3.2-5.7 0-2.7-.1-4.9-.2-4.8-.2.1-10.8 2.6-23.7 5.7zm4.4 11.3c.4 1.7.5 3.2.2 3.5-.2.2-2.7-.1-5.6-.8-5.6-1.3-6.8-3.4-2.3-4.4 1.5-.3 3.2-.7 3.7-.9 2.5-.8 3.4-.3 4 2.6zM247 188c0 4.5-1.4 3.9 22 9.5 15.5 3.7 16.5 2.8-8.2 8.5l-13.8 3.2v3.9 3.9h22.5H292v-2.5-2.5l-18.2-.2-18.3-.3 13.5-2.8c24.6-5.1 23.2-4.6 22.8-7.6-.3-2.5-1-2.8-16.3-6.7-20.5-5.2-20.2-5.1-12-5.1 3.9.1 11.8 0 17.8-.1l10.7-.2v-2.5-2.5h-22.5H247v4z"/><path d="M555.7 187.1c-3.2 1.9-4.7 6.5-4.7 14.7v8l12.3.4c6.7.2 16.1.2 21 0 8.4-.4 8.7-.5 8.7-2.8 0-2.4-.1-2.4-9.5-2.4H574v-4.3c0-6.7 2-8.7 8.8-8.7 8.2 0 10.2-.8 10.2-3.7 0-2.5-.1-2.5-7.9-2.2-6.3.3-8.6.9-11 2.7-1.7 1.2-3.1 1.8-3.1 1.3 0-3.1-11.3-5.3-15.3-3zm12.2 6.3c.7.8 1.6 3.7 1.9 6.5l.5 5.1h-7.7-7.6v-4.8c0-7 2.6-9.6 8.5-8.6 1.6.2 3.6 1.1 4.4 1.8zM999 206v3h10.3l10.2.1-7.7 3.4c-4.3 1.9-8.9 3.7-10.3 4.1-2.1.5-2.5 1.2-2.5 4.4 0 3.7.1 3.7 4.6 4.4 5.9.8 25.2.8 28.2 0 1.8-.5 2.2-1.3 2-3.3l-.3-2.6-11.5-.5-11.5-.5 8-2.3c12-3.4 14.9-5.2 15.3-9.6l.3-3.6h-17.5H999v3zm53.2 18.7l.3 17.8 3.2.3 3.1.3.6-6.3c.7-8.9.7-8.8 3.1-8.8 3.3 0 4.4 1.9 4.7 8.5.3 6 .3 6 3.6 6.3l3.2.3v-6.8c0-4.7-.5-7.6-1.6-9.1-1.4-2-1.4-2.5-.2-4 2.4-2.8 2.9-5.2 1.8-9.3-1.5-5.3-4.8-6.9-14.5-6.9h-7.5l.2 17.7zm13.2-11.4c2.2 1.6 2.5 6.5.5 7.8-.8.5-2.6.9-4.1.9-2.7 0-2.8-.2-2.8-5 0-4.6.2-5 2.3-5 1.3 0 3.1.6 4.1 1.3zM1079 225v18.1l9.8-.3 9.7-.3.3-2.8.3-2.7h-6.5c-6.5 0-6.6 0-6.6-2.8.1-4.4 3.2-7.2 7.9-7.2 3.9 0 4.1-.2 4.1-3v-3h-6-6v-4-4h6 6v-3-3h-9.5-9.5v18zm22.2-16.8c.3.7 2.4 8.8 4.8 18l4.3 16.8h4.2 4.2l4.1-17.3 4.2-18c0-.4-1.5-.7-3.3-.7h-3.4l-1.8 8.7a248.1 248.1 0 0 1-3 12.8l-1.2 3.9-2.9-12.4-2.9-12.5-3.9-.3c-2.9-.3-3.7 0-3.4 1zm29.6 1.9c-.3 1.7-.3 9.8 0 18.1l.5 14.9 3.1-.3 3.1-.3.3-10.5c.2-5.8 0-13.8-.3-17.8-.7-7.1-.7-7.2-3.5-7.2-2.3 0-2.8.5-3.2 3.1zM1144 225v18h9.4c9.2 0 9.4-.1 9.8-2.5.3-1.3.3-2.7 0-3s-3.2-.5-6.4-.5h-5.8v-3.6c0-4.5 2.1-6.3 7.3-6.4 3.4 0 3.7-.2 3.7-3 0-3-.1-3-5.5-3h-5.5v-4-3.9l5.8-.3c5.4-.3 5.7-.4 6-3.1l.3-2.7h-9.5-9.6v18zm22-17.2c0 .9 5.5 28.7 6.5 32.9.4 1.8 1.2 2.3 3.9 2.3 3.8 0 4.1-.7 6.7-15.9l1.3-7.4 1.2 5.9 2.5 11.7 1.2 5.8 3.6-.3 3.6-.3 3.2-15.5c4.1-20.1 4.1-20 .3-20-3.3 0-3-.8-5.7 14l-1.7 9.5-.8-4.5c-.4-2.5-1.5-7.8-2.4-11.8-1.6-7.3-1.6-7.3-4.7-7s-3.1.3-5.4 11.2c-2.4 11.5-3.3 13.8-3.3 9 0-1.6-.7-6.8-1.6-11.7l-1.6-8.7h-3.4c-1.9 0-3.4.4-3.4.8zm-515.2 12.7l-.3 8-20 .3-20 .2.3 3.9c.4 3.7.5 3.9 4.9 4.5 2.5.3 13 .6 23.3.6 15.3 0 18.9-.3 19.3-1.4.3-.8.3-6.4 0-12.4l-.6-11-3.3-.4-3.3-.4-.3 8.1zm-91.1-1.1c-5 1.8-7.4 4.1-8.7 8.2-2.1 6.3.8 12.7 7.4 16.1 4 2.1 16 2.8 22.9 1.3 8.5-1.7 11.9-5 12.5-12.3.4-5.4.3-5.8-3-9.1-1.9-1.9-5.2-3.9-7.3-4.5-5.5-1.5-19.2-1.3-23.8.3zm25.3 6c1.3.6 3.1 2.3 4 3.8 1.3 2.5 1.3 3.1 0 5.5-2.1 3.7-6.8 5.2-16.7 5.2-10 .1-15.7-1.8-17.1-5.7-1-3-.2-6.1 2.2-8.1 3.5-2.9 21.8-3.4 27.6-.7zm-338 3.1v2.5h22.5H292v-2.5-2.5h-22.5H247v2.5zm769 3.9l-16.5 4.2-.3 4.5-.3 4.6 15.8 3.7 17.6 4.3c1.4.3 1.7-.2 1.7-2.9 0-3.2-.3-3.5-4.6-4.6-4.3-1.2-4.6-1.4-3.9-4l.8-3.7c.1-.5 1.8-1.5 3.7-2.1 3.1-.9 3.5-1.5 3.8-4.7.2-2.1 0-3.6-.5-3.6l-17.3 4.3zm3 9.2c0 2-.4 2.5-1.6 2-.9-.3-3.4-.9-5.5-1.2-4.5-.8-4.4-1.3.3-2.4 5.9-1.4 6.8-1.2 6.8 1.6zm-763.9-2.5c-6.1 1.3-7.6 3.8-7.9 13.9l-.4 9 3.4.1c9.8.4 19.5.4 30.1 0 11.5-.4 11.7-.4 11.7-2.8 0-2.3-.1-2.3-10.6-2.3h-10.6l.7-4.8c1-6.7 2.1-7.5 12-8 8.4-.4 8.5-.5 8.5-3.1v-2.6l-8.7.5c-8.7.5-13.3 2-13.3 4.2 0 .6-1.1.1-2.4-1.1-2.9-2.8-8-4-12.5-3zm9.9 6.9c1.4 1.4 2 3.3 2 6.5v4.5h-8-8v-4.5c0-5.9 2.5-8.5 8-8.5 2.7 0 4.7.7 6 2zm345.8 2.9l-.3 3.9 4.4.6c2.4.3 10.8.6 18.7.6 13.1 0 14.6.2 16.4 2 2.5 2.5 2.5 4.1.1 7.1-1.9 2.3-2.4 2.4-20.5 2.7l-18.6.4v3.8 3.8l7.7.8c10 .9 31.4 0 34.2-1.6 5.9-3.1 8.2-15.1 4.1-21.7-3.5-5.8-5.8-6.3-26.8-6.3h-19l-.4 3.9zm239.7 1.5c-4.6 2.1-6.7 5.1-7.2 10.3-.6 6.6 1.9 10.2 10.2 14.8 9.3 5.2 11.9 11.2 7.4 16.9-3.9 4.9-11.8 2.7-13.5-3.9-.5-1.8-1.3-2.5-3.1-2.5-2.4 0-2.5.3-2 3.7.4 2.2 1.9 4.9 3.7 6.8 2.6 2.6 3.8 3 8.4 3 9.4 0 14-4.5 13.9-13.9-.1-6.2-2.2-9-10.7-14.2-7.8-4.7-8.6-5.6-8.6-10.5 0-6.7 6.9-9.4 10.9-4.3 1.2 1.5 2.1 3.3 2.1 4.1 0 1 .9 1.3 2.8 1.1 2.2-.2 2.6-.7 2.4-2.8-.5-3.9-3-7-6.7-8.6-4.2-1.7-6.1-1.7-10 0zm116.8-.3c-4.9 1.4-7.3 5.2-7.3 11.5 0 6.2 2.8 10.2 9.4 13.6 7 3.5 9.6 6.6 9.6 11.5 0 9.7-10.8 11.7-14.6 2.7-1.1-2.6-2-3.4-4-3.4-2.4 0-2.5.3-1.9 3.2 1 4.8 3.2 7.8 7 9.4 9.7 4 19.5-2.1 19.5-12.1 0-6.3-2.8-10.3-10.6-15-9.3-5.6-11.9-11-7.4-15.5 3.6-3.6 9.1-2.1 10.8 3 .8 2.3 1.7 3 3.6 3 1.7 0 2.6-.6 2.6-1.6 0-2.5-2.8-7.8-4.9-9.1-2.8-1.7-8.2-2.3-11.8-1.2zM551 261v11h21 21v-2.5c0-2.4-.1-2.4-9.7-2.7l-9.8-.3-.3-7.8c-.3-6.9-.5-7.7-2.2-7.7-1.8 0-2 .7-2 8v8.1l-6.7-.3-6.8-.3-.3-8.3c-.3-7.4-.5-8.2-2.2-8.2-1.9 0-2 .7-2 11zm230 13.5V299h2.5c2.5 0 2.5-.1 2.5-7.9 0-4.3.3-9.3.6-11 .6-2.9.9-3.1 5.4-3.1 6.2 0 7.4 1.5 7.8 10.4.4 10.4.8 11.6 3.7 11.6 2.4 0 2.5-.2 2.5-7.4 0-9.5-.7-12.9-3.3-15.7-1.5-1.6-1.7-2.4-.9-2.7 2.2-.7 4.2-6 4.2-10.9 0-9-4.6-12.3-17-12.3h-8v24.5zm17.2-17.8c2.4 2.8 3 7 1.4 10.7-1.1 2.7-2.2 3.6-4.9 4.1-1.9.4-4.5.5-5.8.3-2.3-.3-2.4-.7-2.7-8.6l-.3-8.2h5.4c3.9 0 5.8.5 6.9 1.7zm15.8 17.8V299h11.5H837v-2.5c0-2.5-.1-2.5-8.5-2.5H820v-9-8.9l7.8-.3c7.1-.3 7.7-.5 8-2.6s0-2.2-6.5-2.2c-3.7 0-7.3-.4-8-.8-.6-.4-1.3-3.9-1.5-8l-.3-7.2h8.1c4.4 0 8.3-.3 8.6-.6s.4-1.4.1-2.5c-.5-1.7-1.5-1.9-11.4-1.9H814v24.5zm61-5c0 20.7.6 24.1 4.9 27.9 2.7 2.4 11.6 3.2 15.1 1.4 1.3-.7 3.5-2.9 4.7-4.7 2.2-3.3 2.3-4.2 2.3-23.7V250h-2.5-2.5v17.7c0 18.8-.9 24.6-4 26.3a7.89 7.89 0 0 1-9.5-1.5c-2.5-2.4-2.5-2.5-2.5-22.5v-20h-3-3v19.5zm36 5v24.6l11.3-.3c10.8-.3 11.2-.4 11.5-2.6.3-2.1.1-2.2-8.2-2.2H917v-22-22h-3-3v24.5zm18-22c0 2.4.3 2.5 5.5 2.5h5.5v22 22h2.5 2.5v-13.8c0-7.5.3-17.4.7-22l.6-8.2h4.8c4.6 0 4.9-.2 4.9-2.5V250h-13.5H929v2.5zm70 10c0 11.4 0 11.5 2.4 11.5 2 0 2.4-.6 3-3.9.3-2.2 1.1-3.9 1.8-3.8l14.6-.1 13.2-.2v-3.5-3.5h-15-15v-4c0-3.6-.2-4-2.5-4H999v11.5zm53 19.1v19.5l4.8-.3 4.7-.3.3-4.1c.2-2.7 1.1-4.9 2.5-6.3 2.2-2 3.5-2.1 25.2-2.3l23-.3.3-5.8.3-5.7h-23.3c-12.8 0-24.3-.3-25.4-.6-1.8-.5-2.3-1.6-2.9-7l-.7-6.4h-4.4-4.4v19.6zm-764.2-5.4l-.3 8.3-8.1.3-8.2.3-.7-7.6c-.6-6.5-.9-7.5-2.6-7.5s-1.9.8-1.9 7.5v7.6l-7.2-.3-7.3-.3-.3-7.8c-.3-6.9-.5-7.7-2.2-7.7-1.9 0-2 .7-2 10.5V290h22.5 22.6l-.3-10.7c-.3-9.2-.5-10.8-2-11.1s-1.8.8-2 8zm733.2-.5c-2.8 1.1-6.2 4.8-8.6 9.5-1.9 3.7-3 4.8-4.8 4.8-4.7 0-6-5.5-1.6-6.7 1.5-.4 2-1.4 2-3.9 0-1.9-.4-3.4-.9-3.4-2.7 0-6.2 2.3-7.6 4.9-3.4 6.6-.4 14.5 6.1 15.7 5.5 1 8.6-.5 11.4-5.7 3.8-7 4.9-8 8.4-7.7 2.7.3 3.1.7 3.1 3.3 0 2.2-.6 3.3-2.2 4-1.7.7-2.3 1.8-2.3 4.3 0 3 .2 3.2 2.8 2.6 3.8-.9 6.9-4 7.6-7.6.8-4.3-1-10.5-3.7-12.3-2.7-1.7-7.6-2.7-9.7-1.8zM619.4 280c-1.6.5-4.1 2.1-5.5 3.6-2.1 2.3-2.5 3.7-2.9 12.9l-.5 10.4 2.9.5c1.6.3 12.2.6 23.7.6H658v-4.5-4.4l-9.2-.3-9.3-.3-.5-5.1c-.6-5.4-2.7-9.5-6.3-11.8-2.9-2-9.5-2.7-13.3-1.6zm11 11.2c.9 1.2 1.6 3.5 1.6 5 0 2.8 0 2.8-7 2.8h-7v-3.5c0-1.9.5-3.5 1.1-3.5.5 0 .7-.4.4-1-.3-.5 0-.7.8-.4s1.8.1 2.2-.5c1.2-2 6.3-1.2 7.9 1.1zM311 301.5V323h3.4c3.9 0 4.6-1.1 4.6-7.8 0-3.7.5-5 2.1-6 1.2-.7 2.3-1.1 2.5-.9.3.2 1.8 3.5 3.4 7.3l2.9 6.9 4.5.3 4.6.3-2.6-5.8-5.6-13.1-2.9-7.4 2.4-3.6c3.7-5.4 7.7-12.1 7.7-12.7 0-.3-1.8-.5-4-.5-3.9 0-4.2.3-7.9 6.2-7.2 11.5-6.8 11.4-7.6 2l-.8-8.2h-3.3-3.4v21.5zm30.7-20.8c-.4.3-.7 10-.7 21.5V323h11.5H364v-3.5-3.5h-7.6-7.7l.6-4.2c.7-5.5 3.5-7.8 9.4-7.8 4.4 0 4.4 0 4.1-3.3l-.3-3.2-6.9-.3-6.8-.3.7-3.2a65.32 65.32 0 0 0 .8-4.4c0-.8 2.7-1.5 6.9-1.9 6.5-.6 6.9-.8 6.4-2.8-.3-1.1-.6-2.7-.6-3.4 0-.9-2.7-1.2-10.3-1.2-5.7 0-10.7.3-11 .7zm25.3.5c0 .7 2.1 6.2 4.7 12.3 4.2 9.7 4.8 12.1 5.3 20l.5 9h4 4l.6-8.5c.6-7.9 1.4-10.8 6.7-24.5 3.8-9.6 3.8-9.5-.1-9.5-4.2 0-4.9.8-7.6 9-1.2 3.6-2.5 7-2.9 7.7-.5.8-1.9-1.7-3.6-6.5-1.6-4.2-3.3-8.3-3.8-9-1.3-1.6-7.8-1.6-7.8 0zm30 1.5c0 1.6 1.7 11.1 3.8 21.3l3.7 18.5 4.2.3 4.1.3 1-4.8c.6-2.6 1.6-8.1 2.3-12.1.6-4.2 1.5-7 2-6.5s1.9 5.8 3.2 11.8l2.3 11 4.1.3 4.1.3 1.1-4.8c1.1-5.1 5.5-28.2 6.6-34.6l.6-3.8-3.8.3-3.8.3-2.2 12.9c-1.2 7-2.4 13-2.6 13.2-.2.3-1.4-4.8-2.6-11.2-2.6-13.7-3.3-15.4-6.7-15.4-3.1 0-3.7 1.4-6.5 15.4-2.6 12.5-2.9 12.3-5.3-3.2-.9-5.7-1.8-10.8-2.1-11.3-.4-.5-2.2-.9-4.1-.9-3.1 0-3.4.3-3.4 2.7zm51.8.2c-4.7 4.1-6.2 9.5-5.6 21.3.5 10.6 2.2 14.8 7.1 17.8 6.3 3.9 14.8 1.5 18.3-5.2 2.5-4.8 3.1-19 1.1-25.9-2.2-7.4-5.2-10.1-12-10.7-4.9-.4-5.7-.1-8.9 2.7zm11.9 6.8c1.4 2.1 1.8 4.8 1.8 12.3 0 10.4-1.7 15-5.5 15-3.9 0-5.5-4.6-5.5-15.5 0-6.2.5-10.8 1.3-12.3 1.8-3.1 5.7-2.9 7.9.5z"/><path d="M477 301.5V323h4 4v-6.5c0-6.9 1.8-10.5 5.2-10.5 2.5 0 3.2 1.8 3.8 9.5l.5 7 3.8.3 3.7.3v-7.3c0-5.2-.5-8.4-1.9-11-1.8-3.6-1.8-3.8 0-5.4 1.4-1.3 1.9-3.1 1.9-7 0-9.2-4.7-12.2-19.2-12.4H477v21.5zm15.1-13.5c1.3.7 1.9 2.1 1.9 4.3 0 4.2-1.5 5.7-5.7 5.7-3.1 0-3.3-.2-3.3-3.4 0-1.9.7-3.9 1.6-4.7 1.4-1.2 1.4-1.4-.3-2-1.4-.6-1.2-.8 1-.8 1.6-.1 3.7.4 4.8.9zm15.9 13.5V323h7.8c13.3 0 17.9-4.4 18.9-18.3.7-8.6-1.4-17.1-4.9-20.4-2.7-2.6-9.2-4.2-16.5-4.3H508v21.5zm16.3-11.4c2.6 3.3 2.7 18 .1 23.1-1.2 2.2-2.1 2.8-4.9 2.8H516v-11.8c0-8.8.4-12.3 1.5-13.9 1.2-1.7 1.2-2.3.3-2.6-.7-.2.1-.3 1.7-.1 1.7.2 3.8 1.4 4.8 2.5zm26.7-6.6v2.5l16.4.2 16.4.3-16.4 7.4-16.4 7.4v3.4 3.3h21 21v-2.5-2.5l-17.2-.2-17.2-.3 7-2.9 16.4-6.8c5.2-2.1 9.9-4.3 10.5-4.8.7-.5 1-2.3.7-4l-.4-3h-20.9H551v2.5zm-297.7 14c-4.6 2-6.3 6-6.3 15v7.5l3.8.1c2 0 7.5.2 12.2.3 4.7.2 13.1 0 18.8-.2 9.9-.5 10.2-.6 10.2-2.8 0-2.4-.2-2.4-9.4-2.4h-9.3l-.6-5.6c-.7-6.7-2.7-10.1-7.2-12-4.3-1.7-8.1-1.7-12.2.1zm9.3 4.5c2.9 0 5.4 3.9 5.4 8.5v4.5h-8.5-8.5v-3.3c0-5.5 1.1-7.9 4.4-9.3 1.7-.7 3.7-1.1 4.4-.9.8.3 2 .5 2.8.5zm792.2 4.7c-2.6.4-2.8.8-2.8 5.4v4.9l17.3.1h18.2c3.6-.5-4.9 3.6-19 9l-16.5 6.4v6.7 6.8h30.6 30.5l-.3-5.3-.3-5.2-17.5-.3-17.5-.2 4-2.5c2.2-1.3 5.6-2.9 7.5-3.5 5.6-1.8 14.1-5 19.3-7.3l4.7-2v-6.4-6.3h-23.4c-12.8 0-25.3-.2-27.7-.4s-5.6-.2-7.1.1zM625 314.6c-5.7 1.1-8.8 2.6-11.6 5.5-2.6 2.7-2.9 3.7-2.9 9.5 0 6.3.2 6.7 3.7 9.9 4.7 4.3 10.1 5.8 20.8 5.8 10.4 0 16.1-1.5 20.2-5.2 2.7-2.4 3.2-3.6 3.5-8.7.8-11.4-5.8-16.5-22.2-17-4.9-.1-10.1 0-11.5.2zm23.2 10.6c2.8 1.4 4 4.5 2.8 6.8-1.4 2.7-7 4-17.3 4-11.3 0-15.7-1.6-15.7-5.9 0-2 .5-3 1.3-2.9.6.2 1.1-.2 1-.8s.3-1.1 1-1.2 3.5-.6 6.2-1.1c5.5-1 18-.3 20.7 1.1zm38.3-8.8c-11 4.1-13.9 19-5.4 27.4 1.8 1.7 6.2 4.7 10 6.7 7.6 4 9.9 6.5 9.9 11 0 4.8-2.5 7.5-6.9 7.5-4.1 0-6.3-1.7-8-6.3-1-2.4-1.5-2.7-6.1-2.7h-5v3.4c0 3.7 3.1 8.9 7.3 12 2.2 1.6 4.6 2.2 10.5 2.4 12.7.5 18.8-3.8 19.9-14.2 1.1-9.6-3-15.8-14.5-22.1-8.3-4.6-10.2-6.2-10.2-9 0-2.7 5.2-7.8 7.7-7.3 1 .1 2.6 2 3.6 4 1.8 3.6 2.1 3.8 6.8 3.8 4.9 0 4.9 0 4.9-3.4 0-4-3.4-9.4-7.7-11.8-4.3-2.6-11.9-3.2-16.8-1.4zm175.3.2c-5.3 1.6-8.3 4.8-9.9 10.6-2.5 9.4 1.9 16.7 13.6 22.8 8 4.1 10.5 7 10.5 12 0 4.6-2.4 7-7.3 7-3.9 0-7.7-3.5-7.7-7.1 0-1.6-.8-1.9-5.6-1.9h-5.7l.6 4c.7 5.1 4.5 10.2 9.3 12.5 2.9 1.3 5.4 1.6 11.5 1.3 11.7-.7 15.7-4.2 16.6-14.6 1-10.8-3.1-16.3-17.4-23.6-4.8-2.4-7.3-4.9-7.3-7.5 0-1.8 5.2-7.1 6.9-7.1 2.1 0 4.8 2.7 5.3 5.5.3 1.7 1.1 2 5.8 2h5.5l-.4-3c-.7-6.5-5.2-11.7-11.6-13.4-5-1.4-6.9-1.3-12.7.5zm105.9-.2c-7.4 2.7-10.8 7.9-12.8 19.2-1.6 9.3-.6 26 1.9 31.7 3.7 8.3 9.9 11.4 20.8 10.5 8.8-.7 12.5-4.5 13.9-14.1l.7-4.7h-5.6c-4.4 0-5.6.3-5.6 1.5 0 3-3 7.5-5.4 8.1-6.7 1.6-10.1-6.8-9.4-23 .5-11.2 1.9-15.1 6.8-18.6l3-2.1 2.5 2.5c1.4 1.4 2.5 3.4 2.5 4.6 0 1.8.6 2 5.6 2h5.7l-.6-4c-.7-5.4-4-10.5-8.1-12.4-5-2.4-11.5-2.8-15.9-1.2zm43.8-.7c-8.5 2.2-12.6 7.3-12.7 15.6-.1 8.5 3.3 13.3 12.8 18 8.8 4.4 11.4 7.2 11.4 12.1 0 5.1-2.2 7.6-6.8 7.6-3.6 0-6.8-2.7-7.8-6.5-.6-2.3-1.1-2.5-6-2.5-5 0-5.4.2-5.4 2.3 0 1.2 1 4.3 2.3 6.7 3.1 6.4 8.2 9 17.1 9 9.4 0 14.8-2.6 17-8.1 3.2-7.9 1.3-18.2-4.1-23.2-1.1-.9-5.6-3.6-9.9-6-7-3.7-7.9-4.6-8.2-7.3-.4-4.2 3.1-8.6 6.7-8.2 2 .2 2.9 1.1 3.7 3.8 1.1 3.4 1.3 3.5 6.5 3.5h5.4l-.3-3.4c-.4-4.8-3.6-9.6-7.6-11.5-3.8-1.8-11-2.8-14.1-1.9zm-295.8 1c-.4.3-.7 2.6-.7 5v4.3h5.5l6.2-.3c1.6-.5 2.1 6.4 2.2 28.5l.1 22.8h5.5 5.5v-22c0-14.5.4-22.8 1.2-24.4 1.1-2.5 5.7-4.6 10.1-4.6 1.4 0 1.7-.9 1.7-5v-5h-18.3c-10.1 0-18.7.3-19 .7zm47.3-.2c0 .3-3.1 13.9-7 30.2l-7 30c0 .2 2.5.3 5.7.1l5.6-.3 1.8-5.5 1.9-5.7c.1-1 6.6-3.3 9.4-3.3 3.8 0 4.3.9 6.2 11.2l.6 3.8h5.9c3.3 0 5.9-.4 5.9-.9 0-1.6-12.9-54.6-13.9-57.4-1-2.6-1.4-2.7-8.1-2.7-3.8 0-7 .2-7 .5zm10.4 26.6c.9 3.9 1.6 7.5 1.6 8s-2 .9-4.5.9-4.5-.3-4.5-.8c.2-4.2 3.8-15.2 5-15.2.4 0 1.5 3.2 2.4 7.1zM788 321v4.9l6.3.3 6.2.3.3 25.2.2 25.3h5.4c4 0 5.5-.4 6-1.6.3-.9.6-11.1.6-22.8 0-15.6.3-21.7 1.3-23 .7-.9 3.5-2.3 6.2-3 3.6-.9 5-1.7 4.9-2.9 0-.9-.1-3.1-.2-4.7l-.2-3h-18.5H788v5zm43.7-4.3c-.4.3-.7 14.1-.7 30.5V377h6 6v-27.4c0-15-.3-28.8-.6-30.5-.6-2.9-.9-3.1-5.4-3.1-2.5 0-5 .3-5.3.7zM891 321v5h5l5.6-.1c1.9-.2 2.4 4.8 2.4 26.8V377h5.4 5.5l.3-22.9c.3-26.1.5-26.5 8.4-27.7l4.4-.6v-4.9-4.9h-18.5H891v5zm43 25.5V377h6 6v-25.9c0-14.2-.3-27.9-.6-30.5l-.7-4.6h-5.3-5.4v30.5zm-383-27.1c0 3.1 3 3.6 24.8 3.6H593v-3-3h-21-21v2.4zm-271.7 11.2l-11.1 5.5-10.1-5.1c-5.5-2.7-10.3-5-10.6-5s-.5 1-.5 2.3c0 1.8 1.5 3 8.2 6.3l8.3 4.1-8.3 4.2c-7 3.5-8.2 4.5-8.2 6.6 0 1.4.3 2.5.6 2.5.4 0 4.9-2 10.2-4.5 5.2-2.5 10.2-4.5 11.1-4.5s6.3 2.3 12 5c5.7 2.8 10.5 5 10.7 5s.4-1.1.4-2.5c0-2.2-1.2-3.1-9.2-7l-9.2-4.5 9.2-4.2c8.4-3.8 9.2-4.4 9.2-7 0-1.5-.3-2.8-.7-2.7-.5 0-5.8 2.5-12 5.5zm29.7 28.9V379h5.3c11.5 0 16.2-5.7 16.2-20 0-6.8-.4-9.2-2-12-2.7-4.6-7.6-7-14.2-7H309v19.5zm12.2-14.4c2.9 1.5 4.8 7 4.8 13.6 0 11.4-3 16.3-9.7 16.3H313v-15.5V344h3.1c1.7 0 3.9.5 5.1 1.1zm15.8 14.4V379h8.9c8.5 0 10.1-.5 10.1-3.5 0-.2-3.3-.5-7.2-.7l-7.3-.3v-7c0-4.9.4-7 1.3-7.1.6-.1 3.5-.2 6.2-.3 4.3-.1 5-.4 5-2.1 0-1.8-.7-2-6.5-2H341v-6-6h7c6.3 0 7-.2 7-2 0-1.9-.7-2-9-2h-9v19.5zm22-18.3c0 .7 2.1 9.5 4.6 19.5 4.7 18 4.8 18.3 7.4 18.3 2.7 0 2.8-.2 7.4-18.3l4.6-19.5c0-.7-.8-1.2-1.8-1.2-1.6 0-2.5 2.5-5.7 14.7-3.9 15.2-5.4 19.6-5.5 15.8 0-1.1-1.1-6.7-2.5-12.5-4.4-17.9-4.4-18-6.5-18-1.1 0-2 .6-2 1.2zm29 18.3V379h8.9c8.5 0 10.1-.5 10.1-3.5 0-.2-3.3-.5-7.2-.7l-7.3-.3-.3-6.6-.3-6.6 3.2-.7c1.7-.3 4.7-.6 6.5-.6 2.7 0 3.4-.4 3.4-2 0-1.1-.3-1.9-.7-1.9-.5.1-3.4.1-6.5 0l-5.8-.1v-6-6h7c6.3 0 7-.2 7-2 0-1.9-.7-2-9-2h-9v19.5zm24 0v19.6l8.7-.3c7.4-.3 8.8-.6 9.1-2.1s-.5-1.7-6.7-1.7H416v-17.5c0-16.8-.1-17.5-2-17.5s-2 .7-2 19.5zm24.7-17.5c-3.5 2.8-4.9 7.7-4.9 17.5 0 13.7 3.3 19.5 11.1 19.5 4.4 0 7.5-2 9.8-6.3 2.5-4.6 2.5-21.8 0-26.8-3-6-10.9-7.9-16-3.9zm10 3.4c2.8 2.4 2.8 2.6 2.8 13.9 0 10-.3 11.8-1.9 13.6-2.8 3.1-7.7 2.5-9.4-1.1-3.4-7.2-2.6-22.5 1.3-26.4 3-3 3.7-3 7.2 0zm14.3 14v19.7l2.3-.3c2-.3 2.2-.9 2.5-8.6l.3-8.2h4c8.2 0 12.9-5.6 11.5-13.4-1.1-5.7-4.5-7.8-13.1-8.4l-7.5-.5v19.7zm13.8-13.8c1.6 1.1 2.2 2.5 2.2 5.4 0 4.9-2.1 7-7.1 7H466v-5.4c0-3-.3-6.1-.6-7-.5-1.3.1-1.6 3.3-1.6 2.1 0 4.9.7 6.1 1.6zm12.2 13.8c0 18.8.1 19.6 2 19.6 1.8 0 2-.8 2.2-15.6l.3-15.7 3.5 15.4c3.1 13.7 3.7 15.4 5.7 15.7 2.5.4 2.3 1 6.3-17.3 1.7-7.6 3.3-14.1 3.5-14.4.3-.2.5 6.8.5 15.7 0 15.5.1 16.2 2 16.2s2-.7 2-19.6v-19.5l-3.2.3-3.3.3-3.1 12-3.9 15c-.6 2.6-1.1 1.4-3.2-8.3-3.7-17.4-4.2-18.6-8-19l-3.3-.3v19.5zm36 .1V379h8.9c8 0 8.9-.2 9.4-2 .5-1.9 0-2-6.9-2h-7.5l.3-7.3c.2-5.5.6-7.2 1.8-7.3.8-.1 3.6-.2 6.3-.2 4-.2 4.7-.5 4.7-2.2 0-1.8-.7-2-6.5-2H527v-6-6h7c6.3 0 7-.2 7-2 0-1.9-.7-2-9-2h-9v19.5zm24-1v19.2c0 .5.8.8 1.8.8 1.5 0 1.8-1.5 2.2-14.2l.5-14.3 6.1 14.3c5.4 12.9 6.3 14.2 8.7 14.5l2.7.3V360c0-16.3-.2-19.1-1.5-19.7-.9-.3-1.8-.4-2-.2s-.5 6.8-.7 14.6c-.1 7.8-.6 13.9-1 13.5-.3-.4-2.1-4.3-3.8-8.7-6.6-16.7-8.1-19.5-10.6-19.5H547v18.5zm25.7-17.8c-2 1.9-.5 3.3 3.8 3.3h4.5v17.6 17.5l2.3-.3c2.2-.3 2.2-.5 2.5-17.6l.2-17.2h4c3.3 0 4-.3 4-2 0-1.9-.7-2-10.3-2-5.7 0-10.7.3-11 .7zm-430 5.4c-3.7 2.8-5 8.1-4.6 18.2.5 11 2.4 14.1 9.1 14.5 5.4.4 8.5-1.8 9.4-6.6.5-2.5.3-3.2-.9-3.2-.9 0-2.2 1.2-2.9 2.7-2.7 5.5-6.8 5.6-9.5.2-1.5-2.9-1.7-16.7-.3-20.3.5-1.5 2.1-3.1 3.5-3.8 2.1-.9 2.8-.8 4.5.7 1.1 1 2 2.6 2 3.7s.7 1.8 2 1.8c2.9 0 2.6-4.5-.5-7.5-3-3.1-8.2-3.3-11.8-.4zm24-1c-4.4 2.6-6.8 14.4-4.8 23.9 1.6 7.2 4.2 10 9.6 10 7.1 0 10.5-5.6 10.5-17.5 0-8-1.5-13-4.7-15.5-2.7-2.1-7.7-2.6-10.6-.9zm7.3 2.9c5 2.7 5.3 23 .5 27-2.4 2-6.1.4-7.6-3.2-1.7-4.2-1.7-17.5.1-20.8 2.1-4 3.8-4.7 7-3zm14 13.5c0 16.3.1 17.6 1.8 17.3 1.4-.3 1.7-1.6 2-8.1.3-7.5.4-7.7 2.8-7.7 5 0 6.1 1.4 6.8 9 .6 6.2 1 7 2.8 7 2 0 2.1-.4 1.5-7.1-.3-4.1-1.2-7.8-2.1-8.8-1.3-1.4-1.2-1.9.5-4 2.6-3.2 2.4-8.4-.5-11.7-2-2.4-3.2-2.8-9-3.2l-6.6-.4v17.7zm13-11.6c2.5 4.8-.6 10.1-6 10.1h-3v-6-6h4c2.9 0 4.2.5 5 1.9zm10.5-4.7c-.3.8-.4 8.6-.3 17.3l.3 16 8.3.3c7.7.3 8.2.2 8.2-1.8 0-1.8-.6-2-6.5-2h-6.6l.3-6.3c.2-4 .7-6.2 1.6-6.3.6-.1 3.2-.2 5.7-.3 3.2-.1 4.5-.5 4.5-1.6 0-1-1.5-1.5-5.7-1.7l-5.8-.3-.3-5.2-.3-5.2 6.3-.3c4.8-.2 6.3-.7 6.3-1.8 0-2.1-15.3-2.8-16-.8zm408.1 5.3c-7.1 2.5-8 4.2-8.6 16.1-.3 5.8-.3 10.8-.1 11s10.9.4 23.8.4H658v-4.5-4.5h-9.5-9.5v-4.8c0-10.7-9.3-17.3-19.4-13.7zm10.8 10.7c.9 1.2 1.6 3.5 1.6 5 0 2.8 0 2.8-7 2.8h-7v-3.5c0-2.3.5-3.5 1.4-3.5.7 0 1.9-.7 2.6-1.5 1.9-2.3 6.6-1.9 8.4.7zM1103 364v11h-8.5-8.4l-.3-9.8-.3-9.7-4.7-.3-4.8-.3v10V375h-7-7v-5.9a110.35 110.35 0 0 0-.6-10.5l-.7-4.6h-4.3-4.4v16.5V387h30.5 30.5v-16.4c0-16.1 0-16.4-2.2-17-1.3-.3-3.5-.6-5-.6h-2.8v11zm-815.2 1.2l-.3 8.3-8.1.3-8.2.3-.7-8.1c-.6-6.9-1-8-2.6-8-1.7 0-1.9.8-1.9 8v8.1l-7.2-.3-7.3-.3-.3-7.8c-.3-6.9-.5-7.7-2.2-7.7-1.9 0-2 .7-2 10.5V379h22.5H292v-11c0-10.3-.1-11-2-11-1.7 0-1.9.8-2.2 8.2z"/><path d="M422.9 395.4c-10.2 2.7-17.1 8.7-21.8 18.6-2.3 4.8-2.6 6.8-2.6 16s.3 11.2 2.6 16c4.5 9.5 11.3 15.1 29.5 24.4 16.8 8.5 21.4 14 21.4 25.1 0 10.7-5.4 16.5-15.5 16.5-9 0-14.5-4.8-17.1-15l-1.1-4.5-12.1-.3-12-.3.5 4.3c.8 7.1 4.3 16.6 7.7 21.1 7.4 9.8 18.3 14.2 34.6 14.1 27.2-.2 40.5-12.9 40.2-38.4-.2-20.4-7.5-29.9-34.1-43.5-16.2-8.4-19.3-11.4-19.9-19.2-.3-4.8 0-6.4 2-9.2 3.6-5.4 7.3-7.6 12.5-7.6 3.9 0 4.9.5 7.8 3.7 2.5 2.7 3.6 5 4.1 8.6.6 4.8.8 5 4.3 5.6 2 .3 7.4.6 12 .6h8.3l-.4-6.3c-.9-14-9.9-25.8-22.5-29.7-7.5-2.3-21-2.6-28.4-.6zm401.4.4c-14.7 5.3-22.8 16-27.6 36.7-1.8 7.7-2.1 12.2-2 31.5 0 16.6.4 24.5 1.5 30 5.6 26.6 17.9 37.5 41.8 37.4 21.2 0 33-8.7 37.5-27.6.8-3.5 1.5-8 1.5-10.1V490h-11.9-11.8l-.7 4.2c-1.7 10.7-7.2 16.8-15.1 16.8-8.4 0-13-5.8-16-19.8-1.8-8.7-2.1-43-.4-53.1 2.2-13.9 9.5-23.1 18.4-23.1 7.1 0 11 4.2 13 14l1.2 5.5 11.6.3 11.7.3v-3.9c0-10-6.2-23.7-13.2-29.3-6.8-5.5-12.3-7.2-23.8-7.6-8.4-.3-11.6 0-15.7 1.5z" fill="#0055d4"/><path d="M6 430.9v34.8l3.1.7c1.7.3 4.7.6 6.5.6H19v-12.8c0-12.3.1-12.9 2.4-15.1 2-1.9 3.2-2.2 5.9-1.7 5.4 1 6 2.6 6.8 15.7.4 6.6.9 12.3 1.3 12.6 1 1 11.3 1.6 11.8.7.3-.5.2-6.5-.2-13.4-.5-9-1.2-13.6-2.6-16.3-1.8-3.9-1.8-3.9.5-8 5.1-8.9 3.5-23-3.2-28.1-4.8-3.6-9.9-4.6-23.4-4.6H6v34.9zm26.5-21.4c1.9 1.8 2.5 3.5 2.5 7 0 6.7-3.1 9.5-10.5 9.5H19v-7.2c0-6 .4-7.6 2.2-9.5 3-3.2 8.1-3.1 11.3.2zM57 430.9v34.8l3.1.7c1.7.3 9.9.6 18.1.6 11 0 15-.3 15.2-1.3.3-.6.7-3.1.9-5.5l.5-4.2h-8.6c-4.8 0-10.4-.3-12.4-.6l-3.8-.7v-5.9c0-6.2 1.8-11.1 4.5-12.2.9-.3 5.2-.6 9.5-.6 8.8 0 8.9-.1 8.2-7.3l-.4-4.7H80.9 70v-4.5c0-5.1 2-9.9 4.5-10.9.9-.3 5.4-.6 10-.6s8.6-.4 8.9-.9c.3-.4.3-3.1-.1-6l-.6-5.1H74.9 57v34.9zm42-33.7c0 .7 3.7 16.5 8.2 35 9.2 37.7 7.7 34.8 18 34.8 5.5 0 5.7-.1 6.7-3.3 2.1-6.5 14.9-59.3 15.4-63.5l.5-4.2h-6.4c-5.8 0-6.4.2-6.9 2.2-.3 1.3-2.5 11.7-5 23.3-4.2 19.7-6.2 27.9-6.4 26.3-.6-4.8-8.8-42.9-10.3-48.1l-1.1-3.7h-6.4c-4.4 0-6.3.4-6.3 1.2zm55 33.6v35l2.3.6c1.2.3 4.1.6 6.5.6h4.2l-.2-35.3-.3-35.2-6.2-.3-6.3-.3v34.9zm25 .1v35l4.3.6c2.3.3 10.5.5 18.2.3l14-.3.5-5.3.6-5.2H208c-4.7 0-10.2-.3-12.2-.6l-3.8-.7v-6.9c0-6 .3-7.2 2.5-9.3 2.2-2.3 3.2-2.5 11-2.5h8.5v-6-6h-11-11v-5.5c0-4.6.4-6 2.5-8 2.2-2.3 3.2-2.5 11.3-2.5 10.1 0 10.1 0 9.4-7.3l-.4-4.7h-17.9H179v34.9zm42-33.6c0 2.6 12.7 67.7 13.4 68.4.3.4 3.2.9 6.4 1.1l5.8.4 1.1-3.8c.7-2.2 2.4-10.2 3.8-17.8 2.7-14.1 4.8-20.6 5.9-17.6.3.8 2.1 9.6 4.1 19.4 1.9 9.9 3.7 18.2 4 18.5.3.2 3.2.7 6.5.9l5.9.4 1-3.8 2.6-11.9 5.5-27c2.1-10.5 4-21.1 4.3-23.8l.5-4.7h-6.2-6.2l-2.9 18.7c-1.5 10.4-3.3 21-4 23.8l-1.1 5-.8-5c-1.2-7.9-6.4-34-7.6-38.5l-1.1-4h-5.4c-3 0-5.5.2-5.5.3 0 .2-2.1 10.7-4.6 23.3-4.1 20.7-5.4 26.1-5.4 22.5 0-2.5-5.1-36.8-6.1-41.4l-1.1-4.7h-6.4c-4.5 0-6.4.4-6.4 1.3z"/><path d="M499 462.5V529h34.4c34.3 0 34.5 0 35.1-2.1.9-2.8 2.2-17.8 1.6-18.4-.2-.3-10.9-.5-23.8-.5H523v-16.9-17l2.6-2c2.5-2 4-2.1 21.6-2.1h18.9l-.3-10.3-.3-10.2-21-.5-21-.5-.3-13.4c-.4-19.1-1.7-18.1 24.5-18.1H568v-10.5V396h-34.5H499v66.5zm116.5-65.3c-.2.7-2.9 12.3-6 25.8L595 485l-9.5 40.7-.7 3.3h12.1c6.6 0 12.2-.4 12.6-.9.3-.5 1.6-6.4 3-13 3.9-19 3.9-19.1 21.2-19.1 14.6 0 12.7-2.1 16.8 18.7l2.8 14.3h12.9c11.9 0 12.9-.1 12.4-1.8-.3-.9-7.1-29.4-15-63.2l-15.4-64.5-.8-3-15.7-.3c-12.1-.2-15.8 0-16.2 1zm22.1 53.5l4.4 23.1c0 1.1-2.1 1.3-9.9 1-5.5-.1-10.2-.6-10.6-.9-.7-.7 7-39.8 8.7-44.2.7-1.8 1.4-2.5 2-1.9s3 10.8 5.4 22.9zm57.4 11.8v66.6l12.3-.3 12.2-.3.5-26.2c.6-30.8.1-29.5 10.5-29.4 8.5 0 13.2 2.2 15.9 7.5 1.7 3.4 2.1 6.8 2.7 24.5.3 11.3 1 21.4 1.4 22.3.6 1.6 2.2 1.8 12.1 1.8H774l-.6-19.3c-.8-27.9-2.1-34.4-8.9-42.5-1.4-1.6-2.5-3.3-2.5-3.7s2.2-3.1 4.9-6.1c6.3-6.8 8.6-15.3 7.9-27.9-1-14.7-7.3-24.7-19.2-30.2l-6.1-2.8-27.2-.3-27.3-.3v66.6zm47.5-44.9c4.1 1.9 6.1 4.9 7.5 10.8 2 9.1-1.1 18-7.7 21.8-3.4 2.1-15.4 3.5-19.7 2.4l-2.6-.6v-15.8c0-20.2 0-20.2 11.2-20.2 5.2 0 9.1.5 11.3 1.6zM897 462.5v66.6l12.3-.3 12.2-.3.3-27.4c.2-23.8.5-27.7 1.9-29.3s3.4-1.8 15.4-1.8H953l.2 29.2.3 29.3 12.1.3 12.1.3.7-4.7c.8-6.1.8-109.4-.1-120.2l-.6-8.2h-12.3c-6.8 0-12.3.3-12.3.7.1.5.1 12.2 0 26L953 448h-15.5H922v-21.4c0-11.7-.3-23.4-.6-26l-.7-4.6h-11.8H897v66.5z" fill="#0055d4"/><path d="M1021.2 397.1c-3.3 1-7.4 6.1-10.2 12.9-1.4 3.3-4.5 4.6-8.4 3.6-5-1.2-4.6-9 .5-10.8 2.3-.8 2.9-1.6 2.7-3.2-.4-2.9-4.6-2.4-7.5 1-2.7 3-3.1 9.9-.8 14.4 2.1 4 7.2 5.6 11.8 3.7 2.7-1.2 4.1-2.9 6.7-8.1 4.1-8.2 4.9-8.8 9.6-8.4 7.1.6 8.6 9 2.4 12.6-3.8 2.2-4.4 6.7-.7 5.7 4.4-1.4 6.6-3.6 7.7-7.6 1.8-6.6-.8-14.1-5.3-15.4-4.3-1.3-5.2-1.3-8.5-.4zm31 8.6l.3 8.8 12.5 2.6 19.5 4.1 7 1.4-17 3.2-19.7 3.8c-2.8.6-2.8.6-2.8 8.9v8.3l6.3.7c3.4.3 17 .5 30.2.3l24-.3.3-5.3.3-5.2-14.3-.1c-7.9-.1-15.6-.4-17.3-.8-2.9-.7-2.8-.7 2-1.8 2.8-.7 8.2-1.7 12-2.3 3.9-.6 9.4-1.6 12.3-2.1l5.2-1v-5.4-5.3l-7.2-1.5c-4-.9-12.2-2.6-18.1-3.8-6.9-1.4-10.4-2.5-9.5-3 .7-.5 8.9-.9 18.1-.9h16.8l-.3-5.8-.3-5.7-30.3-.3-30.3-.2.3 8.7zm-698.9-5.6c-5 1.4-9.7 6.9-14.2 16.3-4.5 9.6-7.3 12.6-11.3 12.6-3.1 0-6.8-3.1-6.8-5.6 0-.9 2-3.7 4.5-6.2 4.3-4.3 4.5-4.7 4.5-10.5v-6l-4.2.6c-10.7 1.4-17.1 13.6-13.8 26.5 2.5 10.2 8.9 14.7 19.7 14 8.3-.5 10.7-2.4 16.5-13.2 5.2-9.9 7-12.2 11.1-14.3 5.1-2.6 9.7.6 9.7 6.8 0 4.5-3 8.4-7.4 9.5-2.5.6-2.6 1-2.6 7 0 3.5.4 6.4.9 6.4 3.9 0 11.9-2.4 13.7-4.1 4.8-4.5 6.8-17.2 4.3-26.4-3-11-13.4-16.6-24.6-13.4zm677.7 31.4v7.5h-17.5H996v2.4c0 2.1.5 2.4 6.1 3 3.4.3 12.2.6 19.5.6h13.4v-10.5c0-9.8-.1-10.5-2-10.5-1.8 0-2 .7-2 7.5zm-22 20.5c-9.8 1.2-13 4.3-13 12.6 0 4.5.4 5.7 3 8.2 7 7.1 27.7 6.8 34.1-.4 4.1-4.6 3-13.7-2-17.3-4-2.9-13.5-4.2-22.1-3.1zm16.9 5.9c3.6 1 6.5 5.4 5.7 8.6-1 3.8-6.4 5.8-16.1 5.9-9 0-13.1-1.4-15.4-5.6-1.4-2.5-1.4-2.9.5-5.5 2.6-3.5 4.9-4.1 14.9-4.1 4.4 0 9.1.3 10.4.7zm-713.2-5.2c-.4.3-.7 3.2-.7 6.4v5.8l4.3.6c2.3.3 17 .5 32.7.3l28.5-.3V459v-6.5l-32.1-.3c-17.6-.1-32.3.1-32.7.5zm748.8 3.7c-3.7 1.6-7 5.2-8.4 8.9-.6 1.6-1.1 8.2-1.1 14.7v11.9l5.3.6c2.8.3 16.5.5 30.2.3l25-.3.3-5.7.3-5.7-12.3-.3-12.3-.3-.6-7.1c-.6-8.9-3-13.2-8.9-16.2-5.1-2.5-12.8-2.9-17.5-.8zm15 13.1c1.9 1.8 2.5 3.5 2.5 7v4.6l-8.7-.3-8.8-.3-.2-3c-.3-3.2 1.5-5.8 5.7-8.8 3.4-2.4 6.7-2.1 9.5.8zm-722 5.6c-5.7 1.4-10 6.1-15.6 17.1-5 9.9-6.8 11.8-11.3 11.8-2.9 0-6.6-3.1-6.6-5.5 0-.9 2-3.6 4.5-6.1 4.3-4.3 4.5-4.7 4.5-10.4 0-5.6-.2-6-2.2-6-3.6.1-10.2 3.5-12.6 6.4-3.3 4.3-4.8 12.7-3.4 19.5 1.3 6.3 3.4 9.6 8.1 12.8 6.4 4.3 16 3.8 22-1.2 1.6-1.4 5-6.6 7.6-11.6 3.2-6.3 5.6-9.6 7.8-11 6.6-4 11.7-1.5 11.7 5.8 0 4.5-2.6 7.7-7.2 8.8-2.7.7-2.8 1-2.8 7.2v6.6l5.3-.7c9.5-1.2 13.7-6.5 14.5-18 .5-8-.8-13.8-4-18.6-4-5.8-12.5-8.7-20.3-6.9zm647.8 10.8c-5 2.3-6.3 4.5-6.3 10.8 0 8.6 4.6 12.2 16.9 13 13.1.9 21.3-3 22.6-10.6 1-5.9-1.5-10.7-6.7-13.1-6-2.7-20.6-2.7-26.5-.1zm24.2 4.5c6.4 2.7 7.1 9.2 1.2 12.3-4.6 2.4-20.3 2.5-24 0-5.9-3.9-5.7-9.5.6-12.2 4.2-1.9 17.8-1.9 22.2-.1zM133 507.5V528h3.9 3.8l.6-6.5c.6-6.4 2.2-9.5 4.9-9.5 3.5 0 9.3-2.4 11.4-4.7 3.2-3.4 3.3-10.8.3-14.7-3.5-4.4-7-5.6-16.4-5.6H133v20.5zm16.8-12.3c1.5 1.3 1.6 7 0 8.6-.7.7-2.9 1.2-4.9 1.2-3.1 0-3.7-.3-3.4-1.8.2-1 .5-3.3.6-5.2.2-1.9.8-3.8 1.4-4.2 1.1-.8 4.3-.1 6.3 1.4zm16.2 12.3V528h4 4v-4.8c0-5.3 2.7-11.5 5.1-12 3-.6 4.9 2.6 4.9 8.3 0 7.6.5 8.5 5.2 8.5h4.1l-.6-8c-.3-4.5-1.2-9.1-2-10.3-1.3-2-1.3-2.5.4-4.6 2.4-2.9 2.5-9.8.3-13-2.6-3.6-7.4-5.1-16.9-5.1H166v20.5zm15.4-13.5c3 1.1 4.2 4.9 2.6 7.9-.8 1.6-2 2.1-5.4 2.1-4.3 0-4.4-.1-4-2.8.3-1.5.6-3.6.7-4.7.3-3.4 2-4.1 6.1-2.5zm24.4-5.5c-4.5 2.5-6.8 8.8-6.8 19.1 0 10.9 2.4 16.9 8 19.6 7 3.5 15.7 1.3 19.3-5 2.7-4.7 3.4-17.2 1.3-24.4-2.3-7.9-5.9-10.8-13.4-10.8-3.1.1-6.9.7-8.4 1.5zm11.7 6.5c2.5 2.7 3.3 16.7 1.3 22.5-1.2 3.6-1.6 4-4.8 4-5.1 0-6.2-2.7-5.8-15.4.3-8.8.6-10.5 2.3-11.7 2.6-1.9 4.9-1.7 7 .6zm18.5 12.5v20.7l10.4-.4c10-.3 10.6-.4 13.5-3.2 4.4-4.2 4.9-8.5 1.9-14.5-2.2-4.1-2.3-5-1.2-6.6 2.4-3.3 1.7-9.1-1.5-12.7-2.9-3.3-3.1-3.3-13-3.6l-10.1-.4v20.7zm15.8-12.9c2.4 1.7 2.9 5.3 1 7.2-.7.7-2.9 1.2-5 1.2-3.5 0-3.8-.2-3.8-2.9 0-1.7.5-3.3 1-3.6.8-.5.7-1.1-.1-2.1-.9-1.1-.6-1.4 1.8-1.4 1.6 0 3.9.7 5.1 1.6zm1.6 17c.9.8 1.6 2.7 1.6 4.1 0 3.9-2.7 6.3-7.2 6.3-3.7 0-3.8-.1-3.8-3.5 0-5.4 1.9-8.5 5.1-8.5 1.5 0 3.5.7 4.3 1.6zm16.6-4.1V528h12 12v-3c0-2.9-.2-3-4.2-3-2.4 0-6-.3-8-.6-3.3-.6-3.8-1-3.8-3.4 0-1.5.9-3.9 2.1-5.4 1.8-2.2 2.8-2.6 7.5-2.6h5.5l-.3-3.3-.3-3.2-7.2-.3c-7.8-.3-8.6-1-6.2-5.4.9-1.6.8-2.3-.2-2.9-.9-.5 1.7-.9 6.4-.9h7.7v-3.5-3.5h-11.5H270v20.5zM75 493c0 1.8.8 2 16.1 2.2l16.1.3-15.8 6.5c-14.7 6-15.9 6.7-16.2 9.3l-.3 2.7h20.5c19.9 0 20.6-.1 20.6-2s-.7-2-16.7-2.1H82.5l11-4.3 15.6-5.9c6.5-2.4 8-3.8 7.3-6.5-.6-2.2-.7-2.2-21-2.2-19.6 0-20.4.1-20.4 2zm993.1 9.5c-11.7 2.6-17.1 8.6-17.1 18.9 0 13.7 8.6 20.2 28.2 21.3 10.5.6 19.5-.6 26.6-3.7 3.3-1.5 4.7-2.9 6.2-6.2 3.6-7.8 2.1-18.9-3.2-24.5-5.6-6-26.8-9-40.7-5.8zm25.8 11.9c7.6.7 10.3 2.8 9.9 7.3-.4 5.3-3.8 7.3-14.2 8.6-14.5 1.8-28.6-1.3-28.6-6.2 0-2.2 3.4-6.7 6.3-8.3 2.4-1.3 13.4-2.6 18.2-2.1 1.7.1 5.4.4 8.4.7zm-97.9 9.1c0 11.8.1 12.5 2 12.5 1.7 0 2-.7 2-5v-5h17.5 17.5v-2.5-2.5h-17.5-17.5v-5c0-4.3-.3-5-2-5-1.9 0-2 .7-2 12.5zm-914.7-.6c-4.9 2.3-6.3 4.5-6.3 9.9s2.9 8.8 9.2 10.7c10.8 3.2 26.6 1.1 30.7-4.2 4.7-5.9 1.2-14.7-6.7-17.1-6.4-1.9-22-1.5-26.9.7zm27.7 4.9c6.4 3.1 4.9 9-2.8 11.2-4.1 1.1-15.3 1.3-20 .4-6.5-1.3-9.3-7.2-5.2-10.9 3.8-3.4 21.3-3.8 28-.7z"/><path d="M312 527.5v6.4l4.3 1.9c2.3 1 8.3 3.4 13.2 5.2 5 1.8 9.4 3.6 9.8 4s-5.4 3.1-13 6.1l-13.8 5.4-.3 7.4c-.3 6.7-.1 7.3 1.5 6.6 1-.4 3.8-1.3 6.3-2s11.3-4.3 19.5-8.1l15-6.9 11.5-.5 11.5-.5V546v-6.5l-13-.5-13-.5-18.9-8.8c-10.4-4.8-19.3-8.7-19.7-8.7-.5 0-.9 2.9-.9 6.5zm791.5 17.3c-.3.3-.5 5.2-.5 10.9V566h-25.5-25.5v5.4c0 5.2.1 5.4 3.1 6 1.7.3 15.5.6 30.5.6h27.4l-.2-16.3-.3-16.2-4.3-.6c-2.3-.3-4.4-.3-4.7-.1zM459 561.5c0 10.8.1 11.5 2 11.5 1.7 0 2-.7 2-4.5 0-4.3.1-4.5 3-4.5 6.4 0 9.1-7 4.5-11.5-1.8-1.9-3.5-2.5-7-2.5H459v11.5zm8.5-4.5c0 1.8-.6 2.6-2.2 2.8-2 .3-2.3-.1-2.3-2.8s.3-3.1 2.3-2.8c1.6.2 2.2 1 2.2 2.8zm10.1-5.8c-1.8 5.5-2.7 9.2-4 15l-1.4 6.8h2.4c1.6 0 2.4-.7 2.6-2.3.2-1.5 1.1-2.3 2.9-2.5 2.1-.2 2.8.2 3.3 2.2.5 1.9 1.3 2.6 3.1 2.6 2.1 0 2.4-.4 2-2.3l-2.9-11.2c-2.1-8.4-2.4-9-4.9-9.3-1.6-.2-2.9.2-3.1 1zm3.7 8.5c.4 3.3.2 4.3-.9 4.3-1.5 0-1.7-1.2-.8-5.9.8-3.9 1-3.7 1.7 1.6zm11.8-7.8c-2.4 2.4-3.5 7.8-2.8 13.9s3.2 8.2 9.5 7.8l4.7-.2.3-6.8.3-6.7-3.7.3c-4.2.3-5.8 2.6-2.5 3.5 3.2.8 2.4 6.3-.9 6.3-2.3 0-3-1.9-3-9 0-7.2 2.1-9.8 5-6.2 2 2.4 5 3 5 .9 0-.7-.7-2.3-1.6-3.5-2-2.9-7.6-3-10.3-.3zm15.9 9.6V573l2.8.2c5 .3 8.6-.2 9.4-1.5.5-.8-.5-1.3-3.5-1.7-3.9-.5-4.2-.7-4.5-3.8s-.3-3.2 3.8-3.2c3.4 0 4.1-.3 3.8-1.8-.2-1.2-1.4-1.8-4.1-2-3.2-.3-3.7-.7-3.7-2.8s.4-2.4 4-2.4c3.3 0 4-.3 4-2 0-1.8-.7-2-6-2h-6v11.5zm40.3-9c-3.1 1.9-4.9 4.1-7 8.3-2.7 5.5-2.8 6.3-2.8 20.7 0 17 1 21.7 5.8 27.2 4 4.5 8.2 6.3 14.8 6.3 16.3 0 21.5-8.8 20.7-35-.4-13.3-2.2-19.6-7.1-24.9-5.3-5.7-17.1-7-24.4-2.6zm15.2 9.2c2.6 2.6 3.6 6.2 4.2 15.3 1 14.8-2.1 26.9-7.1 27.8-7.3 1.5-10.1-4.5-10.1-21.8 0-13.6.9-16.8 6.1-20.9 3.2-2.5 4.7-2.6 6.9-.4zm385.3-9.7c-4.1 2.2-8 8.1-9.8 14.8-1.5 5.9-1.3 25.6.3 31.9 2.9 10.8 9.5 16.3 19.6 16.3 12.2 0 16.7-3.6 19.6-15.7 2.5-10.4 1.8-29.7-1.4-36.8-4.1-9.3-9-12.5-18.8-12.5-3.8.1-7.1.8-9.5 2zm15.1 10.4c5 5.3 5.2 33 .4 39.5-3.6 4.8-9.1 4.1-11.8-1.6-2.3-4.8-3.2-23-1.5-29.2 1.2-4.6 6.6-11.1 9.2-11.1.8 0 2.5 1.1 3.7 2.4zM75.7 551.7c-.4.3-.7 1.5-.7 2.5 0 1.7 1.3 1.8 21.1 1.8 18.8 0 21-.2 20.5-1.6-.3-.9-.6-2-.6-2.5 0-1-39.3-1.3-40.3-.2zm514.6 30.5l.2 31.3h6 6l.5-10.8c.6-12.5.9-13 9.1-14.1 8.8-1.2 12.9-3.4 15-8 4.4-9.8 1.3-22.8-6.7-27.3-3.5-2-5.3-2.3-17.1-2.3h-13.1l.1 31.2zm25.7-17.1c1.7 3.9.6 10-2.1 12.1-1.3 1.1-3.8 1.8-6.5 1.8H603v-7.3c0-7.5 1-9.6 5-10.9 2.7-.9 6.8 1.3 8 4.3zm17.2-9.4l.3 4.8 6 .3c3.3.2 6.3.9 6.7 1.5.4.7.8 12.6.8 26.4V614h6 6v-23.9c0-22.6.1-24 2.1-26.5 1.6-2.1 2.9-2.6 6.4-2.6 5.2 0 5.9-.8 5-6l-.7-4h-19.4-19.5l.3 4.7zm46 26.5l.3 31.3 5.6.3c5.2.3 5.7.1 6.3-2 .8-3.1.8-46.8 0-54.7l-.7-6.1h-5.9-5.8l.2 31.2zm24 0l.3 31.3 5.1.3c6.5.4 6.3.8 6.5-20.8.1-19.1.6-18.6 4.7 5l2.7 15.5 5.2.3c6.3.4 6.4.3 8.8-13.3 2.9-16.5 4.6-23.5 5.6-23 .5.4.9 8.6.9 18.6v18l5.8-.3 5.7-.3.3-24c.2-13.2 0-27.3-.3-31.3l-.7-7.2h-8.3-8.3l-1.1 4.7-3.6 17.3c-3.1 15-3.6 17.2-4.1 16.8-.2-.2-1.5-7.1-2.9-15.3-1.4-8.3-3.1-16.9-3.7-19.3l-1-4.2h-8.9-8.9l.2 31.2zm62.8.3V614h6 6v-31.5V551h-6-6v31.5zm21-27c0 2.5.1 4.6.3 4.6.1.1 5.3.4 11.5.8l11.2.6-12.5 22.7c-10.1 18.3-12.6 23.4-12.3 26l.3 3.3h19 19l.5-4.7.6-4.7-11.1-.3c-10-.3-11-.5-10.7-2.1.2-1 4.5-9.4 9.7-18.8 10.8-19.5 11.9-22.4 11-27.9l-.7-4h-17.9H787v4.5zm56.5-3.3c-.2.7-3.4 13.9-7 29.3l-7.2 30.2c-.5 2.2-.2 2.3 5.5 2.3 5.8 0 6-.1 7.1-3.1.6-1.8 1.1-4 1.1-4.9s1.1-2.9 2.5-4.4c2-2.2 3.2-2.6 7.9-2.6h5.5l1.1 5.7c1.9 9.8 1.5 9.3 8.1 9.3 4.4 0 5.9-.4 5.9-1.4 0-.8-2-9.9-4.5-20.3l-6.1-25.3c-.9-3.6-2.2-8.6-3.1-11.3l-1.5-4.7h-7.4c-5.1 0-7.6.4-7.9 1.2zm9.2 35.6c-2.2.2-4.4-.1-4.9-.6-1.1-1.1.9-10.6 3-14.7l1.6-3 2.1 9 2.1 9-3.9.3z"/><path d="M870.2 555.7c.2 2.9.8 4.8 1.6 4.9.6.1 3.7.2 6.7.3l5.5.1.2 26.2.3 26.3 5.6.3c5.2.3 5.7.1 6.3-2 .3-1.3.6-12.3.6-24.6 0-20.9.1-22.3 2-24.2 1.4-1.4 3.3-2 6.5-2h4.5v-5-5h-20.1-20l.3 4.7zm46.8 26.8V614h6 6v-31.5V551h-6-6v31.5zm73.2-.3l.3 31.3 5.1.3 5.2.3.4-16.3c.2-9.1.8-17.1 1.4-18.1 1.2-2.1 2.7 1 10.7 22.3l4.3 11.5 6.7.3 6.7.3v-27.8c0-15.3-.3-29.5-.6-31.6-.7-3.7-.7-3.7-5.5-3.7h-4.9l-.2 20.2-.3 20.3-1.9-5c-1-2.8-4.5-11.9-7.8-20.3l-5.9-15.2h-7-6.9l.2 31.2zM394 567.1v15l3.8-.3c3.3-.3 3.7-.6 4-3.2.7-5.9 2.8-6.5 22-6.6H441v-4.5-4.5h-18.2c-10.1 0-18.9-.4-19.7-.9-.7-.5-1.6-2.9-1.8-5.5-.5-4.5-.7-4.6-3.9-4.6H394v15.1zm-296-2.4c-1.7 1.6-4.3 5-5.8 7.8-2.4 4.5-3.1 5-6.5 5.3-4.7.4-6.7-1.1-6.7-5 0-2.2.7-3.3 3-4.6 1.6-.9 3-2.5 3-3.5 0-2.6-4.3-2.1-7.4.9-6 6-1.6 17.4 6.8 17.4 5.1 0 8-1.7 10.7-6.2 4.9-8.1 6.8-9.8 10.9-9.8 4.8 0 7.2 2.2 6.8 6.4-.2 2.2-1.2 3.6-3.5 5.1-1.8 1.1-3.2 2.8-3.3 3.9 0 1.6.5 1.7 3.2 1.2 4.5-.9 6.8-3.5 7.5-8.4 1.1-8.2-3.4-13.2-11.6-13.2-3 0-4.9.7-7.1 2.7zm269.8 9.5l-.3 12.3-27.7.3-27.8.2v6.4 6.3l6.8.6c8.5.9 54 .9 57 .1 2.2-.6 2.2-.8 2.2-18.5 0-13.5-.3-18.1-1.2-18.4-.7-.2-3-.6-5-1l-3.7-.6-.3 12.3zm93.9 11.8c-4.2 4.9-4.7 17.1-1.1 24.2.9 1.8 2.8 3.1 5.3 3.9 8.1 2.4 13.1-3.5 13.1-15.4 0-7.5-1.8-13-4.8-14.6-1.2-.6-3.9-1.1-6-1.1-3.2 0-4.5.6-6.5 3zm10 4c2 3.9 1.7 15.3-.5 18s-4.9 1.8-5.9-1.9c-1.1-4.1-.8-14.4.6-16.9 1.5-2.9 4.1-2.5 5.8.8zm11.7-5.7c-.2.7-.3 7.6-.2 15.2l.3 14 2.7.3c2.6.3 2.6.1 3.3-6.2l.7-6.6h4.4c4 0 4.4-.2 4.4-2.5 0-2.2-.5-2.5-3.2-2.5-4.4 0-5.4-.9-6-4.8l-.5-3.2h5.4c5 0 5.3-.1 5.3-2.5 0-2.5-.1-2.5-8-2.5-5.7 0-8.2.4-8.6 1.3z"/><path d="M503.4 584.3c-.2.7-.3 7.6-.2 15.2l.3 14 2.6.3c2.6.3 2.7.1 3.4-6.2l.7-6.6h4.4c4 0 4.4-.2 4.4-2.5 0-2.1-.5-2.5-3.2-2.6-5-.1-6.3-1-6.3-4.7V588h5.2c5 0 5.3-.2 5.3-2.5 0-2.5-.1-2.5-8-2.5-5.7 0-8.2.4-8.6 1.3zm600.1.5c-.3.3-.5 5.4-.5 11.4V607h-8.5-8.5v-10-10h-5-5v10 10h-7-7v-5.9a110.35 110.35 0 0 0-.6-10.5l-.7-4.6h-4.3-4.4v15.9 15.8l3.1.7c1.7.3 15.5.6 30.5.6h27.4l-.2-16.8-.3-16.7-4.3-.6c-2.3-.3-4.4-.3-4.7-.1zM433 593.5v8.5h-6.5-6.5v-7.5-7.5h-3.5-3.5v7.5 7.5h-5.5-5.5v-3.4c0-1.8-.3-5.4-.6-8-.6-4.4-.8-4.6-4-4.6H394v12.4 12.5l12.8.3c7 .2 17.5.2 23.5 0l10.7-.3v-12.3c0-12-.1-12.4-2.2-13-5.6-1.5-5.8-1.3-5.8 7.9zm-352.7-3c-1.7.7-3.6 2.2-4.2 3.4-1.6 2.8-1.4 9.3.4 11.7 3.4 4.9 12.2 5.5 16.2 1.1 1.1-1.2 3.2-4.4 4.7-7 3-5.2 6.3-7.1 10.8-6.2 6.6 1.5 6.1 12.5-.5 12.5-1.1 0-1.7.8-1.7 2.5 0 2.9 1 3.1 5.5.9 4.1-1.9 5.9-6.1 5.2-11.7-.8-6-4.2-8.7-11.1-8.7-6 0-9.1 2.1-12.1 8.1-3.7 7.2-7.7 9.5-12.6 6.9-3.7-2-1.6-10 2.7-10 .8 0 1.4-1 1.4-2.5 0-2.9-.3-2.9-4.7-1zm293.2 16.6c-1.6.5-15.1 4.1-30 7.9l-29.2 7.6c-2.2.6-2.3 1.2-2.3 8.9v8.3l4.8 1.6c2.6.8 13.7 3.8 24.7 6.6l27.4 7.1 8.3 1.9c1.3 0 .9-11.5-.4-12.8-.7-.7-1.9-1.2-2.8-1.2s-4-.7-6.8-1.5l-5.2-1.6v-6c0-7.3 1.9-9.5 10.2-11.9l5.3-1.6.3-6.3c.2-3.5-.1-6.7-.5-7.1s-2.1-.3-3.8.1zm-22.7 25.7l.3 5.3-2.8-.7c-6.6-1.5-11-2.6-14.2-3.6l-3.3-1 2.8-1.4c3.7-1.7 13.5-4.3 15.4-4.1 1.1.2 1.6 1.7 1.8 5.5zm81.2-15.1c-4.1 2-10.3 4.8-13.7 6.4l-6.1 2.7-8.5-5.9c-4.7-3.2-8.8-5.9-9.1-5.9s-.6 2.1-.6 4.8v4.7l9.7 6 9.6 6-9.6.3-9.7.3v4.4 4.5h23.5H441v-4.5-4.5h-8c-6.3 0-8.2-.3-8.6-1.5-.9-2.4 1.3-4.3 9.3-8l7.3-3.4v-5c0-2.8-.3-5.1-.7-5-.5 0-4.2 1.7-8.3 3.6zM75 619c0 1.9.7 2 20.8 2s20.8-.1 20.8-2-.7-2-20.8-2-20.8.1-20.8 2zm977 10.8v5.9l3.8 1.1c2 .6 11.4 2.7 20.7 4.8 9.4 2 17.6 4 18.3 4.3.7.4-8.6 2.9-20.7 5.6l-22.1 4.9v6.1 6.2l7.3-1.3c3.9-.7 17.5-4 30.1-7.4l23.3-6c.2 0 .3-3.2.1-7.2l-.3-7.1-27.5-7.2-30.2-7.9-2.8-.6v5.8zm-976.3-.2c-.4.4-.7 2-.7 3.5 0 2.5.6 2.9 5.3 4.3 2.8.9 9.8 2.6 15.5 3.8 5.6 1.3 10.2 2.5 10.2 2.8s-6.6 2-14.8 3.8c-8.1 1.9-15 3.6-15.4 3.9-.5.2-.8 1.7-.8 3.2 0 2.5.5 2.9 3.8 3.5 4.8.8 14.3.8 27.4 0 9.6-.6 10.5-.9 10.1-2.5-.5-1.8-1.9-1.9-17.2-2l-16.6-.1 16.2-3.3c17.2-3.5 18.3-3.9 18.3-6s-1.3-2.6-17.5-6.6l-15-3.8 16-.3c15.2-.3 16-.4 16-2.3s-.8-2-20.1-2.3c-11-.1-20.3.1-20.7.4zm616.5 1.4c-2 1.3-4.2 3.9-5.5 6.8-1.9 4.1-2.2 6.4-2.2 18.2 0 12.1.2 13.9 2.3 17.7 2.9 5.6 6.3 7.7 12.2 7.7 7.5 0 12.6-4.4 13.2-11.4.3-3.1 0-3.5-2.1-3.5-1.8 0-2.7.8-3.4 3-1.6 4.9-3.7 6.6-7.6 6.3-2.7-.2-4.1-1.1-5.7-3.6-4.1-6-4.5-25.3-.7-33.1 3.4-6.8 11.6-6.5 13.6.6 1 3.4 5.4 5.3 6.4 2.7.9-2.3-1.7-8.3-4.8-10.9-3.9-3.2-10.9-3.4-15.7-.5zm37.4-1.1c-.5.8-12.6 49.4-12.6 50.6 0 .3 1.3.5 2.8.5 2.8 0 2.9-.3 4.7-8l1.8-8h6.8 6.7l1.9 7.7c1.8 7.6 2 7.8 5.1 8.1 1.8.2 3.2 0 3.2-.3 0-1.7-12.2-48-13.1-49.6-1-2-6.3-2.7-7.3-1zm6.5 19.2l2.6 9.9h-5.5c-5.1 0-5.4-.1-4.9-2.3.3-1.2 1.4-5.9 2.3-10.4 1-4.5 2.1-7.9 2.4-7.7.3.3 1.7 5 3.1 10.5zm19.4-18.8c-.3.7-.4 12.3-.3 25.7l.3 24.5 11.8.3c6.9.1 11.7-.1 11.7-.7 0-.5.3-1.6.6-2.5.5-1.3-.3-1.6-5.2-1.6-3.3 0-7.5-.3-9.4-.6l-3.5-.6.3-12.6c.2-7 .1-17.3-.3-23-.7-10-.7-10.2-3.1-10.2-1.4 0-2.7.6-2.9 1.3zm34.2.7c-1.5 1.2-3.8 4.1-5 6.3-2 3.8-2.2 5.7-2.2 18.2 0 15.5 1.2 19.8 6.7 23.9 3.6 2.6 11.5 2.7 15.3.2 3-1.9 7-9.9 6.1-12.2-1.2-3-4.5-1.5-6.5 3.1-1.4 3.1-2.7 4.6-4.5 5.1-7.4 1.8-10.6-3.1-11.4-17.1-.8-15.5 2.5-24.5 9-24.5 3.2 0 6.5 2.8 7.4 6.4.6 2.7 5.2 4.3 6.1 2 .8-2.1-1.5-7.9-4.2-10.4-3.7-3.5-12.9-4-16.8-1zm28.3 19c0 23.1.6 26.4 5.6 29.7 3.7 2.4 13 2.4 16.7 0 5.2-3.4 6.1-6.8 6.5-24.1.2-8.8.1-18.4-.3-21.3-.6-4.8-.9-5.3-3.1-5.3H841v19.5c0 24.8-.9 27.7-8.7 27.7-2.3 0-4.3-.8-5.7-2.1-2-2-2.1-3.4-2.6-23.4l-.5-21.2-2.7-.3-2.8-.3V650zm38.5-19.7c-.3.7-.4 12.3-.3 25.7l.3 24.5 11.6.3 11.7.3.4-2.6c.5-2.4.4-2.5-5.1-2.5-3.1 0-7.3-.3-9.3-.6l-3.8-.7v-22.8V629h-2.5c-1.4 0-2.8.6-3 1.3zm40-.1c-.6 1.7-12.5 49.6-12.5 50.3 0 .3 1.3.5 2.9.5 2.8 0 3-.3 4.8-7.8l1.9-7.7 6.6-.3 6.7-.3 1.1 4.3 2.1 8c.9 3.3 1.4 3.8 3.9 3.8 1.7 0 3-.2 3-.5 0-.9-9.9-40.4-11.6-46.3-1.5-5-1.7-5.2-5-5.2-1.9 0-3.7.6-3.9 1.2zm6.6 18.3l2.7 10.5h-5.5c-5.2 0-5.5-.1-4.9-2.3.3-1.2 1.3-5.9 2.3-10.5.9-4.5 2-8.2 2.3-8.2s1.7 4.7 3.1 10.5z"/><path d="M914 631.4c0 2.8 1.6 3.6 7.1 3.6h3.9l.2 22.7.3 22.8 2.8.3 2.7.3.2-21 .2-22.9c.1-1.3 1.3-1.8 5.6-2.2 5.1-.5 5.5-.7 5.5-3v-2.5l-14.2-.3-14.3-.3v2.5zm34.7-1.8c-.4.4-.7 12.1-.7 26.1V681h3 3l-.2-25.8c-.3-25-.4-25.7-2.3-26-1.2-.2-2.4 0-2.8.4zm21.7 1.3c-6.4 3.9-9.6 17.7-7.6 32.3 1.8 12.6 6.2 18.1 14.4 18.1 6.3 0 10.2-2.4 12.9-8 2.2-4.3 2.4-6.1 2.4-18.3 0-11.9-.3-14-2.2-18-1.3-2.5-3.6-5.3-5.2-6.3-3.8-2.3-10.8-2.2-14.7.2zm12.3 5.3c2.9 3.2 4.3 9 4.3 18 0 15.5-3 22.2-9.8 21.6-3.3-.3-4-.8-5.9-4.8-2-3.8-2.3-6-2.3-15.5 0-11.7.9-16.6 3.6-19.6 2.4-2.6 7.5-2.5 10.1.3zm18.8-5.9c-.3.7-.4 12.3-.3 25.7l.3 24.5 2.7.3 2.8.3.2-20 .3-20.1 8.2 19.8 8.2 19.7 3.6.3 3.5.3-.2-25.8-.3-25.8h-2.5-2.5l-.5 19.5-.5 19.5-6.4-16c-9.2-22.9-9.5-23.5-13.2-23.5-1.6 0-3.2.6-3.4 1.3zM616 647v17h4.5c4.5 0 4.5 0 4.5-3.6 0-2.5.7-4.1 2.3-5.5 2-1.6 4.1-1.8 20.9-1.9 10.2 0 19.3-.3 20.2-.6 1.2-.4 1.6-2 1.6-5.5V642h-22.5H625v-4.4c0-6.6-.6-7.6-5.1-7.6H616v17zm-159 2.5c0 17.8.1 18.5 2 18.5 1.8 0 2-.7 2-8.5V651h3.9c5.1 0 6.5 1.9 7.1 9.9.4 5.7.8 6.6 2.5 6.9 2 .3 2-.1 1.7-7-.2-4.1-1-8.3-1.9-9.6-1.3-2.1-1.3-2.6 0-4 2.4-2.7 2.9-6 1.7-9.7-1.7-5.1-4.3-6.5-12.2-6.5H457v18.5zm13.8-13.3c1.5 1.3 1.6 6.2.2 8.9-.8 1.4-2.1 1.9-5.5 1.9H461v-5.8c0-3.2.2-6.1.5-6.3.7-.8 7.9.3 9.3 1.3zm12.1 0c-.1 2.9-.1 11.1 0 18.3l.1 13 8.2.3c5.7.2 8.4-.1 8.9-1 1.4-2.2-.1-2.8-6.7-2.8H487v-7-7h6c4.4 0 6-.4 6-1.4 0-.9-1.9-1.6-6-2l-6-.7v-5.4-5.5h6.5c5.8 0 6.5-.2 6.5-2s-.7-2-8.5-2H483l-.1 5.2zm22.1 13.4v18.5l2.3-.3c2-.3 2.2-.9 2.5-7.9l.3-7.7 5.1-.4c6.8-.7 9.8-3.9 9.8-10.4 0-3.7-.6-5.1-2.9-7.5-2.7-2.7-3.5-2.9-10-2.9H505v18.6zm14.5-12.3c3.5 5 .6 10.7-5.5 10.7h-3.8l-.4-6.6-.1-6.8c.1-.1 2 0 4.3.2 2.7.3 4.5 1.1 5.5 2.5zm14-3.9c-3.4 3.4-4.8 9.8-4.2 18.7.8 11.9 3.7 15.9 11.5 15.9 7.2 0 10.2-5.5 10.2-19 0-9.6-.8-12.8-4-16-3-3-10.3-2.8-13.5.4zm9.5 1.6c5.4 2.9 5.3 26.1-.1 29-2.8 1.6-5.7.3-7.5-3.2-2.4-4.5-1.7-21.8 1-24.7 2.1-2.3 3.8-2.6 6.6-1.1zm14.2 14.2c.3 18.1.3 18.3 2.6 18.6 2.1.3 2.2.1 2.2-8.2V651h3.4c4.9 0 6.6 2.1 6.6 8.5 0 6.7.7 8.5 3.2 8.5 1.9 0 2-.5 1.6-7.5-.4-5.4-1-8.1-2.4-9.6-1.2-1.3-1.5-2.3-.8-2.7 4.2-2.7 4.5-10.3.5-14.3-2.7-2.7-3.5-2.9-10-2.9H557l.2 18.2zm14.1-12c3.7 4.4.8 9.8-5.4 9.8H562v-6.4-6.5l3.8.6c2 .3 4.5 1.4 5.5 2.5zm8.7-4.2c0 1.7.7 2 4 2h4v16.5c0 15.8.1 16.5 2 16.5s2-.7 2.2-14l.2-16.3c.1-1.8.8-2.3 4.1-2.7 2.7-.3 4.1-1 4.3-2.3.3-1.5-.7-1.7-10.2-1.7-9.9 0-10.6.1-10.6 2zm-178.5 20.4c-6.1 2.7-7 4.7-7.3 16.6l-.4 10.8 7.4.7c4 .3 14.5.5 23.3.3l16-.3V677v-4.5l-9.7-.3c-8.6-.2-9.8-.5-9.8-2 0-1 1.4-3.1 3.1-4.8 2.6-2.5 4-3 9.7-3.4l6.7-.5.3-4.3.3-4.4-9.5.4c-8.2.3-9.8.6-11.9 2.6-2.2 2.1-2.5 2.1-3.8.6-1.6-2-7-4.4-9.6-4.4-1 .1-3.1.7-4.8 1.4zm10.9 10.8c.9 1.2 1.6 3.5 1.6 5 0 2.8-.1 2.8-6.5 2.8s-6.5 0-6.4-2.8c0-2.8 1.7-7.7 1.8-5.4.1 1 .6 1 2.3-.2 3.1-2.2 5.4-2 7.2.6zm-313.2 1.2c-1.8.9-3.5 2.2-3.8 3-.5 1.4-1 1.3-3.1-.4-3.7-2.9-10.4-2.7-14 .4-2.5 2.1-2.8 3.2-3.1 9.9l-.4 7.4 4.3.4c2.4.3 11.8.4 20.9.4l16.5-.1.3-5.6c.5-9.6-3.3-15.3-10.9-16.4-1.9-.2-4.9.2-6.7 1zm10.8 5.4c1.5 1.2 2.4 3.3 2.7 6.5l.6 4.8-8.4-.3-8.4-.3.2-4.5c.2-3.2.8-5 2.4-6.3 2.7-2.2 8.1-2.2 10.9.1zm-20.2.8c1.7 1.2 2.2 2.5 2.2 6v4.4h-6.5H79v-4c0-6.8 5.5-10.1 10.8-6.4zm222.2-2.2c0 4.7.3 5.4 2.3 6 1.2.3 10.3.6 20.2.6 14.3.1 17.6.3 16 1.2-1.1.7-10.1 4.6-20 8.8l-18 7.6-.3 7.1c-.3 6.6-.1 7.1 2 7.7 1.3.3 16.1.6 33.1.6H378v-6-6l-16.7-.1c-9.3-.1-17.9-.4-19.3-.8-2.3-.7-2.1-.9 3-3.3 3-1.4 10.4-4.5 16.4-6.8 6.1-2.3 12.3-5 13.8-6.1 2.6-1.9 2.8-2.5 2.8-9V664h-33-33v5.4zm304 4.1c0 2.5.1 4.6.3 4.7.1 0 7.4.4 16.2.7l16 .6-16.2 6.5-16.3 6.5v5.7 5.8h27 27v-4.5-4.5h-12.7c-21.2 0-21.8-1.6-3.1-7.8 16.3-5.5 16-5.2 15.6-12l-.3-5.7-26.7-.3-26.8-.2v4.5zm487 10V695h-7.2c-4 0-7.8-.4-8.5-.8-.8-.5-1.3-4.2-1.5-10.2l-.3-9.5-4.7-.3-4.8-.3v10.5V695h-5.4c-8.2 0-8.6-.3-8.6-7 0-3.1-.3-7.8-.6-10.4l-.7-4.6h-4.3-4.4v16.5V706h30.5 30.5v-16c0-12-.3-16.2-1.2-16.5-.7-.2-3-.6-5-1l-3.8-.6v11.6z"/><path d="M416.8 690.9l-22.8 5.6v5.7 5.7l4.3 1.2c9.3 2.5 40 9.9 41.3 9.9 1.8 0 2-7.9.2-8.4-.7-.3-3.3-1-5.8-1.8-4.3-1.3-4.5-1.5-4.2-4.8.3-4.3 2.5-6.7 7.4-8.2 3.7-1.1 3.8-1.2 3.8-6 0-2.6-.3-4.7-.7-4.7-.5.1-11 2.7-23.5 5.8zm4.5 11.3c.2 1.8.3 3.5.2 3.6-.2.2-3-.2-6.2-.9-3.2-.6-5.2-1.4-4.5-1.6.6-.3 1-.9.7-1.3-.4-.7 3.7-2.1 8.6-2.9.4-.1.9 1.4 1.2 3.1zm-346.1-6c.3 2.3.6 2.3 17.4 2.8 12.4.4 17.6.9 18.8 1.9 2 1.7 2.1 6 .2 8.7-1.3 1.7-3 1.9-19.1 2.2-17.5.3-17.6.3-17.3 2.5s.6 2.2 17.4 2.2c18.4 0 21.2-.6 23.3-5.2 1.4-3.1 1.4-8.5 0-11.7-2.2-4.7-6.1-5.6-24.4-5.6H74.9l.3 2.2zm926.8 7.9c-8.7 1.7-12 6-12 15.5 0 5.6.2 6.2 2.3 6.8 3.2.8 38.5.7 39-.2.3-.4.2-4-.2-8.1-.6-6.8-1-7.6-4-10.2-2.3-1.8-5.3-3.1-9.5-3.8-7.1-1.2-9.3-1.2-15.6 0zm20.9 6.4c3.3 1.6 4.1 3.3 4.1 8.1v3.4h-16.5H994v-4c0-4.6 2.4-7.6 6.7-8.6 1.6-.3 3.3-.8 3.8-1 2.2-.8 15.7.7 18.4 2.1zM661 719.9V730h-7.5-7.5v-9.1-9l-4.2.3-4.3.3-.3 8.7-.3 8.8H631h-5.9l-.3-9.3-.3-9.2-4.2-.3-4.3-.3v14.5 14.4l8.3.7c4.5.3 16.5.5 26.7.3l18.5-.3.3-14.8c.2-12.1 0-14.7-1.1-14.7-.8 0-2.9-.3-4.6-.6l-3.1-.7v10.2zm-287.1-4.5c-.2.2-11.2 3.2-24.4 6.6l-30.5 7.9-6.5 1.7-.3 8.5-.3 8.5 4.3 1.2c12.8 3.6 58.7 15.2 60.2 15.2 1.4 0 1.7-.9 1.4-6.3l-.3-6.2-7.7-1.9-7.8-1.8v-6.1c0-7.6 2-10 10.2-12.3l5.8-1.7v-6.8c0-6-.2-6.9-1.8-6.9-1 0-2.1.2-2.3.4zm-23.1 25.8c.2 3-.1 4.8-.8 4.8-1.9 0-15.4-3.2-16.9-4-2.8-1.5 9.2-6.1 14.9-5.7 2.2.2 2.5.7 2.8 4.9zm717.2-24.9c-7.1 2-11.6 5.3-13.9 10.1-1.8 3.5-2.1 6.1-2.1 15.8v11.6l7.3.7c3.9.3 17.6.5 30.2.3l23-.3.3-9.8c.1-5.3-.2-11.5-.8-13.8-1.5-5.5-7.1-11.4-12.8-13.4-6.2-2.3-25-3-31.2-1.2zm29.3 13.1c4.5 1.8 5.8 3.8 6 8.8l.2 4.3-17 .3c-18 .3-25.5-.3-25.5-2 0-2.4 3.5-8 6.3-10 1.7-1.2 4.6-2.5 6.6-2.9 5-1.1 19.5-.2 23.4 1.5zm32.7 7v16.3l4.8.6c7.3.9 12.6-.4 13-3.1.3-2.1 0-2.2-5.7-2.2h-6.1v-4.4-4.5l5.3-.3c4.8-.3 5.2-.5 5.2-2.8s-.4-2.5-5.2-2.8l-5.3-.3v-3.5c0-3.2.2-3.4 3.3-3.4 5.6 0 7.7-1 7.7-3.6 0-2.3-.2-2.4-8.5-2.4h-8.5v16.4zm22 .1V753h2.5c2.7 0 3.3-1.9 3.8-12.2l.2-5.8 3.7 8.7c3.3 7.8 4 8.9 6.7 9.4 1.7.4 3.3.4 3.6.1s.5-7.9.5-16.9V720h-3-3v10.2l-.1 10.3-4.1-10.3c-4-10.1-4.1-10.2-7.4-10.2h-3.4v16.5zm30-13.8c-6.7 6.1-6 26.5.9 30.3 2.9 1.5 7.7 1.2 9.1-.5 1.1-1.4 1.4-1.3 2.5.2.7.9 1.9 1.4 2.9 1 1.3-.5 1.6-2.2 1.6-9.7v-9h-5.5c-5.2 0-5.5.1-5.5 2.5 0 2 .5 2.5 2.6 2.5 2.5 0 2.6.2 2.1 3.7-.9 5-2.9 6.3-6.3 3.9-1.6-1.2-1.9-2.7-1.9-10.4 0-9.4 1.1-12.2 4.6-12.2 1 0 2.3.9 2.9 2 .7 1.3 2.1 2 4 2 3.2 0 3.6-.9 1.8-4.3-1.8-3.5-4-4.6-8.5-4.7-3.3 0-5 .6-7.3 2.7zm22 13.8V753h3.5 3.5v-12.8c0-7-.3-14.4-.6-16.5-.6-3.3-1-3.7-3.5-3.7h-2.9v16.5zm12-.1V753h3 2.9l.3-10.1.3-10 4 10c3.8 9.5 4.1 10 7.3 10.3 1.8.2 3.5.2 3.7-.1.7-.7.6-21.7-.1-27.9-.6-4.6-.9-5.2-3-5.2-2.3 0-2.3.3-2.6 10.1l-.3 10.2-4-9.9c-4-9.9-4-9.9-7.7-10.2l-3.8-.3v16.5zm27 0v16.3l4.8.6c2.7.3 6.7.3 9 0 3.6-.5 4.2-.9 4.2-2.9 0-2.2-.4-2.4-5.5-2.4h-5.5v-4.5-4.5h5c4.9 0 5-.1 5-3s-.1-3-5-3h-5v-3.5c0-3.3.2-3.5 3.3-3.5 5.6 0 7.7-1 7.7-3.6 0-2.4-.2-2.4-9-2.4h-9v16.4zM100 723.7c-2.2 1.1-4.4 3.5-6 6.5-3.5 6.3-5.9 8.8-8.7 8.8-4.3 0-6.3-1.8-6.3-5.6 0-3.1.4-3.7 3-4.7 2.2-.8 3-1.8 3-3.5 0-2.1-.3-2.3-2.7-1.8-9.7 2.3-9.8 16.9-.2 19.8 5.7 1.7 10.4-.9 14.1-7.7 4.4-8.2 9.4-10.6 14.6-6.9 4 2.8 1.6 11.4-3.3 11.4-.9 0-1.5.9-1.5 2.5 0 2.2.3 2.5 2.8 1.9 4.6-1 8.2-5.7 8.2-10.9 0-8.8-9-13.9-17-9.8zm294 6.6v6.3l12.8 2.7c7 1.5 13.3 2.7 14.1 2.7s1.1.3.7.7c-.4.5-6.7 1.9-13.9 3.3l-13.2 2.6-.3 6.7-.3 6.7h23.6H441v-4-4l-8.2-.1c-4.6-.1-10.8-.4-13.8-.8l-5.5-.6 11.5-1.8c17.2-2.7 16.2-2.3 15.8-7-.3-4-.4-4.1-5.3-5.3a202.22 202.22 0 0 0-10.9-2.4c-7-1.4-5.9-3 2-3 2.8 0 7.2-.3 9.8-.6 4.6-.7 4.6-.7 4.6-4.5V724h-23.5H394v6.3zm596 11.1v9.4l6.3.7c3.4.3 12.7.5 20.7.3 14.3-.3 14.5-.3 14.4-2.6 0-1.2-.1-5.6-.2-9.7-.2-6.8-.4-7.5-2.2-7.5s-2 .7-2 7.5v7.5h-7.5-7.5v-3.3c0-6.8-1.2-10.7-3.1-10.7-1.7 0-1.9.8-1.9 7v7h-6.5-6.5v-7.5c0-6.8-.2-7.5-2-7.5-1.9 0-2 .7-2 9.4zm-374 15.9v7.3l12.8 2.7 16 3.3c1.7.4 3.2 1 3.2 1.3 0 .4-7.1 2.1-15.7 3.7l-15.8 2.9-.3 7.8-.3 7.7H643h27.1l-.3-4.8c-.2-2.8-.8-4.7-1.5-4.8s-8.2-.2-16.5-.4c-15.1-.2-15.2-.2-9.3-1.4A291.36 291.36 0 0 1 657 780c12.6-1.9 13-2.1 13-7.4 0-5 .3-4.7-9.5-6.6-23.5-4.5-24.4-6-3.7-6H670v-5-5h-27-27v7.3zm374 9.1v9.3l3.8.7c5.3.8 37 .7 37.5-.2.2-.4.2-4.9-.1-10-.4-8.2-.7-9.2-2.3-9.2-1.7 0-1.9.8-1.9 7.5v7.5h-7.5-7.5v-3.3c0-6.8-1.2-10.7-3.1-10.7-1.7 0-1.9.8-1.9 7v7h-6.5-6.5v-7.5c0-6.8-.2-7.5-2-7.5-1.9 0-2 .7-2 9.4zm64 25V812h2.5c2.5 0 2.5-.1 2.5-9v-9h4.9c6.6 0 8.1 2.1 8.1 11.2v6.8h3.1c2.4 0 3-.3 2.5-1.6-.3-.9-.6-4.5-.6-8 0-5.5-.4-6.9-2.4-8.9-1.8-1.8-2.1-2.5-1-2.9.8-.3 2.2-2.1 3.1-4 1.4-3 1.5-4.1.4-7.6-1.7-5.7-4.7-7.3-14.7-7.8l-8.4-.5v20.7zm16-14.4c2.4 2.4 2.7 8.2.4 10.4-1 1-3.3 1.6-6.5 1.6h-4.9v-7-7h4.5c3.2 0 5.1.6 6.5 2zm22.6-.8l-5.1 18.8-4.1 15.2c-.4 1.4.1 1.8 2 1.8 2.3 0 2.8-.7 4.2-5.9l1.7-5.9 5.5-.7c6.3-.8 6.6-.6 8.3 7.2 1.1 4.9 1.4 5.3 4.1 5.3 1.5 0 2.8-.1 2.8-.3 0-.9-10-35.6-10.9-38-.8-2.1-1.7-2.7-4-2.7-2.7 0-3.1.4-4.5 5.2zm7.5 11.7l1.9 6.7c0 .2-2 .4-4.5.4-5.1 0-5.1.1-3-8.4 2.2-8.4 2.7-9.6 3.2-7.1.3 1.1 1.3 4.9 2.4 8.4zm17.9 3.6V812h2.5 2.6l-.3-16c-.2-8.7 0-15.6.3-15.2s3.7 7.5 7.4 15.9c6.3 14 7 15.2 9.7 15.5 1.8.3 3.2 0 3.4-.7.3-.7.4-9.9.2-20.6-.3-19.3-.3-19.4-2.5-19.7l-2.3-.3-.1 16.3-.1 16.3-3-6.5c-12.3-26.7-11.9-26-15-26h-2.8v20.5zm35.7-19.8c-.4.3-.7 9.6-.7 20.5V812h2.4c2 0 2.4-.6 3-4.6.3-2.6.6-6.1.6-7.9 0-2.8 3.3-7.6 4.4-6.4.2.2 2.7 4.6 5.6 9.6 4.8 8.5 5.5 9.3 8.2 9.3h3l-2.5-4.3-6.7-12-4.2-7.8 6.1-7.8c3.4-4.4 6.1-8.2 6.1-8.5s-1.1-.6-2.4-.6c-1.9 0-4.1 2.2-9.8 9.5-4 5.2-7.5 9.4-7.8 9.5-.3 0-.5-1.5-.5-3.2-.2-14-.5-15.8-2.3-15.8-1 0-2.2.3-2.5.7zm31.3 19.7V812h2.5 2.5l-.2-20.3c-.3-20.1-.3-20.2-2.5-20.5l-2.3-.3v20.5zm14.9-20c-.2.2-.3 9.5-.1 20.5.3 19.2.4 20.1 2.2 20.1 1.9 0 2-.8 2-16.8v-16.7l7.6 16.7c7 15.4 7.8 16.6 10.5 17 1.6.3 3.1.2 3.4 0 .7-.8.6-27.8-.1-35.1-.6-5-1-6.1-2.5-6.1-1.8 0-1.9 1.1-2 16.2v16.3l-3.2-6.6c-1.8-3.6-5.2-10.9-7.6-16.2-3.9-8.8-4.6-9.7-7.1-9.7-1.4 0-2.9.2-3.1.4zm40.5 1.5c-4.5 2.8-6.9 9.5-6.8 19.6 0 9.6 1.5 14.6 5.5 18 3.9 3.2 9.5 3.4 13.3.4 2.1-1.7 2.6-1.8 2.6-.5 0 1 .9 1.6 2.5 1.6h2.5v-11-11h-6.5c-5.8 0-6.5.2-6.5 2 0 1.6.7 2 3.5 2h3.5v4.9c0 12.9-12.6 13.5-14.5.6-1.2-7.6 0-18.3 2.2-21.3 3.6-4.9 12.3-3.5 12.3 2 0 1.3.8 1.8 3 1.8 1.7 0 3-.2 3-.5 0-2-3.2-7.5-5.1-8.9-3.2-2.2-10.6-2.1-14.5.3zM262.5 778c-4.8 1.1-7.4 3.2-9.8 8-1.9 3.9-2.2 6.1-2.2 16 0 13.5 2 19.5 7.7 23 6.5 3.9 16.4 1.6 20-4.6 4.2-7.3 4.1-26.9-.2-35.4-2.9-5.6-9.3-8.5-15.5-7zm5.5 8c1 .5 2.3 2.4 2.9 4.1 1.4 4.2 1.3 20.4-.2 24.9-1.1 3.1-1.6 3.5-4.7 3.5-2.9 0-3.7-.5-4.9-3-1.9-3.9-2.2-22.5-.4-24.7.7-.8.9-1.9.5-2.3-.4-.5-.2-.5.5-.1.6.3 1.4.2 1.8-.4.3-.5 0-1-.7-1-.9 0-.9-.3.2-1 1.9-1.2 2.7-1.2 5 0zm76.2-7.9c-1.8.4-4.5 1.7-5.9 3-4.5 4.3-5.6 8.4-5.7 21.4-.1 13.8 1.4 18.3 7.4 22.3 2.9 2 4.4 2.3 8.8 2 6.8-.6 11.1-4.4 11.9-10.6l.6-4.2h-3.9c-3.4 0-4.1.5-5.4 3.3-1.2 2.5-2.1 3.2-4.5 3.2-4.7 0-5.6-3-5.1-16.5.5-13.3.6-14 2-13.7.6.1 1-.4.8-1.1-.1-.7.4-1.5 1.2-1.8 2.2-.8 5.5 1.4 6.2 4.1.5 2.2 1.2 2.5 5 2.5 2.9 0 4.4-.4 4.4-1.3-.1-2.1-3.6-9.1-5.4-10.6-2.2-1.9-8.4-2.9-12.4-2zm80.3-.2c-5 1.2-7.6 3.1-9.1 6.6-3.1 7.4-.7 14.1 6.5 18.2 9.5 5.4 11.1 7 11.1 11.4 0 3.2-.4 4.1-2.5 5.1-3.3 1.5-7.2-.2-8.5-3.7-.8-2.1-1.6-2.5-5.1-2.5-4.1 0-4.1 0-3.5 3.2.9 4.6 2.9 7.3 6.9 9.2 4.4 2 9.5 2.1 14.6 0 6.2-2.5 8.8-8.3 7.1-15.8-1.1-4.9-4.1-8-11.3-11.9-5.9-3.1-9.1-7.2-6.7-8.7a2.06 2.06 0 0 0 .8-2.1c-.2-1 .6-1.4 2.7-1.4 2.3 0 3.3.7 4.3 2.7 1.1 2.4 1.9 2.8 5.4 2.8h4.1l-.6-3.8c-.7-4.1-5.4-9.2-8.6-9.2-1.1 0-2.5-.2-3.3-.4-.7-.2-2.6-.1-4.3.3zm-207.1 1.4c-.2.7-.3 11.4-.2 23.7l.3 22.5 4.1.3 4.1.3.5-7.6c.6-8.9 2-11 8.1-11.9 8.3-1.4 12.3-6.4 11.5-14.8-1-9.8-6.7-13.8-19.6-13.8-5.8 0-8.4.4-8.8 1.3zm18 8.9c1.7 2.4 2.1 6.5.8 8.5-1.1 1.8-5.2 3-8 2.5-2.3-.4-2.4-.8-1.8-4.8.3-2.4 1.1-5.3 1.8-6.4 1.7-2.7 5.3-2.6 7.2.2zM288 802v24h12 12v-3.5c0-3.5 0-3.5-4.4-3.5-2.4 0-5.8-.3-7.5-.6l-3.1-.7v-14.6c0-8-.3-17-.6-19.9l-.7-5.2h-3.8-3.9v24zm29 0v24h4.5 4.5v-19.4c0-10.6-.3-21.4-.6-24-.7-4.6-.7-4.6-4.5-4.6H317v24zm50 0v24h4.5 4.5v-20.9c0-11.5-.3-22.3-.6-24-.6-2.8-1-3.1-4.5-3.1H367v24zm17 0v24h12.5H409v-4c0-2.2-.3-3.9-.7-3.9-.5.1-4.1.1-8 0l-7.3-.1v-3.9c0-2.4.8-4.8 2.1-6.5 1.8-2.2 2.8-2.6 7.5-2.6h5.5l-.3-3.8-.3-3.7-7.2-.3-7.3-.3v-3.2c.1-5.4 2.9-7.7 9.4-7.7h5.6v-4-4h-12-12v24z"/><path d="M990 792.5c0 10.8.1 11.5 2 11.5 1.7 0 2-.7 2-4.5V795h18.5 18.5v-2.5-2.5h-18.5H994v-4.5c0-3.8-.3-4.5-2-4.5-1.9 0-2 .7-2 11.5zm-374 15.3v4.9l4.6.7c2.6.3 12.2.6 21.4.6 14.6 0 16.9.2 18.3 1.7 1.9 2.3 2.3 4.1 1.4 7.5-1.1 4.1-4.9 4.8-26.3 4.8H616v5 5h22.3c19.1 0 22.7-.2 25.7-1.8 4.9-2.4 6.5-6.2 6.5-15.4 0-8.3-1.2-11-6.9-15.2-2.5-2-4.4-2.1-25.2-2.4l-22.4-.3v4.9zm374 2.2c0 1.9.7 2 16.3 2l16.2.1-16.2 6.5c-15.8 6.4-16.3 6.7-16.3 9.5v2.9h20.5c19.8 0 20.5-.1 20.5-2s-.7-2-12.2-2.2c-6.8-.1-14.3 0-16.8.1-2.5.2-4.3 0-4-.3.5-.4 14.6-6 28.3-11 4.1-1.6 4.7-2.1 4.7-4.7V808h-20.5c-19.8 0-20.5.1-20.5 2zm20.5 30.5l-20 5.1-.3 3.1-.3 3.1 20.3 4.9c19.4 4.8 20.3 4.9 20.6 3 .5-2.5-.6-3.1-7.4-4.6l-5.4-1.2.4-5.2.4-5.2 6.1-1.4c5.7-1.4 6.1-1.6 6.1-4.3 0-1.5-.1-2.7-.2-2.7-.2.1-9.3 2.5-20.3 5.4zm3.5 8.6c0 3.8-.2 4.1-2.2 3.5a394.65 394.65 0 0 1-9.2-2.3l-7-1.7 7-1.7c11-2.7 11.4-2.6 11.4 2.2zm-692.2-5.4l-6.8.4V859c0 12.7.2 15 1.5 15 1.2 0 1.5-1.4 1.5-6.9v-7l5.2-.3c7.1-.4 7.3-2.4.3-3.3l-5.5-.6v-4.5-4.4h5.5c4.8 0 5.5-.2 5.5-2 0-1.1-.1-1.9-.2-1.8-.2.1-3.3.3-7 .5zm14.2 2.1c-5.7 5.8-4.7 25.2 1.5 27.6 2.4.9 6.4.7 8.4-.4 4.6-2.4 6.6-16.4 3.6-23.7-2.9-6.9-8.6-8.4-13.5-3.5zm9.5 3.2c1.8 3.6 2 15.5.2 19-.8 1.6-2.3 2.6-4 2.8-2.3.3-3-.2-4.2-3.2-2.7-6.3-1.6-18.7 1.8-20.8 2.4-1.5 4.7-.7 6.2 2.2zm48-3.6c-2.9 2.9-3.9 7.6-3.3 16.1.5 8.4 2.9 11.9 8.4 12.3 3.2.2 4.4-.2 6.4-2.3 2.3-2.5 2.5-3.4 2.5-13.2 0-10.2-.1-10.5-2.8-12.9-3.6-3.1-8.1-3.1-11.2 0zm9.2 3.3c2.6 3.9 2.5 17.3-.1 20.2-4.8 5.3-9 .4-9-10.4 0-11.1 4.9-16.3 9.1-9.8z"/><use xlink:href="#A"/><use xlink:href="#A" x="18"/><path d="M411.5 846.2l5.5 27c0 .5.9.8 1.9.8 2.3 0 2.4-.4 4.7-12.5 1.6-8.5 3.4-13.3 3.4-9 0 1.1 1 6.4 2.2 11.7 1.7 8 2.5 9.8 3.9 9.8 2 0 2.2-.6 5.8-17.5 2.5-11.8 2.5-12.5.7-12.5-1.3 0-3.6 8-5.3 18.3-.8 5-1.8 3.7-3.2-4.3-2.2-11.6-3-14-5-14-1.5 0-2.2 1.9-4.2 11.6l-2.4 11.7-1.1-5.4-2.4-11.7c-1-5-1.6-6.2-3.2-6.2-1.4 0-1.7.5-1.3 2.2zm214.5 1c-11 2.9-14.5 17.8-6.4 26.8 5.5 6 10.6 7.5 25.9 7.5 11.7-.1 13.5-.3 18-2.5 6-3 8.1-7.4 7-15.5-.3-2.8-.7-7.7-.8-11l-.2-6-14.7-.3-14.8-.3v9.1 9h4c2.8 0 4-.4 4-1.4 0-2 4.8-5.6 7.4-5.6 3.8 0 6.6 2.8 6.6 6.5 0 5.2-3.1 6.7-15 7.3-13.8.7-23-2-23-6.6 0-.8 1.6-2.9 3.5-4.8 3-2.8 3.5-3.9 3.5-7.8 0-2.5-.3-4.7-.7-4.9-.5-.2-2.4 0-4.3.5zm366.9 21.7c-2.7 2.7-2.9 3.5-2.9 10.4v7.5l11.8.4c6.4.2 15.6.2 20.5 0 7.7-.4 8.7-.6 8.7-2.3s-.8-1.9-6.4-1.9c-3.5 0-7.8-.3-9.5-.6-3.1-.7-3.2-.8-2.6-4.8.9-5.6 2.6-6.6 11.2-6.6 7.1 0 7.3-.1 7.3-2.5s-.2-2.5-6.5-2.5c-7 0-13.5 2-13.5 4.2-.1.9-.4.8-1.3-.3-2-2.6-5.3-3.9-9.7-3.9-3.3 0-4.8.6-7.1 2.9zm13.5 3.7c1 .9 1.6 3.3 1.6 6v4.4h-7-7v-4.4c0-2.7.6-5.1 1.6-6 2-2.1 8.8-2.1 10.8 0zm-384.5 17.7c-4.6 3.1-5.8 7.2-5.8 19.9L616 921h27 27v-4.9-4.9l-10.9-.4c-6-.1-11.3-.6-11.7-1-1.2-1.2 1.7-6.7 4.6-8.8 2-1.4 4.5-2 8.2-2 9.1 0 9.8-.5 9.8-6.3v-5l-9.9.6c-9.7.5-15.3 2.2-16.5 4.9-.3 1-.8.8-1.6-.5-3.2-5-14.2-6.4-20.1-2.4zm15.9 10.5c.6.9 1.2 3.5 1.2 5.9v4.3h-5.2c-8.6 0-10.1-.7-9.4-4.3.8-3.8 2.3-5.7 6-7.2 3.3-1.4 5.5-1 7.4 1.3zm374.2-4.4l-19.2 4.9c-2.3.6-2.8 1.3-2.8 3.7 0 3.3-1.5 2.8 22.5 8.5l16.8 4.1c1.3.4 1.7 0 1.7-1.9s-.7-2.6-2.7-3.1l-6.6-1.7-3.7-1 .4-5.2.4-5.1 6.1-1.4c5.4-1.2 6.1-1.6 6.1-3.8 0-1.3-.6-2.4-1.2-2.3-.7 0-8.7 2-17.8 4.3zm2 8.6c0 4.6.2 4.6-10 2.1-7.9-2-7.8-2.2 1-4.5 8.7-2.3 9-2.2 9 2.4zm-24 18.9c0 1.9.8 2 16.9 2.3 14.9.3 17.1.5 19 2.2 1.2 1.1 2.1 3.1 2.1 4.6s-.9 3.5-2.1 4.6c-1.9 1.7-4.1 1.9-19 2.2-15.5.3-16.9.5-16.9 2.1 0 2.3 5.2 3.1 19.4 3.1 12.7-.1 17.4-1.1 20.5-4.6 2-2.4 2.3-3.6 1.9-8.1-.3-3.8-1.1-6.1-2.7-7.6-2-2.1-3.2-2.2-20.6-2.5-17.9-.3-18.5-.3-18.5 1.7zm-345.5 7.6l-25 6.3c-2.9.7-3 1-3.3 7.5-.2 3.7-.1 6.7 0 6.7.2 0 11.4 2.7 24.8 6l26.8 6.5c2.2.5 2.3.3 2-4.7l-.3-5.3-6.2-1.3-6.3-1.4v-4c0-4.9 4-9.3 9.3-10.3l3.7-.7v-5.4c0-4.5-.3-5.4-1.7-5.3-1 0-11.7 2.5-23.8 5.4zm3.3 14.8c.3 3.3.1 3.8-1.5 3.4-1-.3-4.2-1.1-7.1-1.7-4.8-1.1-5.2-1.4-3.9-2.7 1.6-1.7 7.1-3.2 10.2-3 1.6.2 2.1 1 2.3 4zm347.2 6.5c-2.5 1.2-3.9 2.8-4.9 5.8-1.3 3.7-1.2 4.4.5 8 3 6.2 7.5 7.9 20.9 7.9 11.8 0 15.8-1.2 18.9-5.7 2.2-3.1 2-8-.5-11.2-1.7-2.1-1.8-2.6-.5-2.6.9 0 1.6-.8 1.6-2 0-1.9-.7-2-11-2h-11v6c0 5.3.2 6 2 6 1.6 0 2-.7 2-3.6v-3.6l5.7.4c4.3.4 6.1 1 7.5 2.8 2.5 3.1 2 5.8-1.5 8.4-2.5 1.8-4.2 2.1-13 2.1-11.3 0-16.3-1.4-17.7-5s-.1-6.3 3.7-7.7c2.5-.9 3.3-1.7 3.1-3.2-.4-2.7-1.7-2.9-5.8-.8z"/></g><text xml:space="preserve" transform="matrix(.876154 0 0 .965104 -53.58859 -251.58581)" style="white-space:pre" font-weight="bold" font-size="69.599" font-family="Tw Cen MT" fill="#0055d4"><tspan x="85.412" y="1227.277">JunTech Web Solutions</tspan></text><text xml:space="preserve" transform="matrix(.876154 0 0 .965104 979.93203 -1070.5106)" style="white-space:pre" font-weight="bold" font-size="69.599" font-family="Tw Cen MT" fill="#06f"><tspan x="85.412" y="1227.277">Aruba</tspan></text><defs><path id="A" d="M356 859v15h6.9c5.1 0 7-.4 7.4-1.5.5-1.1-.6-1.5-5.1-1.7l-5.7-.3-.3-13.3c-.2-10.8-.5-13.2-1.7-13.2-1.3 0-1.5 2.5-1.5 15z"/></defs></svg>