<svg xmlns="http://www.w3.org/2000/svg" xmlns:svg="http://www.w3.org/2000/svg" id="svg1014" width="620.506" height="496.402" data-name="Layer 1" version="1.1" viewBox="0 0 620.506 496.402"><path id="path954" fill="#fff" d="M 381.61176,238.72516 H 0 V 0 h 381.61176 z"/><path id="path956" fill="#3f3d56" d="M 381.61176,238.72516 H 0 V 0 H 381.61176 Z M 1.74252,236.98264 H 379.86924 V 1.74252 H 1.74252 Z"/><path id="path958" fill="#fff" d="M 348.53959,496.40186 H 130.72466 V 257.6767 h 217.81493 z"/><path id="path960" fill="#3f3d56" d="M 348.53959,496.40186 H 130.72466 V 257.6767 H 348.53959 Z M 132.46718,494.65934 H 346.79707 V 259.41921 H 132.46718 Z"/><rect id="rect962" width="45.306" height="1.837" x="273.611" y="473.855" fill="#3f3d56" style="fill:#fff"/><rect id="rect964" width="45.306" height="1.837" x="273.611" y="479.365" fill="#3f3d56" style="fill:#fff"/><rect id="rect966" width="45.306" height="1.837" x="273.611" y="484.875" fill="#3f3d56" style="fill:#fff"/><path id="path968" fill="#e6e6e6" d="m 239.63215,300.36821 v 19.16772 a 57.50315,57.50315 0 0 1 40.66088,98.164 l 13.55361,13.55361 A 76.67086,76.67086 0 0 0 239.63215,300.36821 Z"/><path id="path970" fill="#575a89" d="m 293.84664,431.25355 -13.55361,-13.55361 a 57.48875,57.48875 0 0 1 -75.4511,5.11572 l -11.60149,15.26513 a 76.66891,76.66891 0 0 0 100.6062,-6.82724 z"/><path id="path972" fill="#0474f9" d="m 182.12901,377.03906 a 57.50312,57.50312 0 0 1 57.50314,-57.50314 V 300.36821 A 76.6701,76.6701 0 0 0 193.24044,438.0808 l 11.60152,-15.26513 a 57.403,57.403 0 0 1 -22.71295,-45.77661 z"/><path id="path974" fill="#fff" d="M 620.50595,428.02461 H 402.69102 V 189.29902 h 217.81493 z"/><path id="path976" fill="#3f3d56" d="M 620.50595,428.02461 H 402.69102 V 189.29902 h 217.81493 z m -216.07241,-1.7425 H 618.76343 V 191.04154 H 404.43354 Z"/><rect id="rect978" width="39.207" height="62.731" x="434.056" y="335.235" fill="#575a89"/><rect id="rect980" width="39.207" height="105.422" x="490.688" y="292.543" fill="#e6e6e6"/><rect id="rect982" width="39.207" height="155.084" x="547.32" y="242.882" fill="#0474f9"/><polygon id="polygon984" fill="#3f3d56" points="462.203 210.845 462.203 391.196 636.455 391.196 636.455 392.939 460.461 392.939 460.461 210.845" transform="translate(-36.859515,6.7701149)" style="fill:#fff"/><path id="path990" fill="#3f3d56" d="M 328.61499,188.7986 H 52.99677 a 0.86259,0.86259 0 0 1 -0.86256,-0.86255 V 55.83223 a 0.86256,0.86256 0 0 1 1.72512,0 v 131.24126 h 274.75566 a 0.86256,0.86256 0 1 1 0,1.72511 z" style="fill:#f2f2f2"/><path id="path992" fill="#0474f9" d="M 111.88438,179.31045 H 86.81583 a 2.56337,2.56337 0 0 1 -2.56052,-2.5603 V 142.193 a 2.56337,2.56337 0 0 1 2.56052,-2.5603 h 25.06855 a 2.56337,2.56337 0 0 1 2.56051,2.5603 v 34.55712 a 2.56337,2.56337 0 0 1 -2.56051,2.56033 z"/><path id="path994" fill="#0474f9" d="m 157.60002,179.31045 h -25.06855 a 2.56336,2.56336 0 0 1 -2.56051,-2.5603 v -67.33438 a 2.56337,2.56337 0 0 1 2.56051,-2.5603 h 25.06855 a 2.56337,2.56337 0 0 1 2.56051,2.5603 v 67.33438 a 2.56336,2.56336 0 0 1 -2.56051,2.5603 z"/><path id="path996" fill="#0474f9" d="m 203.31566,179.31045 h -25.06854 a 2.56337,2.56337 0 0 1 -2.56051,-2.5603 V 142.193 a 2.56337,2.56337 0 0 1 2.56051,-2.5603 h 25.06855 a 2.56337,2.56337 0 0 1 2.56052,2.5603 v 34.55712 a 2.56337,2.56337 0 0 1 -2.56053,2.56033 z"/><path id="path998" fill="#0474f9" d="m 249.03131,179.31045 h -25.06856 a 2.50734,2.50734 0 0 1 -2.56051,-2.44431 V 96.3614 a 2.50734,2.50734 0 0 1 2.56051,-2.44432 h 25.06856 a 2.50734,2.50734 0 0 1 2.56051,2.44432 v 80.50474 a 2.50734,2.50734 0 0 1 -2.56051,2.44431 z"/><path id="path1000" fill="#0474f9" d="M 294.74695,179.31045 H 269.6784 a 2.56336,2.56336 0 0 1 -2.56051,-2.5603 V 73.18828 a 2.56337,2.56337 0 0 1 2.56051,-2.5603 h 25.06855 a 2.56337,2.56337 0 0 1 2.56051,2.5603 v 103.56187 a 2.56337,2.56337 0 0 1 -2.56051,2.5603 z"/><circle id="circle1002" cx="99.35" cy="124.107" r="5.175" fill="#3f3d56" style="fill:#fff"/><circle id="circle1004" cx="145.066" cy="90.467" r="5.175" fill="#3f3d56" style="fill:#fff"/><circle id="circle1006" cx="190.781" cy="124.107" r="5.175" fill="#3f3d56" style="fill:#fff"/><circle id="circle1008" cx="236.497" cy="74.078" r="5.175" fill="#3f3d56" style="fill:#fff"/><circle id="circle1010" cx="282.213" cy="55.102" r="5.175" fill="#3f3d56" style="fill:#fff"/><polygon id="polygon1012" fill="#3f3d56" points="99.867 124.797 98.833 123.416 145.066 88.787 190.672 122.947 235.993 73.352 236.175 73.278 281.89 54.858 282.535 56.459 237.001 74.805 190.89 125.266 145.066 90.943" style="fill:#fff"/></svg>