<svg xmlns="http://www.w3.org/2000/svg" width="500" height="500" style="width:100%;height:100%;content-visibility:visible"><defs><clipPath id="c"><path d="M0 0h500v500H0z"/></clipPath><clipPath id="i"><path d="M0 0h500v500H0z"/></clipPath><clipPath id="e"><path d="M0 0h500v500H0z"/></clipPath><clipPath id="h"><path d="M0 0h500v500H0z"/></clipPath><clipPath id="g"><path d="M0 0h500v500H0z"/></clipPath><filter id="a" filterUnits="objectBoundingBox" x="0%" y="0%" width="100%" height="100%"><feComponentTransfer in="SourceGraphic"><feFuncA type="table" tableValues="1.0 0.0"/></feComponentTransfer></filter><filter id="b" filterUnits="objectBoundingBox" x="0%" y="0%" width="100%" height="100%"><feComponentTransfer in="SourceGraphic"><feFuncA type="table" tableValues="1.0 0.0"/></feComponentTransfer></filter><mask id="f"><g filter="url(#b)"><g display="block"><path stroke-linecap="round" stroke-linejoin="round" fill-opacity="0" stroke="#E3E3E3" stroke-width="0" d="M410.12 383.432H250V118.29h160.12v265.142z"/><path fill="red" d="M80.06 132.571H-80.06v-265.142H80.06v265.142z" transform="translate(330.06 250.861)"/></g></g></mask></defs><g mask="url(#d)" display="block" clip-path="url(#c)"><g clip-path="url(#e)" transform="matrix(.5 0 0 .5 125 125)"><g mask="url(#f)" display="block"><g clip-path="url(#g)"><path stroke-linecap="round" stroke-linejoin="round" stroke="#E3E3E3" stroke-width="12.04" d="M250 383.432H89.88V118.29H250v265.142zM410.12 383.432H250V118.29h160.12v265.142z" fill="none" display="block"/><g display="block"><path stroke-linecap="round" stroke-linejoin="round" stroke="#E3E3E3" stroke-width="12.04" d="M153.19 164.552h58.56M127.607 164.552h.524M153.19 197.11h58.56M127.607 197.11h.524M153.19 229.668h58.56M127.607 229.668h.524" fill="none"/><g><path stroke-linecap="round" stroke-linejoin="round" stroke="#2F80E8" stroke-width="12.04" d="M134.702 319.604l17.629 17.629 52.849-52.848" fill="none"/></g><g><path stroke-linecap="round" stroke-linejoin="round" stroke="#2F80E8" stroke-width="12.04" d="M355.506 214.382l-49.83-49.83M305.676 214.382l49.83-49.83" fill="none"/></g><g><path stroke-linecap="round" stroke-linejoin="round" stroke="#E3E3E3" stroke-width="12.04" d="M314.102 272.117h58.56M288.52 272.117h.524M314.102 304.675h58.56M288.52 304.675h.524M314.102 337.233h58.56M288.52 337.233h.524" fill="none"/></g></g></g></g><g clip-path="url(#h)" display="block"><g display="block"><path stroke-linecap="round" stroke-linejoin="round" stroke="#2F80E8" stroke-width="12.04" d="M355.506 214.382l-49.83-49.83m0 49.83l49.83-49.83" fill="none"/><path stroke-linecap="round" stroke-linejoin="round" stroke="#E3E3E3" stroke-width="12.04" d="M314.103 272.117h58.56m-84.143 0h.524m25.059 32.558h58.56m-84.143 0h.524m25.059 32.558h58.56m-84.143 0h.524" fill="none"/></g><path stroke-linecap="round" stroke-linejoin="round" stroke="#E3E3E3" stroke-width="12.04" d="M410.12 383.432H250V118.29h160.12v265.142z" fill="none" display="block"/></g></g></g></svg>