<svg xmlns="http://www.w3.org/2000/svg" xmlns:svg="http://www.w3.org/2000/svg" id="svg2316" width="622.01" height="499.411" data-name="Layer 1" version="1.1" viewBox="0 0 622.01 499.411"><path id="path2256" fill="#fff" d="M 381.61176,238.72516 H 0 V 0 h 381.61176 z" style="fill:#333"/><path id="path2258" fill="#3f3d56" d="M 381.61176,238.72516 H 0 V 0 H 381.61176 Z M 1.74252,236.98264 H 379.86924 V 1.74252 H 1.74252 Z" style="stroke:#5577f9;stroke-opacity:1;stroke-width:1.37952756;stroke-miterlimit:4;stroke-dasharray:none"/><path id="path2260" fill="#fff" d="M 333.49489,499.4108 H 115.67996 V 260.68564 h 217.81493 z" style="fill:#333"/><path id="path2262" fill="#3f3d56" d="M 333.49489,499.4108 H 115.67996 V 260.68564 H 333.49489 Z M 117.42248,497.66828 H 331.75237 V 262.42815 H 117.42248 Z" style="stroke:#5577f9;stroke-opacity:1;stroke-width:1.37952756;stroke-miterlimit:4;stroke-dasharray:none"/><rect id="rect2264" width="45.306" height="1.837" x="258.567" y="476.864" fill="#3f3d56" style="fill:#fff"/><rect id="rect2266" width="45.306" height="1.837" x="258.567" y="482.374" fill="#3f3d56" style="fill:#fff"/><rect id="rect2268" width="45.306" height="1.837" x="258.567" y="487.884" fill="#3f3d56" style="fill:#fff"/><path id="path2270" fill="#e6e6e6" d="m 224.58745,303.37715 v 19.16772 a 57.50315,57.50315 0 0 1 40.66088,98.164 l 13.55361,13.55361 A 76.67086,76.67086 0 0 0 224.58745,303.37715 Z"/><path id="path2272" fill="#575a89" d="m 278.80194,434.26249 -13.55361,-13.55361 a 57.48875,57.48875 0 0 1 -75.4511,5.11572 l -11.60149,15.26513 a 76.66891,76.66891 0 0 0 100.6062,-6.82724 z"/><path id="path2274" fill="#0474f9" d="m 167.08431,380.048 a 57.50312,57.50312 0 0 1 57.50314,-57.50314 v -19.16771 a 76.6701,76.6701 0 0 0 -46.39171,137.71259 l 11.60152,-15.26513 A 57.403,57.403 0 0 1 167.08431,380.048 Z"/><path id="path2276" fill="#fff" d="M 622.01042,366.34135 H 404.19549 V 127.61576 h 217.81493 z" style="fill:#333"/><path id="path2278" fill="#3f3d56" d="M 622.01042,366.34135 H 404.19549 V 127.61576 h 217.81493 z m -216.07241,-1.7425 H 620.2679 V 129.35828 H 405.93801 Z" style="stroke:#5577f9;stroke-opacity:1;stroke-width:1.37952756;stroke-miterlimit:4;stroke-dasharray:none"/><rect id="rect2280" width="39.207" height="62.731" x="435.561" y="273.552" fill="#575a89"/><rect id="rect2282" width="39.207" height="105.422" x="492.193" y="230.86" fill="#e6e6e6"/><rect id="rect2284" width="39.207" height="155.084" x="548.825" y="181.198" fill="#0474f9"/><polygon id="polygon2286" fill="#3f3d56" points="462.203 210.845 462.203 391.196 636.455 391.196 636.455 392.939 460.461 392.939 460.461 210.845" transform="translate(-35.355045,-54.913155)" style="fill:#fff"/><path id="path2292" fill="#3f3d56" d="M 328.61499,188.7986 H 52.99677 a 0.86259,0.86259 0 0 1 -0.86256,-0.86255 V 55.83223 a 0.86256,0.86256 0 0 1 1.72512,0 v 131.24126 h 274.75566 a 0.86256,0.86256 0 1 1 0,1.72511 z" style="fill:#fff"/><path id="path2294" fill="#0474f9" d="M 111.88438,179.31045 H 86.81583 a 2.56337,2.56337 0 0 1 -2.56052,-2.5603 V 142.193 a 2.56337,2.56337 0 0 1 2.56052,-2.5603 h 25.06855 a 2.56337,2.56337 0 0 1 2.56051,2.5603 v 34.55712 a 2.56337,2.56337 0 0 1 -2.56051,2.56033 z"/><path id="path2296" fill="#0474f9" d="m 157.60002,179.31045 h -25.06855 a 2.56336,2.56336 0 0 1 -2.56051,-2.5603 v -67.33438 a 2.56337,2.56337 0 0 1 2.56051,-2.5603 h 25.06855 a 2.56337,2.56337 0 0 1 2.56051,2.5603 v 67.33438 a 2.56336,2.56336 0 0 1 -2.56051,2.5603 z"/><path id="path2298" fill="#0474f9" d="m 203.31566,179.31045 h -25.06854 a 2.56337,2.56337 0 0 1 -2.56051,-2.5603 V 142.193 a 2.56337,2.56337 0 0 1 2.56051,-2.5603 h 25.06855 a 2.56337,2.56337 0 0 1 2.56052,2.5603 v 34.55712 a 2.56337,2.56337 0 0 1 -2.56053,2.56033 z"/><path id="path2300" fill="#0474f9" d="m 249.03131,179.31045 h -25.06856 a 2.50734,2.50734 0 0 1 -2.56051,-2.44431 V 96.3614 a 2.50734,2.50734 0 0 1 2.56051,-2.44432 h 25.06856 a 2.50734,2.50734 0 0 1 2.56051,2.44432 v 80.50474 a 2.50734,2.50734 0 0 1 -2.56051,2.44431 z"/><path id="path2302" fill="#0474f9" d="M 294.74695,179.31045 H 269.6784 a 2.56336,2.56336 0 0 1 -2.56051,-2.5603 V 73.18828 a 2.56337,2.56337 0 0 1 2.56051,-2.5603 h 25.06855 a 2.56337,2.56337 0 0 1 2.56051,2.5603 v 103.56187 a 2.56337,2.56337 0 0 1 -2.56051,2.5603 z"/><circle id="circle2304" cx="99.35" cy="124.107" r="5.175" fill="#3f3d56" style="fill:#fff"/><circle id="circle2306" cx="145.066" cy="90.467" r="5.175" fill="#3f3d56" style="fill:#fff"/><circle id="circle2308" cx="190.781" cy="124.107" r="5.175" fill="#3f3d56" style="fill:#fff"/><circle id="circle2310" cx="236.497" cy="74.078" r="5.175" fill="#3f3d56" style="fill:#fff"/><circle id="circle2312" cx="282.213" cy="55.102" r="5.175" fill="#3f3d56"/><polygon id="polygon2314" fill="#3f3d56" points="99.867 124.797 98.833 123.416 145.066 88.787 190.672 122.947 235.993 73.352 236.175 73.278 281.89 54.858 282.535 56.459 237.001 74.805 190.89 125.266 145.066 90.943" style="fill:#fff"/></svg>