<?xml version="1.0" encoding="UTF-8" standalone="no"?>
<svg
   data-name="Layer 1"
   width="622.01044"
   height="499.4108"
   viewBox="0 0 622.01046 499.4108"
   version="1.1"
   id="svg2316"
   sodipodi:docname="Website-SEO-Audit-Services.svg"
   inkscape:version="1.1.1 (3bf5ae0d25, 2021-09-20)"
   xmlns:inkscape="http://www.inkscape.org/namespaces/inkscape"
   xmlns:sodipodi="http://sodipodi.sourceforge.net/DTD/sodipodi-0.dtd"
   xmlns="http://www.w3.org/2000/svg"
   xmlns:svg="http://www.w3.org/2000/svg">
  <defs
     id="defs2320" />
  <sodipodi:namedview
     id="namedview2318"
     pagecolor="#ffffff"
     bordercolor="#666666"
     borderopacity="1.0"
     inkscape:pageshadow="2"
     inkscape:pageopacity="0.0"
     inkscape:pagecheckerboard="0"
     showgrid="false"
     inkscape:zoom="0.5"
     inkscape:cx="214"
     inkscape:cy="175"
     inkscape:window-width="1920"
     inkscape:window-height="1001"
     inkscape:window-x="-9"
     inkscape:window-y="-9"
     inkscape:window-maximized="1"
     inkscape:current-layer="svg2316" />
  <path
     d="M 381.61176,238.72516 H 0 V 0 h 381.61176 z"
     fill="#ffffff"
     id="path2256"
     style="fill:#333333" />
  <path
     d="M 381.61176,238.72516 H 0 V 0 H 381.61176 Z M 1.74252,236.98264 H 379.86924 V 1.74252 H 1.74252 Z"
     fill="#3f3d56"
     id="path2258" />
  <path
     d="M 333.49489,499.4108 H 115.67996 V 260.68564 h 217.81493 z"
     fill="#ffffff"
     id="path2260"
     style="fill:#333333" />
  <path
     d="M 333.49489,499.4108 H 115.67996 V 260.68564 H 333.49489 Z M 117.42248,497.66828 H 331.75237 V 262.42815 H 117.42248 Z"
     fill="#3f3d56"
     id="path2262" />
  <rect
     x="258.56659"
     y="476.8638"
     width="45.305511"
     height="1.8367"
     fill="#3f3d56"
     id="rect2264"
     style="fill:#ffffff" />
  <rect
     x="258.56659"
     y="482.37387"
     width="45.305511"
     height="1.8367"
     fill="#3f3d56"
     id="rect2266"
     style="fill:#ffffff" />
  <rect
     x="258.56659"
     y="487.88406"
     width="45.305511"
     height="1.8367"
     fill="#3f3d56"
     id="rect2268"
     style="fill:#ffffff" />
  <path
     d="m 224.58745,303.37715 v 19.16772 a 57.50315,57.50315 0 0 1 40.66088,98.164 l 13.55361,13.55361 A 76.67086,76.67086 0 0 0 224.58745,303.37715 Z"
     fill="#e6e6e6"
     id="path2270" />
  <path
     d="m 278.80194,434.26249 -13.55361,-13.55361 a 57.48875,57.48875 0 0 1 -75.4511,5.11572 l -11.60149,15.26513 a 76.66891,76.66891 0 0 0 100.6062,-6.82724 z"
     fill="#575a89"
     id="path2272" />
  <path
     d="m 167.08431,380.048 a 57.50312,57.50312 0 0 1 57.50314,-57.50314 v -19.16771 a 76.6701,76.6701 0 0 0 -46.39171,137.71259 l 11.60152,-15.26513 A 57.403,57.403 0 0 1 167.08431,380.048 Z"
     fill="#0474f9"
     id="path2274" />
  <path
     d="M 622.01042,366.34135 H 404.19549 V 127.61576 h 217.81493 z"
     fill="#ffffff"
     id="path2276"
     style="fill:#333333" />
  <path
     d="M 622.01042,366.34135 H 404.19549 V 127.61576 h 217.81493 z m -216.07241,-1.7425 H 620.2679 V 129.35828 H 405.93801 Z"
     fill="#3f3d56"
     id="path2278" />
  <rect
     x="435.56085"
     y="273.55197"
     width="39.206692"
     height="62.730701"
     fill="#575a89"
     id="rect2280" />
  <rect
     x="492.19275"
     y="230.86023"
     width="39.206692"
     height="105.42243"
     fill="#e6e6e6"
     id="rect2282" />
  <rect
     x="548.82465"
     y="181.19844"
     width="39.206692"
     height="155.08423"
     fill="#0474f9"
     id="rect2284" />
  <polygon
     points="462.203,210.845 462.203,391.196 636.455,391.196 636.455,392.939 460.461,392.939 460.461,210.845 "
     fill="#3f3d56"
     id="polygon2286"
     transform="translate(-35.355045,-54.913155)"
     style="fill:#ffffff" />
  <path
     d="M 328.61499,188.7986 H 52.99677 a 0.86259,0.86259 0 0 1 -0.86256,-0.86255 V 55.83223 a 0.86256,0.86256 0 0 1 1.72512,0 v 131.24126 h 274.75566 a 0.86256,0.86256 0 1 1 0,1.72511 z"
     fill="#3f3d56"
     id="path2292"
     style="fill:#ffffff" />
  <path
     d="M 111.88438,179.31045 H 86.81583 a 2.56337,2.56337 0 0 1 -2.56052,-2.5603 V 142.193 a 2.56337,2.56337 0 0 1 2.56052,-2.5603 h 25.06855 a 2.56337,2.56337 0 0 1 2.56051,2.5603 v 34.55712 a 2.56337,2.56337 0 0 1 -2.56051,2.56033 z"
     fill="#0474f9"
     id="path2294" />
  <path
     d="m 157.60002,179.31045 h -25.06855 a 2.56336,2.56336 0 0 1 -2.56051,-2.5603 v -67.33438 a 2.56337,2.56337 0 0 1 2.56051,-2.5603 h 25.06855 a 2.56337,2.56337 0 0 1 2.56051,2.5603 v 67.33438 a 2.56336,2.56336 0 0 1 -2.56051,2.5603 z"
     fill="#0474f9"
     id="path2296" />
  <path
     d="m 203.31566,179.31045 h -25.06854 a 2.56337,2.56337 0 0 1 -2.56051,-2.5603 V 142.193 a 2.56337,2.56337 0 0 1 2.56051,-2.5603 h 25.06855 a 2.56337,2.56337 0 0 1 2.56052,2.5603 v 34.55712 a 2.56337,2.56337 0 0 1 -2.56053,2.56033 z"
     fill="#0474f9"
     id="path2298" />
  <path
     d="m 249.03131,179.31045 h -25.06856 a 2.50734,2.50734 0 0 1 -2.56051,-2.44431 V 96.3614 a 2.50734,2.50734 0 0 1 2.56051,-2.44432 h 25.06856 a 2.50734,2.50734 0 0 1 2.56051,2.44432 v 80.50474 a 2.50734,2.50734 0 0 1 -2.56051,2.44431 z"
     fill="#0474f9"
     id="path2300" />
  <path
     d="M 294.74695,179.31045 H 269.6784 a 2.56336,2.56336 0 0 1 -2.56051,-2.5603 V 73.18828 a 2.56337,2.56337 0 0 1 2.56051,-2.5603 h 25.06855 a 2.56337,2.56337 0 0 1 2.56051,2.5603 v 103.56187 a 2.56337,2.56337 0 0 1 -2.56051,2.5603 z"
     fill="#0474f9"
     id="path2302" />
  <circle
     cx="99.350098"
     cy="124.10666"
     r="5.1753602"
     fill="#3f3d56"
     id="circle2304"
     style="fill:#ffffff" />
  <circle
     cx="145.06573"
     cy="90.46685"
     r="5.1753602"
     fill="#3f3d56"
     id="circle2306"
     style="fill:#ffffff" />
  <circle
     cx="190.78139"
     cy="124.10666"
     r="5.1753602"
     fill="#3f3d56"
     id="circle2308"
     style="fill:#ffffff" />
  <circle
     cx="236.49702"
     cy="74.078217"
     r="5.1753602"
     fill="#3f3d56"
     id="circle2310"
     style="fill:#ffffff" />
  <circle
     cx="282.21268"
     cy="55.10191"
     r="5.1753602"
     fill="#3f3d56"
     id="circle2312" />
  <polygon
     points="99.867,124.797 98.833,123.416 145.066,88.787 190.672,122.947 235.993,73.352 236.175,73.278 281.89,54.858 282.535,56.459 237.001,74.805 190.89,125.266 145.066,90.943 "
     fill="#3f3d56"
     id="polygon2314"
     style="fill:#ffffff" />
</svg>
