<?xml version="1.0" encoding="UTF-8" standalone="no"?>
<svg
   data-name="Layer 1"
   width="620.50592"
   height="496.40186"
   viewBox="0 0 620.50594 496.40186"
   version="1.1"
   id="svg1014"
   sodipodi:docname="Website-SEO-Audit-Services.svg"
   inkscape:version="1.1.1 (3bf5ae0d25, 2021-09-20)"
   xmlns:inkscape="http://www.inkscape.org/namespaces/inkscape"
   xmlns:sodipodi="http://sodipodi.sourceforge.net/DTD/sodipodi-0.dtd"
   xmlns="http://www.w3.org/2000/svg"
   xmlns:svg="http://www.w3.org/2000/svg">
  <defs
     id="defs1018" />
  <sodipodi:namedview
     id="namedview1016"
     pagecolor="#ffffff"
     bordercolor="#666666"
     borderopacity="1.0"
     inkscape:pageshadow="2"
     inkscape:pageopacity="0.0"
     inkscape:pagecheckerboard="0"
     showgrid="false"
     inkscape:zoom="5.3174873"
     inkscape:cx="136.34259"
     inkscape:cy="132.86351"
     inkscape:window-width="1920"
     inkscape:window-height="1001"
     inkscape:window-x="-9"
     inkscape:window-y="-9"
     inkscape:window-maximized="1"
     inkscape:current-layer="svg1014" />
  <path
     d="M 381.61176,238.72516 H 0 V 0 h 381.61176 z"
     fill="#ffffff"
     id="path954" />
  <path
     d="M 381.61176,238.72516 H 0 V 0 H 381.61176 Z M 1.74252,236.98264 H 379.86924 V 1.74252 H 1.74252 Z"
     fill="#3f3d56"
     id="path956" />
  <path
     d="M 348.53959,496.40186 H 130.72466 V 257.6767 h 217.81493 z"
     fill="#ffffff"
     id="path958" />
  <path
     d="M 348.53959,496.40186 H 130.72466 V 257.6767 H 348.53959 Z M 132.46718,494.65934 H 346.79707 V 259.41921 H 132.46718 Z"
     fill="#3f3d56"
     id="path960" />
  <rect
     x="273.61127"
     y="473.85486"
     width="45.305511"
     height="1.8367"
     fill="#3f3d56"
     id="rect962"
     style="fill:#ffffff" />
  <rect
     x="273.61127"
     y="479.36493"
     width="45.305511"
     height="1.8367"
     fill="#3f3d56"
     id="rect964"
     style="fill:#ffffff" />
  <rect
     x="273.61127"
     y="484.87512"
     width="45.305511"
     height="1.8367"
     fill="#3f3d56"
     id="rect966"
     style="fill:#ffffff" />
  <path
     d="m 239.63215,300.36821 v 19.16772 a 57.50315,57.50315 0 0 1 40.66088,98.164 l 13.55361,13.55361 A 76.67086,76.67086 0 0 0 239.63215,300.36821 Z"
     fill="#e6e6e6"
     id="path968" />
  <path
     d="m 293.84664,431.25355 -13.55361,-13.55361 a 57.48875,57.48875 0 0 1 -75.4511,5.11572 l -11.60149,15.26513 a 76.66891,76.66891 0 0 0 100.6062,-6.82724 z"
     fill="#575a89"
     id="path970" />
  <path
     d="m 182.12901,377.03906 a 57.50312,57.50312 0 0 1 57.50314,-57.50314 V 300.36821 A 76.6701,76.6701 0 0 0 193.24044,438.0808 l 11.60152,-15.26513 a 57.403,57.403 0 0 1 -22.71295,-45.77661 z"
     fill="#0474f9"
     id="path972" />
  <path
     d="M 620.50595,428.02461 H 402.69102 V 189.29902 h 217.81493 z"
     fill="#ffffff"
     id="path974" />
  <path
     d="M 620.50595,428.02461 H 402.69102 V 189.29902 h 217.81493 z m -216.07241,-1.7425 H 618.76343 V 191.04154 H 404.43354 Z"
     fill="#3f3d56"
     id="path976" />
  <rect
     x="434.05637"
     y="335.23523"
     width="39.206692"
     height="62.730701"
     fill="#575a89"
     id="rect978" />
  <rect
     x="490.68826"
     y="292.54349"
     width="39.206692"
     height="105.42243"
     fill="#e6e6e6"
     id="rect980" />
  <rect
     x="547.32019"
     y="242.8817"
     width="39.206692"
     height="155.08423"
     fill="#0474f9"
     id="rect982" />
  <polygon
     points="462.203,210.845 462.203,391.196 636.455,391.196 636.455,392.939 460.461,392.939 460.461,210.845 "
     fill="#3f3d56"
     id="polygon984"
     transform="translate(-36.859515,6.7701149)"
     style="fill:#ffffff" />
  <path
     d="M 328.61499,188.7986 H 52.99677 a 0.86259,0.86259 0 0 1 -0.86256,-0.86255 V 55.83223 a 0.86256,0.86256 0 0 1 1.72512,0 v 131.24126 h 274.75566 a 0.86256,0.86256 0 1 1 0,1.72511 z"
     fill="#3f3d56"
     id="path990"
     style="fill:#f2f2f2" />
  <path
     d="M 111.88438,179.31045 H 86.81583 a 2.56337,2.56337 0 0 1 -2.56052,-2.5603 V 142.193 a 2.56337,2.56337 0 0 1 2.56052,-2.5603 h 25.06855 a 2.56337,2.56337 0 0 1 2.56051,2.5603 v 34.55712 a 2.56337,2.56337 0 0 1 -2.56051,2.56033 z"
     fill="#0474f9"
     id="path992" />
  <path
     d="m 157.60002,179.31045 h -25.06855 a 2.56336,2.56336 0 0 1 -2.56051,-2.5603 v -67.33438 a 2.56337,2.56337 0 0 1 2.56051,-2.5603 h 25.06855 a 2.56337,2.56337 0 0 1 2.56051,2.5603 v 67.33438 a 2.56336,2.56336 0 0 1 -2.56051,2.5603 z"
     fill="#0474f9"
     id="path994" />
  <path
     d="m 203.31566,179.31045 h -25.06854 a 2.56337,2.56337 0 0 1 -2.56051,-2.5603 V 142.193 a 2.56337,2.56337 0 0 1 2.56051,-2.5603 h 25.06855 a 2.56337,2.56337 0 0 1 2.56052,2.5603 v 34.55712 a 2.56337,2.56337 0 0 1 -2.56053,2.56033 z"
     fill="#0474f9"
     id="path996" />
  <path
     d="m 249.03131,179.31045 h -25.06856 a 2.50734,2.50734 0 0 1 -2.56051,-2.44431 V 96.3614 a 2.50734,2.50734 0 0 1 2.56051,-2.44432 h 25.06856 a 2.50734,2.50734 0 0 1 2.56051,2.44432 v 80.50474 a 2.50734,2.50734 0 0 1 -2.56051,2.44431 z"
     fill="#0474f9"
     id="path998" />
  <path
     d="M 294.74695,179.31045 H 269.6784 a 2.56336,2.56336 0 0 1 -2.56051,-2.5603 V 73.18828 a 2.56337,2.56337 0 0 1 2.56051,-2.5603 h 25.06855 a 2.56337,2.56337 0 0 1 2.56051,2.5603 v 103.56187 a 2.56337,2.56337 0 0 1 -2.56051,2.5603 z"
     fill="#0474f9"
     id="path1000" />
  <circle
     cx="99.350098"
     cy="124.10666"
     r="5.1753602"
     fill="#3f3d56"
     id="circle1002"
     style="fill:#ffffff" />
  <circle
     cx="145.06573"
     cy="90.46685"
     r="5.1753602"
     fill="#3f3d56"
     id="circle1004"
     style="fill:#ffffff" />
  <circle
     cx="190.78139"
     cy="124.10666"
     r="5.1753602"
     fill="#3f3d56"
     id="circle1006"
     style="fill:#ffffff" />
  <circle
     cx="236.49702"
     cy="74.078217"
     r="5.1753602"
     fill="#3f3d56"
     id="circle1008"
     style="fill:#ffffff" />
  <circle
     cx="282.21268"
     cy="55.10191"
     r="5.1753602"
     fill="#3f3d56"
     id="circle1010"
     style="fill:#ffffff" />
  <polygon
     points="99.867,124.797 98.833,123.416 145.066,88.787 190.672,122.947 235.993,73.352 236.175,73.278 281.89,54.858 282.535,56.459 237.001,74.805 190.89,125.266 145.066,90.943 "
     fill="#3f3d56"
     id="polygon1012"
     style="fill:#ffffff" />
</svg>
